
<svg width="135px" height="139px" viewBox="0 0 135 139" version="1.1" xmlns="http://www.w3.org/2000/svg" xmlns:xlink="http://www.w3.org/1999/xlink">
    <!-- Generator: Sketch 44.1 (41455) - http://www.bohemiancoding.com/sketch -->
    <desc>Created with Sketch.</desc>
    <defs>
        <filter x="-18.8%" y="-17.3%" width="129.2%" height="126.9%" filterUnits="objectBoundingBox" id="filter-1">
            <feOffset dx="-5" dy="-5" in="SourceAlpha" result="shadowOffsetOuter1"></feOffset>
            <feGaussianBlur stdDeviation="5" in="shadowOffsetOuter1" result="shadowBlurOuter1"></feGaussianBlur>
            <feColorMatrix values="0 0 0 0 0   0 0 0 0 0   0 0 0 0 0  0 0 0 0.1 0" type="matrix" in="shadowBlurOuter1" result="shadowMatrixOuter1"></feColorMatrix>
            <feMerge>
                <feMergeNode in="shadowMatrixOuter1"></feMergeNode>
                <feMergeNode in="SourceGraphic"></feMergeNode>
            </feMerge>
        </filter>
        <polygon id="path-2" points="0 125 0 3.285 119.405 3.285 119.405 125"></polygon>
    </defs>
    <g id="Page-1" stroke="none" stroke-width="1" fill="none" fill-rule="evenodd">
        <g id="Desktop-HD" transform="translate(-747.000000, -2765.000000)">
            <g id="100_VERS" transform="translate(752.000000, 2780.000000)">
                <g filter="url(#filter-1)" transform="translate(65.000000, 60.000000) rotate(90.000000) translate(-65.000000, -60.000000) translate(5.000000, -5.000000)">
                    <g id="Group-3" transform="translate(0.000000, 1.717000)">
                        <mask id="mask-3" fill="white">
                            <use xlink:href="#path-2"></use>
                        </mask>
                        <g id="Clip-2"></g>
                        <path d="M119.405,65.9575 C118.51,88.4775 111.4,107.0825 90.785,116.8525 C70.515,126.4675 49.295,128.6875 28.61,117.4125 C23.76,114.7675 18.78,111.0475 15.77,106.5475 C-5.675,74.4425 -8.155,44.8975 26.67,17.1525 C44.42,3.0025 63.705,-1.7625 85.235,9.6775 C108.33,21.9525 118.37,41.5425 119.405,65.9575" id="Fill-1" fill="#5BBF00" mask="url(#mask-3)"></path>
                    </g>
                    <path d="M72.934,79.96 C74.079,80.15 75.314,80.375 76.639,80.635 C77.969,80.89 79.344,81.165 80.764,81.46 C82.189,81.75 83.584,82.055 84.949,82.365 C86.314,82.675 87.614,82.97 88.844,83.26 C90.069,83.545 91.159,83.81 92.099,84.05 C92.679,84.23 93.054,84.455 93.219,84.725 C93.389,84.995 93.379,85.395 93.194,85.925 C93.014,86.46 92.824,86.96 92.639,87.425 C92.449,87.89 92.194,88.385 91.874,88.905 C91.534,89.475 91.059,89.92 90.439,90.24 C89.824,90.555 89.259,90.78 88.749,90.91 C85.914,91.54 82.804,92.12 79.429,92.645 C76.054,93.17 72.509,93.645 68.799,94.075 C68.329,94.11 67.994,94.09 67.799,94.015 C67.599,93.94 67.484,93.705 67.454,93.32 C67.424,92.935 67.439,92.575 67.489,92.25 C67.544,91.925 67.644,91.575 67.794,91.195 C68.134,90.32 68.869,89.785 70.004,89.58 C70.894,89.445 71.914,89.295 73.064,89.13 C74.214,88.965 75.454,88.785 76.794,88.585 C78.129,88.38 79.529,88.17 80.989,87.95 C82.449,87.73 83.924,87.495 85.419,87.25 C82.384,86.54 79.289,85.885 76.129,85.275 C72.964,84.665 69.954,84.08 67.089,83.515 C66.769,83.45 66.544,83.34 66.419,83.18 C66.294,83.02 66.239,82.835 66.259,82.615 C66.274,82.4 66.354,82.165 66.489,81.905 C66.629,81.645 66.789,81.385 66.969,81.125 C67.309,80.555 67.694,80.105 68.134,79.78 C68.569,79.45 69.189,79.37 69.989,79.53 C70.809,79.625 71.789,79.77 72.934,79.96 M66.259,73.38 C65.759,71.875 65.399,70.34 65.184,68.78 C65.084,68.045 65.424,67.53 66.214,67.245 C66.629,67.03 66.999,66.87 67.329,66.765 C67.659,66.66 68.019,66.55 68.419,66.425 C68.884,66.325 69.204,66.315 69.379,66.4 C69.554,66.49 69.694,66.72 69.789,67.095 C69.964,67.875 70.154,68.69 70.354,69.54 C70.559,70.39 70.784,71.28 71.039,72.21 C71.884,72.325 72.769,72.435 73.704,72.54 C74.639,72.65 75.614,72.775 76.644,72.92 C76.519,72.5 76.424,72.085 76.359,71.67 C76.294,71.26 76.229,70.83 76.174,70.385 C76.119,70.005 76.149,69.7 76.254,69.465 C76.359,69.23 76.594,69.02 76.964,68.835 C77.354,68.62 77.734,68.45 78.109,68.32 C78.479,68.19 78.864,68.065 79.264,67.94 C79.724,67.795 80.039,67.755 80.199,67.835 C80.364,67.91 80.519,68.135 80.659,68.51 C80.954,69.345 81.239,70.195 81.519,71.065 C81.804,71.93 82.099,72.77 82.414,73.58 C83.074,73.64 83.714,73.705 84.339,73.77 C84.964,73.83 85.574,73.895 86.164,73.965 C85.934,73.305 85.739,72.665 85.589,72.045 C85.439,71.425 85.304,70.76 85.179,70.05 C85.104,69.67 85.124,69.36 85.244,69.11 C85.359,68.865 85.599,68.65 85.969,68.465 C86.379,68.25 86.774,68.075 87.144,67.93 C87.519,67.79 87.899,67.645 88.294,67.5 C88.739,67.375 89.044,67.345 89.219,67.41 C89.394,67.48 89.549,67.695 89.694,68.07 C90.034,68.99 90.394,69.93 90.759,70.895 C91.129,71.86 91.474,72.78 91.789,73.655 C92.064,74.245 92.149,74.695 92.049,75.005 C91.949,75.315 91.794,75.595 91.589,75.835 C91.364,76.105 91.129,76.36 90.889,76.6 C90.649,76.845 90.339,77.13 89.959,77.455 C89.664,77.725 89.309,77.94 88.894,78.095 C88.474,78.25 87.974,78.33 87.389,78.33 L67.754,77.305 C67.259,76.195 66.759,74.885 66.259,73.38 M84.599,59.015 C85.249,58.5 85.864,57.985 86.454,57.465 C87.049,56.945 87.594,56.44 88.094,55.945 C88.599,55.455 89.019,55.03 89.349,54.665 C89.779,54.11 90.004,53.63 90.029,53.225 C90.054,52.815 89.989,52.46 89.829,52.155 C89.739,51.895 89.659,51.67 89.589,51.48 C89.519,51.295 89.314,51.09 88.984,50.87 C88.719,50.665 88.474,50.56 88.249,50.555 C88.024,50.55 87.729,50.72 87.374,51.065 C86.954,51.48 86.479,51.925 85.939,52.395 C85.399,52.865 84.834,53.345 84.244,53.83 C83.649,54.315 83.054,54.785 82.459,55.24 C81.864,55.695 81.309,56.11 80.799,56.485 C79.664,55 78.479,53.75 77.239,52.74 C75.994,51.735 74.684,51.07 73.309,50.75 C72.454,50.525 71.424,50.58 70.209,50.925 C69.084,51.265 68.149,51.67 67.394,52.145 C66.644,52.62 65.959,53.12 65.349,53.645 C64.654,54.285 64.254,55 64.144,55.785 C64.039,56.57 64.119,57.385 64.389,58.22 C64.659,59.055 65.059,59.895 65.584,60.745 C66.114,61.595 66.659,62.405 67.214,63.175 C67.389,63.385 67.939,63.57 68.864,63.735 C69.794,63.9 70.924,64.04 72.264,64.16 C73.604,64.28 75.064,64.375 76.634,64.445 C78.209,64.51 79.734,64.565 81.214,64.61 C82.699,64.65 84.049,64.685 85.269,64.71 C86.489,64.74 87.414,64.765 88.049,64.78 C88.634,64.78 89.099,64.72 89.439,64.605 C89.779,64.485 90.059,64.285 90.284,63.995 C90.489,63.71 90.624,63.405 90.689,63.085 C90.754,62.765 90.849,62.405 90.974,62.015 C91.059,61.645 91.039,61.4 90.919,61.275 C90.794,61.15 90.549,61.065 90.189,61.025 C88.964,60.94 87.734,60.855 86.494,60.76 C85.259,60.665 83.984,60.555 82.664,60.435 C83.304,60 83.954,59.525 84.599,59.015 M69.684,57.6 C69.514,57.14 69.414,56.72 69.384,56.335 C69.319,55.55 69.539,55.05 70.044,54.83 C70.349,54.715 70.804,54.74 71.404,54.91 C72.004,55.075 72.644,55.375 73.334,55.805 C74.024,56.235 74.719,56.795 75.429,57.485 C76.139,58.175 76.754,58.97 77.274,59.875 C75.974,59.71 74.764,59.56 73.634,59.435 C72.509,59.31 71.469,59.175 70.509,59.02 C70.129,58.535 69.859,58.06 69.684,57.6 M83.819,50.195 C84.224,50.16 84.814,49.8 85.594,49.105 C87.189,47.83 88.284,46.6 88.889,45.415 C89.499,44.225 89.729,43.03 89.589,41.82 C89.499,40.93 89.269,40.175 88.904,39.56 C88.539,38.945 88.104,38.445 87.604,38.055 C87.099,37.665 86.564,37.365 86.009,37.15 C85.449,36.935 84.929,36.775 84.449,36.68 C83.459,36.44 82.594,36.525 81.844,36.935 C81.099,37.34 80.399,37.905 79.744,38.62 C79.094,39.34 78.444,40.135 77.804,41.01 C77.159,41.88 76.449,42.665 75.669,43.36 C75.079,43.88 74.384,44.16 73.589,44.2 C72.789,44.24 71.999,44.155 71.214,43.945 C70.434,43.735 69.714,43.445 69.064,43.065 C68.414,42.69 67.954,42.34 67.679,42.025 C67.414,41.795 67.299,41.625 67.339,41.51 C67.374,41.395 67.509,41.315 67.739,41.275 C67.974,41.235 68.284,41.22 68.669,41.235 C69.054,41.25 69.464,41.275 69.909,41.305 C70.349,41.34 70.789,41.375 71.219,41.405 C71.649,41.44 72.034,41.455 72.374,41.45 C74.019,41.455 75.239,40.46 76.029,38.455 C76.204,38.085 76.224,37.815 76.099,37.655 C75.974,37.495 75.714,37.355 75.324,37.225 C74.884,37.125 74.364,37.04 73.764,36.96 C73.159,36.885 72.534,36.82 71.884,36.77 C71.239,36.72 70.604,36.68 69.984,36.65 C69.359,36.62 68.799,36.615 68.304,36.63 C67.749,36.695 67.134,36.805 66.469,36.96 C65.804,37.115 65.169,37.495 64.564,38.11 C64.104,38.575 63.694,39.125 63.324,39.76 C62.959,40.4 62.664,41.02 62.439,41.625 C62.314,42.02 62.254,42.395 62.259,42.755 C62.264,43.115 62.314,43.45 62.404,43.76 C62.499,44.07 62.624,44.34 62.789,44.575 C62.954,44.81 63.124,45 63.294,45.145 C63.709,45.585 64.229,46.025 64.849,46.46 C65.469,46.895 66.134,47.29 66.839,47.64 C67.544,47.99 68.259,48.29 68.989,48.535 C69.719,48.785 70.424,48.945 71.109,49.03 C72.689,49.31 74.119,49.23 75.404,48.79 C76.689,48.355 77.749,47.715 78.584,46.885 C79.194,46.295 79.784,45.63 80.359,44.885 C80.929,44.14 81.474,43.455 81.989,42.825 C82.504,42.2 82.969,41.72 83.379,41.38 C83.794,41.045 84.134,40.99 84.399,41.215 C84.924,41.58 85.059,42.235 84.809,43.18 C84.554,44.125 83.904,45.245 82.859,46.55 C82.489,47.005 82.299,47.545 82.289,48.165 C82.284,48.785 82.469,49.34 82.844,49.83 C83.094,50.105 83.419,50.225 83.819,50.195" id="Fill-4" fill="#FEFEFE"></path>
                    <path d="M36.5865,89.9765 C36.3465,90.0865 36.0865,90.3315 35.7965,90.7165 C35.4715,91.1265 35.2065,91.5265 35.0165,91.9265 C34.8215,92.3265 34.6715,92.7215 34.5665,93.1115 C34.4415,93.5265 34.4315,93.8265 34.5365,94.0115 C34.6415,94.1965 34.9165,94.3915 35.3615,94.6065 C35.8515,94.8365 36.4315,95.0865 37.0965,95.3515 C37.7565,95.6115 38.4115,95.8315 39.0565,96.0065 C39.6115,96.1665 40.0015,96.1665 40.2265,96.0015 C40.4465,95.8365 40.7315,95.4715 41.0665,94.9015 C42.3615,95.0265 43.7865,95.1415 45.3415,95.2415 C46.8965,95.3465 48.4215,95.4365 49.9315,95.5065 C51.4365,95.5815 52.8415,95.6265 54.1515,95.6465 C55.4615,95.6665 56.5215,95.6715 57.3315,95.6515 C57.9215,95.6515 58.3765,95.5915 58.7065,95.4765 C59.0365,95.3615 59.3115,95.1565 59.5365,94.8715 C59.7815,94.4915 59.9465,94.1215 60.0415,93.7615 C60.1415,93.4065 60.2415,93.0415 60.3465,92.6765 C60.4715,92.2815 60.4765,92.0215 60.3515,91.8965 C60.2315,91.7715 59.9765,91.6865 59.5915,91.6515 C58.6165,91.6165 57.5165,91.5615 56.2965,91.4865 C55.0715,91.4165 53.7965,91.3365 52.4715,91.2465 C51.1415,91.1615 49.7865,91.0615 48.4065,90.9565 C47.0215,90.8515 45.6815,90.7465 44.3865,90.6315 C43.0915,90.5215 41.8665,90.4015 40.7065,90.2765 C39.5465,90.1565 38.5315,90.0365 37.6665,89.9265 C37.1865,89.8515 36.8265,89.8665 36.5865,89.9765 M34.0065,78.8815 C33.7565,79.5765 33.5815,80.3015 33.4815,81.0515 C33.4115,81.5965 33.5065,82.1765 33.7715,82.7865 C34.0315,83.4015 34.4165,83.9215 34.9265,84.3565 C36.1565,85.3415 37.6665,86.1215 39.4565,86.6865 C41.2515,87.2565 43.1115,87.6315 45.0415,87.8065 C46.9765,87.9815 48.8865,87.9665 50.7765,87.7615 C52.6665,87.5565 54.3215,87.1915 55.7465,86.6765 C56.3565,86.4015 56.8965,86.0565 57.3565,85.6365 C57.8215,85.2165 58.1715,84.8265 58.4165,84.4715 C58.7565,83.9215 59.0065,83.3515 59.1615,82.7515 C59.3165,82.1565 59.4065,81.5815 59.4315,81.0415 C59.4765,80.1815 59.3715,79.4315 59.1215,78.7965 C58.8665,78.1615 58.3365,77.5865 57.5265,77.0615 C56.3665,76.3215 54.9765,75.7415 53.3665,75.3265 C51.7565,74.9115 50.0865,74.6365 48.3615,74.5015 C46.6365,74.3665 44.9265,74.3565 43.2315,74.4665 C41.5365,74.5765 40.0165,74.7865 38.6615,75.0965 C37.9315,75.2665 37.2715,75.5065 36.6715,75.8115 C36.0765,76.1165 35.5165,76.5515 34.9965,77.1115 C34.5865,77.5915 34.2565,78.1815 34.0065,78.8815 M39.0615,79.2915 C39.7015,79.1315 40.4965,79.0115 41.4365,78.9365 C42.3765,78.8615 43.3715,78.8315 44.4215,78.8365 C45.4715,78.8465 46.4715,78.8915 47.4265,78.9715 C48.6315,79.0615 49.7265,79.2065 50.7265,79.4065 C51.7215,79.6115 52.5815,79.8465 53.3015,80.1165 C54.0215,80.3865 54.5615,80.6865 54.9115,81.0065 C55.2665,81.3265 55.3865,81.6415 55.2715,81.9415 C55.1415,82.2665 54.7765,82.5465 54.1715,82.7715 C53.5715,83.0015 52.8315,83.1665 51.9615,83.2665 C51.0865,83.3715 50.1365,83.4165 49.0965,83.4115 C48.0565,83.4015 47.0265,83.3365 46.0015,83.2115 C44.9765,83.0915 43.9665,82.9065 42.9615,82.6565 C41.9615,82.4115 41.0765,82.1365 40.3115,81.8365 C39.5415,81.5365 38.9365,81.2215 38.4915,80.8965 C38.0515,80.5665 37.8765,80.2565 37.9615,79.9565 C38.0565,79.6765 38.4215,79.4565 39.0615,79.2915 M32.7965,63.5115 C32.5465,64.2115 32.3715,64.9315 32.2715,65.6865 C32.2015,66.2315 32.3015,66.8115 32.5615,67.4215 C32.8265,68.0315 33.2065,68.5565 33.7165,68.9915 C34.9465,69.9765 36.4565,70.7515 38.2465,71.3215 C40.0415,71.8915 41.9015,72.2665 43.8315,72.4415 C45.7665,72.6115 47.6765,72.5965 49.5665,72.3965 C51.4565,72.1865 53.1115,71.8265 54.5365,71.3115 C55.1465,71.0365 55.6865,70.6915 56.1465,70.2665 C56.6115,69.8515 56.9615,69.4615 57.2065,69.1015 C57.5465,68.5565 57.7965,67.9865 57.9515,67.3865 C58.1065,66.7865 58.1965,66.2165 58.2215,65.6715 C58.2665,64.8115 58.1615,64.0665 57.9115,63.4315 C57.6565,62.7965 57.1265,62.2165 56.3165,61.6965 C55.1565,60.9515 53.7665,60.3715 52.1565,59.9615 C50.5465,59.5465 48.8765,59.2715 47.1515,59.1365 C45.4265,59.0015 43.7165,58.9865 42.0215,59.1015 C40.3265,59.2115 38.8065,59.4215 37.4565,59.7315 C36.7215,59.9015 36.0615,60.1365 35.4615,60.4465 C34.8665,60.7515 34.3115,61.1815 33.7915,61.7415 C33.3765,62.2265 33.0465,62.8165 32.7965,63.5115 M37.8515,63.9265 C38.4915,63.7665 39.2865,63.6465 40.2265,63.5715 C41.1665,63.4965 42.1615,63.4665 43.2115,63.4715 C44.2615,63.4815 45.2615,63.5265 46.2165,63.6065 C47.4215,63.6915 48.5215,63.8365 49.5165,64.0415 C50.5115,64.2465 51.3715,64.4815 52.0915,64.7515 C52.8115,65.0215 53.3515,65.3165 53.7015,65.6415 C54.0565,65.9615 54.1765,66.2765 54.0615,66.5765 C53.9315,66.9015 53.5665,67.1815 52.9615,67.4065 C52.3615,67.6365 51.6215,67.8015 50.7515,67.9015 C49.8815,68.0065 48.9265,68.0515 47.8865,68.0415 C46.8465,68.0365 45.8165,67.9715 44.7915,67.8465 C43.7665,67.7265 42.7565,67.5415 41.7515,67.2915 C40.7515,67.0415 39.8665,66.7665 39.1015,66.4665 C38.3315,66.1665 37.7265,65.8565 37.2865,65.5265 C36.8415,65.2015 36.6665,64.8915 36.7515,64.5865 C36.8465,64.3115 37.2115,64.0915 37.8515,63.9265 M38.1365,43.4365 C39.2615,44.0015 40.4765,44.5965 41.7765,45.2115 C43.0765,45.8315 44.4215,46.4665 45.8165,47.1115 C47.2115,47.7565 48.5665,48.3765 49.8865,48.9715 C51.2065,49.5665 52.4365,50.1115 53.5665,50.5965 C54.7015,51.0815 55.6615,51.4715 56.4515,51.7715 C56.7565,51.9315 56.8965,52.0765 56.8765,52.2115 C56.8515,52.3515 56.7365,52.5515 56.5315,52.8165 C56.0715,53.2565 55.5665,53.5615 55.0165,53.7315 C54.4665,53.8965 53.7365,53.8265 52.8315,53.5115 C51.9515,53.1765 50.8415,52.7265 49.5115,52.1665 C48.1815,51.6065 46.7515,50.9915 45.2215,50.3215 C43.6915,49.6515 42.1415,48.9515 40.5765,48.2165 C39.0065,47.4865 37.5315,46.7765 36.1465,46.0965 C36.5915,46.6015 36.8765,47.1565 37.0015,47.7565 C37.1265,48.3515 37.0915,48.9415 36.8865,49.5215 C37.4915,49.4765 38.1165,49.4615 38.7615,49.4765 C39.4065,49.4915 40.0315,49.5515 40.6365,49.6515 C41.2415,49.7515 41.8115,49.8965 42.3465,50.0915 C42.8815,50.2865 43.3415,50.5365 43.7265,50.8465 C44.4265,51.4215 44.7315,52.1515 44.6415,53.0415 C44.5765,53.3365 44.4865,53.6565 44.3765,53.9915 C44.2715,54.3265 44.1115,54.6265 43.9065,54.8915 C43.7465,55.1065 43.5115,55.3215 43.2165,55.5365 C42.9165,55.7515 42.6165,55.9515 42.3115,56.1315 C41.6165,56.4565 40.8065,56.6715 39.8765,56.7665 C38.9465,56.8615 38.0115,56.8415 37.0665,56.7165 C36.1165,56.5865 35.2115,56.3665 34.3415,56.0515 C33.4665,55.7365 32.7415,55.3315 32.1615,54.8365 C31.9215,54.6065 31.7415,54.3265 31.6215,53.9965 C31.5065,53.6665 31.4715,53.3765 31.5215,53.1265 C31.7015,52.2765 32.0315,51.5965 32.5115,51.0865 C32.8265,50.8115 33.2665,50.5065 33.8265,50.1715 C34.5565,49.7065 34.9265,49.0815 34.9315,48.2915 C34.9515,47.9715 34.8865,47.6165 34.7465,47.2215 C34.6015,46.8265 34.3815,46.4215 34.0915,46.0065 C33.7965,45.5865 33.4415,45.1815 33.0115,44.7865 C32.5865,44.3915 32.0915,44.0365 31.5265,43.7215 C30.9115,43.3865 30.9265,42.9865 31.5665,42.5315 C32.1215,42.1065 32.7115,41.8215 33.3415,41.6815 C33.9765,41.5415 34.6315,41.6465 35.3165,42.0015 C36.0665,42.3915 37.0065,42.8715 38.1365,43.4365 M47.3765,39.6315 C47.7565,39.5765 48.1565,39.5365 48.5815,39.5015 C49.1865,39.4515 49.8065,39.4465 50.4415,39.4715 C51.0765,39.5015 51.6915,39.5765 52.2865,39.7015 C52.8815,39.8215 53.4415,39.9865 53.9665,40.1915 C54.4915,40.4015 54.9465,40.6565 55.3315,40.9665 C56.0315,41.5665 56.3115,42.2865 56.1765,43.1315 C56.1365,43.4515 56.0665,43.7715 55.9665,44.0965 C55.8665,44.4215 55.7165,44.7165 55.5115,44.9765 C55.1415,45.4565 54.6115,45.8515 53.9115,46.1515 C53.2115,46.4565 52.4015,46.6515 51.4715,46.7365 C50.5415,46.8165 49.6015,46.7965 48.6565,46.6665 C47.7115,46.5415 46.8015,46.3115 45.9315,45.9865 C45.0565,45.6615 44.3315,45.2365 43.7515,44.7215 C43.5065,44.4915 43.3265,44.2065 43.2115,43.8665 C43.0915,43.5265 43.0565,43.2165 43.1015,42.9415 C43.1865,42.5765 43.3215,42.2115 43.5065,41.8465 C43.6915,41.4815 43.8915,41.1915 44.0965,40.9715 C44.3915,40.6565 44.7265,40.4015 45.1065,40.2165 C45.4865,40.0265 45.8715,39.8965 46.2715,39.8165 C46.6315,39.7465 46.9965,39.6815 47.3765,39.6315 M34.2465,52.9615 C34.4615,53.1115 34.7515,53.2615 35.1115,53.4015 C35.4715,53.5415 35.8815,53.6715 36.3465,53.7965 C36.8065,53.9165 37.2515,54.0065 37.6865,54.0615 C38.9115,54.1915 39.9565,54.2165 40.8215,54.1365 C41.6815,54.0565 42.1715,53.8665 42.2815,53.5665 C42.4165,53.2615 42.1665,52.9765 41.5365,52.7115 C40.9065,52.4415 39.9465,52.2465 38.6465,52.1265 C38.1065,52.1015 37.5765,52.0815 37.0515,52.0665 C36.5365,52.0465 36.0615,52.0565 35.6365,52.0915 C35.2115,52.1265 34.8465,52.1765 34.5465,52.2465 C34.2465,52.3115 34.0715,52.4165 34.0115,52.5565 C33.9565,52.6765 34.0315,52.8115 34.2465,52.9615 M45.8215,42.8665 C46.0265,43.0315 46.3115,43.1865 46.6865,43.3365 C47.0615,43.4915 47.4765,43.6265 47.9365,43.7465 C48.3965,43.8715 48.8465,43.9565 49.2765,44.0115 C50.4665,44.2115 51.5215,44.2765 52.4365,44.2065 C53.2915,44.1365 53.7815,43.9515 53.9165,43.6465 C54.0515,43.3665 53.7965,43.0815 53.1415,42.7965 C52.4865,42.5115 51.5315,42.2915 50.2815,42.1415 C49.8015,42.0665 49.2965,42.0215 48.7615,42.0065 C48.2315,41.9915 47.7415,41.9965 47.2915,42.0215 C46.8465,42.0465 46.4665,42.0915 46.1515,42.1615 C45.8415,42.2315 45.6615,42.3265 45.6015,42.4415 C45.5415,42.5615 45.6165,42.7015 45.8215,42.8665" id="Fill-6" fill="#FEFEFE"></path>
                </g>
            </g>
        </g>
    </g>
</svg>
