
<svg width="193px" height="189px" viewBox="0 0 193 189" version="1.1" xmlns="http://www.w3.org/2000/svg" xmlns:xlink="http://www.w3.org/1999/xlink">
    <!-- Generator: Sketch 44.1 (41455) - http://www.bohemiancoding.com/sketch -->
    <desc>Created with Sketch.</desc>
    <defs></defs>
    <g id="Page-1" stroke="none" stroke-width="1" fill="none" fill-rule="evenodd">
        <g id="Desktop-HD" transform="translate(-1139.000000, -2015.000000)">
            <g id="VERSE-BOEKEN" transform="translate(1139.000000, 2014.000000)">
                <g id="Page-1">
                    <g id="Group-3" transform="translate(0.000000, 0.699362)" fill="#FFFFFF">
                        <path d="M103.200339,188.284206 C67.758521,190.587113 37.4359266,182.520872 18.7203252,151.874277 C0.321891608,121.734348 -6.6585,88.9007305 7.60865385,54.6724326 C10.9530874,46.6547021 15.9562413,38.247539 22.5168916,32.8062624 C69.2957727,-6.03324113 115.197381,-14.7772837 164.412381,35.1522908 C189.510479,60.6069007 200.152472,89.9922199 185.769248,125.55995 C170.344094,163.71222 141.29692,182.648887 103.200339,188.284206" id="Fill-1"></path>
                    </g>
                    <path d="M64.4663189,79.3050567 C64.4906126,76.8269716 64.5621441,74.8164752 64.6863119,73.2870426 C64.8118294,71.7522199 65.0736615,70.472078 65.473158,69.4317943 C65.8726545,68.3955532 66.438158,67.8430709 67.1656196,67.7689574 C67.4220531,67.7420071 67.762165,67.8430709 68.179207,68.0654113 C68.5895007,68.2985319 68.9957455,68.5208723 69.3830951,68.7445603 C69.7758434,68.954773 70.1996336,69.2350567 70.6463678,69.5678936 C71.0985007,69.8953404 71.325242,70.1338511 71.3427874,70.2766879 C71.3967734,70.8170426 71.3009483,72.3491702 71.0512629,74.8932837 L70.7948294,77.2285319 L70.5923818,79.024773 L70.5154517,79.9532128 L70.4790112,80.310305 L70.3953329,80.8843475 L70.360242,81.2144894 L70.217179,82.5471844 L69.8122839,86.1747021 L69.6624727,88.0720071 L69.5558503,89.1486738 C69.5072629,89.5798794 69.4667734,89.9342766 69.4249343,90.2078227 C69.3763469,90.4908014 69.3169622,90.8209433 69.2278853,91.2278936 C69.1388084,91.6294539 68.924214,91.9865461 68.596249,92.3234255 C68.2628853,92.6535674 67.7918573,92.853 67.1777664,92.9176809 C64.454172,93.2033546 62.2677385,92.3854113 60.6049692,90.461156 C58.9475986,88.5355532 57.7504587,86.1410142 57.0175986,83.2586738 C56.2901371,80.3695957 55.742179,77.2015816 55.3791231,73.7627163 C55.2765497,72.7749858 56.2307524,72.1807305 58.251179,71.9691702 C59.2580182,71.8654113 60.0381161,71.8586738 60.598221,71.9570426 C61.1529273,72.0486738 61.5402769,72.221156 61.7548713,72.4744894 C61.9694657,72.7210851 62.1476196,73.1563333 62.2852839,73.7842766 L62.6847804,75.5535674 L64.4123329,83.8596667 L64.4663189,79.3050567 Z" id="Fill-4" fill="#447300"></path>
                    <path d="M83.1902881,78.3709574 C83.6667147,78.1863475 83.947442,78.031383 84.0189734,77.9154965 C84.0837566,77.7996099 84.0959035,77.5233688 84.0486657,77.0827305 L84.0000783,76.6191844 L83.9595888,76.1960638 C83.8880573,75.5654255 83.8273231,75.1342199 83.7679385,74.9051418 C83.7085538,74.6760638 83.5776378,74.2920213 83.3630434,73.7570567 C83.148449,73.2180496 82.9095608,72.9687589 82.6247846,72.9984043 C82.4155888,73.018617 82.237435,73.3757092 82.094372,74.0696809 C81.9567077,74.7569149 81.8554839,75.3632979 81.789351,75.8928723 C81.7299664,76.4197518 81.6759804,76.8509574 81.6462881,77.1905319 L81.4316937,78.8803191 C81.8311902,78.8385461 82.1537566,78.7671277 82.403442,78.6687589 L83.1902881,78.3709574 Z M83.5061063,82.3906028 C82.7192601,82.5927305 82.2131413,82.7800355 81.9810014,82.9430851 C81.7475119,83.1034397 81.6530364,83.3810284 81.6948755,83.7556383 C81.7718056,84.4819504 81.932414,85.0115248 82.1767007,85.3349291 C82.4277357,85.667766 82.8083371,85.8079078 83.3279524,85.7553546 C83.6545678,85.7216667 83.9595888,85.5667021 84.2457147,85.2998936 L85.3591762,84.1154255 C85.568372,83.8364894 85.7289804,83.6397518 85.8302042,83.5319504 C85.9368266,83.4281915 86.1284769,83.2408865 86.3957077,82.9794681 C86.6642881,82.708617 86.9261203,82.5630851 87.1893021,82.5361348 C88.0058406,82.4498936 88.7319524,82.5361348 89.3703371,82.7948582 C90.0019734,83.0441489 90.3474839,83.4726596 90.4122671,84.0857801 C90.4662531,84.5978369 90.2219664,85.4090426 89.6861552,86.5193972 C89.1489944,87.6284043 88.4107357,88.6498227 87.4632811,89.5620922 C86.5158266,90.4784043 85.4185608,91.0025887 84.1795818,91.1332979 C83.5182531,91.2020213 82.9514,91.2141489 82.4749734,91.1696809 C81.9931483,91.1211702 81.3669105,90.9581206 80.5854629,90.6697518 C79.8107636,90.3894681 79.0360643,89.8518085 78.2681133,89.0715957 C77.4988126,88.2859929 76.8793231,87.3346454 76.4028965,86.2094681 C75.9264699,85.0883333 75.6160503,83.8324468 75.4729874,82.4525887 C75.258393,80.4110993 75.2826867,78.2429433 75.5499175,75.9400355 C75.8184979,73.6438652 76.2895259,71.6899645 76.9630014,70.0971986 C77.6364769,68.497695 78.4408685,67.6487589 79.3829245,67.5517376 C82.0336378,67.2714539 84.1080503,67.6191135 85.6156098,68.5987589 C87.1177706,69.5797518 88.1718476,70.9245745 88.7737916,72.6170567 C89.3824839,74.3216667 89.8224699,76.4763475 90.096449,79.0703191 C90.150435,79.5635106 90.150435,79.9152128 90.096449,80.1173404 C90.0492112,80.3289007 89.8886028,80.5135106 89.6267706,80.6859929 L88.6374769,81.0727305 L85.6520503,81.8489007 L83.5061063,82.3906028 Z" id="Fill-6" fill="#447300"></path>
                    <path d="M99.4888007,75.1906809 C99.5063462,75.4440142 99.518493,75.6394043 99.5360385,75.8064965 L100.352577,82.5063546 L100.382269,82.7920284 L100.424108,83.1720284 L100.507787,83.9818865 L100.53208,84.2257872 L100.57392,84.6125248 L100.638703,85.2431631 L100.656248,85.4210355 L100.685941,85.6716738 L100.72778,86.0584113 L100.811458,86.8615319 C100.860045,87.3372057 100.88299,87.6848652 100.88299,87.9233759 C100.88299,88.157844 100.853297,88.4206099 100.788514,88.694156 C100.72778,88.9757872 100.537479,89.1873475 100.228409,89.3423121 C99.8882972,89.448766 99.3281923,89.5444397 98.5413462,89.6252908 C97.3131643,89.756 96.3657098,89.6549362 95.7111294,89.3328794 C95.0430524,89.0175603 94.5666259,88.4920284 94.2805,87.7630213 C93.9943741,87.0313191 93.7851783,86.0934468 93.6664091,84.9453617 L93.5179476,83.5116028 L93.3262972,81.6789787 L92.9699895,76.9572766 L92.3383531,72.2962128 L91.9860944,69.9582695 C91.9442552,69.5823121 92.2249825,69.2413901 92.8201783,68.9260709 C93.4099755,68.6161418 93.8877517,68.4463546 94.2386608,68.4113191 C94.477549,68.3843688 94.8230594,68.4315319 95.2873392,68.5595461 C95.7462203,68.6902553 96.0917308,68.744156 96.3009266,68.7225957 C96.3535629,68.5743688 96.4142972,68.4288369 96.4669336,68.2954326 C96.5276678,68.1633759 96.6045979,67.908695 96.7112203,67.5421702 C96.8124441,67.1702553 96.9798007,66.7444397 97.2119406,66.2445106 C97.4562273,65.8469929 97.7963392,65.6179149 98.2498217,65.5694043 C99.6318636,65.4265674 100.668395,65.4858582 101.359416,65.7364965 C102.093626,65.9750071 102.664528,66.4628085 103.064024,67.2120284 C103.458122,67.9639433 103.732101,69.0082695 103.875164,70.3477021 C103.981787,71.4001135 104.035773,72.2665674 104.023626,72.9538014 C104.011479,73.6464255 103.863017,74.215078 103.576892,74.673234 C103.296164,75.128695 102.826486,75.3901135 102.170556,75.4588369 L101.889829,75.4884823 L101.07329,75.5356454 C100.907283,75.5531631 100.776367,75.5208227 100.675143,75.4345816 C100.567171,75.3604681 100.41871,75.1852908 100.221661,74.9171348 L100.061052,74.6880567 L99.9301364,74.483234 L99.518493,73.9267092 C99.4888007,74.5182695 99.4766538,74.9413901 99.4888007,75.1906809" id="Fill-8" fill="#447300"></path>
                    <path d="M108.201199,83.318234 C108.243038,83.2171702 108.361807,83.0446879 108.564255,82.7832695 L109.595387,81.4653972 C109.923352,81.0517092 110.173038,80.8374539 110.340394,80.8226312 L110.930192,81.0422766 L111.526737,81.3333404 L111.973471,81.5745461 L112.497136,81.8696525 L113.957457,82.5717092 C114.1788,82.6902908 114.351555,82.7414965 114.470324,82.7293688 C114.67952,82.7051135 114.857674,82.589227 115.012884,82.3749716 C115.168094,82.1553262 115.232877,81.9141206 115.203185,81.6580922 C115.1438,81.0988723 114.726758,80.6312837 113.952059,80.2661064 L111.371527,79.0398652 C110.448366,78.6207872 109.62508,77.9551135 108.904366,77.0617092 C108.176905,76.1696525 107.730171,74.8989433 107.557415,73.2630567 C107.438646,72.1149716 107.587108,70.8051844 107.998751,69.3417801 C108.415793,67.8783759 109.029884,66.6117092 109.839674,65.5458227 C110.656213,64.4812837 111.532136,63.8951135 112.467443,63.7967447 C114.041136,63.6296525 115.340849,63.7158936 116.37738,64.052773 C117.408513,64.4031277 118.218303,64.924617 118.802702,65.6536241 C119.387101,66.3731986 119.858129,67.280078 120.209038,68.378305 C120.334555,68.8661064 120.447926,69.4078085 120.561297,70.0141915 C120.667919,70.6178794 120.763744,71.3051135 120.846073,72.0853262 C120.912206,72.6674539 120.650373,73.1175248 120.065975,73.4180213 C119.481576,73.7333404 118.802702,73.930078 118.028003,74.0095816 C117.349129,74.081 116.806569,73.9233404 116.412471,73.5433404 C116.019723,73.1566028 115.686359,72.602773 115.417779,71.8643333 L114.815835,70.1893688 C114.697066,69.752773 114.541856,69.5439078 114.356954,69.5654681 C114.238185,69.5775957 114.046534,69.8807872 113.779303,70.4817801 C113.557961,71.1178085 113.475632,71.6271702 113.510723,71.9963901 C113.582255,72.6795816 113.784702,73.1256099 114.118066,73.3546879 C114.446031,73.5810709 114.852276,73.8222766 115.311157,74.0607872 C115.775436,74.312773 116.597373,74.7385887 117.771569,75.3301489 C118.951164,75.9284468 119.947206,76.6722766 120.751597,77.5616383 C121.555989,78.448305 122.032415,79.5694397 122.175478,80.9263901 C122.264555,81.795539 121.990576,82.7441915 121.353541,83.7669574 C120.709758,84.7910709 119.935059,85.6925603 119.017297,86.4660355 C118.099534,87.2368156 117.390968,87.649156 116.871352,87.7030567 C115.536548,87.8431986 114.201744,87.7178794 112.884485,87.3338369 C111.561828,86.9538369 110.453765,86.4094397 109.54815,85.7154681 C108.642534,85.0174539 108.153961,84.3356099 108.082429,83.6510709 C108.124269,83.5270993 108.159359,83.4139078 108.201199,83.318234" id="Fill-10" fill="#447300"></path>
                    <path d="M132.354001,73.2123901 C132.837176,73.0277801 133.111155,72.8728156 133.182687,72.7569291 C133.24747,72.6410426 133.259617,72.3648014 133.217778,71.9241631 L133.163792,71.460617 L133.123302,71.0374965 C133.057169,70.4068582 132.991036,69.9729574 132.931652,69.7465745 C132.872267,69.5174965 132.741351,69.1334539 132.526757,68.5984894 C132.312162,68.0594823 132.073274,67.8101915 131.788498,67.8398369 C131.579302,67.8600496 131.401148,68.2171418 131.263484,68.9111135 C131.120421,69.5983475 131.019197,70.2047305 130.953064,70.734305 C130.89368,71.2584894 130.839694,71.6923901 130.810001,72.0319645 L130.595407,73.7217518 C130.994903,73.6799787 131.31747,73.6085603 131.567155,73.5101915 L132.354001,73.2123901 Z M132.66982,77.2320355 C131.882973,77.4341631 131.376855,77.6214681 131.150113,77.7845177 C130.911225,77.9448723 130.81675,78.222461 130.858589,78.5970709 C130.935519,79.323383 131.096127,79.8529574 131.347162,80.1736667 C131.591449,80.5091986 131.978799,80.6493404 132.491666,80.5967872 C132.818281,80.5604043 133.123302,80.4081348 133.409428,80.1386312 L134.52289,78.9568582 C134.732085,78.677922 134.892694,78.4811844 134.999316,78.3706879 C135.10054,78.2696241 135.29219,78.0823191 135.559421,77.8209007 C135.828001,77.5500496 136.089834,77.4045177 136.353015,77.3748723 C137.169554,77.2913262 137.895666,77.3748723 138.53405,77.6335957 C139.165687,77.8855816 139.511197,78.3140922 139.57598,78.9272128 C139.629966,79.4392695 139.38568,80.2504752 138.849869,81.3608298 C138.312708,82.4698369 137.574449,83.4912553 136.626994,84.4035248 C135.67954,85.3198369 134.582274,85.8440213 133.343295,85.9747305 C132.681966,86.0434539 132.115113,86.0555816 131.638687,86.0111135 C131.156862,85.9626028 130.530624,85.7995532 129.755924,85.5071418 C128.974477,85.2309007 128.199778,84.6932411 127.431827,83.9130284 C126.662526,83.1274255 126.043036,82.176078 125.56661,81.0509007 C125.090183,79.929766 124.779764,78.6738794 124.636701,77.2940213 C124.422106,75.2525319 124.4464,73.0843759 124.713631,70.7814681 C124.982211,68.4852979 125.453239,66.5313972 126.126715,64.9386312 C126.80019,63.3391277 127.604582,62.4901915 128.546638,62.3931702 C131.197351,62.1128865 133.271764,62.4605461 134.779323,63.4401915 C136.281484,64.4184894 137.335561,65.7660071 137.937505,67.4584894 C138.546197,69.1630993 138.986183,71.3177801 139.260162,73.9117518 C139.314148,74.4049433 139.314148,74.7566454 139.260162,74.958773 C139.212924,75.1662908 139.057715,75.3549433 138.790484,75.5274255 L137.80119,75.9141631 L134.821162,76.6876383 L132.66982,77.2320355 Z" id="Fill-12" fill="#447300"></path>
                    <path d="M59.7823573,117.94917 C59.4908329,119.210447 59.2762385,120.644206 59.1453224,122.227539 C59.0130566,123.816262 59.0198049,125.225766 59.1453224,126.44527 C59.1925601,126.861652 59.3234762,127.260518 59.5556161,127.635128 C59.7877559,128.016475 60.0806301,128.18222 60.4382874,128.147184 C60.914714,128.100021 61.2723713,127.457255 61.516658,126.248532 C61.7555462,125.023638 61.879714,123.744844 61.8864622,122.400021 C61.8864622,121.067326 61.8149308,119.715766 61.6718678,118.360163 L61.6178818,117.865624 L61.551749,117.19995 C61.4694203,116.40761 61.2359308,116.020872 60.860728,116.062645 C60.4855252,116.099028 60.1278678,116.729667 59.7823573,117.94917 L59.7823573,117.94917 Z M51.2660636,111.791014 L50.2173853,100.79527 L50.1998399,100.622787 L50.0567769,100.28456 C49.9434063,99.1836383 50.5925881,98.5583901 52.0178189,98.4101631 C52.3930217,98.3737801 52.947728,98.3980355 53.6913853,98.4815816 L55.9210077,98.8144184 C56.1585462,98.8615816 56.367742,98.9154823 56.5404972,98.9869007 C56.7132524,99.0529291 56.8441685,99.1122199 56.9521406,99.1769007 L57.1545881,101.141582 L57.2315182,102.871794 L57.5891755,107.596191 L57.8631545,111.547113 L57.8995951,111.933851 L57.9414343,112.320589 C57.9468329,112.392007 57.9643783,112.445908 57.9940706,112.487681 C58.0237629,112.534844 58.0656021,112.564489 58.1141895,112.582007 L58.6081615,111.892078 C58.8645951,111.44066 59.1858119,111.035057 59.5799098,110.690092 C59.9200217,110.320872 60.3249168,110.113355 60.7891965,110.066191 C62.1010566,109.928745 63.2685042,110.130872 64.2928888,110.677965 C65.3186231,111.219667 66.1284133,112.06456 66.7249587,113.224773 C67.3147559,114.384986 67.7075042,115.855128 67.8924063,117.633851 C68.0476161,119.085128 68.1070007,120.447468 68.0773084,121.733 C68.0476161,123.018532 67.9936301,123.982007 67.9220986,124.624773 C67.8451685,125.279667 67.6845601,126.154206 67.4335252,127.255128 C67.1784413,128.36144 66.700665,129.408461 66.0042455,130.401582 C65.3010776,131.40144 64.388714,131.96066 63.2631056,132.080589 C62.8150217,132.127752 62.4344203,132.121014 62.1186021,132.056333 L60.7055182,131.817823 L59.2168538,131.551014 C58.8591965,131.490376 58.4421545,131.484986 57.9765252,131.532149 L56.6835601,131.77605 C56.2003853,131.925624 55.7603993,132.01456 55.3609028,132.056333 C54.7940497,132.115624 54.3648608,131.901369 54.0679378,131.408177 C53.7575182,130.920376 53.5550706,130.502645 53.4363014,130.169809 C53.3161825,129.836972 53.2392524,129.504135 53.2095601,129.176688 L52.750679,125.868532 L52.6616021,125.023638 L52.5603783,124.035908 L51.2660636,111.791014 Z" id="Fill-14" fill="#447300"></path>
                    <path d="M76.9926937,116.176106 C76.8077916,118.235113 76.8077916,120.203837 77.0102392,122.078234 C77.2315818,124.184404 77.6661692,125.20178 78.3220993,125.137099 C78.7027007,125.095326 78.9645329,124.82178 79.1075958,124.309723 C79.257407,123.797667 79.3761762,123.28022 79.4652531,122.756035 C79.5489315,122.238589 79.6272112,121.816816 79.6798476,121.471851 C79.7702741,120.447738 79.7932182,119.775326 79.7581273,119.442489 C79.5367846,117.336319 79.2628056,115.730078 78.9469874,114.623766 C78.6257706,113.528234 78.3032042,112.99327 77.9765888,113.022915 C77.5055608,113.076816 77.1775958,114.123837 76.9926937,116.176106 M70.9678545,119.102915 C70.9435608,118.454759 70.9678545,117.467028 71.0447846,116.128943 C71.1163161,114.796248 71.313365,113.397525 71.6170364,111.951638 C71.9274559,110.493624 72.3498965,109.303766 72.8992042,108.369936 C73.440414,107.436106 74.0841972,106.92944 74.8359524,106.852631 C75.4014559,106.79334 76.0695329,106.858021 76.8320853,107.049369 C77.6000364,107.239369 78.4233231,107.382206 79.2992462,107.48327 C80.168421,107.584333 81.0214,107.887525 81.8311902,108.411709 C82.6423301,108.923766 83.3279524,109.636603 83.8880573,110.542135 C84.441414,111.439582 84.9002951,112.552631 85.2525538,113.879936 C85.6034629,115.193766 85.877442,116.729936 86.0569455,118.461496 C86.1460224,119.323908 86.1703161,120.198447 86.1163301,121.04873 C86.0623441,121.911142 85.877442,123.012064 85.5562252,124.356887 C85.240407,125.707099 84.6681552,126.992631 83.8462182,128.218872 C83.0229315,129.438376 82.1713021,130.09866 81.2778336,130.187596 C80.9971063,130.217241 80.6515958,130.217241 80.2467007,130.187596 C79.8418056,130.15795 79.3464839,130.10405 78.7688336,130.009723 C78.1898336,129.920787 77.6540224,129.812986 77.1708476,129.699794 C76.6822741,129.581213 75.6700364,129.265894 74.1381832,128.753837 C72.5941832,128.24178 71.5994909,125.785255 71.1352112,121.376177 C71.0447846,120.513766 70.9921483,119.757809 70.9678545,119.102915" id="Fill-16" fill="#447300"></path>
                    <path d="M96.7594028,115.706092 C97.2425776,115.516092 97.5098084,115.361128 97.5813399,115.242546 C97.6528713,115.129355 97.6650182,114.849071 97.6177804,114.408433 L97.569193,113.944887 L97.5287035,113.528504 C97.4625706,112.892475 97.3964378,112.469355 97.3370531,112.230844 C97.2776685,112.005809 97.1413538,111.619071 96.932158,111.082759 C96.7243119,110.553184 96.4786755,110.303894 96.1992979,110.333539 C95.9847035,110.351057 95.8065497,110.702759 95.6688853,111.398078 C95.5258224,112.088007 95.4245986,112.695738 95.365214,113.225312 C95.2990811,113.754887 95.2450951,114.17666 95.2100042,114.516234 L95.0008084,116.211411 C95.4003049,116.169638 95.7228713,116.104957 95.9725566,116.003894 L96.7594028,115.706092 Z M97.075221,119.721695 C96.2883748,119.92517 95.7822559,120.108433 95.5555147,120.275525 C95.3166266,120.442617 95.222151,120.709426 95.2639902,121.085383 C95.3409203,121.810348 95.5015287,122.339922 95.7525636,122.667369 C96.002249,122.994816 96.3842,123.137652 96.8970671,123.083752 C97.2236825,123.048716 97.5341021,122.893752 97.8080811,122.625596 L98.9282909,121.441128 C99.1374867,121.167582 99.2980951,120.972191 99.4047175,120.86439 C99.5126895,120.757936 99.6975916,120.566589 99.9648224,120.30517 C100.233403,120.037014 100.501983,119.894177 100.758417,119.87127 C101.580354,119.782333 102.301067,119.864532 102.932703,120.12056 C103.571088,120.371199 103.916599,120.799709 103.981382,121.411482 C104.035368,121.923539 103.791081,122.744177 103.25527,123.851837 C102.724857,124.963539 101.97985,125.975525 101.032396,126.891837 C100.084941,127.808149 98.9876755,128.330986 97.7486965,128.463043 C97.0927664,128.527723 96.5205147,128.539851 96.0440881,128.498078 C95.5622629,128.450915 94.9360252,128.29056 94.1613259,128.004887 C93.3798783,127.719213 92.605179,127.182901 91.837228,126.397298 C91.0679273,125.613043 90.4430392,124.660348 89.9720112,123.536518 C89.4955846,122.418078 89.1905636,121.167582 89.0421021,119.787723 C88.8275077,117.746234 88.8518014,115.575383 89.1190322,113.272475 C89.3876126,110.976305 89.8586406,109.025099 90.5321161,107.424248 C91.2055916,105.823397 92.0099832,104.978504 92.9520392,104.87744 C95.6027524,104.597156 97.677165,104.954248 99.1847245,105.931199 C100.686885,106.906801 101.740962,108.251624 102.342906,109.952191 C102.956997,111.648716 103.391585,113.80205 103.665564,116.396021 C103.71955,116.89056 103.71955,117.247652 103.665564,117.44978 C103.618326,117.657298 103.463116,117.841908 103.195885,118.01439 L102.206592,118.407865 L99.2265636,119.174603 L97.075221,119.721695 Z" id="Fill-18" fill="#447300"></path>
                    <path d="M113.540685,120.263532 C113.629762,120.667787 113.695895,120.960199 113.737734,121.174454 L114.041406,123.37495 L114.166923,124.535163 L114.243853,125.273603 L114.542126,126.064596 C114.583965,126.480979 114.076497,126.749135 113.02242,126.862326 L112.670161,126.897362 C111.120762,127.057716 109.977608,126.980908 109.225853,126.670979 C108.487594,126.362397 107.986874,125.820695 107.742587,125.064738 C107.456462,124.315518 107.224322,123.160695 107.056965,121.584099 L106.938196,120.423887 L106.782986,118.955092 L106.610231,117.336723 L106.025832,111.78495 L105.853077,110.131546 L105.305119,101.878 L104.95286,95.839773 L104.912371,95.4530355 L104.881329,95.1727518 L104.858385,94.923461 C104.72072,93.6379291 105.197147,92.9426099 106.282266,92.8294184 C106.99758,92.7512624 107.777678,92.7687801 108.61851,92.9008369 C109.464741,93.0194184 110.192203,93.2215461 110.804944,93.5072199 C111.419035,93.780766 111.747,94.1082128 111.782091,94.4895603 L111.97914,96.3100567 L112.033126,98.5819716 L112.289559,101.003461 L112.539245,106.412397 L112.712,110.762184 L112.921196,112.695872 L113.994168,109.274525 L115.077937,105.966369 C115.53142,104.806156 115.95386,103.872326 116.358755,103.151404 C116.758252,102.43183 117.128056,102.05722 117.46142,102.020837 C117.813678,101.985801 118.356238,102.182539 119.076951,102.61644 C119.804413,103.04495 120.453594,103.557007 121.013699,104.133745 C121.579203,104.71722 121.877476,105.168638 121.907168,105.501475 L119.089098,115.169915 L119.249706,115.688709 L119.654601,116.211546 L120.024406,116.67644 L122.40249,119.936085 L122.604937,120.204241 L122.730455,120.369986 L122.896462,120.603106 L123.182587,120.953461 L123.355343,121.26339 L123.742692,121.899418 L123.922196,122.589348 C123.939741,122.780695 123.784531,123.101404 123.456566,123.55956 C123.123203,124.024454 122.920755,124.30339 122.831678,124.404454 C122.748,124.512255 122.491566,124.744028 122.067776,125.106511 C121.645336,125.468993 121.210748,125.677858 120.769413,125.725021 C119.713986,125.838213 117.258972,123.637716 113.415168,119.103319 C113.457007,119.507574 113.498846,119.888922 113.540685,120.263532" id="Fill-20" fill="#447300"></path>
                    <path d="M133.74846,111.820794 C134.224887,111.636184 134.498866,111.48122 134.577145,111.362638 C134.641929,111.249447 134.654076,110.970511 134.612236,110.529872 L134.55825,110.064979 L134.517761,109.648596 C134.451628,109.012567 134.385495,108.584057 134.32611,108.352284 C134.266726,108.120511 134.130411,107.739163 133.921215,107.204199 C133.706621,106.674624 133.467733,106.418596 133.182957,106.448241 C132.973761,106.472496 132.795607,106.822851 132.657943,107.519518 C132.51488,108.202709 132.408257,108.81583 132.347523,109.340014 C132.288138,109.869589 132.234152,110.298099 132.20446,110.636326 L131.989866,112.332851 C132.389362,112.291078 132.70518,112.21966 132.961614,112.123986 L133.74846,111.820794 Z M134.064278,115.836397 C133.277432,116.039872 132.771313,116.223135 132.539173,116.395617 C132.305684,116.557319 132.211208,116.824128 132.253048,117.200085 C132.329978,117.92505 132.490586,118.461362 132.741621,118.787461 C132.985908,119.114908 133.366509,119.257745 133.886124,119.205191 C134.21274,119.168809 134.517761,119.013844 134.797138,118.747035 L135.917348,117.562567 C136.126544,117.289021 136.287152,117.092284 136.388376,116.98583 C136.494999,116.878028 136.686649,116.688028 136.95388,116.42661 C137.22246,116.158454 137.484292,116.015617 137.747474,115.985972 C138.564013,115.902426 139.290124,115.979234 139.928509,116.242 C140.560145,116.491291 140.905656,116.919801 140.965041,117.532922 C141.024425,118.043631 140.780138,118.865617 140.244327,119.971929 C139.707166,121.078241 138.968908,122.095617 138.021453,123.006539 C137.073999,123.928241 135.976733,124.452426 134.737754,124.583135 C134.076425,124.649163 133.509572,124.659943 133.033145,124.61278 C132.55132,124.571007 131.925083,124.405262 131.143635,124.119589 C130.368936,123.833915 129.594236,123.30434 128.826285,122.518738 C128.056985,121.733135 127.437495,120.781787 126.961069,119.65661 C126.484642,118.53278 126.174222,117.282284 126.031159,115.902426 C125.816565,113.860936 125.840859,111.695475 126.10809,109.393915 C126.37667,107.091007 126.847698,105.139801 127.521173,103.54434 C128.194649,101.943489 128.999041,101.093206 129.941097,100.997532 C132.59181,100.718596 134.666222,101.075688 136.173782,102.051291 C137.675943,103.026894 138.73002,104.371716 139.331964,106.066894 C139.940656,107.768809 140.380642,109.922142 140.654621,112.517461 C140.708607,113.010652 140.708607,113.367745 140.654621,113.569872 C140.607383,113.772 140.446775,113.95661 140.184943,114.129092 L139.195649,114.522567 L136.215621,115.296043 L134.064278,115.836397 Z" id="Fill-22" fill="#447300"></path>
                    <path d="M143.37862,110.035872 L142.741585,103.954525 C142.699746,103.557007 142.848208,103.23495 143.18832,102.978922 C143.527082,102.729631 143.956271,102.581404 144.469138,102.527504 C145.148012,102.456085 145.648732,102.48573 145.983445,102.598922 C146.316809,102.717504 146.62048,102.896723 146.906606,103.121759 L147.358739,103.395305 L147.752837,102.753887 C147.848662,102.574667 147.984977,102.348284 148.157732,102.05183 C148.330487,101.771546 148.485697,101.522255 148.62876,101.325518 C148.771823,101.12339 148.944578,100.909135 149.147026,100.688142 C149.349473,100.468496 149.630201,100.219206 150.005403,99.9335319 C150.375208,99.6478582 150.834089,99.480766 151.3699,99.4214752 C151.786942,99.3797021 152.639921,99.4982837 153.920739,99.790695 C154.409313,99.9335319 154.861445,100.057504 155.290634,100.158567 C155.714424,100.271759 156.131466,100.463106 156.536362,100.742043 C156.941257,101.015589 157.288117,101.367291 157.567494,101.783674 C157.848222,102.200057 158.073613,102.604312 158.246369,102.99105 C158.413725,103.372397 158.58648,103.966652 158.765984,104.769773 C158.949536,105.579631 159.104746,106.597007 159.235662,107.834028 L159.313942,108.602113 L159.415166,109.553461 L159.450257,109.86878 L159.498844,110.363319 L159.587921,111.208213 L159.617613,111.452113 L159.652704,111.802468 L159.713438,112.403461 L159.856501,113.772539 C160.111585,116.181901 160.13048,117.997007 159.915886,119.186865 C159.701292,120.376723 159.05076,121.037007 157.979138,121.150199 C156.644334,121.287645 155.660438,121.197362 155.011257,120.88878 C154.367473,120.578851 153.908592,120.127433 153.627865,119.543957 C153.402473,118.906582 153.235117,118.127716 153.139292,117.211404 L153.092054,116.788284 L153.038068,116.265447 L152.364592,107.198 C152.252571,106.102468 152.013683,105.572894 151.63848,105.614667 C151.05948,105.675305 150.71397,106.234525 150.607348,107.299064 C150.499376,108.358213 150.422445,109.321688 150.387355,110.178709 C150.345515,111.028993 150.368459,111.863106 150.457536,112.677007 C150.518271,113.290128 150.589802,114.159277 150.661334,115.289844 C150.726117,116.420411 150.79225,117.23566 150.844886,117.753106 L151.394194,121.590837 C151.436033,121.965447 151.310515,122.280766 151.02439,122.536794 C150.738264,122.786085 150.387355,122.94105 149.958166,122.982823 C149.295487,123.054241 148.557229,123.036723 147.74069,122.928922 C146.924152,122.827858 146.203438,122.596085 145.565054,122.233603 C144.928019,121.881901 144.582508,121.429135 144.523124,120.88878 L144.362515,119.376865 L143.479844,112.297007 L143.37862,110.035872 Z" id="Fill-24" fill="#447300"></path>
                    <path d="M82.5984664,19.6624397 C82.8724455,19.8820851 83.1410259,20.100383 83.4163545,20.3200284 C83.8671378,20.6865532 84.4960748,20.8752057 85.0764245,20.8145674 C85.3868441,20.7957021 85.6675713,20.6986809 85.9240049,20.5275461 C86.1925853,20.4116596 86.4179769,20.2283972 86.6015294,19.985844 C86.9497392,19.5155603 87.181879,18.9253475 87.0901028,18.3283972 C87.0037252,17.7368369 86.741893,17.1951348 86.2654664,16.8110922 C85.9914874,16.5860567 85.722907,16.3664113 85.4475783,16.146766 C84.9967951,15.7815887 84.3624594,15.5983262 83.788858,15.6589645 C83.4770888,15.6778298 83.1909629,15.7748511 82.939928,15.9392482 C82.6713476,16.0618723 82.4459559,16.2437872 82.2624035,16.4822979 C81.9155434,16.951234 81.6834035,17.5481844 81.7751797,18.1397447 C81.8602077,18.736695 82.1220399,19.2783972 82.5984664,19.6624397" id="Fill-26" fill="#447300"></path>
                    <path d="M67.4660517,24.1167943 C67.4903455,24.360695 67.5146392,24.6099858 67.5456811,24.8538865 C67.6064154,25.4333191 67.9181846,26.0114043 68.3689678,26.3765816 C68.5943594,26.5719716 68.8575413,26.6999858 69.1436671,26.7606241 C69.4243944,26.8765106 69.7240168,26.9128936 70.0344364,26.864383 C70.614786,26.7794894 71.1951357,26.523461 71.5541427,26.0423972 C71.9144993,25.5613333 72.1101986,24.9872908 72.0494643,24.3782128 C72.023821,24.1356596 71.9941287,23.8917589 71.969835,23.6411206 C71.9091007,23.0684255 71.5973315,22.4903404 71.1451986,22.1238156 C70.9144084,21.9230355 70.6579748,21.7950213 70.3704993,21.734383 C70.0843734,21.625234 69.7914993,21.5888511 69.4797301,21.6306241 C68.8993804,21.7168652 68.3203804,21.9715461 67.9600238,22.4593475 C67.5996671,22.9404113 67.3985692,23.5077163 67.4660517,24.1167943" id="Fill-28" fill="#447300"></path>
                    <path d="M52.3306678,30.061234 L51.6720385,30.8778298 C51.3049336,31.3279007 51.1159825,31.955844 51.1767168,32.5352766 C51.1956119,32.8452057 51.2927867,33.1254894 51.4641923,33.3815177 C51.5802622,33.6496738 51.7638147,33.8747092 52.0067517,34.0579716 C52.4764301,34.4056312 53.0689266,34.6360567 53.6668217,34.545773 C54.2593182,34.4595319 54.8018776,34.1981135 55.186528,33.7224397 C55.4119196,33.4488936 55.6319126,33.1807376 55.8519056,32.905844 C56.2176608,32.455773 56.4012133,31.8224397 56.340479,31.2497447 C56.3215839,30.9384681 56.2244091,30.6527943 56.0597517,30.402156 C55.9369336,30.134 55.7533811,29.9089645 55.5158427,29.7257021 C55.0461643,29.3780426 54.4482692,29.147617 53.8557727,29.2392482 C53.2578776,29.3241418 52.7153182,29.5855603 52.3306678,30.061234" id="Fill-30" fill="#447300"></path>
                    <path d="M37.4258042,44.5324965 C37.6997832,44.7521418 37.9683636,44.9717872 38.2436923,45.1900851 C38.6944755,45.5566099 39.3234126,45.7452624 39.9037622,45.6846241 C40.2141818,45.6657589 40.4949091,45.5687376 40.7513427,45.3976028 C41.0199231,45.2817163 41.2453147,45.0984539 41.4288671,44.8559007 C41.7770769,44.385617 42.0092168,43.7954043 41.9174406,43.1984539 C41.8310629,42.6068936 41.5692308,42.0651915 41.0928042,41.6811489 C40.8188252,41.4561135 40.5502448,41.2364681 40.2749161,41.0168227 C39.8241329,40.6516454 39.1897972,40.468383 38.6161958,40.5290213 C38.3044266,40.5478865 38.0183007,40.6449078 37.7672657,40.809305 C37.4986853,40.9319291 37.2732937,41.113844 37.0897413,41.3523546 C36.7428811,41.8212908 36.5107413,42.4182411 36.5957692,43.0098014 C36.6875455,43.6067518 36.9493776,44.1484539 37.4258042,44.5324965" id="Fill-32" fill="#447300"></path>
                    <path d="M28.6679231,59.5373759 C31.566972,59.2328369 31.0959441,54.7361702 28.1914965,55.0407092 C25.2937972,55.3452482 25.7634755,59.8419149 28.6679231,59.5373759" id="Fill-34" fill="#447300"></path>
                    <path d="M20.6190133,68.5464752 L20.6986427,69.2835674 C20.7593769,69.863 21.0711462,70.4410851 21.5219294,70.8062624 C21.747321,71.0016525 22.0105028,71.1296667 22.2966287,71.190305 C22.5773559,71.3061915 22.8769783,71.3425745 23.1873979,71.2940638 C23.7677476,71.2091702 24.3480972,70.9531418 24.7071042,70.472078 C25.0674608,69.9910142 25.2631601,69.4169716 25.2024259,68.8078936 L25.1227965,68.0708014 C25.0620622,67.4981064 24.750293,66.9200213 24.2981601,66.5534965 C24.0673699,66.3527163 23.8109364,66.2247021 23.5234608,66.1640638 C23.237335,66.0549149 22.9444608,66.0185319 22.6326916,66.060305 C22.052342,66.1465461 21.473342,66.401227 21.1129853,66.8890284 C20.7526287,67.3700922 20.5515308,67.9373972 20.6190133,68.5464752" id="Fill-36" fill="#447300"></path>
                    <path d="M17.7802937,83.7920213 C20.6793427,83.4874823 20.2083147,78.9908156 17.3038671,79.2953546 C14.4061678,79.5998936 14.8758462,84.0965603 17.7802937,83.7920213" id="Fill-38" fill="#447300"></path>
                    <path d="M15.4070685,96.7149858 C15.6513552,96.6907305 15.9010406,96.6664752 16.1453273,96.6354823 C16.7256769,96.574844 17.3046769,96.2635674 17.6704322,95.8134965 C17.8661315,95.5871135 17.9943483,95.325695 18.0550825,95.0400213 C18.1711524,94.7597376 18.207593,94.4605887 18.1590056,94.1493121 C18.0739776,93.571227 17.8175441,92.9917943 17.3357189,92.6333546 C16.8538937,92.2735674 16.2802923,92.0781773 15.6689007,92.1388156 C15.4259636,92.1630709 15.1816769,92.1940638 14.930642,92.2183191 C14.3570406,92.2789574 13.7780406,92.590234 13.4109357,93.040305 C13.2098378,93.272078 13.081621,93.5281064 13.0208867,93.8151277 C12.911565,94.1008014 12.8751245,94.3932128 12.9169636,94.7044894 C13.0033413,95.2825745 13.2584252,95.8620071 13.7469986,96.2217943 C14.2288238,96.5815816 14.7970266,96.7823617 15.4070685,96.7149858" id="Fill-40" fill="#447300"></path>
                    <path d="M16.1430329,110.803553 C16.3873196,110.779298 16.6370049,110.755043 16.8812916,110.72405 C17.4616413,110.663411 18.0406413,110.352135 18.4063965,109.902064 C18.6020958,109.675681 18.7303126,109.414262 18.7910469,109.128589 C18.9071168,108.848305 18.9435573,108.549156 18.8949699,108.237879 C18.809942,107.659794 18.5535084,107.080362 18.0716832,106.721922 C17.589858,106.362135 17.0162566,106.166745 16.404865,106.227383 C16.161928,106.251638 15.9176413,106.282631 15.6666063,106.306887 C15.0930049,106.367525 14.5140049,106.678801 14.1469,107.128872 C13.9458021,107.360645 13.8175853,107.616674 13.756851,107.903695 C13.6475294,108.189369 13.6110888,108.48178 13.652928,108.793057 C13.7393056,109.371142 13.9943895,109.950574 14.4829629,110.310362 C14.9647881,110.670149 15.5329909,110.864191 16.1430329,110.803553" id="Fill-42" fill="#447300"></path>
                    <path d="M17.9688399,121.049539 C20.8678888,120.745 20.3968608,116.248333 17.4924133,116.552872 C14.594714,116.857411 15.0643923,121.354078 17.9688399,121.049539" id="Fill-44" fill="#447300"></path>
                    <path d="M24.4128804,132.264794 L24.333251,131.527702 C24.2725168,130.94827 23.9607476,130.370184 23.5099643,130.005007 C23.2832231,129.809617 23.0213909,129.681603 22.735265,129.620965 C22.4545378,129.505078 22.1549154,129.468695 21.8431462,129.517206 C21.2641462,129.602099 20.6837965,129.858128 20.3247895,130.339191 C19.9644329,130.820255 19.7687336,131.39295 19.8294678,132.002028 L19.9090972,132.740468 C19.9698315,133.313163 20.2816007,133.891248 20.7337336,134.256426 C20.9645238,134.458553 21.2209573,134.586567 21.5084329,134.647206 C21.7945587,134.756355 22.0874329,134.792738 22.3992021,134.750965 C22.9782021,134.664723 23.5585517,134.408695 23.9189084,133.922241 C24.279265,133.441177 24.4803629,132.873872 24.4128804,132.264794" id="Fill-46" fill="#447300"></path>
                    <path d="M28.9651161,147.48056 C29.2094028,147.456305 29.4590881,147.43205 29.7033748,147.401057 C30.2837245,147.340418 30.8627245,147.029142 31.2284797,146.579071 C31.424179,146.352688 31.5523958,146.09127 31.6131301,145.805596 C31.7292,145.525312 31.7656406,145.226163 31.7170531,144.914887 C31.6320252,144.336801 31.3755916,143.757369 30.8937664,143.398929 C30.4119413,143.039142 29.8369902,142.843752 29.2269483,142.90439 C28.9840112,142.928645 28.7397245,142.959638 28.4886895,142.983894 C27.9150881,143.044532 27.3360881,143.355809 26.9689832,143.805879 C26.7678853,144.037652 26.6396685,144.293681 26.5789343,144.580702 C26.4628643,144.866376 26.433172,145.158787 26.4750112,145.470064 C26.5613888,146.048149 26.8164727,146.627582 27.3050462,146.987369 C27.7868713,147.347156 28.3550741,147.547936 28.9651161,147.48056" id="Fill-48" fill="#447300"></path>
                    <path d="M37.592486,158.503929 L38.3307448,158.424426 C38.9110944,158.363787 39.4900944,158.052511 39.8558497,157.60244 C40.051549,157.376057 40.1797657,157.114638 40.2405,156.828965 C40.3565699,156.548681 40.3930105,156.249532 40.3444231,155.938255 C40.2593951,155.36017 40.0029615,154.780738 39.5211364,154.422298 C39.0393112,154.062511 38.4657098,153.867121 37.8543182,153.927759 C37.6113811,153.952014 37.3670944,153.983007 37.1160594,154.007262 C36.542458,154.067901 35.963458,154.379177 35.5963531,154.829248 C35.3952552,155.061021 35.2670385,155.31705 35.2063042,155.604071 C35.0969825,155.889745 35.060542,156.182156 35.1023811,156.493433 C35.1887587,157.071518 35.4438427,157.65095 35.9324161,158.010738 C36.4142413,158.370525 36.9824441,158.571305 37.592486,158.503929" id="Fill-50" fill="#447300"></path>
                    <path d="M48.1255622,166.345135 C51.0246112,166.040596 50.5535832,161.543929 47.6491357,161.848468 C44.7514364,162.153007 45.2211147,166.649674 48.1255622,166.345135" id="Fill-52" fill="#447300"></path>
                    <path d="M54.7032182,173.190255 C54.9771972,173.409901 55.2457776,173.629546 55.5211063,173.847844 C55.9718895,174.214369 56.6008266,174.403021 57.1811762,174.342383 C57.4915958,174.323518 57.7723231,174.226496 58.0287566,174.055362 C58.2973371,173.939475 58.5227287,173.756213 58.7062811,173.51366 C59.0544909,173.043376 59.2866308,172.453163 59.1948545,171.856213 C59.1084769,171.264652 58.8466448,170.72295 58.3702182,170.338908 C58.0962392,170.113872 57.8276587,169.894227 57.5523301,169.674582 C57.1015469,169.309404 56.4672112,169.126142 55.8936098,169.18678 C55.5818406,169.205645 55.294365,169.302667 55.0446797,169.467064 C54.7760993,169.589688 54.5507077,169.77295 54.3671552,170.010113 C54.0202951,170.47905 53.7881552,171.076 53.8731832,171.66756 C53.9649594,172.264511 54.2267916,172.806213 54.7032182,173.190255" id="Fill-54" fill="#447300"></path>
                    <path d="M69.6196888,179.000887 C72.5187378,178.696348 72.0477098,174.199681 69.1432622,174.50422 C66.2455629,174.808759 66.7152413,179.305426 69.6196888,179.000887" id="Fill-56" fill="#447300"></path>
                    <path d="M84.5786734,178.885539 C84.5597783,178.73866 84.5476315,178.593128 84.530086,178.446248 C84.2304636,175.553128 79.7212818,176.022064 80.0263028,178.921922 C80.0451979,179.068801 80.0573448,179.214333 80.0748902,179.361213 C80.3799112,182.254333 84.8836944,181.785397 84.5786734,178.885539 C84.5597783,178.73866 84.5476315,178.593128 84.530086,178.446248 C84.2304636,175.553128 79.7212818,176.022064 80.0263028,178.921922 C80.0451979,179.068801 80.0573448,179.214333 80.0748902,179.361213 C80.3799112,182.254333 84.8836944,181.785397 84.5786734,178.885539" id="Fill-58" fill="#447300"></path>
                    <path d="M99.1268175,179.234646 C96.2291182,179.539185 96.6987965,184.035852 99.6032441,183.731313 C102.502293,183.426774 102.031265,178.930107 99.1268175,179.234646 Z" id="Fill-60" fill="#447300"></path>
                    <path d="M82.9310133,177.887129 C80.033314,178.191668 80.5029923,182.688334 83.4074399,182.383795 C86.3064888,182.079256 85.8354608,177.58259 82.9310133,177.887129 Z" id="Fill-60-Copy" fill="#447300"></path>
                    <path d="M116.848003,180.754681 C119.747052,180.450142 119.276024,175.953475 116.371577,176.258014 C113.473878,176.562553 113.943556,181.05922 116.848003,180.754681" id="Fill-62" fill="#447300"></path>
                    <path d="M131.924948,174.662149 C131.87636,174.168957 131.821024,173.681156 131.772437,173.187965 C131.64422,172.011582 130.490269,170.994206 129.282332,171.177468 C128.067647,171.359383 127.135038,172.402362 127.263255,173.662291 C127.317241,174.150092 127.365829,174.643284 127.421164,175.137823 C127.543983,176.312858 128.696584,177.330234 129.911269,177.148319 C131.125955,176.965057 132.058563,175.923426 131.924948,174.662149" id="Fill-64" fill="#447300"></path>
                    <path d="M141.072743,168.599936 C141.292736,168.325043 141.512729,168.058234 141.731372,167.78334 C142.098477,167.33327 142.287428,166.705326 142.226694,166.125894 C142.207799,165.815965 142.110624,165.535681 141.939218,165.279652 C141.823148,165.011496 141.639596,164.786461 141.396659,164.603199 C140.925631,164.255539 140.334484,164.023766 139.736589,164.115397 C139.144092,164.201638 138.601533,164.463057 138.216883,164.93873 C137.99689,165.212277 137.771498,165.480433 137.551505,165.753979 C137.18575,166.205397 137.002197,166.83873 137.062931,167.411426 C137.081827,167.722702 137.179001,168.008376 137.343659,168.259014 C137.466477,168.52717 137.64868,168.752206 137.887568,168.935468 C138.357246,169.28178 138.955141,169.513553 139.547638,169.42866 C140.145533,169.337028 140.688092,169.07561 141.072743,168.599936" id="Fill-66" fill="#447300"></path>
                    <path d="M152.224094,162.131447 C155.123143,161.826908 154.652115,157.330241 151.747667,157.63478 C148.849968,157.939319 149.319646,162.435986 152.224094,162.131447" id="Fill-68" fill="#447300"></path>
                    <path d="M166.524044,148.665702 C166.49975,148.421801 166.475457,148.172511 166.444415,147.92861 C166.38368,147.349177 166.071911,146.771092 165.621128,146.405915 C165.394387,146.210525 165.132555,146.082511 164.846429,146.021872 C164.565701,145.905986 164.266079,145.869603 163.95431,145.918113 C163.37531,146.003007 162.79496,146.259035 162.435953,146.740099 C162.075597,147.221163 161.879897,147.793858 161.940631,148.402936 L162.020261,149.141376 C162.080995,149.714071 162.392764,150.292156 162.843548,150.657333 C163.075687,150.859461 163.332121,150.987475 163.619597,151.048113 C163.905722,151.164 164.198597,151.193645 164.510366,151.151872 C165.089366,151.065631 165.669715,150.809603 166.030072,150.323149 C166.390429,149.842085 166.591527,149.27478 166.524044,148.665702" id="Fill-70" fill="#447300"></path>
                    <path d="M169.991971,139.391411 C172.89102,139.086872 172.419992,134.590206 169.515544,134.894745 C166.617845,135.199284 167.087523,139.69595 169.991971,139.391411" id="Fill-72" fill="#447300"></path>
                    <path d="M173.87478,126.273326 C173.850486,126.029426 173.826192,125.780135 173.79515,125.536234 C173.734416,124.956801 173.422647,124.378716 172.971864,124.013539 C172.745122,123.818149 172.48329,123.690135 172.197164,123.629496 C171.916437,123.51361 171.616815,123.477227 171.305045,123.525738 C170.726045,123.610631 170.145696,123.86666 169.786689,124.347723 C169.426332,124.828787 169.230633,125.401482 169.291367,126.01056 C169.315661,126.254461 169.346703,126.498362 169.370997,126.749 C169.431731,127.321695 169.7435,127.89978 170.194283,128.264957 C170.426423,128.467085 170.682857,128.595099 170.970332,128.655738 C171.256458,128.764887 171.549332,128.80127 171.861101,128.759496 C172.440101,128.673255 173.020451,128.417227 173.380808,127.930773 C173.741164,127.449709 173.935514,126.882404 173.87478,126.273326" id="Fill-74" fill="#447300"></path>
                    <path d="M174.037278,114.327043 L174.116907,115.064135 C174.177641,115.64222 174.488061,116.221652 174.940194,116.58683 C175.165585,116.78222 175.428767,116.910234 175.714893,116.97761 C175.99562,117.086759 176.295243,117.123142 176.605662,117.074631 C177.186012,116.989738 177.766362,116.733709 178.125369,116.252645 C178.485725,115.771582 178.681424,115.197539 178.619341,114.588461 L178.541061,113.851369 C178.480327,113.278674 178.168557,112.700589 177.716424,112.334064 C177.484285,112.133284 177.229201,112.00527 176.941725,111.944631 C176.655599,111.835482 176.362725,111.799099 176.050956,111.840872 C175.470606,111.932504 174.891606,112.181794 174.53125,112.669596 C174.170893,113.15066 173.976543,113.717965 174.037278,114.327043" id="Fill-76" fill="#447300"></path>
                    <path d="M178.976323,104.153553 C181.875372,103.849014 181.404344,99.3523475 178.499897,99.6568865 C175.607596,99.9614255 176.071876,104.458092 178.976323,104.153553" id="Fill-78" fill="#447300"></path>
                    <path d="M176.061888,91.0025887 C176.086182,91.2464894 176.110476,91.4957801 176.141517,91.7396809 C176.202252,92.317766 176.512671,92.8971986 176.964804,93.2623759 C177.190196,93.457766 177.453378,93.5857801 177.739503,93.6464184 C178.020231,93.762305 178.319853,93.7986879 178.630273,93.7501773 C179.210622,93.6652837 179.790972,93.4092553 180.149979,92.9281915 C180.510336,92.4471277 180.706035,91.8730851 180.643951,91.2640071 C180.619657,91.0214539 180.589965,90.7775532 180.565671,90.5269149 C180.504937,89.9542199 180.193168,89.3761348 179.741035,89.0096099 C179.508895,88.8088298 179.253811,88.6808156 178.966336,88.6201773 C178.68021,88.5110284 178.387336,88.4746454 178.075566,88.5164184 C177.495217,88.6026596 176.916217,88.8573404 176.55586,89.3451418 C176.195503,89.8262057 175.994406,90.3935106 176.061888,91.0025887" id="Fill-80" fill="#447300"></path>
                    <path d="M175.521218,78.4220284 C178.420267,78.1174894 177.949239,73.6208227 175.044792,73.9253617 C172.147092,74.2299007 172.616771,78.7265674 175.521218,78.4220284" id="Fill-82" fill="#447300"></path>
                    <path d="M170.586492,67.0111135 C173.485541,66.7065745 173.014513,62.2099078 170.110065,62.5144468 C167.212366,62.8189858 167.682044,67.3156525 170.586492,67.0111135" id="Fill-84" fill="#447300"></path>
                    <path d="M164.251638,56.4921206 C167.150687,56.1875816 166.679659,51.6909149 163.775211,51.9954539 C160.877512,52.2999929 161.34719,56.7966596 164.251638,56.4921206" id="Fill-86" fill="#447300"></path>
                    <path d="M160.010631,44.2266099 C159.986338,43.9827092 159.962044,43.7334184 159.931002,43.4895177 C159.870268,42.9100851 159.558499,42.332 159.107715,41.9668227 C158.880974,41.7714326 158.619142,41.6434184 158.333016,41.5827801 C158.052289,41.4668936 157.752666,41.4305106 157.440897,41.4790213 C156.861897,41.5639149 156.281548,41.8199433 155.922541,42.3010071 C155.562184,42.7820709 155.366485,43.354766 155.427219,43.963844 C155.451513,44.2077447 155.482555,44.4516454 155.506848,44.7022837 C155.567583,45.2749787 155.879352,45.8530638 156.331485,46.2182411 C156.562275,46.4203688 156.818708,46.548383 157.106184,46.6090213 C157.39231,46.7181702 157.685184,46.7545532 157.996953,46.7127801 C158.575953,46.626539 159.156303,46.3705106 159.516659,45.8840567 C159.877016,45.4029929 160.078114,44.8356879 160.010631,44.2266099" id="Fill-88" fill="#447300"></path>
                    <path d="M148.588945,35.7328014 C148.613239,35.9767021 148.637533,36.2259929 148.668575,36.4698936 C148.729309,37.0479787 149.041078,37.6274113 149.491862,37.9925887 C149.717253,38.1879787 149.980435,38.3159929 150.266561,38.3766312 C150.547288,38.4925177 150.84691,38.5289007 151.15733,38.4803901 C151.73768,38.3954965 152.318029,38.1394681 152.677036,37.6584043 C153.037393,37.1773404 153.233092,36.6032979 153.172358,35.9942199 C153.146715,35.7516667 153.117022,35.507766 153.092729,35.2571277 C153.031994,34.6844326 152.720225,34.1063475 152.268092,33.7398227 C152.037302,33.5390426 151.780869,33.4110284 151.493393,33.3503901 C151.207267,33.2412411 150.914393,33.2048582 150.602624,33.2466312 C150.022274,33.3328723 149.443274,33.5875532 149.082917,34.0753546 C148.722561,34.5564184 148.521463,35.1237234 148.588945,35.7328014" id="Fill-90" fill="#447300"></path>
                    <path d="M137.084391,25.7568582 C137.108685,26.0007589 137.132978,26.2500496 137.16402,26.4939504 C137.224755,27.073383 137.536524,27.6514681 137.987307,28.0166454 C138.212699,28.2120355 138.47588,28.3400496 138.762006,28.4006879 C139.042734,28.5165745 139.342356,28.5529574 139.652776,28.5044468 C140.233125,28.4195532 140.813475,28.1635248 141.172482,27.682461 C141.532838,27.2013972 141.728538,26.6273546 141.667803,26.0182766 C141.64216,25.7757234 141.612468,25.5318227 141.588174,25.2811844 C141.52744,24.7084894 141.215671,24.1304043 140.763538,23.7638794 C140.532748,23.5630993 140.276314,23.4350851 139.988838,23.3744468 C139.702713,23.2652979 139.409838,23.2289149 139.098069,23.2706879 C138.51772,23.3623191 137.93872,23.6116099 137.578363,24.0994113 C137.218006,24.5804752 137.016908,25.1477801 137.084391,25.7568582" id="Fill-92" fill="#447300"></path>
                    <path d="M128.611961,22.9548298 C131.51101,22.6502908 131.039982,18.1536241 128.135534,18.4581631 C125.237835,18.7627021 125.707513,23.2593688 128.611961,22.9548298" id="Fill-94" fill="#447300"></path>
                    <path d="M108.155985,16.5295957 C108.064209,16.7303759 107.996727,16.9432837 107.960286,17.1629291 C107.887405,17.6318652 107.923845,17.7356241 108.015622,18.1129291 C108.107398,18.4915816 108.112797,18.5832128 108.388125,18.9605177 C108.516342,19.130305 108.656706,19.2960496 108.826762,19.4240638 C108.913139,19.4847021 109.242454,19.6908723 109.339629,19.7339929 C109.351776,19.7407305 109.363922,19.7461206 109.376069,19.7528582 C109.462447,19.7892411 109.736426,19.8620071 109.68109,19.8444894 C109.705384,19.856617 109.895685,19.9226454 109.992859,19.9415106 C110.242545,19.9778936 110.505727,19.9900213 110.76216,19.9590284 C110.87823,19.9469007 111.030741,19.8983901 111.127915,19.8741348 C111.237237,19.8498794 111.377601,19.8256241 111.493671,19.7825035 C111.694769,19.6976099 111.897216,19.6005887 112.067272,19.4658369 C112.079419,19.4604468 112.086167,19.4483191 112.098314,19.4415816 C112.238678,19.3081773 112.379041,19.1734255 112.519405,19.0454113 C112.524803,19.0400213 112.524803,19.0332837 112.531552,19.0278936 C112.599034,18.9483901 112.671915,18.8082482 112.696209,18.7597376 C112.76909,18.6492411 112.817678,18.5886028 112.860866,18.4915816 C112.952643,18.3150567 113.013377,18.1129291 113.037671,17.9121489 C113.056566,17.7598794 113.068713,17.4432128 113.061964,17.2855532 C113.037671,16.8705177 112.829824,16.3894539 112.585538,16.0606596 C112.415482,15.8100213 112.202237,15.6213688 111.939055,15.4879645 C111.701517,15.3168298 111.426188,15.2076809 111.127915,15.1712979 C110.822894,15.103922 110.517873,15.1214397 110.224999,15.2198085 C109.925377,15.2683191 109.656797,15.3842057 109.419258,15.5795957 C109.278894,15.7076099 109.138531,15.8410142 108.998167,15.975766 C108.747132,16.285695 108.589223,16.6333546 108.521741,17.0295248 C108.516342,17.230305 108.509594,17.4310851 108.504195,17.6318652 C108.552783,18.0401631 108.693146,18.4066879 108.930685,18.7354823 C108.942831,18.7476099 108.94958,18.7597376 108.961727,18.7772553 C108.863202,18.6074681 108.772776,18.4363333 108.674251,18.2651986 C108.686398,18.2786738 108.693146,18.2961915 108.698545,18.3150567 C108.649957,18.1196667 108.60137,17.9188865 108.552783,17.7234965 C108.552783,17.7356241 108.558181,17.7477518 108.552783,17.7598794 C108.558181,17.5590993 108.564929,17.3583191 108.570328,17.157539 C108.570328,17.1629291 108.570328,17.1750567 108.564929,17.1871844 C108.625664,16.9985319 108.680999,16.8152695 108.734985,16.626617 C108.734985,16.6387447 108.729587,16.6454823 108.722838,16.6576099 L109.027859,16.1644184 C109.015713,16.1765461 109.010314,16.1886738 108.998167,16.2008014 C109.138531,16.0660496 109.278894,15.9326454 109.41251,15.7978936 C109.400363,15.8167589 109.382817,15.8288865 109.363922,15.8410142 C109.535328,15.7439929 109.705384,15.6523617 109.87679,15.5553404 C109.845748,15.5728582 109.809307,15.5849858 109.772866,15.5971135 C109.968566,15.5486028 110.164265,15.5000922 110.358615,15.4515816 C110.310027,15.4637092 110.26144,15.4690993 110.206104,15.4690993 C110.41395,15.4758369 110.615048,15.481227 110.816146,15.4879645 C110.779706,15.4879645 110.736517,15.481227 110.700076,15.4758369 C110.890377,15.5297376 111.079328,15.5849858 111.261531,15.640234 C111.237237,15.6334965 111.219692,15.6281064 111.195398,15.6092411 C111.360055,15.713 111.524713,15.8167589 111.68937,15.9137801 C111.677223,15.9083901 111.670475,15.9016525 111.658328,15.8962624 C111.793293,16.0364043 111.926908,16.1698085 112.061873,16.3099504 C112.049727,16.2978227 112.042978,16.2924326 112.03758,16.2735674 C112.128006,16.4500922 112.226531,16.621227 112.318307,16.7910142 C112.311559,16.7788865 112.311559,16.7667589 112.30481,16.7546312 C112.354748,16.9554113 112.403335,17.1508014 112.451922,17.3461915 C112.445174,17.3340638 112.445174,17.3219362 112.445174,17.3098085 C112.439776,17.5105887 112.433027,17.7113688 112.427629,17.9188865 C112.433027,17.9000213 112.433027,17.8878936 112.439776,17.875766 C112.379041,18.0590284 112.323706,18.2476809 112.26837,18.4363333 C112.26837,18.4188156 112.275118,18.4066879 112.280517,18.3878227 C112.42088,18.1129291 112.482964,17.8272553 112.464069,17.5281064 C112.50051,17.2181773 112.451922,16.925766 112.330454,16.6333546 C112.226531,16.3463333 112.067272,16.1091702 111.847279,15.9137801 C111.658328,15.6820071 111.426188,15.5122199 111.152209,15.4017234 C110.963258,15.3410851 110.779706,15.2871844 110.590755,15.2319362 C110.18181,15.1645603 109.779615,15.2076809 109.394964,15.3532128 C109.223559,15.4515816 109.053503,15.5418652 108.875349,15.640234 C108.558181,15.8720071 108.320643,16.1698085 108.155985,16.5295957" id="Fill-96" fill="#447300"></path>
                    <path d="M97.4770119,18.0215674 C100.376061,17.7170284 99.9050329,13.2203617 97.0005853,13.5249007 C94.102886,13.8294397 94.5725643,18.3261064 97.4770119,18.0215674" id="Fill-98" fill="#447300"></path>
                </g>
            </g>
        </g>
    </g>
</svg>
