
<svg width="121px" height="118px" viewBox="0 0 121 118" version="1.1" xmlns="http://www.w3.org/2000/svg" xmlns:xlink="http://www.w3.org/1999/xlink">
    <!-- Generator: Sketch 44.1 (41455) - http://www.bohemiancoding.com/sketch -->
    <desc>Created with Sketch.</desc>
    <defs>
        <polygon id="path-1" points="117.730435 5.20758039 117.730435 125.217391 0.0019705739 125.217391 0.0019705739 5.20758039"></polygon>
    </defs>
    <g id="Page-1" stroke="none" stroke-width="1" fill="none" fill-rule="evenodd">
        <g id="Desktop-HD" transform="translate(-231.000000, -1750.000000)">
            <g id="STAP_2" transform="translate(230.000000, 1750.000000)">
                <g id="STAP-2" transform="translate(63.434783, 60.000000) rotate(90.000000) translate(-63.434783, -60.000000) translate(3.434783, -3.000000)">
                    <g id="Group-3" transform="translate(0.000000, 0.010435)">
                        <mask id="mask-2" fill="white">
                            <use xlink:href="#path-1"></use>
                        </mask>
                        <g id="Clip-2"></g>
                        <path d="M117.730957,67.0027826 C116.849217,89.208 109.837043,107.54713 89.5153043,117.183652 C69.5274783,126.663652 48.6057391,128.854957 28.2057391,117.736696 C23.4266087,115.128 18.5170435,111.460174 15.5535652,107.025391 C-5.59252174,75.3714783 -8.03947826,46.2375652 26.2961739,18.8775652 C43.8005217,4.93147826 62.8126957,0.235826087 84.0370435,11.5158261 C106.810957,23.6149565 116.708348,42.9297391 117.730957,67.0027826" id="Fill-1" fill="#FBCA6C" mask="url(#mask-2)"></path>
                    </g>
                    <path d="M53.7029565,65.0815652 C54.1412174,61.7789565 54.3290435,59.1493913 54.8664348,56.5928696 C55.3725217,54.2085217 56.0507826,51.8189565 57.0368696,49.6015652 C57.6107826,48.3076522 58.8629565,47.2693913 59.9586087,46.278087 C60.6681739,45.6363478 61.789913,45.3233043 62.509913,46.1528696 C63.0733913,46.8050435 63.4229565,47.7963478 63.4855652,48.6624348 C63.5377391,49.3406957 63.0890435,50.1128696 62.7081739,50.7493913 C60.6264348,54.1928696 61.2003478,57.4433043 62.749913,60.9963478 C64.576,65.185913 66.5846957,69.2033043 69.3603478,72.8346087 C70.9933913,74.9685217 72.0942609,77.3737391 72.5586087,80.0293913 C72.7673043,81.2189565 72.3864348,82.2989565 71.3638261,83.0189565 C70.3777391,83.718087 69.3916522,83.7493913 68.1812174,83.2798261 C59.1029565,79.7841739 51.282087,74.1650435 43.4246957,68.6346087 C39.616,65.9528696 35.2646957,64.7372174 31.0281739,63.1667826 C30.4594783,62.958087 29.389913,63.2398261 28.9986087,63.6885217 C28.6281739,64.1111304 28.5968696,65.1493913 28.842087,65.7389565 C31.1429565,71.2746087 34.1951304,76.1789565 40.0594783,78.652 C41.0925217,79.0902609 42.0681739,79.7215652 42.9603478,80.4050435 C44.5046957,81.5737391 44.7238261,83.2224348 43.696,84.9233043 C42.8090435,86.3893913 41.4786087,86.9163478 39.7986087,86.1337391 C34.7794783,83.785913 30.4177391,80.478087 26.4629565,76.6328696 C22.6177391,72.9024348 19.2681739,68.8172174 17.7446957,63.558087 C17.3273043,62.1233043 16.9933913,60.6050435 16.9986087,59.1233043 C17.0142609,57.0728696 16.8733913,54.6885217 18.7412174,53.358087 C21.1307826,51.6415652 23.4003478,49.638087 26.8646957,50.0450435 C32.7812174,50.7337391 37.5446957,53.598087 42.0786087,57.1406957 C45.0525217,59.4624348 48.1151304,61.6798261 51.1725217,63.8972174 C51.7568696,64.3198261 52.4925217,64.5285217 53.7029565,65.0815652" id="Fill-4" fill="#FEFEFE"></path>
                    <path d="M79.4911304,48.6683478 C81.765913,48.897913 83.8424348,49.5292174 85.0163478,51.3605217 C87.8493913,55.790087 90.9067826,60.3187826 90.7502609,65.8074783 C90.5624348,72.5013913 93.8389565,77.2387826 98.3676522,81.4909565 C98.9102609,82.0022609 99.6406957,82.3153043 100.204174,82.8057391 C101.73287,84.1466087 102.072,85.3570435 101.404174,86.7448696 C100.506783,88.6074783 99.5102609,89.0874783 97.3502609,88.6335652 C96.9902609,88.5605217 96.645913,88.1848696 96.3172174,88.2109565 C90.0667826,88.7431304 86.2111304,84.6631304 82.4546087,80.7396522 C80.2633043,78.4492174 78.6041739,75.6266087 76.8146087,72.9709565 C73.2406957,67.6596522 72.7137391,61.7535652 73.6841739,55.6022609 C74.1224348,52.8109565 75.9746087,50.9326957 78.0563478,49.2526957 C78.4685217,48.924 79.0737391,48.830087 79.4911304,48.6683478" id="Fill-6" fill="#FEFEFE"></path>
                </g>
            </g>
        </g>
    </g>
</svg>
