
<svg width="121px" height="119px" viewBox="0 0 121 119" version="1.1" xmlns="http://www.w3.org/2000/svg" xmlns:xlink="http://www.w3.org/1999/xlink">
    <!-- Generator: Sketch 44.1 (41455) - http://www.bohemiancoding.com/sketch -->
    <desc>Created with Sketch.</desc>
    <defs></defs>
    <g id="Page-1" stroke="none" stroke-width="1" fill="none" fill-rule="evenodd">
        <g id="Desktop-HD" transform="translate(-296.000000, -2404.000000)">
            <g id="STAP_e" transform="translate(291.000000, 2404.000000)">
                <g id="STAP-3" transform="translate(65.217391, 60.824768) rotate(90.000000) translate(-65.217391, -60.824768) translate(5.217391, -4.392623)">
                    <g id="Group-3" transform="translate(0.000000, 0.010435)" fill="#FBCA6C">
                        <path d="M117.730957,67.0022609 C116.849217,89.2074783 109.837043,107.546609 89.5153043,117.18313 C69.5274783,126.66313 48.6057391,128.854435 28.2057391,117.736174 C23.4266087,115.127478 18.5170435,111.459652 15.5535652,107.02487 C-5.59252174,75.3709565 -8.03947826,46.2370435 26.2961739,18.8770435 C43.8005217,4.93095652 62.8126957,0.235304348 84.0370435,11.5153043 C106.810957,23.6144348 116.708348,42.9292174 117.730957,67.0022609" id="Fill-1"></path>
                    </g>
                    <path d="M40.5229565,75.362087 C35.7177391,74.2664348 32.2586087,71.3186087 27.8968696,70.322087 C28.3090435,73.2333913 28.3455652,73.5568696 29.7542609,74.976 C30.8446957,76.0768696 32.1333913,76.9690435 33.3281739,77.9655652 C34.0377391,78.5551304 34.8516522,79.0612174 35.4203478,79.7707826 C36.3490435,80.9290435 36.062087,82.6507826 34.8412174,83.4855652 C34.0794783,84.0125217 33.2133913,84.4038261 32.3577391,84.7690435 C31.2307826,85.2490435 30.2446957,84.9307826 29.3681739,84.1064348 C24.6829565,79.6977391 21.369913,74.3707826 20.3316522,68.0733913 C19.262087,61.5986087 20.0029565,59.7725217 27.5368696,61.3325217 C29.1751304,61.6716522 30.7246957,62.4281739 32.2586087,62.976 C32.5455652,62.5690435 32.8690435,62.3238261 32.8481739,62.109913 C32.4464348,58.3586087 34.1838261,56.136 37.4029565,54.2629565 C40.3612174,52.5412174 43.142087,51.1846957 46.6064348,51.9151304 C50.8116522,52.802087 54.6255652,54.309913 57.4012174,57.8838261 C61.0533913,62.6003478 62.8533913,68.0212174 63.6464348,73.7968696 C64.0690435,76.869913 64.0690435,80.0055652 64.209913,83.1151304 C64.2829565,84.7377391 63.1351304,85.6038261 61.9142609,86.3290435 C61.1525217,86.7829565 59.7907826,86.3812174 59.4881739,85.562087 C59.0081739,84.2577391 58.6429565,82.9012174 58.3038261,81.549913 C57.4586087,78.2368696 56.7229565,74.9394783 55.0742609,71.8351304 C53.5142609,68.8768696 51.4064348,66.4246957 49.2829565,63.9516522 C47.529913,61.9116522 45.0725217,61.3742609 42.5003478,61.389913 C41.1855652,61.3951304 40.2986087,62.4333913 40.142087,63.8316522 C39.9177391,65.8403478 40.9664348,67.389913 41.7855652,69.0803478 C42.2916522,70.1342609 42.516,71.5168696 42.3281739,72.6594783 C42.1716522,73.5933913 41.2064348,74.3916522 40.5229565,75.362087" id="Fill-4" fill="#FEFEFE"></path>
                    <path d="M72.530087,42.4283478 C74.5961739,45.8822609 76.317913,49.1222609 76.5631304,52.9726957 C77.0326957,60.444 80.7944348,66.177913 86.2205217,71.0144348 C87.8483478,72.4648696 89.4135652,73.9935652 91.077913,75.4074783 C93.5874783,77.5309565 93.6031304,82.0492174 91.0309565,84.6474783 C90.3370435,85.3518261 89.5231304,85.7170435 88.5005217,85.4353043 C86.8413913,84.9761739 85.3283478,84.350087 83.9509565,83.1918261 C77.9613913,78.1726957 73.5787826,71.9066087 70.4483478,64.8996522 C68.757913,61.1274783 68.1944348,56.8283478 67.3544348,52.7222609 C66.9787826,50.8805217 67.5005217,49.0231304 68.5805217,47.3692174 C69.2535652,46.3466087 69.5926957,45.1048696 70.3074783,44.124 C70.8031304,43.4509565 71.6796522,43.0544348 72.530087,42.4283478" id="Fill-6" fill="#FEFEFE"></path>
                </g>
            </g>
        </g>
    </g>
</svg>
