
<svg width="121px" height="118px" viewBox="0 0 121 118" version="1.1" xmlns="http://www.w3.org/2000/svg" xmlns:xlink="http://www.w3.org/1999/xlink">
    <!-- Generator: Sketch 44.1 (41455) - http://www.bohemiancoding.com/sketch -->
    <desc>Created with Sketch.</desc>
    <defs>
        <polygon id="path-1" points="117.726111 5.20738915 117.726111 125.212793 0.00197050153 125.212793 0.00197050153 5.20738915"></polygon>
    </defs>
    <g id="Page-1" stroke="none" stroke-width="1" fill="none" fill-rule="evenodd">
        <g id="Desktop-HD" transform="translate(-296.000000, -1195.000000)">
            <g id="STAP_1" transform="translate(291.000000, 1195.000000)">
                <g id="STAP-1" transform="translate(65.214996, 59.997797) rotate(90.000000) translate(-65.214996, -59.997797) translate(5.217200, -5.217200)">
                    <g id="Group-3" transform="translate(0.000000, 0.010434)">
                        <mask id="mask-2" fill="white">
                            <use xlink:href="#path-1"></use>
                        </mask>
                        <g id="Clip-2"></g>
                        <path d="M117.726633,67.0003221 C116.844926,89.204724 109.83301,107.543181 89.5120171,117.179349 C69.524925,126.659001 48.6039542,128.850225 28.2047033,117.732372 C23.4257484,115.123772 18.5163635,111.456081 15.552994,107.021461 C-5.59231637,75.3687104 -8.03918303,46.2358672 26.2952082,18.876872 C43.7989133,4.93129716 62.810389,0.235817427 84.0339574,11.5154032 C106.807034,23.6140893 116.704062,42.9281626 117.726633,67.0003221" id="Fill-1" fill="#FBCA6C" mask="url(#mask-2)"></path>
                    </g>
                    <path d="M50.9146519,56.5940955 C49.2555824,56.4062764 48.1182329,56.2601948 46.9756662,56.1506336 C43.2453684,55.795864 39.5150706,55.4880492 35.78999,55.1019764 C31.4701486,54.6585145 27.1555245,54.1733149 22.8409003,53.6620293 C21.865284,53.5472509 20.9105364,53.2081329 19.9349201,53.0985717 C17.4671846,52.8272774 14.8585848,54.4080889 13.7525384,56.7610459 C12.8499629,58.6861926 13.4395064,60.3765653 15.8237667,62.3591012 C16.7315595,63.1155952 17.764565,63.7207903 18.7193125,64.4146779 C20.639242,65.8076702 22.5748231,67.1797937 24.453015,68.6249581 C27.6772444,71.0926935 30.1397627,74.0978006 30.9014739,78.2350399 C31.1414651,79.5289055 31.7988322,80.4471326 33.2283449,80.405395 C34.5430793,80.3636574 35.3152248,79.5654259 35.8734652,78.3915559 C37.0838555,75.8716485 36.7916923,73.4613022 35.78999,70.9466119 C35.26827,69.6266604 33.7813681,68.6249581 34.1361377,66.5745986 C41.4193485,67.3936989 48.2277941,69.2353704 55.2710137,71.0718247 C56.4918384,74.3117057 57.6604912,77.4211568 58.8604471,80.6193002 C59.8673666,80.9740698 60.7699422,81.3340566 61.6986037,81.6105681 C65.2723855,82.6800941 66.905369,81.6053509 67.2027494,77.9637455 C67.4896954,74.3690949 66.8688486,70.9100915 65.7001959,67.5032601 C63.9733028,62.4686624 62.4185773,57.3714583 60.6760326,52.347295 C60.1699642,50.8864791 59.4812939,49.3839255 58.5004603,48.2152728 C56.6483544,46.0188317 53.554555,46.5562033 52.0467843,48.9561152 C50.679878,51.1369046 51.0033443,53.5055133 50.9146519,56.5940955" id="Fill-4" fill="#FEFEFE"></path>
                    <path d="M104.376341,83.4924121 C100.588654,75.2805397 94.8810373,68.6546961 90.2533812,61.3506165 C86.4500426,55.3456197 82.385844,49.528442 79.798113,42.839992 C78.8694514,40.4296457 76.3651956,40.2053061 74.7165604,42.2661 C73.5218217,43.7530019 72.3427346,45.2503382 70.8506155,47.1285301 C70.5688867,51.2970727 71.6697158,55.7264752 73.6366001,59.8167598 C76.3704128,65.4982903 79.2398726,71.1641692 82.620618,76.4752785 C85.5787702,81.1238034 89.2673304,85.3497352 94.0828058,88.297453 C97.5157232,90.3999845 99.6912954,89.9356537 102.211203,86.7688135 C103.045955,85.7201563 103.698105,84.5306348 104.376341,83.4924121" id="Fill-6" fill="#FEFEFE"></path>
                    <path d="M50.9146519,56.5940955 C51.0033443,53.5055133 50.679878,51.1369046 52.0467843,48.9561152 C53.554555,46.5562033 56.6483544,46.0188317 58.5004603,48.2152728 C59.4812939,49.3839255 60.1699642,50.8864791 60.6760326,52.347295 C62.4185773,57.3714583 63.9733028,62.4686624 65.7001959,67.5032601 C66.8688486,70.9100915 67.4896954,74.3690949 67.2027494,77.9637455 C66.905369,81.6053509 65.2723855,82.6800941 61.6986037,81.6105681 C60.7699422,81.3340566 59.8673666,80.9740698 58.8604471,80.6193002 C57.6604912,77.4211568 56.4918384,74.3117057 55.2710137,71.0718247 C48.2277941,69.2353704 41.4193485,67.3936989 34.1361377,66.5745986 C33.7813681,68.6249581 35.26827,69.6266604 35.78999,70.9466119 C36.7916923,73.4613022 37.0838555,75.8716485 35.8734652,78.3915559 C35.3152248,79.5654259 34.5430793,80.3636574 33.2283449,80.405395 C31.7988322,80.4471326 31.1414651,79.5289055 30.9014739,78.2350399 C30.1397627,74.0978006 27.6772444,71.0926935 24.453015,68.6249581 C22.5748231,67.1797937 20.639242,65.8076702 18.7193125,64.4146779 C17.764565,63.7207903 16.7315595,63.1155952 15.8237667,62.3591012 C13.4395064,60.3765653 12.8499629,58.6861926 13.7525384,56.7610459 C14.8585848,54.4080889 17.4671846,52.8272774 19.9349201,53.0985717 C20.9105364,53.2081329 21.865284,53.5472509 22.8409003,53.6620293 C27.1555245,54.1733149 31.4701486,54.6585145 35.78999,55.1019764 C39.5150706,55.4880492 43.2453684,55.795864 46.9756662,56.1506336 C48.1182329,56.2601948 49.2555824,56.4062764 50.9146519,56.5940955" id="Fill-8" fill="#FEFEFE"></path>
                </g>
            </g>
        </g>
    </g>
</svg>
