
<svg width="105px" height="132px" viewBox="0 0 105 132" version="1.1" xmlns="http://www.w3.org/2000/svg" xmlns:xlink="http://www.w3.org/1999/xlink">
    <!-- Generator: Sketch 44.1 (41455) - http://www.bohemiancoding.com/sketch -->
    <desc>Created with Sketch.</desc>
    <defs>
        <polygon id="path-1" points="2.17254252e-20 0.629930312 2.17254252e-20 131.2 104.764351 131.2 104.764351 0.629930312"></polygon>
    </defs>
    <g id="Page-1" stroke="none" stroke-width="1" fill="none" fill-rule="evenodd">
        <g id="Desktop-HD" transform="translate(-1086.000000, -1212.000000)">
            <g id="NIEUWE_OOGST" transform="translate(1086.000000, 1212.000000)">
                <g>
                    <path d="M78.9103855,127.44824 C78.7059962,127.21384 78.4158435,126.89624 78.9103855,127.44824" id="Fill-1" fill="#5BBE00"></path>
                    <g id="Group-5" transform="translate(0.000000, 0.170400)">
                        <mask id="mask-2" fill="white">
                            <use xlink:href="#path-1"></use>
                        </mask>
                        <g id="Clip-4"></g>
                        <path d="M104.30171,6.96312 C103.891328,4.80552 102.451786,2.83672 100.40629,1.96872 C98.4160992,1.12552 96.2535802,1.08872 94.1167099,0.94152 C90.6372824,0.70312 87.1466336,0.63032 83.6551832,0.63032 C69.5563282,0.61752 55.4446489,0.92312 41.3393817,1.09432 C34.4983511,1.17992 27.6509084,1.30232 20.8339237,1.93192 C17.0859847,2.27432 13.3620916,2.79432 9.6630458,3.48472 C8.00869466,3.79032 6.31266412,4.07752 4.69598473,4.55432 C3.35422901,4.95192 2.31945802,5.80152 1.81048855,7.12792 C1.63896183,7.57432 1.46182443,8.02072 1.34560305,8.48552 C1.10033588,9.47592 0.996137405,10.56392 1.03300763,11.58472 C1.04743511,11.97272 1.08831298,12.35832 1.14361832,12.74152 C1.09071756,13.02792 1.07629008,13.31672 1.11877099,13.60152 C2.18480153,20.88232 1.4129313,28.23032 0.800564885,35.51752 C0.18178626,42.85272 -0.0330229008,50.20712 0.00384732824,57.57272 C0.0775877863,72.39112 0.696366412,87.22152 1.10674809,102.03352 C1.33919084,110.38952 1.57163359,118.74632 1.79846565,127.10312 C1.85377099,128.92472 3.23159542,130.61192 5.01419084,131.02152 C7.92934351,131.69352 10.6793817,130.40392 12.6206794,128.24552 C13.3741145,127.40232 14.0113282,126.44232 14.6301069,125.50072 C14.8809847,125.11592 15.1318626,124.74312 15.3891527,124.36392 C15.4821298,124.23192 15.5751069,124.09992 15.6672824,123.96712 C15.7113664,123.90792 15.7538473,123.84792 15.7995344,123.78952 C17.8025496,121.06952 20.0748779,118.55032 22.5796489,116.27032 C23.1615573,115.73832 23.7619008,115.23112 24.3622443,114.71752 C23.2168626,115.70792 24.325374,114.75432 24.6010992,114.53432 C24.9561756,114.25352 25.3176641,113.97192 25.6791527,113.69672 C26.9712137,112.70632 28.3065573,111.77112 29.6659466,110.87272 C32.4095725,109.06312 35.245374,107.40632 38.1060229,105.78072 C39.833313,104.80232 41.5662137,103.83032 43.299916,102.85272 C44.7450687,102.03192 46.1717863,101.12632 47.6393817,100.32312 C47.6610229,100.34312 47.6826641,100.36232 47.7035038,100.38232 C48.2854122,100.93912 48.8673206,101.49512 49.4612519,102.03912 C50.6370916,103.12152 51.8377786,104.17272 53.0560992,105.19352 C55.3164046,107.08872 57.6496489,108.89832 60.0013282,110.68312 C64.582855,114.16792 69.2317099,117.58472 73.433313,121.53352 C74.6396107,122.66472 75.8098397,123.83192 76.9367863,125.04232 C77.5427405,125.70312 78.143084,126.37512 78.7249924,127.05352 C78.8348015,127.18232 78.939,127.31032 79.0496107,127.43272 C78.9975115,127.37432 78.9518244,127.32392 78.910145,127.27752 C78.9470153,127.31992 78.9806794,127.35912 79.0063282,127.39032 C79.3253359,127.78152 79.643542,128.18472 79.9617481,128.58792 C80.5380458,129.32792 81.1199542,129.88392 82.0200687,130.22632 C82.8648779,130.54472 83.8756031,130.65432 84.7516718,130.34232 C85.4313664,130.09192 86.0437328,129.71272 86.558313,129.20552 C87.3854885,128.39272 87.5994962,127.30472 87.6796489,126.21032 C88.0852214,120.78392 88.5493053,115.36312 89.0791145,109.94232 C90.4393053,96.31592 92.2050687,82.73112 94.3731985,69.20632 C96.5597634,55.57992 99.1631221,42.01512 102.17045,28.54792 C103.726214,21.55512 105.667511,14.14632 104.30171,6.96312" id="Fill-3" fill="#5BBE00" mask="url(#mask-2)"></path>
                    </g>
                    <path d="M19.7222061,55.44 C19.810374,53.2256 19.9562519,51.0888 20.1598397,49.0312 C20.362626,46.9736 20.5630076,45.1224 20.7601832,43.4784 C20.813084,43.0528 20.9277023,42.7816 21.1048397,42.6664 C21.2811756,42.5512 21.5448779,42.5408 21.8967481,42.6368 C22.2486183,42.7328 22.5427786,42.832 22.7800305,42.9336 C23.0164809,43.036 23.3459084,43.2392 23.7667099,43.5424 C24.1081603,43.792 24.3149542,44.0552 24.3878931,44.3288 C24.4608321,44.604 24.4696489,44.944 24.4159466,45.3512 C24.2700687,46.5312 24.1201832,47.9088 23.9678931,49.4832 C23.814,51.0576 23.6689237,52.6848 23.5310611,54.364 C23.394,56.0432 23.260145,57.708 23.1310992,59.3584 C23.0012519,61.0088 22.8874351,62.4992 22.7880458,63.8304 C22.7712137,64.5616 22.4105267,64.8312 21.7067863,64.64 C21.1024351,64.5008 20.4836565,64.2856 19.8520534,63.9936 C19.2765573,63.6984 18.8517481,63.1456 18.5752214,62.3344 C18.3708321,61.7696 18.1560229,61.1184 17.9323969,60.3816 C17.7079695,59.6448 17.4859466,58.8544 17.2663282,58.0112 C17.0459084,57.1688 16.824687,56.3024 16.6018626,55.4112 C16.3790382,54.5208 16.1658321,53.6296 15.9614427,52.7368 C15.8676641,53.8184 15.7698779,54.9144 15.668084,56.0248 C15.5662901,57.136 15.4717099,58.2024 15.3843435,59.2256 C15.2977786,60.2488 15.2160229,61.2144 15.1414809,62.1216 C15.0669389,63.0288 15.0100305,63.8296 14.9723588,64.5232 C14.9515191,64.8512 14.8817863,65.0616 14.7615573,65.1544 C14.6413282,65.248 14.4144962,65.236 14.0810611,65.12 C13.7676641,65.0224 13.4486565,64.92 13.1256412,64.8128 C12.8018244,64.7064 12.4988473,64.5264 12.2151069,64.2728 C11.9345725,64.0768 11.7430076,63.8424 11.6412137,63.5696 C11.5394198,63.2968 11.5033511,62.9096 11.5338092,62.408 C11.544229,61.908 11.573084,61.2192 11.620374,60.3424 C11.6684656,59.4656 11.723771,58.4776 11.7878931,57.3784 C11.8520153,56.28 11.9313664,55.1128 12.0259466,53.8776 C12.1205267,52.6432 12.2167099,51.4272 12.3136947,50.2296 C12.4106794,49.0336 12.5156794,47.8936 12.6286947,46.8112 C12.7417099,45.7288 12.8523206,44.7816 12.9613282,43.968 C13.0326641,43.5224 13.1705267,43.236 13.3757176,43.1096 C13.5801069,42.9824 13.8486183,42.968 14.1812519,43.0648 C14.5932366,43.196 15.0004122,43.336 15.4035802,43.4872 C15.8067481,43.6376 16.2267481,43.8352 16.6635802,44.08 C17.0202595,44.2528 17.2783511,44.4832 17.4386565,44.772 C17.5989618,45.0616 17.7336183,45.4904 17.842626,46.0608 C17.9251832,46.4992 18.0333893,47.0736 18.1696489,47.7864 C18.3059084,48.5 18.4598015,49.2792 18.6321298,50.1248 C18.8036565,50.9704 18.9831985,51.8544 19.1691527,52.7752 C19.3551069,53.6976 19.539458,54.5856 19.7222061,55.44" id="Fill-6" fill="#FFFFFF"></path>
                    <path d="M29.7447366,43.55664 C30.0853855,43.80704 30.296187,44.04064 30.3755382,44.25664 C30.4548893,44.47344 30.4669122,44.78464 30.4132099,45.19104 C30.2985916,45.90864 30.1823702,46.75104 30.0629427,47.71824 C29.9435153,48.68624 29.8224847,49.71584 29.7006527,50.80784 C29.5780191,51.90064 29.4593931,53.03664 29.3423702,54.21504 C29.2245458,55.39344 29.110729,56.55264 29.0009198,57.69264 C28.8911107,58.83264 28.7933244,59.92864 28.7083626,60.98064 C28.6217977,62.03264 28.5448511,62.98304 28.4767214,63.83184 C28.4374466,64.16064 28.3629046,64.37584 28.2530954,64.47904 C28.1432863,64.58064 27.9212634,64.58384 27.5886298,64.48704 C27.2551947,64.37024 26.9305763,64.25344 26.6163779,64.13744 C26.3021794,64.02064 26.004813,63.86384 25.7242786,63.66784 C25.4245076,63.47344 25.224126,63.23904 25.1223321,62.96624 C25.0197366,62.69344 24.9748511,62.30704 24.985271,61.80624 C24.9876756,61.15344 25.0101183,60.33984 25.0517977,59.36704 C25.0942786,58.39424 25.1503855,57.33904 25.2217214,56.20144 C25.2938588,55.06384 25.3716069,53.87824 25.4565687,52.64304 C25.5423321,51.40864 25.6345076,50.21184 25.7338969,49.05344 C25.8324847,47.89504 25.9358817,46.80384 26.0424847,45.77984 C26.1482863,44.75504 26.2492786,43.88464 26.3446603,43.16864 C26.4167977,42.74224 26.5362252,42.47584 26.7045458,42.37024 C26.8720649,42.26544 27.1317595,42.27024 27.4844313,42.38464 C27.8371031,42.48064 28.2210344,42.63664 28.6370267,42.85424 C29.0530191,43.07184 29.4225229,43.30544 29.7447366,43.55664" id="Fill-8" fill="#FFFFFF"></path>
                    <path d="M35.8047595,42.18304 C37.1008282,41.78464 38.4193397,41.50944 39.7578893,41.35824 C40.3894924,41.28544 40.8199122,41.58784 41.0499504,42.26704 C41.2238817,42.62224 41.352126,42.94144 41.4354847,43.22544 C41.5188435,43.50944 41.6086145,43.82144 41.7047977,44.16144 C41.7849504,44.56064 41.7857519,44.83424 41.7064008,44.98304 C41.6286527,45.13104 41.4274695,45.24304 41.1044542,45.31904 C40.4383855,45.45264 39.7386527,45.59664 39.0068588,45.75264 C38.2734618,45.90864 37.5088053,46.08544 36.7112863,46.28304 C36.5966679,47.00064 36.4852557,47.75664 36.3754466,48.55024 C36.2648359,49.34464 36.1381947,50.17744 35.9947214,51.05024 C36.3546069,50.95344 36.7120878,50.88064 37.0655611,50.83184 C37.4190344,50.78384 37.7869351,50.73904 38.1700649,50.69904 C38.4954847,50.66144 38.7567824,50.69024 38.953958,50.78464 C39.1519351,50.87984 39.3274695,51.08624 39.4805611,51.40464 C39.6520878,51.74064 39.7915534,52.06944 39.8957519,52.39024 C40.0007519,52.71104 40.1001412,53.04144 40.1963244,53.38224 C40.3149504,53.77904 40.3389962,54.04704 40.2700649,54.18544 C40.2003321,54.32384 40.0055611,54.45024 39.6849504,54.56384 C38.9659809,54.79584 38.232584,55.02384 37.4847595,55.24784 C36.7369351,55.47184 36.0131565,55.70864 35.3150267,55.95904 C35.2501031,56.51984 35.1843779,57.06624 35.1178511,57.59824 C35.0513244,58.13104 34.9831947,58.64864 34.9150649,59.15184 C35.4825458,58.96704 36.0323931,58.81584 36.5654084,58.69984 C37.0976221,58.58384 37.6691107,58.47984 38.2806756,58.38864 C38.6044924,58.33264 38.8705992,58.35584 39.0789962,58.45984 C39.2865916,58.56304 39.4661336,58.77504 39.6192252,59.09264 C39.7931565,59.44864 39.9366298,59.78624 40.0512481,60.10624 C40.1650649,60.42704 40.2796832,60.75664 40.3951031,61.09584 C40.4928893,61.47504 40.5129275,61.73824 40.4536145,61.88544 C40.3935,62.03264 40.2043397,62.16384 39.8829275,62.27744 C39.0902176,62.55184 38.278271,62.83744 37.4470878,63.13344 C36.6167061,63.42864 35.8231947,63.70304 35.067355,63.95664 C34.5599885,64.17664 34.1736527,64.24144 33.9083473,64.15104 C33.6438435,64.05984 33.4097977,63.92384 33.2070115,63.74304 C32.984187,63.54384 32.7709809,63.33984 32.5665916,63.12944 C32.3622023,62.92064 32.1265534,62.64944 31.858042,62.31904 C31.6320115,62.06224 31.4556756,61.75504 31.3298359,61.39664 C31.2039962,61.03904 31.1470878,60.61024 31.1575076,60.10944 L32.4199122,43.37984 C33.3801412,42.98064 34.5078893,42.58144 35.8047595,42.18304" id="Fill-10" fill="#FFFFFF"></path>
                    <path d="M43.1773626,60.25008 C42.7589656,59.29328 42.5048817,58.10688 42.4159122,56.68928 C42.3277443,55.27248 42.334958,53.74928 42.4359504,52.11968 C42.5377443,50.49008 42.7100725,48.82848 42.9529351,47.13328 C43.1949962,45.43888 43.4482786,43.84448 43.7111794,42.35008 C43.7833168,41.92288 43.908355,41.66128 44.0862939,41.56528 C44.2642328,41.46848 44.5295382,41.48768 44.883813,41.62208 C45.2172481,41.73808 45.5434695,41.89248 45.8624771,42.08608 C46.1806832,42.28048 46.4924771,42.50288 46.7954542,42.75568 C47.4430878,43.33488 47.6875534,44.08928 47.5280496,45.02048 C47.3813702,45.85488 47.225874,46.78608 47.0623626,47.81328 C46.8980496,48.84128 46.7489656,49.88208 46.6151107,50.93648 C46.4812557,51.99168 46.3746527,53.03008 46.2977061,54.05328 C46.219958,55.07568 46.1838893,55.99568 46.1911031,56.81168 C46.1983168,57.62768 46.2648435,58.30608 46.3914847,58.84688 C46.5173244,59.38768 46.7185076,59.70768 46.9934313,59.80768 C47.3469046,59.92288 47.6659122,59.68928 47.9504542,59.10608 C48.2357977,58.52368 48.4898817,57.72688 48.7127061,56.71488 C48.9355305,55.70368 49.1351107,54.53488 49.3122481,53.20848 C49.4877824,51.88288 49.6432786,50.52848 49.7795382,49.14688 C49.9133931,47.76608 50.0272099,46.42928 50.118584,45.13648 C50.209958,43.84448 50.2869046,42.71568 50.3486221,41.75088 C50.3446145,41.32928 50.4496145,41.06368 50.6660267,40.95568 C50.8808359,40.84768 51.154958,40.84208 51.4875916,40.93888 C51.8202252,41.03568 52.1753015,41.19408 52.5536221,41.41248 C52.9311412,41.63248 53.2798053,41.84848 53.600416,42.06128 C53.9410649,42.31168 54.1462557,42.53968 54.2159885,42.74768 C54.2857214,42.95488 54.3025534,43.26128 54.2672863,43.66688 C54.1286221,46.01968 53.9715229,48.20848 53.795187,50.23568 C53.6196527,52.26368 53.388813,54.08768 53.104271,55.70768 C52.8189275,57.32848 52.4726679,58.71648 52.0654924,59.87248 C51.6575153,61.02928 51.1621718,61.89248 50.5778588,62.46288 C50.1546527,62.81248 49.7210267,63.06208 49.2769809,63.21248 C48.8321336,63.36128 48.3215611,63.42368 47.7420573,63.39808 C46.5838511,63.34688 45.6236221,63.03568 44.8605687,62.46288 C44.538355,62.21168 44.2321718,61.91168 43.9436221,61.56208 C43.654271,61.21328 43.3993855,60.77568 43.1773626,60.25008" id="Fill-12" fill="#FFFFFF"></path>
                    <path d="M60.2344924,51.52192 C60.5607137,50.29312 60.8805229,49.11792 61.1931183,47.99552 C61.5057137,46.87312 61.7966679,45.86752 62.0651794,44.97872 C62.3328893,44.08912 62.5517061,43.43792 62.7216298,43.02512 C62.8370496,42.69232 62.9741107,42.47312 63.132813,42.36832 C63.2899122,42.26352 63.5343779,42.24992 63.8662099,42.32752 C64.198042,42.40512 64.4769733,42.49552 64.7046069,42.59792 C64.9314389,42.70112 65.2031565,42.82032 65.5181565,42.95632 C65.8555992,43.12992 66.0583855,43.32032 66.1281183,43.52832 C66.1970496,43.73632 66.2451412,44.07952 66.2715916,44.55792 C66.2868206,44.82592 66.2988435,45.29632 66.3068588,45.96832 C66.3156756,46.64032 66.3260954,47.42752 66.3373168,48.32992 C66.3493397,49.23312 66.3645687,50.20752 66.3846069,51.25312 C66.404645,52.29952 66.4230802,53.33152 66.4415153,54.34832 C66.7356756,53.06432 67.0554847,51.71552 67.4001412,50.30352 C67.7447977,48.89072 68.0742252,47.54672 68.3884237,46.27072 C68.7026221,44.99472 68.9943779,43.84512 69.2652939,42.82112 C69.5354084,41.79712 69.7422023,41.02192 69.8864771,40.49472 C70.0139198,40.02672 70.1589962,39.76432 70.3193015,39.70752 C70.4796069,39.65072 70.7473168,39.70752 71.1224313,39.87872 C71.6778893,40.17472 72.2189198,40.54832 72.7447214,40.99952 C73.0316679,41.31072 73.1951794,41.66192 73.2360573,42.05312 C73.2769351,42.44512 73.2512863,42.83552 73.1575076,43.22512 C72.9483092,43.96672 72.7222786,44.83392 72.479416,45.82752 C72.2357519,46.82112 71.9816679,47.86832 71.7155611,48.96832 C71.4486527,50.06912 71.1801412,51.20352 70.9084237,52.37152 C70.6367061,53.53952 70.377813,54.68272 70.1325458,55.80112 C69.8864771,56.91952 69.6516298,57.98512 69.4288053,58.99632 C69.2067824,60.00832 69.0112099,60.91232 68.8436908,61.70992 C68.7491107,62.07952 68.5936145,62.32352 68.3796069,62.44112 C68.1639962,62.55872 67.842584,62.57232 67.4137672,62.48032 C66.9464771,62.37152 66.5833855,62.26672 66.3285,62.16592 C66.0720115,62.06512 65.757813,61.95712 65.3859046,61.84352 C65.0107901,61.67232 64.7366679,61.42352 64.5651412,61.09632 C64.392813,60.76992 64.2757901,60.40592 64.2156756,60.00592 C64.1555611,59.62512 64.0858282,59.15312 64.0064771,58.59072 C63.927126,58.02832 63.8453702,57.42752 63.7620115,56.78832 C63.6778511,56.14912 63.5985,55.49632 63.5231565,54.82752 C63.4470115,54.15952 63.3925076,53.51872 63.358042,52.90512 C63.1135763,53.70672 62.8626985,54.55152 62.6038053,55.44032 C62.3457137,56.32912 62.0956374,57.19312 61.8535763,58.03312 C61.6115153,58.87312 61.3894924,59.65792 61.1899122,60.38992 C60.9903321,61.12112 60.8268206,61.73152 60.7001794,62.21872 C60.568729,62.62912 60.4140344,62.87312 60.2352939,62.95072 C60.0565534,63.02752 59.8217061,63.03552 59.5291489,62.97552 C58.7500649,62.80672 58.0150649,62.57872 57.3249504,62.29072 C57.0099504,62.15392 56.787126,61.95952 56.6572786,61.70752 C56.5282328,61.45552 56.4384618,61.06192 56.3895687,60.52672 C56.3086145,59.76272 56.2260573,58.88832 56.1426985,57.90272 C56.0585382,56.91792 55.9864008,55.87952 55.9254847,54.78752 C55.8637672,53.67632 55.8100649,52.54112 55.7651794,51.38032 C55.7194924,50.22112 55.6802176,49.07472 55.6457519,47.94272 C55.6112863,46.81072 55.5888435,45.71712 55.5784237,44.66032 C55.5680038,43.60512 55.5672023,42.64352 55.5768206,41.77872 C55.589645,41.31632 55.6593779,41.01472 55.7860191,40.87312 C55.9126603,40.73232 56.1523168,40.69952 56.502584,40.77552 C56.9121641,40.86832 57.283271,40.96832 57.6167061,41.07472 C57.9501412,41.18112 58.2675458,41.34112 58.5681183,41.55472 C58.9087672,41.80512 59.1259809,42.16272 59.2197595,42.62832 C59.3127366,43.09472 59.3520115,43.53872 59.337584,43.96192 C59.3399885,44.36592 59.3351794,44.97152 59.3231565,45.77872 C59.3103321,46.58672 59.2983092,47.50032 59.2878893,48.51952 C59.2766679,49.53872 59.2734618,50.60992 59.278271,51.73312 C59.2838817,52.85712 59.2959046,53.93792 59.3151412,54.97392 C59.6012863,53.90192 59.908271,52.75072 60.2344924,51.52192" id="Fill-14" fill="#FFFFFF"></path>
                    <path d="M73.5128244,41.43064 C74.8088931,41.03224 76.1274046,40.75704 77.4667557,40.60584 C78.0975573,40.53304 78.5279771,40.83544 78.7588168,41.51464 C78.9327481,41.86984 79.0609924,42.18984 79.1443511,42.47304 C79.2277099,42.75624 79.3166794,43.06904 79.4128626,43.40904 C79.4930153,43.80824 79.4938168,44.08184 79.4152672,44.23064 C79.3367176,44.37944 79.1363359,44.49144 78.8133206,44.56664 C78.1464504,44.70024 77.4467176,44.84424 76.7149237,45.00024 C75.9823282,45.15624 75.2176718,45.33304 74.4201527,45.53064 C74.3055344,46.24824 74.1933206,47.00424 74.084313,47.79784 C73.9737023,48.59224 73.8470611,49.42504 73.7035878,50.29784 C74.0634733,50.20104 74.4201527,50.12824 74.773626,50.07944 C75.1279008,50.03144 75.495,49.98744 75.8789313,49.94664 C76.2035496,49.90984 76.4648473,49.93784 76.6628244,50.03224 C76.8608015,50.12744 77.0355344,50.33384 77.188626,50.65224 C77.3609542,50.98824 77.4996183,51.31704 77.6046183,51.63784 C77.7088168,51.95864 77.8090076,52.28904 77.9051908,52.62984 C78.0230153,53.02664 78.0478626,53.29464 77.9781298,53.43304 C77.9091985,53.57144 77.713626,53.69784 77.3930153,53.81144 C76.6740458,54.04344 75.9414504,54.27144 75.193626,54.49544 C74.445,54.71944 73.7220229,54.95624 73.0238931,55.20664 C72.9581679,55.76744 72.8924427,56.31384 72.825916,56.84584 C72.7593893,57.37864 72.6920611,57.89624 72.6239313,58.39944 C73.1914122,58.21464 73.7412595,58.06344 74.2734733,57.94744 C74.805687,57.83144 75.3779771,57.72824 75.9887405,57.63624 C76.3125573,57.58024 76.5794656,57.60344 76.7870611,57.70744 C76.9946565,57.81144 77.175,58.02264 77.3280916,58.34024 C77.5012214,58.69624 77.6454962,59.03384 77.759313,59.35384 C77.8739313,59.67464 77.9877481,60.00424 78.1031679,60.34344 C78.2017557,60.72264 78.2209924,60.98584 78.1616794,61.13304 C78.1023664,61.28024 77.9124046,61.41144 77.5917939,61.52504 C76.7982824,61.79944 75.9863359,62.08504 75.1559542,62.38104 C74.324771,62.67704 73.5312595,62.95064 72.7754198,63.20424 C72.2680534,63.42424 71.8817176,63.48904 71.6172137,63.39864 C71.3527099,63.30744 71.1178626,63.17144 70.9158779,62.99064 C70.6922519,62.79144 70.4790458,62.58744 70.275458,62.37704 C70.0710687,62.16824 69.8346183,61.89784 69.5661069,61.56664 C69.3400763,61.30984 69.1637405,61.00264 69.0379008,60.64424 C68.9128626,60.28664 68.8551527,59.85784 68.8655725,59.35704 L70.1287786,42.62744 C71.0882061,42.22824 72.2159542,41.82904 73.5128244,41.43064" id="Fill-16" fill="#FFFFFF"></path>
                    <path d="M21.8689351,74.2312 C21.6332863,74.148 21.3727901,74.312 21.0874466,74.7216 C20.8029046,75.1312 20.529584,75.6744 20.2690878,76.352 C20.0077901,77.0296 19.7673321,77.7968 19.5453092,78.6544 C19.3232863,79.5128 19.1477519,80.3392 19.0187061,81.1344 C18.8912634,81.948 18.8095076,82.808 18.7726374,83.7128 C18.7365687,84.6184 18.7501947,85.4576 18.8119122,86.2328 C18.8736298,87.008 18.9882481,87.6688 19.1533626,88.2168 C19.3184771,88.7656 19.5493168,89.0984 19.8442786,89.216 C20.1015687,89.3368 20.3708817,89.2448 20.6522176,88.9408 C20.9335534,88.6376 21.1964542,88.176 21.4417214,87.5568 C21.6853855,86.9384 21.9090115,86.1904 22.1109962,85.3152 C22.3121794,84.4392 22.4716832,83.4888 22.5871031,82.464 C22.6961107,81.6504 22.7626374,80.7824 22.7890878,79.8584 C22.8139351,78.9344 22.8003092,78.0704 22.7458053,77.2664 C22.6913015,76.4624 22.5903092,75.7768 22.4436298,75.208 C22.2961489,74.64 22.104584,74.3144 21.8689351,74.2312 M24.4201947,71.8128 C24.8866832,72.248 25.2457672,72.728 25.496645,73.252 C25.7467214,73.776 25.9487061,74.3704 26.1009962,75.0344 C26.3398511,76.2128 26.4897366,77.5248 26.5514542,78.972 C26.6123702,80.42 26.5642786,81.8832 26.4055763,83.3616 C26.246874,84.84 25.9751565,86.268 25.5896221,87.644 C25.2048893,89.02 24.6838969,90.216 24.0282481,91.2328 C23.5625611,91.8544 23.0519885,92.2808 22.4973321,92.5136 C21.941874,92.7464 21.296645,92.8256 20.561645,92.7504 C20.0767214,92.7008 19.5757672,92.608 19.0587824,92.4744 C18.5401947,92.3392 18.0616832,92.1216 17.621645,91.8184 C17.2801947,91.5688 16.9347366,91.2416 16.585271,90.8384 C16.2350038,90.4352 15.9592786,89.9704 15.7564924,89.4432 C15.4406908,88.6152 15.2074466,87.6968 15.054355,86.6856 C14.9020649,85.676 14.8203092,84.6336 14.8074847,83.5576 C14.7962634,82.4824 14.8563779,81.3888 14.9862252,80.2768 C15.116874,79.1648 15.3260725,78.0864 15.6146221,77.0424 C15.9031718,75.9984 16.256645,75.008 16.676645,74.072 C17.0958435,73.1368 17.5935916,72.3064 18.1698893,71.5824 C18.5313779,71.1592 18.9794313,70.8312 19.5156527,70.6 C20.0510725,70.3688 20.561645,70.2872 21.0465687,70.3568 C21.6877901,70.456 22.3081718,70.628 22.9093168,70.8728 C23.5104618,71.1184 24.0138206,71.432 24.4201947,71.8128" id="Fill-18" fill="#FFFFFF"></path>
                    <path d="M35.1978435,73.49224 C34.9621947,73.40904 34.7016985,73.57304 34.416355,73.98264 C34.131813,74.39224 33.8584924,74.93544 33.5979962,75.61304 C33.3366985,76.28984 33.0962405,77.05784 32.8742176,77.91544 C32.6521947,78.77384 32.4766603,79.59944 32.3476145,80.39464 C32.2201718,81.20904 32.138416,82.06904 32.1015458,82.97384 C32.0654771,83.87944 32.0791031,84.71864 32.1408206,85.49384 C32.2025382,86.26904 32.3171565,86.92984 32.482271,87.47784 C32.6473855,88.02664 32.8782252,88.35944 33.173187,88.47704 C33.4304771,88.59784 33.6997901,88.50584 33.981126,88.20184 C34.2624618,87.89784 34.5253626,87.43704 34.7706298,86.81784 C35.0150954,86.19864 35.2379198,85.45144 35.4399046,84.57624 C35.6410878,83.69944 35.8005916,82.74984 35.9160115,81.72424 C36.0250191,80.91144 36.0923473,80.04344 36.1179962,79.11944 C36.1428435,78.19544 36.1292176,77.33144 36.0747137,76.52744 C36.0202099,75.72344 35.9192176,75.03704 35.7725382,74.46904 C35.6250573,73.90104 35.4334924,73.57544 35.1978435,73.49224 M37.7491031,71.07384 C38.2155916,71.50904 38.5746756,71.98904 38.8255534,72.51304 C39.0756298,73.03704 39.2776145,73.63064 39.4299046,74.29464 C39.6687595,75.47384 39.818645,76.78584 39.8803626,78.23304 C39.9412786,79.68104 39.893187,81.14424 39.7344847,82.62264 C39.576584,84.10104 39.3040649,85.52904 38.9193321,86.90504 C38.5337977,88.28104 38.0128053,89.47704 37.3571565,90.49384 C36.8914695,91.11544 36.3808969,91.54184 35.8262405,91.77464 C35.2707824,92.00744 34.6255534,92.08664 33.8905534,92.01144 C33.4056298,91.96184 32.9046756,91.86904 32.3876908,91.73464 C31.8699046,91.60024 31.3905916,91.38264 30.9505534,91.07944 C30.6091031,90.82904 30.263645,90.50264 29.9141794,90.09944 C29.5639122,89.69624 29.288187,89.23064 29.0854008,88.70424 C28.7695992,87.87624 28.536355,86.95704 28.3832634,85.94664 C28.2309733,84.93704 28.1492176,83.89464 28.1371947,82.81864 C28.1251718,81.74344 28.1852863,80.64984 28.3151336,79.53784 C28.4457824,78.42584 28.6549809,77.34744 28.9435305,76.30344 C29.2320802,75.25944 29.5855534,74.26904 30.0055534,73.33304 C30.4247519,72.39704 30.9225,71.56744 31.4987977,70.84344 C31.8602863,70.42024 32.3083397,70.09224 32.8445611,69.86104 C33.3799809,69.62984 33.8905534,69.54824 34.3754771,69.61784 C35.0166985,69.71704 35.6370802,69.88904 36.2382252,70.13384 C36.8393702,70.37944 37.342729,70.69224 37.7491031,71.07384" id="Fill-20" fill="#FFFFFF"></path>
                    <path d="M52.6104504,77.62864 C52.5519389,77.95904 52.4725878,78.18384 52.374,78.30464 C52.2746107,78.42544 52.0702214,78.47584 51.7608321,78.45344 C50.9272443,78.34624 50.2988473,78.04464 49.8772443,77.54944 C49.4548397,77.05424 49.1823206,76.39664 49.059687,75.57744 C49.0316336,75.42544 49.0091908,75.27264 48.9907557,75.11984 C48.9731221,74.96704 48.9594962,74.80464 48.9498779,74.63184 C48.9402595,74.45984 48.9258321,74.29264 48.9065954,74.13024 C48.8881603,73.96784 48.864916,73.81104 48.8376641,73.65824 C48.7823588,73.37344 48.7262519,73.12704 48.6661374,72.91824 C48.6068244,72.71024 48.517855,72.59104 48.4008321,72.55824 C48.1651832,72.47584 47.8990763,72.62464 47.6025115,73.00624 C47.3059466,73.38784 47.0133893,73.91824 46.7240382,74.59664 C46.4338855,75.27584 46.1565573,76.07424 45.8896489,76.99264 C45.623542,77.91024 45.4023206,78.87424 45.2275878,79.88304 C45.0624733,80.71824 44.9518626,81.58864 44.8965573,82.49504 C44.8412519,83.40144 44.8452595,84.24144 44.9069771,85.01664 C44.9694962,85.79184 45.083313,86.44784 45.247626,86.98624 C45.4127405,87.52544 45.6331603,87.85424 45.9088855,87.97344 C46.1461374,88.07504 46.3793817,88.03344 46.6094198,87.84784 C46.8402595,87.66224 47.064687,87.38064 47.2843053,87.00304 C47.5039237,86.62624 47.709916,86.16784 47.9014809,85.62864 C48.0922443,85.09024 48.2677786,84.51824 48.4272824,83.91344 C47.7002977,84.01184 47.124,83.85584 46.6967863,83.44704 C46.2695725,83.03904 45.923313,82.35184 45.6580076,81.38624 C45.5369771,80.95104 45.6179313,80.66784 45.8992672,80.53664 C46.1814046,80.40624 46.5493053,80.28064 47.0045725,80.15904 C47.439,80.00064 47.8926641,79.86464 48.3679695,79.75184 C48.8432748,79.63904 49.2512519,79.53424 49.5927023,79.43904 C49.9910611,79.33984 50.3228931,79.33104 50.5873969,79.41264 C50.8519008,79.49424 51.0979695,79.69184 51.3272061,80.00544 C51.4931221,80.20784 51.6494198,80.43024 51.7985038,80.67104 C51.9459847,80.91344 52.0838473,81.13584 52.2104885,81.34064 C52.4437328,81.73104 52.5791908,82.07904 52.6152595,82.38384 C52.6513282,82.68944 52.6352977,83.08464 52.5655649,83.56864 C52.2529695,85.21904 51.8417863,86.63504 51.3296107,87.81664 C50.8174351,88.99824 50.2339237,89.92384 49.5782748,90.59424 C48.7006031,91.43104 47.6882748,91.74624 46.5412901,91.54064 C45.5129313,91.40544 44.5406794,91.05664 43.6237328,90.49184 C43.2822824,90.24224 42.9456412,89.90064 42.6138092,89.46704 C42.2819771,89.03424 42.024687,88.55344 41.8403359,88.02544 C41.5069008,87.21824 41.2680458,86.29424 41.1229695,85.25504 C40.9786947,84.21584 40.9225878,83.11904 40.9546489,81.96464 C40.9867099,80.80944 41.0989237,79.64064 41.2936947,78.45744 C41.4868626,77.27504 41.7561756,76.13104 42.099229,75.02624 C42.4414809,73.92224 42.8558702,72.89504 43.3415954,71.94544 C43.8281221,70.99584 44.3795725,70.18704 44.9975496,69.51904 C45.3782748,69.09424 45.8151069,68.83024 46.3104504,68.72544 C46.8057939,68.62144 47.2562519,68.59664 47.6634275,68.65024 C48.2445344,68.71424 48.8456794,68.87824 49.4668626,69.14144 C50.0880458,69.40544 50.6122443,69.74544 51.039458,70.16384 C51.4458321,70.54464 51.7536183,70.97424 51.9636183,71.45264 C52.1728168,71.93104 52.3331221,72.47504 52.4437328,73.08384 C52.5006412,73.40704 52.5455267,73.77984 52.5783893,74.19984 C52.6112519,74.62144 52.6344962,75.03824 52.6481221,75.45024 C52.6609466,75.86304 52.6641527,76.26144 52.6569389,76.64624 C52.6497252,77.03104 52.6336947,77.35824 52.6104504,77.62864" id="Fill-22" fill="#FFFFFF"></path>
                    <path d="M53.4464427,84.87456 C53.8736565,84.58176 54.3521679,84.44496 54.8819771,84.46336 C55.4125878,84.48256 55.869458,84.65376 56.2533893,84.97856 C57.322626,85.86096 58.2588092,86.41856 59.0611374,86.65296 C59.8634656,86.88736 60.4261374,86.79296 60.7499542,86.37216 C60.9487328,86.14976 60.9038473,85.86416 60.6152977,85.51456 C60.3259466,85.16576 59.9235802,84.77056 59.4081985,84.32816 C58.8928168,83.88576 58.3221298,83.41296 57.6977405,82.90976 C57.0725496,82.40576 56.5243053,81.89856 56.0538092,81.38656 C55.3588855,80.67536 54.8370916,79.77296 54.487626,78.67776 C54.1381603,77.58256 54.099687,76.37376 54.3722061,75.05216 C54.4563664,74.49056 54.6118626,73.90496 54.8378931,73.29696 C55.0639237,72.68896 55.3340382,72.09216 55.6482366,71.50816 C55.9616336,70.92416 56.3070916,70.37616 56.6822061,69.86576 C57.0581221,69.35456 57.4388473,68.92576 57.8235802,68.57696 C58.0776641,68.29376 58.4736183,68.05616 59.0114427,67.86256 C59.5492672,67.66976 60.1520153,67.68896 60.819687,67.92096 C61.3310611,68.12336 61.8560611,68.38256 62.393084,68.69856 C62.9309084,69.01456 63.383771,69.37376 63.7524733,69.77616 C64.2630458,70.30496 64.5780458,70.84496 64.6950687,71.39536 C64.8120916,71.94656 64.8938473,72.46096 64.9395344,72.93856 C64.943542,73.36096 64.9315191,73.83216 64.9026641,74.35296 C64.8738092,74.87296 64.8313282,75.39936 64.7736183,75.93056 C64.7167099,76.46256 64.6445725,76.98016 64.5572061,77.48496 C64.4698397,77.98976 64.3784656,78.42736 64.2838855,78.79696 C64.1877023,79.14816 64.0650687,79.37136 63.9167863,79.46576 C63.7677023,79.56096 63.5456794,79.54016 63.2491145,79.40256 C61.5538855,78.68896 60.7251069,77.64016 60.7635802,76.25376 C60.758771,75.83216 60.7940382,75.32976 60.8677786,74.74976 C60.9407176,74.16896 60.9936183,73.64256 61.0248779,73.16976 C61.0561374,72.69696 61.028084,72.35856 60.939916,72.15136 C60.8509466,71.94496 60.6609847,72.00416 60.3716336,72.32656 C60.0959084,72.55376 59.7945344,72.93536 59.468313,73.47216 C59.1412901,74.00896 58.8815954,74.60016 58.6860229,75.24496 C58.4912519,75.88976 58.4022824,76.55376 58.4215191,77.23376 C58.4399542,77.91536 58.6651832,78.50336 59.0972061,78.99776 C59.6534656,79.65856 60.2986947,80.26736 61.0320916,80.82256 C61.7654885,81.37696 62.4323588,81.94096 63.0327023,82.51216 C63.6322443,83.08496 64.0979313,83.68336 64.4321679,84.30896 C64.7656031,84.93456 64.8193053,85.65616 64.5956794,86.47536 C64.5027023,86.88416 64.3584275,87.32016 64.162855,87.78256 C63.9672824,88.24496 63.6979695,88.68336 63.3557176,89.09536 C63.0126641,89.50896 62.5758321,89.86416 62.0428168,90.16256 C61.5114046,90.46096 60.8613664,90.64096 60.0951069,90.70336 C59.0795725,90.79776 58.0712519,90.57936 57.070145,90.04896 C56.0682366,89.51856 55.0382748,88.57216 53.9810611,87.20816 C53.4231985,86.52896 53.1354504,86.02576 53.1170153,85.69936 C53.0993817,85.37456 53.2091908,85.09936 53.4464427,84.87456" id="Fill-24" fill="#FFFFFF"></path>
                    <path d="M75.8828588,71.1068 C75.3586603,71.2036 74.8200344,71.3052 74.2677824,71.4124 C74.1130878,72.786 73.9527824,74.2308 73.7876679,75.7484 C73.6217519,77.266 73.4566374,78.8028 73.293126,80.3588 C73.1296145,81.9148 72.979729,83.4556 72.8434695,84.9804 C72.7064084,86.5068 72.590187,87.954 72.4932023,89.3236 C72.4891947,89.5932 72.4411031,89.778 72.3513321,89.8796 C72.259958,89.9804 72.1325153,90.026 71.9682023,90.0156 C71.8038893,90.006 71.6091183,89.9588 71.3830878,89.8756 C71.1570573,89.7916 70.9061794,89.7004 70.6312557,89.6004 C70.0814084,89.3996 69.6429733,89.1364 69.3167519,88.8084 C68.9905305,88.4804 68.8646908,87.95 68.9392328,87.2148 C68.9472481,86.3308 68.9841183,85.2628 69.049042,84.0092 C69.1147672,82.7572 69.1965229,81.4556 69.2943092,80.1052 C69.3920954,78.7548 69.5051107,77.4028 69.6317519,76.0508 C69.7583931,74.6988 69.8874389,73.4708 70.0180878,72.3692 C69.6966756,72.4636 69.3784695,72.5484 69.065874,72.6236 C68.7524771,72.698 68.4919809,72.7804 68.285187,72.8684 C68.0022481,72.9804 67.7674008,73.0076 67.5822481,72.9508 C67.3954924,72.894 67.1878969,72.7084 66.9586603,72.394 C66.710187,72.0812 66.4809504,71.6812 66.2709504,71.1932 C66.0609504,70.7052 65.8894237,70.3012 65.7563702,69.982 C65.6217137,69.6436 65.5896527,69.4148 65.660187,69.2956 C65.7307214,69.1764 65.8693855,69.0724 66.0761794,68.9844 C66.7190038,68.7756 67.4540038,68.5716 68.2803779,68.3724 C69.1067519,68.1724 69.948355,67.9916 70.805187,67.8284 C71.6628206,67.666 72.5068282,67.5228 73.3372099,67.3996 C74.1675916,67.2772 74.9082023,67.1788 75.559042,67.1036 C75.8852634,67.086 76.1321336,67.1156 76.3004542,67.1924 C76.4679733,67.2692 76.6146527,67.4012 76.7404924,67.586 C76.9905687,67.918 77.2077824,68.2804 77.3929351,68.674 C77.5780878,69.0676 77.7295763,69.4524 77.8474008,69.8308 C77.9443855,70.19 77.9676298,70.434 77.9171336,70.562 C77.8666374,70.6892 77.6694618,70.782 77.3264084,70.8396 C76.8879733,70.9212 76.4062557,71.0108 75.8828588,71.1068" id="Fill-26" fill="#FFFFFF"></path>
                </g>
            </g>
        </g>
    </g>
</svg>
