
<svg width="240px" height="164px" viewBox="0 0 240 164" version="1.1" xmlns="http://www.w3.org/2000/svg" xmlns:xlink="http://www.w3.org/1999/xlink">
    <!-- Generator: Sketch 45.1 (43504) - http://www.bohemiancoding.com/sketch -->
    <desc>Created with Sketch.</desc>
    <defs>
        <polygon id="path-1" points="53.0859429 0.00284893573 53.0859429 59.5198266 0.0934158481 59.5198266 0.0934158481 0.00284893573 53.0859429 0.00284893573"></polygon>
        <polygon id="path-3" points="40.5673013 0.145036728 0.212073233 0.145036728 0.212073233 14.2068008 40.5673013 14.2068008 40.5673013 0.145036728"></polygon>
    </defs>
    <g id="Page-1" stroke="none" stroke-width="1" fill="none" fill-rule="evenodd">
        <g id="Tablet-Copy" transform="translate(-366.000000, -1444.000000)">
            <g id="Page-1" transform="translate(366.000000, 1444.000000)">
                <path d="M22.3066971,48.0610926 C22.68864,50.5008176 23.1610971,52.4944251 23.2660114,54.5048672 C23.3393829,55.9960261 23.0664686,57.5396313 22.7057829,59.0042432 C22.4575543,60.012378 21.6484114,60.6967701 20.3983543,60.8657638 C19.0186971,61.054182 18.06624,60.6210143 17.3242971,59.5461885 C15.7594971,57.2754572 14.88384,54.7489692 14.1343543,52.167445 C13.9629257,51.5756433 13.8196114,50.9734819 13.6056686,50.1570028 C12.6957257,50.2463558 11.9290971,50.371968 11.1549257,50.39204 C8.87218286,50.4412489 6.58601143,50.5338393 4.30669714,50.4347741 C3.41732571,50.3952774 2.44018286,50.0482253 1.68726857,49.5749134 C-0.483017143,48.2164891 -0.532388571,46.579646 1.38281143,44.9071912 C2.90578286,43.5779037 4.71264,42.7646621 6.65938286,42.1793353 C8.17892571,41.7235056 9.68475429,41.2307692 11.3928686,40.6920613 C11.0815543,39.5414798 10.8010971,38.5922662 10.57344,37.6301029 C10.2168686,36.1493038 9.88018286,34.6613824 9.56886857,33.1702235 C9.34464,32.0992827 9.75469714,31.1500691 10.36704,30.290856 C11.8975543,28.1515642 14.6911543,28.2836512 15.8575543,30.6243109 C16.8305829,32.571947 17.57664,34.6186483 18.4200686,36.6219681 C18.6724114,37.2105324 18.92064,37.7990966 19.2532114,38.5825539 C20.1357257,38.5890288 21.0429257,38.6583097 21.9425829,38.5955036 C23.5567543,38.4834886 25.1674971,38.3112575 26.7741257,38.135789 C28.8120686,37.914349 30.4543543,38.6188131 31.87584,39.951338 C34.1688686,42.0932197 33.3741257,42.9297708 31.6584686,44.2720081 C29.5368686,45.935398 27.2746971,47.2148292 24.4810971,47.5223847 C23.8365257,47.5949031 23.2173257,47.8299403 22.3066971,48.0610926" id="Fill-1" fill="#447300"></path>
                <path d="M119.933623,118.170682 C120.189394,117.396937 120.507566,116.600529 120.71808,115.780166 C121.582766,112.384752 120.749623,110.775103 117.388251,109.184879 C114.846309,107.984441 112.364023,107.26379 109.608137,108.854014 C108.323109,109.597975 107.062766,108.70833 107.234194,107.353143 C107.381623,106.218749 107.528366,105.015721 108.032366,104.003701 C110.357623,99.332094 112.552594,94.5879686 116.439223,90.7729846 C120.448594,86.8388634 122.972709,82.0448815 124.036937,76.7516884 C125.199909,70.9761187 125.969966,65.111196 126.568594,59.2527481 C127.170651,53.3476813 124.912594,48.107582 120.609051,43.9649705 C115.595794,39.1412043 109.187794,37.6837147 102.122194,38.579187 C98.6319086,39.0227145 96.1071086,40.6653849 94.8186514,43.7072713 C92.99808,47.9988045 91.9125943,52.4917057 91.8776229,57.1296435 C91.84608,61.1466429 91.9544229,65.1733546 92.2314514,69.1838791 C92.68608,75.8128346 90.8970514,81.9723631 88.2083657,87.9726103 C87.9176229,88.6239806 87.4485943,89.2190197 86.99328,89.7875118 C85.7960229,91.2754333 84.6337371,92.7963765 83.3205943,94.1917075 C79.8399086,97.894029 77.1717943,102.026928 75.42528,106.701773 C75.0885943,107.60113 74.44128,108.3943 73.9016229,109.300132 C71.2863086,108.92977 68.88768,108.582718 66.4897371,108.249263 C63.8216229,107.875664 61.7034514,108.648761 60.29568,110.903953 C59.75328,111.770288 59.1471086,112.602955 58.6643657,113.495837 C55.6074514,119.119248 52.4600229,124.707047 49.5779657,130.410098 C47.6421943,134.238032 44.9425371,137.498121 41.8931657,140.5031 C39.1585371,143.197935 36.16128,145.651257 33.2799086,148.210119 C32.7231086,148.702208 32.0997943,149.14185 31.6239086,149.694155 C29.63808,152.005031 28.7315657,155.172529 32.4152229,157.401174 C35.5592229,159.301544 38.7731657,159.946439 42.28128,158.521971 C42.6179657,159.007585 42.9224229,159.335213 43.0904229,159.712049 C44.3157943,162.429546 46.63008,163.536746 49.5957943,163.646171 C50.6565943,163.685667 51.7352229,163.685667 52.7823086,163.540631 C55.6424229,163.150197 58.5450514,162.859476 61.3393371,162.191271 C70.2741943,160.055864 79.4202514,159.791043 88.53408,159.460825 C92.6723657,159.308666 96.6954514,158.779671 100.753509,158.1283 C103.214537,157.731392 104.874651,156.650091 106.261166,154.756196 C109.902309,149.767321 113.032594,144.530459 115.539566,138.956258 C116.075109,137.76618 116.509166,136.50941 117.230537,135.424872 C119.531109,131.964063 120.763337,128.082388 121.940023,124.244095 C123.238766,120.018605 123.620709,121.202208 119.933623,118.170682" id="Fill-3" fill="#FFFFFF"></path>
                <path d="M126.007749,111.088292 C129.694834,114.119819 129.312891,112.936215 128.014149,117.161705 C126.837463,120.999999 125.605234,124.881673 123.304663,128.34313 C122.583291,129.427021 122.149234,130.68379 121.613691,131.873868 C119.10672,137.44807 115.976434,142.684932 112.335291,147.673807 C110.948777,149.567702 109.288663,150.649002 106.827634,151.045911 C102.769577,151.697281 98.7464914,152.226277 94.6082057,152.378436 C85.4943771,152.708653 76.34832,152.973475 67.4134629,155.108882 C64.6191771,155.777087 61.7165486,156.067807 58.8564343,156.458241 C57.8093486,156.603278 56.73072,156.603278 55.66992,156.563781 C52.7042057,156.454356 50.38992,155.347156 49.1645486,152.62966 C48.9965486,152.252824 48.6920914,151.925196 48.3554057,151.439582 C44.8472914,152.86405 41.6333486,152.219154 38.4893486,150.318785 C34.8056914,148.09014 35.7122057,144.922641 37.6980343,142.611766 C38.17392,142.059461 38.7972343,141.619818 39.3540343,141.127729 C42.2354057,138.568867 45.2326629,136.115545 47.9672914,133.420711 C51.0166629,130.415731 53.71632,127.155642 55.6520914,123.327708 C58.5341486,117.624657 61.6815771,112.036858 64.7384914,106.413448 C65.2212343,105.520565 65.8274057,104.687899 66.3698057,103.821564 C67.7775771,101.566372 69.8957486,100.793274 72.5638629,101.166873 C74.9618057,101.500328 77.3604343,101.847381 79.9757486,102.217742 C80.5154057,101.31191 81.16272,100.518741 81.4994057,99.6193833 C83.24592,94.9445388 85.9140343,90.8116395 89.39472,87.109318 C90.7078629,85.713987 91.8701486,84.1930438 93.0674057,82.7051224 C93.52272,82.1366302 93.9917486,81.5415911 94.2824914,80.8902208 C96.9711771,74.8899736 98.7602057,68.7304451 98.3055771,62.1014896 C98.0285486,58.0909651 97.9202057,54.0642534 97.9517486,50.047254 C97.98672,45.4093162 99.0722057,40.916415 100.892777,36.6248818 C102.181234,33.5829954 104.706034,31.940325 108.19632,31.4967975 C115.26192,30.6013252 121.66992,32.0588148 126.683177,36.882581 C130.98672,41.0251926 133.244777,46.2652919 132.64272,52.1703586 C132.044091,58.0288065 131.274034,63.8937292 130.111063,69.6692989 C129.046834,74.962492 126.52272,79.7564739 122.513349,83.6905951 C118.62672,87.5055791 116.431749,92.2497045 114.106491,96.9213117 C113.602491,97.9333313 113.455749,99.1363592 113.30832,100.270754 C113.136891,101.625941 114.397234,102.515585 115.682263,101.771625 C118.438149,100.181401 120.920434,100.902052 123.462377,102.10249 C126.823749,103.692714 127.656891,105.302363 126.792206,108.697776 C126.581691,109.51814 126.26352,110.314547 126.007749,111.088292 M122.127977,105.894164 C121.417577,105.663012 120.395177,104.968908 119.841806,105.216895 C115.959291,106.95863 111.810034,106.529347 107.755406,106.721003 C102.454149,106.96899 97.13232,106.403735 91.8276343,106.978702 C90.9279771,107.07453 90.0036343,107.028559 89.09712,106.96899 C84.2511771,106.641362 79.37712,106.489203 74.5736914,105.861143 C71.8493486,105.507615 70.1796343,106.21467 69.0242057,108.423242 C68.7540343,108.939288 68.4248914,109.42555 68.1519771,109.937711 C65.3508343,115.194644 62.5990629,120.471003 59.7416914,125.70139 C58.7720914,127.473557 57.6166629,129.169322 56.4262629,130.822352 C53.4118629,135.007698 49.5704914,138.485989 45.6351771,141.878165 C44.39952,142.942631 43.1384914,143.987025 41.9864914,145.127894 C41.6189486,145.491781 41.3357486,146.169698 41.4159771,146.638478 C41.5524343,147.458842 42.4246629,147.689994 43.1810057,147.663447 C44.3885486,147.617476 45.6420343,147.581216 46.78032,147.250351 C52.6274057,145.561062 58.7055771,145.061851 64.6788343,144.027169 C65.7183771,143.845226 66.78672,143.795369 67.8440914,143.722851 C72.2381486,143.428245 76.6356343,143.137524 81.03312,142.866228 C85.73232,142.575507 90.4342629,142.31457 95.1368914,142.030324 C96.6530057,141.940971 98.1828343,141.904064 99.68112,141.699459 C102.570034,141.302551 104.538034,140.006932 105.798377,137.259652 C109.239977,129.751411 113.028549,122.38497 117.562491,115.389538 C118.595177,113.796076 119.62512,112.202614 120.587863,110.572246 C121.392891,109.203462 122.32752,107.851513 122.127977,105.894164 M121.211177,45.4391005 C119.824663,45.0091702 118.711063,44.5792399 117.555634,44.3215407 C113.479749,43.4021114 110.59152,44.9165798 109.471063,49.208113 C108.93552,51.2710014 108.854606,53.4459049 108.651634,55.5754843 C108.518606,56.9967148 108.497349,58.4321899 108.483634,59.8598952 C108.46992,61.2785357 108.305349,62.7431477 108.59952,64.1119318 C109.331177,67.5468418 109.376434,71.038083 108.788091,74.4037121 C108.105806,78.3216462 107.198606,82.279077 104.152663,85.4426906 C102.636549,87.019965 101.561349,88.9734285 100.27632,90.7488334 C97.7138057,94.3028807 95.14032,97.8504532 92.5983771,101.418098 C92.4687771,101.599394 92.5949486,101.947093 92.6086629,102.462492 C96.1311771,101.873927 99.7160914,103.008322 103.43472,102.055871 C103.346949,99.8505356 103.000663,97.8375035 103.26672,95.9002272 C103.532777,93.9396414 104.415291,92.0548114 105.020777,90.1343698 C105.062606,89.9983978 105.05232,89.8501237 105.070149,89.7044395 C105.447977,86.6133442 106.87632,83.9618915 108.875863,81.5383537 C110.185577,79.951367 111.44592,78.3313585 112.72752,76.7242998 C120.041349,67.5597915 122.684777,57.2615363 121.211177,45.4391005 M108.347177,101.063923 C108.735977,99.520318 108.924549,98.3962834 109.296206,97.3318174 C111.421234,91.2681167 114.687977,85.8162897 119.173234,81.015833 C122.681349,77.2636551 124.855749,72.8730566 125.696434,67.9469878 C126.518606,63.126459 127.19472,58.2865057 127.887977,53.4497898 C128.59152,48.5632175 127.849577,44.0670789 124.162491,40.2184258 C122.170491,38.1322278 120.027634,36.3671826 117.068777,35.8245899 C115.143291,35.4743003 113.158149,35.3253786 111.193577,35.2496228 C107.748549,35.1240107 106.484777,35.8841585 105.297806,38.8664763 C103.346949,43.7595234 102.398606,48.7943698 102.716777,54.0642534 C103.077463,60.0813352 103.301691,66.0887047 102.199063,72.102549 C101.719063,74.7145051 100.360663,76.9755241 99.7654629,79.4754652 C99.0303771,82.543251 97.2550629,84.982976 95.25552,87.3573049 C93.3581486,89.6086116 91.42512,91.8333714 89.6114057,94.1410094 C87.9032914,96.3165603 86.6456914,98.7135512 85.90032,102.029324 C89.12112,98.7368607 91.7892343,95.9364864 93.8374629,92.6168288 C95.6690057,89.6481082 97.5663771,86.6625531 99.8600914,84.0143378 C102.377349,81.1051859 103.757006,77.8418596 104.355634,74.2716251 C104.828091,71.4576536 105.524777,68.5323146 104.666949,65.7287028 C103.925006,63.2948052 103.886606,60.9509081 104.254149,58.5079457 C104.443406,57.2349894 104.415291,55.9354862 104.516777,54.6463428 C104.656663,52.7951821 104.607977,50.8974024 105.020777,49.0986879 C106.519749,42.5921072 110.857577,39.078204 118.255749,40.3938943 C122.84592,41.207136 125.472206,41.9970681 125.794491,48.0076751 C126.140777,54.5110183 125.625806,60.8686774 123.129806,67.0677026 C120.769577,72.925503 117.541234,78.1992715 113.130034,82.8773535 C111.183291,84.9370045 109.883863,87.3670172 109.383291,90.1505569 C109.10352,91.7045218 108.84432,93.3115806 108.199749,94.7464082 C107.300091,96.7529655 107.39472,98.637148 108.347177,101.063923" id="Fill-5" fill="#447300"></path>
                <path d="M226.153166,117.824536 C223.635909,116.819639 221.104251,115.851 218.580137,114.865528 C215.508823,113.668975 212.46288,112.408968 209.360709,111.288171 C204.620366,109.572335 199.829966,107.972398 195.075223,106.279871 C192.516137,105.370154 190.012594,104.319286 187.449394,103.416691 C184.70448,102.448053 181.886194,101.660711 179.16528,100.642863 C175.941051,99.4391881 175.46448,100.143652 173.93808,102.514096 C173.783794,102.754961 173.654194,103.016545 173.542423,103.280719 L173.538994,103.280719 C172.380137,106.018287 172.765509,105.614904 171.700594,108.385494 C171.343337,109.30816 171.708137,110.048236 172.649623,110.511188 C172.919109,110.640038 173.192023,110.782485 173.479337,110.855003 C176.609623,111.64882 179.519109,112.961273 182.498537,114.131279 C187.428823,116.07244 192.435223,117.834248 197.417623,119.659509 C199.389051,120.383398 201.468823,120.902681 203.338766,121.811751 C206.857166,123.52435 210.666994,124.459966 214.321851,125.802203 C217.039337,126.800626 219.850766,127.574371 222.585394,128.539772 C224.22768,129.117976 225.27408,129.06553 226.264937,127.709695 C227.028823,126.671776 228.376251,123.613703 229.213509,121.857722 C229.237509,121.805276 229.265623,121.752182 229.293737,121.702326 C229.328709,121.633045 229.338994,121.590311 229.370537,121.527505 C229.461737,121.335849 229.552937,121.150668 229.626309,121.011459 L229.598194,121.001747 C229.934194,120.092677 229.668137,119.616128 228.502423,118.951808 C227.752937,118.525115 226.961623,118.148279 226.153166,117.824536" id="Fill-7" fill="#FFFFFF"></path>
                <path d="M224.857029,114.595526 L225.179314,113.874875 C222.657943,112.866093 220.123543,111.894217 217.602171,110.912629 C214.5384,109.721904 211.489029,108.459307 208.362171,107.328798 C203.607429,105.609724 198.814286,104.00914 194.073257,102.319851 C191.545714,101.420493 189.038743,100.369625 186.444,99.4534328 C183.660686,98.4750824 180.849257,97.6877401 178.174286,96.6860802 C177.337029,96.3752872 176.651314,96.1706818 176.017029,96.0910411 C175.544571,96.0282351 175.092686,96.0418323 174.6696,96.1570847 C174.025029,96.3293158 173.527886,96.7262243 173.1288,97.1885289 C172.722171,97.6547184 172.3656,98.2102608 171.934971,98.8784658 C171.784114,99.1160929 171.654514,99.3608424 171.546171,99.6055919 L171.476229,99.7674632 L172.246286,100.051709 L172.572,99.3310581 L172.568571,99.3310581 L171.787543,99.0170276 L171.476229,99.7609884 C170.891314,101.139485 170.681486,101.770783 170.495657,102.372944 C170.309829,102.967984 170.1528,103.516404 169.627543,104.889073 C169.3896,105.487349 169.368343,106.138719 169.630971,106.703974 C169.8936,107.265992 170.383886,107.6888 170.975657,107.976931 C171.140229,108.055924 171.3288,108.151752 171.553029,108.244342 C171.6792,108.294198 171.819086,108.343407 171.973371,108.380314 C173.940686,108.882763 175.8456,109.600176 177.7608,110.370037 C178.534971,110.677592 179.308457,110.99486 180.089486,111.30889 C180.352114,111.415078 180.618171,111.520618 180.884229,111.626806 C185.831657,113.570557 190.849029,115.339487 195.820457,117.160863 C197.449029,117.755902 199.090629,118.202667 200.582743,118.804181 C200.953714,118.949865 201.3144,119.108499 201.664114,119.280083 C202.385486,119.627135 203.113714,119.945051 203.845371,120.239009 C206.807657,121.42585 209.846743,122.242329 212.724686,123.303557 C215.490857,124.318814 218.3064,125.092559 220.998514,126.041126 C221.8776,126.348681 222.692914,126.540337 223.5336,126.388178 C224.384571,126.236019 225.094971,125.700548 225.651771,124.926803 C226.103657,124.30198 226.625486,123.27701 227.171314,122.146501 C227.7144,121.022466 228.260229,119.815553 228.6696,118.949865 L227.913943,118.628713 L228.655886,118.97965 L228.740229,118.824253 L228.750514,118.797706 L228.841714,118.595691 L228.0744,118.298495 L228.823886,118.628713 C228.921943,118.437057 229.009714,118.251876 229.076229,118.123027 L229.478743,117.339569 L228.585943,117.035251 L228.302057,117.772737 L229.086514,118.030436 C229.188,117.752665 229.257943,117.474894 229.2648,117.180935 C229.286057,116.73417 229.100914,116.264744 228.795771,115.928051 C228.491314,115.584236 228.109371,115.32589 227.636914,115.055241 C226.849029,114.602001 226.022743,114.212215 225.179314,113.874875 L224.857029,114.595526 L224.534743,115.316177 C225.308914,115.62697 226.065257,115.983735 226.779086,116.391003 C227.322171,116.694674 227.545714,116.926474 227.581371,117.011942 L227.6088,117.144676 C227.6088,117.213957 227.588229,117.336332 227.521714,117.515038 L227.252229,118.245401 L228.0504,118.516698 L228.330171,117.782449 L227.5848,117.441872 C227.507314,117.590794 227.416114,117.775974 227.3256,117.964393 L227.314629,117.981227 L227.241257,118.149574 L227.174743,118.278423 L227.164457,118.295258 L227.1576,118.308207 C226.737257,119.197852 226.194171,120.397643 225.662057,121.498368 C225.1368,122.596503 224.601257,123.620825 224.289943,124.037806 C223.852457,124.619895 223.547314,124.785004 223.214743,124.854285 C222.875314,124.923566 222.3432,124.851047 221.58,124.576514 C218.806971,123.601401 215.998971,122.827656 213.327429,121.846068 C210.351429,120.751817 207.329486,119.937928 204.493371,118.797706 C203.789829,118.516698 203.1,118.215617 202.423886,117.888637 C202.028229,117.696334 201.629143,117.521513 201.230057,117.362879 C199.612457,116.714746 197.956457,116.264744 196.419086,115.699489 C191.433257,113.874875 186.430286,112.11242 181.521257,110.181618 C181.258629,110.076078 180.996,109.973775 180.7368,109.867588 C179.963314,109.560032 179.189143,109.242764 178.4088,108.928734 C176.472343,108.151752 174.497486,107.401316 172.400571,106.869083 L172.201029,106.80304 C172.068,106.749946 171.913714,106.67419 171.735429,106.588074 C171.385029,106.412606 171.223886,106.234547 171.153943,106.079151 C171.087429,105.926992 171.062743,105.748286 171.182057,105.424543 C171.721029,104.022737 171.906857,103.390791 172.085143,102.80935 C172.264114,102.236973 172.438971,101.698265 173.012914,100.343078 L172.246286,100.051709 L171.920571,100.772361 L171.924,100.772361 L172.708457,101.086391 L173.016343,100.335955 L173.069143,100.217466 C173.153486,100.029047 173.247429,99.8503413 173.353029,99.6917074 C173.730857,99.0999058 174.038743,98.6272414 174.308914,98.2996138 C174.508457,98.0516269 174.679886,97.892993 174.830057,97.7971652 C175.057714,97.6579558 175.229143,97.6022721 175.649486,97.624934 C176.0664,97.6547184 176.696571,97.8133523 177.564686,98.1409799 C180.334286,99.1756616 183.156686,99.9623563 185.8632,100.918045 C188.394171,101.810927 190.901143,102.861796 193.489029,103.784463 C198.250629,105.480227 203.040343,107.077573 207.7704,108.790172 C210.848571,109.903847 213.887657,111.157379 216.968571,112.360407 C219.4968,113.342642 222.027771,114.31128 224.534743,115.316177 L224.857029,114.595526 Z" id="Fill-9" fill="#447300"></path>
                <path d="M171.839314,99.6205488 L172.097143,99.7157291 L172.097143,99.7144342 L172.208914,99.4703322 L171.964114,99.3719144 C171.919543,99.454145 171.8784,99.5383181 171.839314,99.6205488 L171.839314,99.6205488 Z M172.285714,100.632568 L172.5504,100.739404 C172.583314,100.658468 172.618971,100.574295 172.654629,100.487532 L172.394743,100.389114 L172.285714,100.632568 Z M175.487314,97.3588823 C175.542171,97.3588823 175.602514,97.3608248 175.6656,97.3634147 C176.1408,97.3977314 176.8128,97.5770849 177.6672,97.8982376 C179.221714,98.479032 180.816686,98.9892505 182.358857,99.4819869 C183.546514,99.8627083 184.776,100.255084 185.960914,100.67336 C187.256914,101.13178 188.5728,101.640056 189.843429,102.13085 C191.064,102.602219 192.325714,103.089776 193.586057,103.539778 C195.7008,104.292156 197.820343,105.027052 199.938514,105.760005 C202.544229,106.660657 205.2384,107.593684 207.869486,108.546135 C210.039086,109.330887 212.229257,110.20046 214.345371,111.041544 C215.253257,111.401546 216.161143,111.76349 217.074514,112.120254 L218.835429,112.801409 C220.691657,113.51947 222.546514,114.236237 224.387657,114.97437 L224.816914,114.013502 C223.059429,113.312922 221.297143,112.62853 219.5376,111.946081 L217.496229,111.154854 C216.496457,110.765715 215.498057,110.368806 214.4976,109.97125 C212.466514,109.165778 210.365486,108.333112 208.263086,107.572964 C205.649143,106.626341 202.978286,105.703027 200.396571,104.808849 C198.250971,104.066183 196.107429,103.323518 193.975543,102.56337 C192.746057,102.12567 191.498057,101.644588 190.2912,101.178399 C189.005486,100.68113 187.679314,100.167674 186.346971,99.699542 C185.131886,99.2702592 183.892114,98.8746456 182.692114,98.4906868 C181.1616,97.9998928 179.580343,97.4942067 178.071086,96.927657 C177.180343,96.5987344 176.535771,96.419381 175.981714,96.3501001 C175.513371,96.2885889 175.111543,96.3080135 174.745371,96.4083737 C174.232457,96.5449932 173.7744,96.8538437 173.3424,97.3543499 C172.969371,97.7816903 172.6272,98.3080959 172.235657,98.9134947 L172.623771,99.0701862 L172.986514,99.0701862 L172.612114,99.9080323 L172.865143,100.004508 C172.944,99.8400463 173.027657,99.6898297 173.118171,99.5545053 C173.530286,98.9057249 173.8224,98.4647873 174.089143,98.1403972 C174.294171,97.8852879 174.485486,97.7014021 174.674057,97.5803223 C174.911314,97.4365805 175.112914,97.3588823 175.487314,97.3588823 L175.487314,97.3588823 Z M227.869029,117.282655 L228.147429,117.41021 L228.418971,116.701861 L228.9696,116.888984 C228.920229,116.602796 228.783771,116.319197 228.584914,116.097757 C228.279086,115.752647 227.879314,115.498833 227.492571,115.278041 C226.834286,114.898614 226.108114,114.543145 225.325029,114.218754 L224.895771,115.178975 C225.608914,115.476171 226.289143,115.807036 226.921371,116.165743 C227.422629,116.448047 227.757943,116.720638 227.838171,116.914884 L227.880686,117.09359 C227.882743,117.157043 227.879314,117.219849 227.869029,117.282655 L227.869029,117.282655 Z M228.658971,117.61352 L228.906514,117.694456 C228.930514,117.607046 228.949029,117.52352 228.962743,117.440642 L228.750857,117.370066 L228.658971,117.61352 Z M227.603657,118.086832 L227.884114,118.182013 L227.974629,117.94309 L227.9472,117.933378 L227.959543,117.904241 L227.714743,117.790931 C227.711314,117.797406 227.707886,117.802586 227.706514,117.809061 L227.603657,118.086832 Z M228.475886,118.1723 L228.702857,118.259063 L228.702857,118.257768 C228.7152,118.235106 228.725486,118.212444 228.735771,118.191725 L228.497829,118.114027 L228.475886,118.1723 Z M172.861714,101.431565 C172.606629,102.077756 172.481829,102.461715 172.350171,102.883228 L172.311086,103.01402 C172.138286,103.574095 171.943543,104.209925 171.440914,105.512666 C171.341486,105.785905 171.372343,105.897272 171.408686,105.979503 C171.466286,106.107057 171.624,106.23785 171.863314,106.356987 L171.953829,106.400368 C172.087543,106.463822 172.205486,106.520153 172.309714,106.56224 L172.490743,106.621808 C174.682286,107.177351 176.751086,107.979585 178.5168,108.687934 L179.296457,109.004555 C179.814857,109.213045 180.329143,109.42283 180.844114,109.627436 L181.628571,109.940818 C185.300571,111.384063 189.092571,112.759322 192.759771,114.087962 C194.013257,114.543145 195.266057,114.997032 196.517486,115.455452 C197.165486,115.694374 197.834057,115.911929 198.510857,116.131426 C199.437943,116.433802 200.3952,116.745242 201.337371,117.122726 C201.747429,117.284598 202.156114,117.465246 202.551086,117.655607 C203.197029,117.96899 203.867657,118.264243 204.600686,118.556259 C206.202514,119.200507 207.828343,119.728208 209.5488,120.288283 C210.820114,120.700083 212.135314,121.128071 213.427886,121.602678 C214.8672,122.132321 216.381943,122.61146 217.847314,123.07506 C219.102171,123.471968 220.399543,123.881826 221.674971,124.330534 C222.5088,124.630967 222.940114,124.640679 223.1568,124.598593 C223.379657,124.551974 223.635429,124.458088 224.064686,123.885064 C224.333486,123.527004 224.823771,122.617935 225.410057,121.39095 C225.741943,120.706558 226.077257,119.983317 226.383086,119.321587 C226.5696,118.918203 226.745829,118.536835 226.904229,118.201437 L227.058514,117.881579 C227.106514,117.784457 227.152457,117.694456 227.1936,117.608988 L227.260114,117.429635 C227.330057,117.242511 227.332114,117.153806 227.332114,117.144093 L227.309486,117.061863 L227.308114,117.061863 C227.290971,117.061863 227.099657,116.874092 226.638171,116.61445 C225.966171,116.233729 225.241371,115.884734 224.478857,115.577826 L224.427429,115.557107 C224.415086,115.551927 224.403429,115.547395 224.391771,115.542215 L224.172343,115.455452 C222.333257,114.719261 220.479771,114.002494 218.624914,113.285728 L216.861943,112.602631 C215.949257,112.244572 215.04,111.88457 214.132114,111.522625 C212.018743,110.683484 209.832,109.816501 207.671314,109.033691 C205.043657,108.082535 202.350857,107.151451 199.7472,106.248857 C197.629029,105.515903 195.507429,104.781655 193.390629,104.027334 C192.122057,103.57539 190.856914,103.087833 189.634971,102.615169 C188.3664,102.124375 187.054629,101.617394 185.766171,101.163506 C184.589486,100.747173 183.365486,100.35674 182.180571,99.9773132 C180.632229,99.4819869 179.031771,98.969826 177.462171,98.3825567 C176.463771,98.0076627 175.9152,97.9060075 175.629257,97.8852879 C175.284343,97.880108 175.154057,97.9111873 174.978514,98.01608 C174.850286,98.0996056 174.696,98.2498222 174.528686,98.4583125 C174.279086,98.7632781 173.982857,99.2074531 173.589943,99.8258016 C173.492571,99.9727808 173.403429,100.137242 173.3232,100.317891 L172.861714,101.431565 Z M171.6288,100.104868 C171.126171,101.304011 170.936914,101.878978 170.760686,102.445528 L170.710629,102.606751 C170.541943,103.155819 170.367086,103.722369 169.887086,104.976548 C169.662857,105.543745 169.661486,106.120007 169.883657,106.599146 C170.1024,107.067278 170.5248,107.462892 171.102171,107.743901 L171.208457,107.795699 C171.341486,107.8598 171.490286,107.934261 171.663086,108.003542 C171.774171,108.048866 171.901029,108.09419 172.037486,108.126564 C174.070629,108.644553 176.041371,109.394988 177.869486,110.129884 C178.3632,110.324777 178.8576,110.526793 179.354743,110.728808 L180.990857,111.385358 C184.649829,112.822128 188.407543,114.18638 192.041829,115.505308 C193.336457,115.975382 194.6304,116.444809 195.920914,116.918121 C196.613486,117.171288 197.309486,117.39726 197.994514,117.619995 C198.938743,117.926903 199.829486,118.215682 200.690743,118.562734 C201.075429,118.714893 201.445029,118.877412 201.792,119.047053 C202.475657,119.376623 203.203886,119.697776 203.952686,119.998209 C205.633371,120.672889 207.363429,121.232964 209.035886,121.775557 C210.288686,122.182177 211.584686,122.601748 212.825829,123.060168 C214.326857,123.61053 215.863543,124.098087 217.349486,124.568161 C218.585829,124.958595 219.866057,125.363921 221.095543,125.796441 C221.847771,126.059967 222.656229,126.282702 223.481829,126.132486 C224.2224,125.999751 224.8752,125.544569 225.4224,124.779889 C225.883886,124.140173 226.437943,123.036211 226.92,122.038436 C227.2464,121.358576 227.576229,120.650227 227.875886,120.004684 C228.024686,119.684826 228.165943,119.379861 228.296229,119.102089 L227.790171,118.863167 L227.856686,118.727843 L227.345829,118.554964 C227.1984,118.863167 227.048229,119.1895 226.8912,119.530077 C226.581257,120.195045 226.246629,120.921523 225.912686,121.60721 C225.560914,122.343401 224.910857,123.659092 224.515886,124.18744 C224.026971,124.839457 223.666286,125.026581 223.274743,125.108811 C222.857829,125.196222 222.266057,125.102336 221.480229,124.820033 C220.215086,124.375858 218.922514,123.966 217.671086,123.570386 C216.200914,123.104197 214.679314,122.623115 213.2256,122.090234 C211.945371,121.618865 210.635657,121.19282 209.369143,120.782314 C207.713829,120.244901 206.004343,119.688064 204.385371,119.037341 C203.64,118.740145 202.957714,118.440359 202.298057,118.120501 C201.914743,117.934673 201.519771,117.762442 201.123429,117.603808 C200.197029,117.232799 199.248,116.924596 198.331886,116.625458 C197.647543,116.402723 196.9728,116.183225 196.317943,115.943008 C195.066514,115.484588 193.813029,115.030701 192.5616,114.575519 C188.890971,113.245584 185.094171,111.869677 181.414629,110.4219 L180.626743,110.108517 C180.113829,109.903912 179.597486,109.694127 179.079771,109.483694 L178.300114,109.169016 C176.552914,108.468437 174.502629,107.672677 172.328229,107.120372 L172.107429,107.049796 C171.977829,106.996055 171.8496,106.935191 171.704229,106.865263 L171.610286,106.820586 C171.247543,106.641233 171.010286,106.426268 170.8992,106.182813 C170.789486,105.930941 170.794971,105.680365 170.919771,105.338492 C171.416914,104.046759 171.610286,103.420641 171.779657,102.868336 L171.8208,102.736248 C171.955886,102.298548 172.085486,101.90164 172.352229,101.228255 L171.868114,101.034657 L171.506057,101.034657 L171.880457,100.196811 L171.6288,100.104868 Z M222.927771,126.703568 C222.213257,126.703568 221.536457,126.508675 220.902171,126.287235 C219.679543,125.856657 218.406171,125.452626 217.173257,125.063487 C215.681143,124.590823 214.136914,124.103266 212.624229,123.547724 C211.393371,123.092542 210.104229,122.674266 208.856229,122.269588 C207.173486,121.723758 205.4352,121.160445 203.737371,120.479291 C202.974857,120.173678 202.236343,119.847992 201.538971,119.511948 C201.203657,119.348781 200.8464,119.190795 200.475429,119.043816 C199.629257,118.703238 198.7488,118.417697 197.815543,118.114027 C197.122971,117.889997 196.420114,117.660787 195.720686,117.405678 C194.430171,116.932366 193.1376,116.462939 191.843657,115.992864 C188.205257,114.672642 184.444114,113.30839 180.776914,111.86644 L179.136,111.207947 C178.640229,111.006579 178.147886,110.805859 177.653486,110.610966 C175.8432,109.884487 173.8944,109.139879 171.901029,108.631603 C171.738514,108.594696 171.582857,108.53966 171.4464,108.484624 C171.257829,108.408868 171.097371,108.329875 170.954057,108.258651 L170.849143,108.208795 C170.158629,107.87275 169.649143,107.388431 169.3776,106.808932 C169.097143,106.203533 169.093714,105.488709 169.367314,104.7959 C169.840457,103.561145 170.013257,103.002365 170.181257,102.461715 L170.230629,102.300491 C170.415086,101.702862 170.629029,101.052139 171.220114,99.6639303 L171.635657,98.6713352 L171.721371,98.7069469 C172.1472,98.0484542 172.507886,97.4909693 172.914514,97.0228374 C173.420571,96.4368631 173.969829,96.0723288 174.593829,95.9059251 C175.036114,95.7835503 175.513371,95.7589459 176.057143,95.8334067 C176.661943,95.9091625 177.327086,96.0917534 178.274057,96.442043 C179.771657,97.0040603 181.346743,97.5071565 182.869714,97.994713 C184.073143,98.3806142 185.317714,98.7781703 186.5424,99.2087481 C187.880914,99.6820599 189.212571,100.196811 190.499657,100.69408 C191.703086,101.158974 192.948343,101.640056 194.170286,102.075813 C196.302171,102.834666 198.444343,103.577332 200.588571,104.318055 C203.171657,105.214175 205.841829,106.137489 208.461257,107.085408 C210.570514,107.846851 212.677029,108.683402 214.711543,109.490169 C215.712,109.887725 216.708343,110.283338 217.7088,110.670535 L219.748114,111.463057 C221.509029,112.146154 223.273371,112.830546 225.032229,113.53242 L225.242743,113.616593 C225.258514,113.623068 225.272229,113.6276 225.287314,113.634075 L225.541714,113.737673 C226.3488,114.071775 227.101029,114.440194 227.779886,114.831923 C228.207086,115.076025 228.652114,115.358329 229.007314,115.760417 C229.3392,116.128189 229.536,116.615745 229.544229,117.083877 L229.8624,117.192007 L229.325486,118.238344 C229.289829,118.304387 229.250057,118.386618 229.205486,118.477266 L228.923657,119.056765 C228.761143,119.397343 228.578057,119.792956 228.383314,120.214469 C228.082286,120.861955 227.751086,121.573541 227.422629,122.254696 C226.907657,123.323694 226.364571,124.4037 225.880457,125.0732 C225.256457,125.94342 224.461714,126.487308 223.584686,126.645942 C223.362514,126.686086 223.143086,126.703568 222.927771,126.703568 L222.927771,126.703568 Z" id="Fill-11" fill="#447537"></path>
                <path d="M233.992594,63.6741022 C233.565394,61.8520783 233.046994,60.0475365 232.556709,58.2423472 C232.168594,56.8139944 231.723566,55.3985913 231.366309,53.9637637 C230.127223,48.9884859 228.975223,43.9892512 227.683337,39.0236857 C226.464823,34.3488412 225.092023,29.7070184 223.83168,25.0386487 C223.551909,23.9942547 223.359223,22.9129541 223.285851,21.8387759 C223.100023,19.0513512 222.273737,16.4167332 221.366537,13.7950648 C221.20608,13.3385876 220.887223,12.9352042 220.614309,12.5285834 C220.67328,10.7628907 220.372251,8.28366914 219.126309,7.54618327 C218.69568,7.29819637 217.564251,6.88186326 216.268937,8.48179967 C215.141623,9.87713069 215.158766,11.0639714 215.376137,11.814407 C215.481051,12.1847686 215.663451,12.5052739 215.869851,12.8031172 C215.09568,12.9287294 214.322194,13.0407443 213.558994,13.2291626 C213.45408,13.2524721 213.349166,13.279019 213.246994,13.3023284 C213.264823,11.592967 212.956937,9.57281256 211.864594,8.92467968 C211.31808,8.60741184 210.194194,8.31345347 208.814537,10.0124551 C207.683794,11.4077862 207.700937,12.5946269 207.918309,13.3450625 C208.034194,13.7516833 208.237166,14.1058578 208.475109,14.4263631 C207.603566,14.6147813 206.731337,14.7934873 205.859794,14.9553586 C205.87008,13.2226877 205.527223,10.9946905 204.357394,10.3038236 C203.926766,10.0558367 202.796023,9.6420935 201.504137,11.23944 C200.372709,12.6341235 200.390537,13.8209642 200.607909,14.5713998 C200.726537,14.9916178 200.936366,15.3555046 201.181851,15.6792473 C200.450194,15.7847874 199.714423,15.890975 198.982766,15.9997526 C198.940937,14.3402475 198.569966,12.3964964 197.491337,11.7580758 C197.060709,11.5068514 195.933394,11.0937557 194.63808,12.6936922 C193.506651,14.0857858 193.527909,15.2726265 193.741851,16.0262995 C193.818651,16.2943584 193.933851,16.5391079 194.06688,16.7670228 C193.416137,16.8758003 192.764709,16.9917002 192.116709,17.1043627 C192.068023,15.4545699 191.697051,13.5302433 190.62528,12.898945 C190.19808,12.6477207 189.063909,12.2339775 187.772023,13.831324 C186.640594,15.2260075 186.661851,16.4134957 186.875794,17.1639313 C186.959451,17.4578897 187.09248,17.7188263 187.243337,17.9668132 C186.700251,18.066526 186.164709,18.1623538 185.625737,18.2614191 C185.56608,16.6316983 185.187566,14.7701778 184.137737,14.1518293 C183.710537,13.8973675 182.579109,13.4875093 181.283794,15.0842082 C180.153051,16.4795393 180.173623,17.66638 180.387566,18.4168156 C180.54528,18.9619983 180.84288,19.415238 181.189166,19.8050242 C180.975909,20.8138065 181.182309,21.5972638 181.368137,22.3574117 C182.344594,26.3944831 182.946651,30.4840008 183.373851,34.6000655 C183.514423,35.9688496 183.748937,37.3343963 184.049966,38.679871 C184.497737,40.7032628 185.12448,42.6903955 185.52768,44.7170248 C186.273051,48.4827998 186.899794,52.2712369 187.61088,56.0434868 C188.048366,58.3711968 188.563337,60.6820721 189.02208,63.0026598 C189.476709,65.3238949 189.872366,67.6509574 190.359223,69.9624803 C190.691794,71.5656541 191.938423,72.1671681 193.608137,71.7210506 C194.904137,71.3739985 196.224137,71.1098244 197.540709,70.8450029 C199.06368,70.5406848 200.600366,70.2829856 202.127451,69.9922646 C205.803566,69.2910379 209.462537,68.510818 213.15648,67.9028293 C215.20128,67.5654894 217.298194,67.535705 219.364251,67.3175025 C223.600594,66.8810973 227.732023,65.6579974 232.073966,66.0050496 C233.583223,66.1241869 234.332023,65.1154046 233.992594,63.6741022 M217.43808,11.282174 C217.392823,11.1138278 217.24608,10.6010194 217.97088,9.70813701 C218.026423,9.6420935 218.075794,9.58252484 218.121051,9.53655338 C218.376823,10.1879237 218.516709,11.5431106 218.51328,12.4890868 C218.509851,12.4890868 218.506423,12.4890868 218.502994,12.4923242 C218.051109,12.1944809 217.578651,11.7749104 217.43808,11.282174 M209.980937,12.8128295 C209.934994,12.6444833 209.79168,12.1316748 210.513051,11.2426774 C210.642651,11.0840435 210.747566,10.9681436 210.834651,10.8852655 C211.069166,11.5172112 211.156937,12.8329015 211.118537,13.8209642 C211.027337,13.8410363 210.940251,13.8611083 210.85248,13.8837703 C210.467109,13.5995242 210.099566,13.2362849 209.980937,12.8128295 M203.201966,12.4690147 C203.258194,12.3997338 203.30688,12.3401651 203.352823,12.2935462 C203.612023,12.9481539 203.751909,14.3104632 203.745051,15.2557919 C203.293166,14.9618335 202.813166,14.538378 202.669851,14.0391668 C202.624594,13.8708206 202.480594,13.3586597 203.201966,12.4690147 M195.803794,15.4908291 C195.758537,15.3257203 195.614537,14.8129119 196.335909,13.920677 C196.392137,13.8507486 196.440823,13.7950648 196.486766,13.7452084 C196.710309,14.3137006 196.839909,15.4047135 196.868023,16.3040707 C196.724709,16.3273802 196.57728,16.3474522 196.433966,16.3668768 C196.146651,16.1188899 195.898423,15.8249315 195.803794,15.4908291 M189.469851,15.0608988 C189.52608,14.9916178 189.578194,14.9352866 189.620709,14.8860777 C189.848366,15.4610447 189.97728,16.5650073 190.001966,17.4714869 C189.868937,17.4973863 189.735909,17.5142209 189.606309,17.5407678 C189.301851,17.2824211 189.039223,16.9787505 188.941166,16.6316983 C188.89248,16.4627046 188.74848,15.9505437 189.469851,15.0608988 M182.982309,16.313783 C183.037851,16.2445021 183.090651,16.1849334 183.135909,16.1389619 C183.35328,16.6977418 183.48288,17.755733 183.514423,18.6447304 C183.360137,18.6745147 183.202423,18.7042991 183.048823,18.730846 C182.775223,18.4860965 182.544137,18.2050878 182.453623,17.8845826 C182.404251,17.7155889 182.260937,17.2034279 182.982309,16.313783" id="Fill-13" fill="#FFFFFF"></path>
                <g id="Group-17" transform="translate(186.514286, 5.682332)">
                    <mask id="mask-2" fill="white">
                        <use xlink:href="#path-1"></use>
                    </mask>
                    <g id="Clip-16"></g>
                    <path d="M3.62304,9.05469475 C3.60932571,9.46779043 3.55309714,9.76239628 3.59835429,10.0466424 C4.24635429,14.0338574 4.89024,18.0210725 5.57321143,22.0011652 C5.99012571,24.4311779 6.40635429,26.864428 6.93504,29.2717787 C7.56521143,32.1576211 8.40932571,35.0078518 8.99081143,37.9001691 C9.86578286,42.2480335 10.5871543,46.6250347 11.3887543,50.9858489 C11.7247543,52.8078728 12.21504,54.5897526 13.0447543,56.279042 C16.9841829,55.9190401 20.7898971,55.3168787 24.5050971,54.324931 C28.2477257,53.3265086 32.06784,52.9302475 35.9188114,52.6194545 C38.20224,52.4375111 40.4671543,52.1001712 42.7396114,51.8321123 C44.3956114,51.6339817 46.0516114,51.4520384 47.7041829,51.2338358 C48.2925257,51.1548426 48.8740114,50.9962086 49.4376686,50.8738339 C49.5741257,49.2208037 49.1469257,47.8157604 48.6079543,46.4171919 C48.1492114,45.216754 47.6417829,44.0104887 47.3791543,42.7705542 C46.1674971,37.0707403 44.8996114,31.3942358 43.2161829,25.799962 C41.8749257,21.3530323 40.7263543,16.8568937 39.5572114,12.36723 C39.2383543,11.1344178 39.2068114,9.83491465 38.9544686,8.58526783 C38.5450971,6.58518545 38.5032686,4.47244061 37.1935543,2.64717929 C36.75264,2.62127987 36.3322971,2.52804197 35.9400686,2.58761063 C35.1172114,2.70674794 34.3012114,2.87897906 33.4996114,3.08034701 C30.6847543,3.79776083 27.9151543,4.88229887 25.0474971,5.19309186 C18.2897829,5.92734029 11.7281829,7.57648559 5.04109714,8.6046924 C4.55081143,8.67785825 4.08864,8.90253568 3.62304,9.05469475 M0.419382857,6.68748814 C2.93664,6.23101094 5.48886857,5.79460579 8.02395429,5.29863197 C12.7231543,4.38632505 17.45664,3.70517042 22.2045257,3.04732526 C25.6989257,2.56494864 29.1473829,1.72516008 32.57184,0.885371528 C34.8127543,0.336303914 37.0570971,0.0688924459 39.5009829,0.00284893573 C39.7917257,0.472275846 40.1976686,0.928105564 40.3800686,1.45062628 C41.2865829,4.07229464 42.1128686,6.71079762 42.2986971,9.49433733 C42.3720686,10.5685156 42.5647543,11.6530536 42.8445257,12.6980951 C44.1048686,17.3664648 45.4776686,22.0044026 46.6961829,26.6824846 C47.9880686,31.6486976 49.1400686,36.6440474 50.3791543,41.6232101 C50.7364114,43.0548003 51.18144,44.4695559 51.57024,45.8979086 C52.0639543,47.7063353 52.57824,49.5082872 53.00544,51.332901 C53.3448686,52.7716136 52.5960686,53.7797483 51.0868114,53.660611 C46.7448686,53.3167963 42.61344,54.5366588 38.3770971,54.9763014 C36.31104,55.1912665 34.2141257,55.2242883 32.1693257,55.5616282 C28.4753829,56.1702644 24.8164114,56.9504843 21.1402971,57.6510635 C19.6132114,57.9417845 18.0765257,58.1968937 16.5535543,58.5038018 C15.2369829,58.7686233 13.9169829,59.0327973 12.6216686,59.3766121 C10.9512686,59.823377 9.70464,59.2212156 9.37206857,57.6212792 C8.88521143,55.3071664 8.48955429,52.9794564 8.03492571,50.6621062 C7.57618286,48.3376336 7.06121143,46.0267582 6.62372571,43.7029332 C5.91264,39.9306833 5.28589714,36.1415987 4.54052571,32.3758237 C4.13801143,30.3491944 3.51126857,28.3588243 3.06281143,26.3393173 C2.76178286,24.9931952 2.52726857,23.628296 2.38738286,22.255627 C1.96018286,18.1395623 1.35744,14.053282 0.380982857,10.016858 C0.149897143,9.06764445 -0.147702857,8.10548116 0.419382857,6.68748814" id="Fill-15" fill="#447537" mask="url(#mask-2)"></path>
                </g>
                <path d="M197.959611,25.6032559 C197.522126,25.3818159 196.947497,25.1798005 196.496297,24.8359858 C196.019726,24.4727464 196.08624,23.9269163 196.503154,23.5533172 C196.870697,23.2263371 197.326011,22.9284938 197.798469,22.7763347 C198.975154,22.3930234 200.165554,22.0291366 201.38064,21.7811497 C206.243726,20.7827272 211.121211,19.8244488 215.994583,18.8719978 C217.416069,18.597464 218.851954,18.3630743 220.287154,18.1707711 C220.95984,18.0820656 221.509097,18.3527145 221.681211,19.0474663 C221.827954,19.6425054 221.488526,20.194163 220.81584,20.4091281 C220.32624,20.5645246 219.814697,20.6739496 219.310697,20.7794898 C213.936069,21.8840998 208.56144,22.9712278 203.194354,24.1023848 C201.881211,24.380156 200.60304,24.802964 199.311154,25.1700882 C198.915497,25.2788658 198.526697,25.4180751 197.959611,25.6032559" id="Fill-18" fill="#447537"></path>
                <path d="M212.930469,24.2200329 C213.46944,24.213558 214.303269,24.1403922 215.118583,24.2167955 C215.752183,24.2796016 216.337097,24.5968694 216.343954,25.3142832 C216.354926,25.9986753 215.892754,26.3586772 215.206354,26.4778145 C213.581897,26.7659455 211.932754,26.9472414 210.346697,27.3609845 C207.454354,28.1146575 204.607954,29.0075399 201.736869,29.8337313 C201.04704,30.0318618 200.346926,30.3031582 199.642697,30.3329425 C199.065326,30.3594894 198.400183,30.1943806 197.913326,29.8997748 C197.559497,29.6880471 197.300297,29.1396269 197.265326,28.7226463 C197.244754,28.4319254 197.654126,28.0848732 197.923611,27.807102 C198.046354,27.6782524 198.295269,27.6452306 198.494811,27.5953743 C202.594697,26.5807646 206.698011,25.5622701 210.80544,24.5670851 C211.404069,24.4214009 212.030811,24.3624797 212.930469,24.2200329" id="Fill-20" fill="#447537"></path>
                <path d="M199.386377,35.7900789 C198.948891,35.5686389 198.374263,35.3666235 197.923063,35.0228087 C197.446491,34.6595694 197.513006,34.1137392 197.92992,33.7401401 C198.297463,33.41316 198.752777,33.1153167 199.225234,32.9631577 C200.40192,32.5798463 201.59232,32.2159595 202.807406,31.9679726 C207.670491,30.9695501 212.547977,30.0112718 217.421349,29.0588207 C218.842834,28.7842869 220.27872,28.5498972 221.71392,28.3575941 C222.386606,28.2688886 222.935863,28.5395375 223.107977,29.2342893 C223.25472,29.8293284 222.915291,30.3809859 222.242606,30.5959511 C221.753006,30.7513476 221.241463,30.8607726 220.737463,30.9663127 C215.362834,32.0709228 209.988206,33.1580508 204.62112,34.2892078 C203.307977,34.566979 202.029806,34.989787 200.73792,35.3569112 C200.342263,35.4656887 199.953463,35.6048981 199.386377,35.7900789" id="Fill-22" fill="#447537"></path>
                <path d="M214.35696,34.4067911 C214.895931,34.4003163 215.72976,34.3271504 216.545074,34.4035537 C217.178674,34.4663598 217.763589,34.7836276 217.770446,35.5010414 C217.781417,36.1854335 217.319246,36.5454354 216.632846,36.6645727 C215.008389,36.9527037 213.359246,37.1339996 211.773189,37.5477428 C208.880846,38.3014158 206.034446,39.1942981 203.16336,40.0204895 C202.473531,40.21862 201.773417,40.4899164 201.069189,40.5197007 C200.491817,40.5462476 199.826674,40.3811388 199.339817,40.086533 C198.985989,39.8748053 198.726789,39.3263851 198.691817,38.9094045 C198.671246,38.6186836 199.080617,38.2716314 199.350103,37.9938602 C199.472846,37.8650106 199.72176,37.8319888 199.921303,37.7821325 C204.021189,36.7675229 208.124503,35.7490283 212.231931,34.7538433 C212.83056,34.6081591 213.457303,34.5492379 214.35696,34.4067911" id="Fill-24" fill="#447537"></path>
                <path d="M202.219337,45.3143301 C201.781851,45.0928901 201.207223,44.8908746 200.756023,44.5470599 C200.279451,44.1838206 200.345966,43.6379904 200.76288,43.2643913 C201.130423,42.9374112 201.585737,42.6395679 202.058194,42.4874088 C203.23488,42.1040975 204.42528,41.7402107 205.640366,41.4922238 C210.503451,40.4938013 215.380937,39.5348754 220.254309,38.5830719 C221.675794,38.3085381 223.11168,38.0741484 224.54688,37.8818452 C225.219566,37.7931397 225.768823,38.0637886 225.940937,38.7585404 C226.08768,39.3535795 225.748251,39.9052371 225.075566,40.1202022 C224.585966,40.2755987 224.074423,40.3850238 223.570423,40.4905639 C218.195794,41.5984114 212.821166,42.6823019 207.45408,43.8134589 C206.140937,44.0912301 204.862766,44.5140381 203.57088,44.8811623 C203.175223,44.9899399 202.786423,45.1291492 202.219337,45.3143301" id="Fill-26" fill="#447537"></path>
                <path d="M217.189851,43.9310423 C217.728823,43.9245674 218.562651,43.8514016 219.377966,43.9278048 C220.012251,43.9906109 220.59648,44.3078788 220.603337,45.0252926 C220.614309,45.7096846 220.152137,46.0696865 219.465737,46.1888238 C217.84128,46.4769548 216.192137,46.6582507 214.60608,47.0719939 C211.713737,47.8256669 208.867337,48.7185493 205.996251,49.5447406 C205.306423,49.7428712 204.606309,50.0141675 203.90208,50.0439519 C203.324709,50.0704988 202.659566,49.90539 202.172709,49.6107841 C201.81888,49.3990564 201.55968,48.8506363 201.524709,48.4336557 C201.504137,48.1429347 201.913509,47.7926452 202.182994,47.5181113 C202.305737,47.3892618 202.554651,47.35624 202.754194,47.3063836 C206.85408,46.291774 210.957394,45.2732795 215.064823,44.274857 C215.663451,44.1291728 216.290194,44.073489 217.189851,43.9310423" id="Fill-28" fill="#447537"></path>
                <g id="Group-32" transform="translate(185.142857, 0.502449)">
                    <mask id="mask-4" fill="white">
                        <use xlink:href="#path-3"></use>
                    </mask>
                    <g id="Clip-31"></g>
                    <path d="M38.05872,2.3740052 C38.0141486,2.4225666 37.9647771,2.47889783 37.90992,2.5468838 C37.18512,3.43976616 37.3304914,3.95127962 37.3764343,4.12092079 C37.5183771,4.61818957 37.9990629,5.04229251 38.4516343,5.33819333 C38.4550629,4.39027471 38.3165486,3.02926042 38.05872,2.3740052 L38.05872,2.3740052 Z M38.3919771,7.60568718 C38.13552,7.50597443 35.86512,6.57942283 35.31312,4.65185881 C35.0978057,3.90142324 35.0786057,2.71328754 36.21072,1.31795652 C37.5046629,-0.27485755 38.63472,0.133058248 39.0605486,0.384930067 C40.8866057,1.45846085 40.7103771,6.32237113 40.2900343,7.12007314 L38.8898057,6.46287546 L38.3919771,7.60568718 Z M30.7736914,4.00761085 C30.6866057,4.08984149 30.5789486,4.20638886 30.45072,4.3643753 C29.72592,5.25725766 29.8733486,5.77071358 29.92272,5.93841229 C30.0694629,6.45510564 30.5858057,6.89215828 31.0493486,7.1880591 C31.1124343,6.18510423 31.0287771,4.69070794 30.7736914,4.00761085 L30.7736914,4.00761085 Z M30.9362057,9.42058874 C30.6783771,9.32022851 28.4093486,8.39367691 27.8573486,6.46611289 C27.6420343,5.71567732 27.62352,4.52883659 28.75152,3.13739048 C30.12432,1.43774132 31.2509486,1.72198741 31.79952,2.04767256 C33.6310629,3.12638323 33.2834057,8.08029398 32.8322057,8.93626967 L31.4319771,8.27777702 L30.9362057,9.42058874 Z M23.2925486,5.12970304 C23.2466057,5.17826444 23.1972343,5.23589064 23.14032,5.30387661 C22.6548343,5.90474305 22.4806629,6.41949394 22.6102629,6.8779136 C22.7508343,7.37647735 23.2308343,7.80122777 23.6861486,8.09648111 C23.6895771,7.14920998 23.5510629,5.78495825 23.2925486,5.12970304 L23.2925486,5.12970304 Z M23.6223771,10.3633275 C23.3645486,10.2629672 21.0989486,9.33641564 20.5469486,7.41079408 C20.3316343,6.65971102 20.3110629,5.47157532 21.44112,4.07689178 C22.7384914,2.4756604 23.8685486,2.89069854 24.2978057,3.14386533 C26.1286629,4.22905085 25.9407771,9.08778125 25.5183771,9.88224583 L24.1215771,9.2185733 L23.6223771,10.3633275 Z M16.4271771,6.58395523 C16.3805486,6.63122166 16.3311771,6.68884786 16.2749486,6.75877629 C15.5501486,7.65295362 15.6968914,8.16640953 15.7462629,8.33540322 C15.8882057,8.83137703 16.3702629,9.254185 16.8200914,9.54814336 C16.82352,8.60022475 16.6836343,7.23791548 16.4271771,6.58395523 L16.4271771,6.58395523 Z M16.7604343,11.8143422 C16.5039771,11.7159245 14.2349486,10.7893729 13.6808914,8.8637513 C13.4655771,8.11266825 13.4450057,6.926475 14.5750629,5.53179146 C15.87312,3.93315003 17.0066057,4.34689319 17.4303771,4.59682256 C19.2632914,5.68006562 19.0767771,10.5394435 18.6530057,11.3332606 L17.2562057,10.6702356 L16.7604343,11.8143422 Z M9.55906286,7.72352952 C9.51517714,7.77209093 9.46512,7.82906964 9.40889143,7.89835058 C8.68409143,8.79252791 8.83083429,9.30598383 8.88089143,9.475625 C9.02214857,9.97095133 9.50489143,10.3957017 9.95403429,10.6877177 C9.95746286,9.73979904 9.81757714,8.37748977 9.55906286,7.72352952 L9.55906286,7.72352952 Z M9.89437714,12.9539165 C9.63792,12.8554988 7.36957714,11.9289472 6.81552,10.0033256 C6.60020571,9.25289002 6.57963429,8.0660493 7.70969143,6.67136576 C9.00706286,5.07337181 10.1391771,5.48452503 10.5629486,5.73639685 C12.3903771,6.81316506 12.2127771,11.6738379 11.7917486,12.4695975 L10.3901486,11.8098098 L9.89437714,12.9539165 Z M3.07289143,8.97641376 C3.02832,9.02497517 2.97757714,9.08324885 2.92066286,9.15252979 C2.19586286,10.0454121 2.34329143,10.5588681 2.39266286,10.7265668 C2.53460571,11.2238356 3.01666286,11.6479385 3.46649143,11.9406019 C3.46992,10.9926833 3.33140571,9.63037401 3.07289143,8.97641376 L3.07289143,8.97641376 Z M3.40614857,14.2068008 C3.14969143,14.107088 0.879291429,13.1798889 0.327291429,11.2542674 C0.111977143,10.5038318 0.0934628571,9.31699108 1.22146286,7.92554497 C2.51883429,6.32755101 3.65232,6.7406467 4.07677714,6.99122354 C5.90420571,8.06799175 5.72454857,12.9267222 5.30420571,13.7224817 L3.90192,13.0620466 L3.40614857,14.2068008 Z" id="Fill-30" fill="#447537" mask="url(#mask-4)"></path>
                </g>
            </g>
        </g>
    </g>
</svg>
