
<svg width="239px" height="87px" viewBox="0 0 239 87" version="1.1" xmlns="http://www.w3.org/2000/svg" xmlns:xlink="http://www.w3.org/1999/xlink">
    <!-- Generator: Sketch 44.1 (41455) - http://www.bohemiancoding.com/sketch -->
    <desc>Created with Sketch.</desc>
    <defs>
        <polygon id="path-1" points="9.96185349 12.4707661 0.38517907 12.4707661 0.38517907 0.946378629 9.96185349 0.946378629"></polygon>
    </defs>
    <g id="Page-1" stroke="none" stroke-width="1" fill="none" fill-rule="evenodd">
        <g id="Desktop-HD" transform="translate(-1157.000000, -3324.000000)">
            <g id="Group-6-Copy" transform="translate(0.000000, 3264.000000)">
                <g id="Page-1" transform="translate(1157.000000, 59.000000)">
                    <g id="Group-31" transform="translate(0.000000, 40.775966)" fill="#FFFFFF">
                        <path d="M106.796038,7.203575 C102.202236,7.203575 99.253643,10.7023875 99.253643,15.2692 C99.253643,20.5952937 101.991027,22.9398875 106.187422,22.9398875 C110.656166,22.9398875 113.699248,19.441075 113.699248,14.7797 C113.699248,9.45360625 110.839585,7.203575 106.796038,7.203575 M106.490341,20.1391687 C103.966945,20.1391687 102.627434,18.3424812 102.627434,14.9326687 C102.627434,11.4672312 104.544992,9.94310625 106.52091,9.94310625 C109.105445,9.94310625 110.353248,11.7703875 110.353248,14.9966375 C110.353248,18.4982312 108.588538,20.1391687 106.490341,20.1391687" id="Fill-1"></path>
                        <path d="M156.387705,19.605725 C155.226053,20.0785375 153.83374,20.3538812 152.48867,20.3538812 C149.476158,20.3538812 147.925437,18.7685687 148.014367,15.2697562 L157.024112,15.2614125 C157.402065,15.2614125 157.671635,14.9832875 157.710542,14.5744437 L157.727216,14.4604125 C157.741112,14.2017562 157.749449,13.9625687 157.749449,13.7484125 C157.749449,10.1550375 155.89303,7.20413125 151.574356,7.20413125 C147.163972,7.20413125 144.671147,10.6139437 144.671147,15.177975 C144.671147,20.50685 147.252902,22.9404437 151.968984,22.9404437 C153.566949,22.9404437 155.162135,22.6929125 156.546112,22.2145375 L156.646158,22.1783812 C157.043565,22.0421 157.190856,21.7361625 157.1186,21.3301 L156.949077,19.88385 L156.949077,19.8810687 C156.907391,19.6446625 156.668391,19.4972562 156.407158,19.6001625 L156.387705,19.605725 Z M148.075507,12.98635 C148.350635,10.9476937 149.629007,9.6099125 151.454856,9.6099125 C153.369635,9.6099125 154.556298,10.9171 154.495158,12.98635 L148.075507,12.98635 Z" id="Fill-3"></path>
                        <path d="M172.054433,19.605725 C170.89556,20.0785375 169.500467,20.3538812 168.155398,20.3538812 C165.142886,20.3538812 163.594944,18.7685687 163.681095,15.2697562 L172.69084,15.2614125 C173.068793,15.2614125 173.338363,14.9832875 173.37727,14.5744437 L173.393944,14.4604125 C173.40784,14.2017562 173.416177,13.9625687 173.416177,13.7484125 C173.416177,10.1550375 171.559758,7.20413125 167.243863,7.20413125 C162.8307,7.20413125 160.337874,10.6139437 160.337874,15.177975 C160.337874,20.50685 162.91963,22.9404437 167.638491,22.9404437 C169.233677,22.9404437 170.828863,22.6929125 172.21284,22.2145375 L172.312886,22.1783812 C172.710293,22.0421 172.857584,21.7361625 172.785328,21.3301 L172.615805,19.88385 L172.615805,19.8810687 C172.576898,19.6446625 172.335119,19.4972562 172.073886,19.6001625 L172.054433,19.605725 Z M163.745014,12.98635 C164.017363,10.9476937 165.295735,9.6099125 167.121584,9.6099125 C169.036363,9.6099125 170.223026,10.9171 170.161886,12.98635 L163.745014,12.98635 Z" id="Fill-5"></path>
                        <path d="M29.1869023,19.605725 C28.0280302,20.0785375 26.6329372,20.3538812 25.2878674,20.3538812 C22.2753558,20.3538812 20.7246349,18.7685687 20.8135651,15.2697562 L29.8233093,15.2614125 C30.2012628,15.2614125 30.4708326,14.9832875 30.5097395,14.5744437 L30.526414,14.4604125 C30.5403093,14.2017562 30.5486465,13.9625687 30.5486465,13.7484125 C30.5486465,10.1550375 28.6922279,7.20413125 24.3735535,7.20413125 C19.9631698,7.20413125 17.4703442,10.6139437 17.4703442,15.177975 C17.4703442,20.50685 20.0548791,22.9404437 24.7709605,22.9404437 C26.3661465,22.9404437 27.9613326,22.6929125 29.3453093,22.2145375 L29.4453558,22.1783812 C29.8427628,22.0421 29.9900535,21.7361625 29.9177977,21.3301 L29.7482744,19.88385 L29.7482744,19.8810687 C29.7093674,19.6446625 29.4675884,19.4972562 29.2063558,19.6001625 L29.1869023,19.605725 Z M20.8747047,12.98635 C21.1498326,10.9476937 22.4282047,9.6099125 24.2540535,9.6099125 C26.1688326,9.6099125 27.3554953,10.9171 27.2943558,12.98635 L20.8747047,12.98635 Z" id="Fill-7"></path>
                        <path d="M87.3100349,1.02057813 C87.3100349,0.645109375 87.0015581,0.336390625 86.6263837,0.336390625 L82.4438837,0.336390625 C82.2048837,0.336390625 81.9853372,0.433734375 81.818593,0.586703125 C81.6129419,0.770265625 81.4823256,1.03448438 81.4823256,1.33207813 L81.4823256,1.93004688 C81.4823256,2.22207813 81.6101628,2.48629688 81.8102558,2.66707813 C81.9797791,2.82282813 82.1993256,2.92295313 82.4438837,2.92295313 C82.4438837,2.92295313 84.0390698,2.92017188 84.0390698,2.92573438 L84.0140581,21.9494844 C84.0140581,22.3277344 84.325314,22.6364531 84.6977093,22.6364531 L86.6319419,22.6364531 C87.0043372,22.6364531 87.312814,22.3277344 87.312814,21.9494844 L87.3100349,1.02057813 Z" id="Fill-9"></path>
                        <path d="M67.5944802,22.4111719 C69.0145849,22.7226719 70.4346895,22.8784219 72.2549802,22.8784219 C77.3073291,22.8784219 80.2864919,19.5631719 80.2864919,14.3260781 C80.2864919,9.75926563 78.3105733,7.20329688 74.7200151,7.20329688 C72.6662826,7.20329688 70.9766081,8.22123438 70.1095384,9.86495313 L70.1095384,1.02057813 C70.1067593,0.645109375 69.8010616,0.339171875 69.4231081,0.339171875 L65.2600616,0.339171875 L65.2433872,0.339171875 C65.0016081,0.339171875 64.7848407,0.433734375 64.6125384,0.586703125 C64.4124453,0.770265625 64.2846081,1.03448438 64.2846081,1.33207813 L64.2846081,1.93004688 C64.2846081,2.22207813 64.4096663,2.48629688 64.6097593,2.66707813 C64.7765035,2.82560938 64.9988291,2.92295313 65.2433872,2.92295313 C65.2433872,2.92295313 66.8608058,2.91739063 66.8635849,2.92017188 L66.8802593,21.6268594 C66.8413523,22.0023281 67.1164802,22.3416406 67.4916547,22.3805781 L67.5944802,22.4111719 Z M72.5301081,20.2918594 C71.5574337,20.2918594 70.7959686,20.2000781 70.1289919,19.9887031 L70.1289919,15.3022969 C70.1289919,12.7407656 71.4351547,9.91223438 73.8696198,9.91223438 C75.9066779,9.91223438 76.8793523,11.5865469 76.8793523,14.6264531 C76.8793523,18.7093281 75.0840733,20.2918594 72.5301081,20.2918594 L72.5301081,20.2918594 Z" id="Fill-11"></path>
                        <path d="M15.7281453,20.4398219 C15.553064,20.2534781 15.3112849,20.1366656 15.0417151,20.1366656 L13.3965058,20.1366656 L13.3965058,1.05450938 C13.3965058,0.681821875 13.0880291,0.373103125 12.7128547,0.375884375 L8.5998314,0.389790625 C8.3608314,0.389790625 8.14128488,0.484353125 7.97176163,0.640103125 C7.7716686,0.823665625 7.6438314,1.08788438 7.6438314,1.38269688 L7.6438314,1.98066563 C7.6438314,2.27269688 7.76888953,2.53413438 7.96620349,2.71491563 C8.13572674,2.87344688 8.35805233,2.97357188 8.5998314,2.97357188 C8.5998314,2.97357188 10.1839012,2.98191563 10.1839012,2.97357188 L10.1839012,7.38463438 C9.36407558,7.32622813 8.6359593,7.26225938 7.90784302,7.26225938 C3.01112209,7.26225938 0.00138953488,10.6136656 0.00138953488,15.8173844 C0.00138953488,20.2006344 1.85780814,22.9373844 5.56786628,22.9373844 C7.64938953,22.9373844 9.26958721,21.9277906 10.1839012,20.4008844 L10.1839012,22.0362594 C10.1839012,22.4089469 10.4895988,22.7176656 10.8675523,22.7176656 L15.0417151,22.7176656 C15.2557035,22.7176656 15.4530174,22.6397906 15.6142035,22.5146344 C15.8476453,22.3310719 16.0004942,22.0473844 16.0004942,21.7247594 L16.0004942,21.1267906 C16.0004942,20.8597906 15.8976686,20.6178219 15.7281453,20.4398219 M6.4488314,20.2590406 C4.38120349,20.2590406 3.43631977,18.5569156 3.43631977,15.5114469 C3.43631977,11.4341344 5.20102907,9.84882188 7.78556395,9.84882188 C8.57481977,9.84882188 9.36407558,9.94338438 10.1839012,10.1213844 L10.1839012,15.0219469 C10.1144244,17.5501031 8.78602907,20.2590406 6.4488314,20.2590406" id="Fill-13"></path>
                        <path d="M94.1729477,1.17326875 C93.0474244,1.17326875 92.1053198,2.0883 92.1053198,3.21470625 C92.1053198,4.3411125 93.0474244,5.2533625 94.1729477,5.2533625 C95.3290407,5.2533625 96.2711453,4.3411125 96.2711453,3.21470625 C96.2711453,2.05770625 95.3290407,1.17326875 94.1729477,1.17326875" id="Fill-15"></path>
                        <path d="M95.8326081,8.19008437 C95.8326081,7.81461562 95.5241314,7.50589687 95.148957,7.50589687 L90.9636779,7.50589687 C90.7246779,7.50589687 90.5079105,7.60324062 90.3383872,7.75899062 C90.1355151,7.93699062 90.0048988,8.20399062 90.0048988,8.50158437 L90.0048988,9.09399062 C90.0048988,9.38880312 90.132736,9.65024062 90.33005,9.83658437 C90.4995733,9.99233437 90.7218988,10.0868969 90.9636779,10.0868969 C90.9636779,10.0868969 92.5560849,10.0896781 92.558864,10.0868969 L92.5783174,21.8849594 C92.5810965,22.2604281 92.8867942,22.5691469 93.2647477,22.5691469 L95.151736,22.5691469 C95.5296895,22.5691469 95.8353872,22.2604281 95.8353872,21.8849594 L95.8326081,8.19008437 Z" id="Fill-17"></path>
                        <path d="M60.4114186,1.17326875 C59.2858953,1.17326875 58.3410116,2.0883 58.3410116,3.21470625 C58.3410116,4.3411125 59.2858953,5.2533625 60.4114186,5.2533625 C61.5675116,5.2533625 62.5096163,4.3411125 62.5096163,3.21470625 C62.5096163,2.05770625 61.5675116,1.17326875 60.4114186,1.17326875" id="Fill-19"></path>
                        <path d="M62.0716349,8.19008437 C62.0716349,7.81461562 61.7631581,7.50589687 61.3879837,7.50589687 L57.2027047,7.50589687 C56.9637047,7.50589687 56.7469372,7.60324062 56.580193,7.75899062 C56.3745419,7.93699062 56.2439256,8.20399062 56.2439256,8.50158437 L56.2439256,9.09399062 C56.2439256,9.38880312 56.3717628,9.65024062 56.5690767,9.83658437 C56.7413791,9.99233437 56.9609256,10.0868969 57.2027047,10.0868969 C57.2027047,10.0868969 58.809007,10.0896781 58.811786,10.0868969 L58.8173442,21.8849594 C58.8173442,22.2604281 59.1258209,22.5691469 59.5037744,22.5691469 L61.3907628,22.5691469 C61.7659372,22.5691469 62.074414,22.2604281 62.074414,21.8849594 L62.0716349,8.19008437 Z" id="Fill-21"></path>
                        <path d="M141.142284,12.0437844 C141.142284,9.36265937 140.04733,7.20440937 136.609621,7.20440937 C134.339121,7.20440937 132.641109,8.26128437 131.696226,9.90500312 L131.696226,1.02169062 C131.696226,0.646221875 131.390528,0.337503125 131.012574,0.337503125 L126.830074,0.337503125 C126.588295,0.337503125 126.371528,0.434846875 126.202005,0.585034375 C125.999133,0.771378125 125.871295,1.03559687 125.871295,1.33040937 L125.871295,1.92837812 C125.871295,2.22319062 125.996353,2.48462812 126.193667,2.66540937 C126.363191,2.82394062 126.585516,2.92406562 126.830074,2.92406562 C126.830074,2.92406562 128.42526,2.92128437 128.42526,2.92684687 L128.441935,21.9505969 C128.441935,22.3288469 128.753191,22.6347844 129.125586,22.6347844 L131.015353,22.6347844 C131.390528,22.6347844 131.699005,22.3288469 131.699005,21.9505969 L131.696226,14.9195969 C131.851853,12.0882844 133.469272,9.91334687 135.636947,9.91334687 C137.371086,9.91334687 137.887993,11.0091594 137.887993,12.8948469 L137.83797,21.9505969 C137.83797,22.3288469 138.146447,22.6347844 138.5244,22.6347844 L140.461412,22.6347844 C140.836586,22.6347844 141.145063,22.3288469 141.145063,21.9505969 L141.142284,12.0437844 Z" id="Fill-23"></path>
                        <path d="M121.033213,7.50645312 L124.309736,7.50645312 C124.68769,7.50645312 124.993387,7.81795312 124.993387,8.20176562 L124.993387,9.31982812 C124.993387,9.70085937 124.68769,10.0151406 124.309736,10.0151406 L121.038771,10.0151406 L121.049887,17.2769844 C121.049887,19.5325781 121.505655,20.1388906 123.028585,20.1388906 C123.52048,20.1388906 124.004038,20.0832656 124.479259,19.9998281 C124.479259,19.9998281 124.643224,19.9720156 124.698806,19.9775781 C124.890562,19.9970469 125.04341,20.1249844 125.04341,20.3447031 L125.04619,21.8437969 C125.076759,22.2665469 124.89612,22.5613594 124.484817,22.6670469 L124.381992,22.6948594 L124.343085,22.6976406 C123.598294,22.8200156 122.761794,22.9090156 121.994771,22.9090156 C118.77105,22.9090156 117.798376,21.6602344 117.798376,18.2810156 L117.798376,10.0151406 L115.583457,10.0151406 C115.208283,10.0151406 114.902585,9.70085937 114.902585,9.31982812 L114.902585,8.20176562 C114.902585,7.81795312 115.208283,7.50645312 115.583457,7.50645312 L117.798376,7.50645312 L117.801155,3.12598437 C117.801155,2.87289062 117.96512,2.66151562 118.195783,2.59198437 L120.349562,1.99679687 C120.388469,1.98567187 120.427376,1.98289062 120.469062,1.98289062 C120.777538,1.98289062 121.024876,2.23042187 121.024876,2.53914062 L121.033213,7.50645312 Z" id="Fill-25"></path>
                        <path d="M189.269936,22.0827063 L183.645099,14.4175813 L188.816948,8.03739375 C189.053169,7.74814375 188.942006,7.506175 188.564052,7.506175 L185.94339,7.506175 C185.265297,7.506175 185.07632,7.75370625 184.851215,8.05408125 L180.368576,13.9781438 L180.365797,1.0203 C180.365797,0.64483125 180.060099,0.3361125 179.684924,0.3361125 L175.499645,0.3361125 C175.257866,0.3361125 175.041099,0.43345625 174.874355,0.586425 C174.671483,0.7699875 174.538087,1.03420625 174.538087,1.3318 L174.538087,1.92976875 C174.538087,2.2218 174.668703,2.48601875 174.866017,2.6668 C175.035541,2.82533125 175.255087,2.922675 175.499645,2.922675 C175.499645,2.922675 177.09761,2.91989375 177.09761,2.92545625 L177.114285,21.9492063 C177.114285,22.3274563 177.422762,22.636175 177.797936,22.636175 L179.684924,22.636175 C180.062878,22.636175 180.368576,22.3274563 180.368576,21.9492063 L180.368576,14.9766125 L185.154134,22.0688 C185.365343,22.3803 185.532087,22.636175 186.221297,22.636175 L188.98925,22.636175 C189.364424,22.636175 189.489483,22.3858625 189.269936,22.0827063" id="Fill-27"></path>
                        <path d="M50.4234419,11.7386813 L50.4234419,11.6774938 C52.5216395,10.946025 53.9222907,9.08815 53.9222907,6.9910875 C53.9222907,3.82324375 51.6101047,1.99874375 47.1385814,1.99874375 C45.8379767,1.99874375 41.3581163,2.00986875 41.3581163,2.00986875 C40.9801628,2.00986875 40.671686,2.3185875 40.671686,2.6968375 L40.671686,22.0181813 C40.671686,22.3964313 40.9801628,22.7079313 41.3581163,22.7079313 C41.3581163,22.7079313 45.0403837,22.7274 46.285407,22.7274 C52.5827791,22.7274 54.3474884,19.1034313 54.3474884,16.4250875 C54.3474884,14.2974313 53.099686,12.2532125 50.4234419,11.7386813 M46.5938837,4.64649375 C49.511907,4.64649375 50.4540116,5.8340875 50.4540116,7.50561875 C50.4540116,9.57765 48.8449302,10.82365 45.7712791,10.82365 C45.090407,10.82365 44.5846163,10.82365 44.053814,10.7930563 L44.053814,4.649275 C44.3206047,4.63815 45.7685,4.64649375 46.5938837,4.64649375 M46.407686,20.0184625 C45.4655814,20.0184625 44.295593,20.0129 44.053814,20.0129 L44.053814,13.31565 C44.5290349,13.2906188 45.5350581,13.2906188 45.8602093,13.2906188 C48.7476628,13.2906188 50.8486395,14.1444625 50.8486395,16.486275 C50.8486395,18.555525 49.4201977,20.0184625 46.407686,20.0184625" id="Fill-29"></path>
                    </g>
                    <polygon id="Fill-32" fill="#F37920" points="134.915222 71.7881536 134.915222 86.8347161 142.843908 86.8347161 142.843908 84.7626849 137.344129 84.7626849 137.344129 80.0818411 142.577117 80.0818411 142.577117 78.0960286 137.344129 78.0960286 137.344129 73.8156849 142.843908 73.8156849 142.843908 71.7881536"></polygon>
                    <g id="Group-58" transform="translate(144.511628, 0.838466)">
                        <path d="M4.43345,85.9956937 L2.0712407,85.9956937 L2.0712407,76.7675063 C1.5376593,76.6785063 0.781752326,76.5895063 0.13422907,76.5450063 L0.13422907,75.073725 C1.3820314,74.940225 2.98555465,74.851225 4.43345,74.917975 L4.43345,85.9956937 Z M3.25234535,73.2686938 C2.42696163,73.2686938 1.73775233,72.6011938 1.73775233,71.7751625 C1.73775233,70.9519125 2.42696163,70.2816313 3.25234535,70.2816313 C4.09996163,70.2816313 4.78917093,70.9296625 4.78917093,71.7751625 C4.78917093,72.6011938 4.09996163,73.2686938 3.25234535,73.2686938 L3.25234535,73.2686938 Z" id="Fill-33" fill="#F37920"></path>
                        <path d="M10.7233186,77.0798406 L10.7677837,77.1020906 C11.415307,75.6753094 12.7492605,74.6963094 14.6001209,74.6963094 C17.1151791,74.6963094 17.9183302,76.2788406 17.9183302,78.2396219 L17.9183302,85.9965281 L15.5561209,85.9965281 L15.5561209,78.8626219 C15.5561209,77.4803406 15.1781674,76.6793406 13.8886791,76.6793406 C12.2379116,76.6793406 10.9901093,78.4398719 10.9901093,80.6481844 L10.9901093,85.9965281 L8.63067907,85.9965281 L8.63067907,76.7683406 C8.09709767,76.6793406 7.33841163,76.5903406 6.69088837,76.5458406 L6.69088837,75.0745594 C7.94146977,74.9410594 9.54221395,74.8520594 10.9011791,74.9188094 C10.9011791,75.4973094 10.8344814,76.4568406 10.7233186,77.0798406" id="Fill-35" fill="#F37920"></path>
                        <path d="M28.2684198,85.9956937 C28.2684198,85.4171937 28.3128849,84.5466625 28.4240477,83.9236625 L28.3795826,83.9236625 C27.7793035,85.2836937 26.487036,86.2181937 24.7695709,86.2181937 C22.0544198,86.2181937 20.6954547,84.2129125 20.6954547,81.00335 C20.6954547,77.1930375 22.902036,74.739975 26.487036,74.739975 C27.0206174,74.739975 27.5541988,74.784475 28.157257,74.828975 L28.157257,71.5749125 C27.6208965,71.4859125 26.8649895,71.3969125 26.2202453,71.3524125 L26.2202453,69.8811313 C27.4652686,69.7476313 29.0715709,69.6586313 30.5166872,69.7253813 L30.5166872,84.1461625 C31.0530477,84.2351625 31.8089547,84.3241625 32.4536988,84.3686625 L32.4536988,85.8399437 C31.2086756,85.9734437 29.6051523,86.0624437 28.2684198,85.9956937 L28.2684198,85.9956937 Z M28.157257,76.8342562 C27.5541988,76.7007562 26.9761523,76.6340062 26.3981058,76.6340062 C24.5055593,76.6340062 23.2132919,77.7937875 23.2132919,80.78085 C23.2132919,83.0086312 23.9025012,84.2574125 25.4170942,84.2574125 C27.1762453,84.2574125 28.157257,82.1631312 28.157257,80.2663187 L28.157257,76.8342562 Z" id="Fill-37" fill="#F37920"></path>
                        <path d="M32.7827407,71.3518562 L32.7827407,69.880575 C34.030543,69.747075 35.6562988,69.658075 37.1014151,69.724825 L37.1014151,74.7394187 C37.1014151,75.4291687 37.0597291,76.36645 36.9013221,76.9699812 L36.9457872,76.9922312 C37.5933105,75.60995 38.9050314,74.6949187 40.7114267,74.6949187 C43.2264849,74.6949187 44.029636,76.27745 44.029636,78.2382312 L44.029636,85.9951375 L41.6451942,85.9951375 L41.6451942,78.8640125 C41.6451942,77.4817312 41.2672407,76.67795 39.9972058,76.67795 C38.3269849,76.67795 37.1014151,78.4384812 37.1014151,80.6690437 L37.1014151,85.9951375 L34.7197523,85.9951375 L34.7197523,71.5743562 C34.1861709,71.4853562 33.4274849,71.3963562 32.7827407,71.3518562" id="Fill-39" fill="#F37920"></path>
                        <path d="M51.8288174,86.21875 C48.7551663,86.21875 46.751457,84.5027187 46.751457,80.600625 C46.751457,77.2575625 48.9107942,74.6960312 52.2734686,74.6960312 C55.235957,74.6960312 57.3313756,76.3453125 57.3313756,80.244625 C57.3313756,83.6544375 55.1025616,86.21875 51.8288174,86.21875 M52.0733756,76.7013125 C50.6254802,76.7013125 49.22205,77.8165937 49.22205,80.355875 C49.22205,82.8534375 50.2030616,84.1689687 52.051143,84.1689687 C53.5879686,84.1689687 54.880236,82.9646875 54.880236,80.400375 C54.880236,78.0390937 53.9687012,76.7013125 52.0733756,76.7013125" id="Fill-41" fill="#F37920"></path>
                        <path d="M64.7934558,85.9956937 L62.3645488,85.9956937 L58.2237349,74.917975 L60.8499558,74.917975 L62.9231419,80.78085 C63.1899326,81.53735 63.4344907,82.3188812 63.6345837,83.0531312 L63.6595953,83.0531312 C63.8346767,82.3633812 64.0597814,81.58185 64.3043395,80.86985 L66.4192116,74.917975 L68.9787349,74.917975 L64.7934558,85.9956937 Z" id="Fill-43" fill="#F37920"></path>
                        <g id="Group-47" transform="translate(69.476744, 73.747984)">
                            <mask id="mask-2" fill="white">
                                <use xlink:href="#path-1"></use>
                            </mask>
                            <g id="Clip-46"></g>
                            <path d="M9.89515581,6.85375363 L2.83353953,6.85375363 C2.76962093,9.41806613 3.90626047,10.5750661 6.11006279,10.5750661 C7.24670233,10.5750661 8.42780698,10.3080661 9.33934186,9.86306613 L9.56166744,11.7570974 C8.44726047,12.2243474 7.08829535,12.4718786 5.7321093,12.4718786 C2.27772558,12.4718786 0.38517907,10.6863161 0.38517907,6.78700363 C0.38517907,3.44394113 2.21102791,0.946378629 5.44030698,0.946378629 C8.60566744,0.946378629 9.96185349,3.11019113 9.96185349,5.73847238 C9.96185349,6.04997238 9.93962093,6.43100363 9.89515581,6.85375363 M5.35137674,2.70690988 C4.01464419,2.70690988 3.08087674,3.68869113 2.88078372,5.18222238 L7.5801907,5.18222238 C7.62465581,3.66644113 6.75758605,2.70690988 5.35137674,2.70690988" id="Fill-45" fill="#F37920" mask="url(#mask-2)"></path>
                        </g>
                        <path d="M85.0503733,77.0798406 L85.0948384,77.1020906 C85.7395826,75.6753094 87.0763151,74.6963094 88.9271756,74.6963094 C91.4422337,74.6963094 92.2453849,76.2788406 92.2453849,78.2396219 L92.2453849,85.9965281 L89.8831756,85.9965281 L89.8831756,78.8626219 C89.8831756,77.4803406 89.5052221,76.6793406 88.2129547,76.6793406 C86.5649663,76.6793406 85.317164,78.4398719 85.317164,80.6481844 L85.317164,85.9965281 L82.9577337,85.9965281 L82.9577337,76.7683406 C82.4241523,76.6793406 81.6654663,76.5903406 81.017943,76.5458406 L81.017943,75.0745594 C82.2657453,74.9410594 83.8692686,74.8520594 85.2282337,74.9188094 C85.2282337,75.4973094 85.161536,76.4568406 85.0503733,77.0798406" id="Fill-48" fill="#F37920"></path>
                        <path d="M93.2783651,9.30077812 C90.1018884,-4.90584688 69.4561791,0.759559375 56.4529116,7.79055937 C41.2875279,15.9896844 42.8771558,24.0636531 45.4922605,29.8291844 C47.9156093,35.1803094 56.0777372,48.9947781 71.4376558,48.8112156 C86.3279116,48.6332156 96.4242721,24.8396219 93.2783651,9.30077812" id="Fill-50" fill="#F37820"></path>
                        <path d="M75.5498453,25.4437094 C75.5498453,28.3807094 73.1681826,30.7586781 70.239043,30.7586781 C67.3043453,30.7586781 64.9254616,28.3807094 64.9254616,25.4437094 C64.9254616,22.5150531 67.3043453,20.1287406 70.239043,20.1287406 C73.1681826,20.1287406 75.5498453,22.5150531 75.5498453,25.4437094" id="Fill-52" fill="#FEFEFE"></path>
                        <path d="M60.1126686,19.5263219 C59.1122035,18.5278531 59.1122035,16.9091656 60.1126686,15.9106969 L68.4443198,7.57250937 C69.4392267,6.57404062 71.0594244,6.57404062 72.0571105,7.57250937 L80.3720872,15.8940094 C81.3725523,16.8924781 81.3697733,18.5139469 80.3720872,19.5096344 C79.3744012,20.5108844 77.7569826,20.5108844 76.7592965,19.5096344 L70.247936,12.9959469 L63.7254593,19.5263219 C62.7305523,20.5247906 61.1214709,20.5414781 60.1126686,19.5263219" id="Fill-54" fill="#FBBE8F"></path>
                        <path d="M80.372643,31.3560906 C81.3731081,32.3545594 81.3731081,33.9732469 80.372643,34.9744969 L72.0409919,43.3099031 C71.0460849,44.3083719 69.4258872,44.3083719 68.4282012,43.3099031 L60.1132244,34.9884031 C59.1127593,33.9899344 59.1127593,32.3684656 60.1132244,31.3699969 C61.1109105,30.3715281 62.7283291,30.3715281 63.7260151,31.3699969 L70.2345965,37.8864656 L76.7598523,31.3560906 C77.7547593,30.3576219 79.3638407,30.3409344 80.372643,31.3560906" id="Fill-56" fill="#FEFEFE"></path>
                    </g>
                </g>
            </g>
        </g>
    </g>
</svg>
