
<svg width="490px" height="396px" viewBox="0 0 490 396" version="1.1" xmlns="http://www.w3.org/2000/svg" xmlns:xlink="http://www.w3.org/1999/xlink">
    <!-- Generator: Sketch 44.1 (41455) - http://www.bohemiancoding.com/sketch -->
    <desc>Created with Sketch.</desc>
    <defs>
        <polygon id="path-1" points="2.58676628e-15 360.734334 2.58676628e-15 0.590885208 489.140546 0.590885208 489.140546 360.734334"></polygon>
    </defs>
    <g id="Page-1" stroke="none" stroke-width="1" fill="none" fill-rule="evenodd">
        <g id="Desktop-HD" transform="translate(-192.000000, -91.000000)">
            <g id="LOGO" transform="translate(192.000000, 91.000000)">
                <g id="Group-70" transform="translate(0.000000, 0.354464)">
                    <path d="M439.441081,136.774724 C436.576757,136.229321 433.726622,135.997738 430.896351,135.90605 C432.819459,109.934688 416.763919,86.424726 392.922297,81.8932545 C376.722973,78.8136688 360.821622,85.2422331 350.002838,97.497245 C340.395811,78.167126 323.166351,63.7314498 301.697162,59.6527474 C290.211486,57.4711379 278.841216,58.547764 268.326081,62.2011093 C263.505541,44.4013307 250.010676,30.3031045 232.11527,26.9002474 C209.747432,22.6532926 187.939595,36.5000855 179.312568,58.8322807 C171.15,50.1304188 160.591351,43.9428902 148.429324,41.6308379 C115.686351,35.4045545 83.8562162,59.5903617 77.3405405,95.6483593 C76.002027,103.057135 75.8960811,110.369497 76.7559459,117.401124 C48.6017568,118.308552 23.4755405,140.775916 17.7658108,172.360102 C13.5109459,195.927724 21.1664865,218.674878 36.0868919,233.385619 C27.9186486,242.561045 21.9828378,254.317916 19.5631081,267.726119 C13.0474324,303.789788 34.3094595,338.066957 67.0571622,344.29324 C84.682027,347.642219 102.007027,342.125809 115.29473,330.745143 C125.288649,347.145969 141.126622,359.163726 160.398378,362.83125 C194.657703,369.34205 227.980541,347.227259 239.915541,312.226038 C245.127703,315.715857 251.001081,318.259493 257.425,319.479795 C282.956081,324.335483 307.783378,307.356171 315.916622,280.820502 C319.723108,282.50019 323.741486,283.783824 327.958514,284.585385 C352.610811,289.271876 376.737162,276.718169 389.937838,254.844414 C397.255676,261.055574 406.021757,265.48685 415.846351,267.35464 C448.594054,273.580924 480.419459,249.395116 486.935135,213.337119 C493.450811,177.278176 472.188784,143.001007 439.441081,136.774724" id="Fill-1" fill="#FFFFFF"></path>
                    <g id="Group-5">
                        <mask id="mask-2" fill="white">
                            <use xlink:href="#path-1"></use>
                        </mask>
                        <g id="Clip-4"></g>
                        <path d="M103.944041,318.997345 C104.135122,318.997345 104.326203,319.011524 104.517284,319.041772 C105.588095,319.211915 106.529311,319.850895 107.082689,320.78101 C117.146608,337.725348 132.596743,348.941543 150.582014,352.360469 C183.399716,358.608493 215.901473,337.251784 227.922554,301.614417 C228.285797,300.533065 229.137149,299.684241 230.219311,299.321269 C231.309041,298.956407 232.492419,299.123715 233.436473,299.766476 C238.551203,303.257241 244.09823,305.585362 249.924311,306.690345 C273.748905,311.222762 297.726743,294.851238 305.6935,268.616155 C305.999986,267.612312 306.719851,266.789955 307.675257,266.356091 C308.624986,265.918445 309.724176,265.918445 310.679581,266.346638 C314.389581,268.011203 318.249986,269.226779 322.160527,269.9669 C345.136608,274.329174 368.541203,262.722595 381.802419,240.380948 C382.354851,239.449888 383.291338,238.813743 384.357419,238.64171 C385.434851,238.46306 386.517014,238.775934 387.331473,239.485807 C394.618095,245.794326 402.934851,249.873974 412.051878,251.608486 C425.933635,254.247591 440.339446,251.054576 452.616878,242.622107 C467.088905,232.684819 477.307959,216.367174 480.651878,197.850905 C487.094716,162.20125 466.765392,128.340931 435.334446,122.366081 L435.332554,122.366081 C432.912824,121.904805 430.322824,121.649591 427.184176,121.560738 C426.186203,121.532381 425.243095,121.095681 424.575257,120.353669 C423.908365,119.613548 423.5735,118.631445 423.64823,117.63611 C425.6035,92.0220479 410.282959,69.5112026 388.015392,65.2784264 C373.355122,62.497536 358.213365,68.2029931 347.525122,80.5544193 C346.725797,81.4826431 345.5235,81.9543169 344.287149,81.784174 C343.070662,81.6244288 342.015932,80.8606764 341.480527,79.7556931 C331.855527,59.8555955 314.865392,46.2574002 294.870932,42.4537621 C284.124041,40.4129931 273.289176,41.3090788 262.669041,45.1079907 C261.704176,45.4539479 260.640932,45.3783288 259.734716,44.902874 C258.829446,44.4245836 258.166338,43.5880479 257.907149,42.5974383 C253.2285,24.7078621 240.190527,11.6692479 223.887149,8.56792167 C203.309986,4.67448595 182.286338,17.8123502 173.8835,39.8430145 C173.43323,41.0236169 172.402149,41.8885098 171.159176,42.1267098 C169.914311,42.3554574 168.63823,41.9404979 167.784041,41.0094383 C159.709446,32.2092717 149.514041,26.4338669 138.298905,24.3033002 C124.415257,21.666086 110.010392,24.854374 97.7272838,33.2887336 C83.2580946,43.2269669 73.0437703,59.5446121 69.7017432,78.0589907 C68.4190405,85.1407145 68.1995811,92.4199931 69.0490405,99.692655 C69.1663378,100.701224 68.8579595,101.714519 68.1948514,102.487724 C67.5317432,103.260929 66.5772838,103.720315 65.5585,103.758124 C38.030527,104.780872 14.0337703,127.753938 8.50093243,158.385324 C4.39931081,181.061586 10.9320135,203.643324 25.9716081,218.79171 C27.320527,220.149072 27.3895811,222.314612 26.1324189,223.757045 C17.8686351,233.231167 12.2695811,245.044753 9.94444595,257.926457 C3.50066216,293.571386 23.8328243,327.431705 55.2656622,333.40561 C71.3618784,336.46251 88.2366081,331.551053 101.5385,319.900048 C102.20823,319.313055 103.067149,318.997345 103.944041,318.997345 M162.006203,360.734334 C157.773095,360.734334 153.499311,360.338279 149.218905,359.525374 C130.455122,355.9571 114.207554,344.854334 103.062419,328.091481 C88.6074189,339.269867 70.9144459,343.812681 53.9006622,340.570515 C18.5525541,333.851762 -4.38852703,296.196312 2.75998649,256.630536 C5.11822973,243.58436 10.5385,231.512724 18.5071486,221.51116 C3.42025676,204.753034 -2.9942027,180.933979 1.31647297,157.089403 C7.19836486,124.529731 32.1533649,99.7588217 61.445527,96.7397312 C60.9735,90.0209788 61.3320135,83.316405 62.5182297,76.762124 C66.2045811,56.3468717 77.5294459,38.3107836 93.5925541,27.279855 C107.49323,17.7348407 123.851473,14.1297026 139.662959,17.1383955 C150.681338,19.2311526 160.815257,24.3949883 169.260662,32.1695717 C180.087959,9.92717405 202.854041,-2.85055452 225.250257,1.4030169 C243.186338,4.81343595 257.697149,18.3142717 263.871338,37.0356574 C274.560527,33.826574 285.427554,33.234855 296.234041,35.2898026 C316.924716,39.225774 334.681068,52.4742312 345.634176,71.9527526 C357.729986,60.2913502 373.723095,55.1379121 389.3785,58.1144669 C414.196338,62.8321502 431.627284,86.7079193 431.10323,114.464836 C433.099176,114.622691 434.926743,114.864672 436.697554,115.202122 C472.045662,121.920874 494.983905,159.578215 487.835392,199.146826 C484.144311,219.564915 472.814716,237.600057 456.751608,248.631931 C442.852824,258.176 426.487959,261.770741 410.686878,258.772445 C401.639851,257.050222 393.297554,253.316531 385.835932,247.658336 C370.666743,270.329872 345.5585,281.832474 320.799311,277.13086 C317.624716,276.530634 314.481338,275.656288 311.407959,274.520112 C301.25323,302.092707 274.876473,318.874465 248.561203,313.85525 C243.226068,312.843845 238.100932,310.960931 233.270932,308.244317 C220.709716,340.311519 192.443905,360.734334 162.006203,360.734334" id="Fill-3" fill="#3A8431" mask="url(#mask-2)"></path>
                    </g>
                    <path d="M243.2465,134.012549 C241.237311,135.788651 239.352986,137.642263 237.358932,139.365432 C235.011095,141.387296 232.509068,143.14922 229.234203,143.481944 C227.195689,143.689896 225.1865,143.612387 223.472446,142.328754 C221.457581,140.822989 220.801095,138.655558 220.883392,136.411563 C220.984608,133.62122 221.5115,130.836549 221.906905,128.047151 C222.013797,127.318373 222.236095,126.59432 222.371365,125.865542 C222.883122,123.124351 222.511365,122.627156 219.188257,122.235827 C218.989608,122.757599 218.787176,123.307727 218.579068,123.862582 C216.338122,129.862008 213.560824,135.542889 209.218932,140.504444 C206.262851,143.882725 203.137446,146.990668 199.04623,149.027656 C195.564203,150.765004 192.004608,151.672432 188.159338,150.297111 C185.049068,149.18173 183.102311,146.855499 181.774203,144.095404 C177.480554,135.151561 178.190014,126.184087 184.618662,117.539885 C187.000554,114.329856 190.530824,112.269237 195.052446,111.970542 C198.963932,111.70493 201.655149,113.123732 202.949203,116.130535 C205.185419,121.318946 204.050284,126.019615 199.59677,130.257118 C197.495824,132.260077 195.129068,133.916135 192.530554,135.296182 C191.767176,135.696963 191.507041,136.097744 191.912851,136.801946 C192.0765,137.092135 192.168257,137.420132 192.303527,137.724499 C193.346905,140.03088 195.052446,140.841894 197.554473,139.785118 C199.543797,138.950473 201.557716,137.892751 203.190419,136.546732 C208.185014,132.429275 211.556365,127.405335 213.207986,121.424813 C213.367851,120.846327 213.377311,120.450273 212.82677,119.977654 C211.266905,118.644868 210.932986,116.893342 211.334068,115.069032 C212.493797,109.870223 215.918122,105.714956 221.197446,102.650494 C222.665554,101.800725 224.428797,101.569142 226.19677,101.791273 C228.456635,102.075789 229.780014,103.413301 229.621095,105.270694 C229.587041,105.685654 229.234203,106.178123 228.848257,106.468311 C226.326365,108.364458 225.718122,108.996823 224.862986,110.749294 C226.157986,110.946849 227.413257,111.154801 228.674203,111.34763 C230.263392,111.588665 231.880959,111.753137 233.431365,112.100039 C236.0015,112.67947 237.040149,114.006585 236.595554,116.236401 C236.295689,117.757289 235.673257,119.233751 235.219203,120.730063 C234.344203,123.587518 233.460689,126.434575 232.740824,129.316606 C232.557311,130.040658 232.707716,130.870577 232.880824,131.613535 C233.118257,132.607925 233.880689,132.94632 234.900419,132.482208 C235.72623,132.11073 236.575689,131.657015 237.203797,131.053954 C238.764608,129.543463 240.261095,127.964915 241.734878,126.362737 C242.082041,125.986532 242.067851,125.339044 242.207851,124.813492 C242.705419,122.921125 242.957041,120.938015 243.80177,119.161913 C244.8215,117.019058 247.124878,116.588975 249.482176,117.766742 C253.085284,119.566475 253.930959,123.017539 251.617176,125.947777 C251.090284,126.617951 251.085554,127.169025 251.418527,127.868501 C252.264203,129.630425 253.486365,131.049227 255.422716,131.927354 C256.321365,132.332861 257.229473,132.492606 258.079878,131.947204 C258.919878,131.406527 258.992716,130.552032 258.702311,129.741018 C257.518932,126.396765 256.205959,123.076144 254.90623,119.750796 C254.138122,117.791318 253.282986,115.841292 252.704068,113.838332 C251.04677,108.132875 254.876905,102.389608 263.136905,100.975532 C265.701365,100.540723 268.309338,100.53127 270.918257,101.129606 C276.786905,102.471844 276.824743,107.780301 274.477851,110.242646 C274.241365,110.488408 273.501635,110.507313 273.019203,110.449654 C271.357176,110.252099 269.700824,109.826742 268.038797,109.812563 C266.396635,109.798385 265.764743,110.47423 266.040014,111.820249 C266.320014,113.190844 266.84123,114.551987 267.39177,115.874375 C268.599743,118.784763 270.154878,121.623313 270.9665,124.600813 C272.985149,132.03322 268.352851,138.163089 260.533662,140.127294 C257.610689,140.861744 254.708527,141.314513 251.689068,140.720904 C248.028257,140.007249 245.468527,138.032646 243.797041,134.910525 C243.642851,134.615611 243.468797,134.326368 243.299473,134.037125 C243.285284,134.012549 243.232311,134.007823 243.2465,134.012549 M190.236635,130.045385 C194.139608,128.443206 195.79123,125.170792 194.009068,122.288761 C193.679878,121.758482 192.941095,121.208354 192.284608,121.126118 C191.284743,121.000401 190.869473,121.878527 190.560149,122.597854 C189.512041,125.049801 189.719203,127.492296 190.236635,130.045385" id="Fill-6" fill="#5BB947"></path>
                    <path d="M133.115122,150.366491 C131.395392,150.989403 129.729581,151.766389 128.005122,152.253186 C123.141068,153.629453 118.731068,153.450803 115.214986,150.318284 C112.8435,148.203786 111.862554,145.395484 111.848365,142.180729 C111.814311,135.887334 114.253905,129.752739 118.272284,123.883755 C120.696743,120.341003 123.561068,116.972175 127.4735,114.423813 C129.308635,113.227141 131.429446,112.228025 133.530392,111.561632 C138.032149,110.128651 141.412959,111.247813 143.620797,114.240436 C146.074581,117.561058 146.595797,121.46111 146.673365,125.462303 C146.803905,132.040215 146.856878,138.619072 147.199311,145.144051 C147.349716,147.948572 147.67323,150.709613 148.851878,153.272153 C150.599986,157.074846 153.725392,157.383939 156.690932,154.049139 C158.5885,151.91101 159.636608,149.381553 160.4435,146.784984 C163.105392,138.188989 163.472419,129.757465 160.776473,121.470563 C159.231743,116.721686 155.512284,113.656279 150.3635,111.706253 C149.570797,111.407558 148.276743,111.073889 148.242689,110.587091 C148.166068,109.414051 148.349581,108.014153 149.0685,106.918622 C151.937554,102.541225 159.820122,100.306682 164.872419,102.300189 C168.384716,103.684963 170.639851,106.031044 171.997284,108.965063 C175.029986,115.548646 175.325122,122.609575 174.595797,129.825522 C173.697149,138.69091 171.291608,147.142284 167.017824,155.154122 C164.775932,159.367994 162.100797,163.176358 158.115527,165.979934 C155.062959,168.122789 151.773905,169.580346 147.962689,169.667308 C143.983095,169.758996 141.031743,167.886479 138.553365,165.092355 C135.404311,161.540151 134.16323,157.200563 133.467959,152.62561 C133.361068,151.925189 133.289176,151.21626 133.202149,150.515839 C133.192689,150.444001 133.124581,150.391067 133.115122,150.366491 M132.699851,142.745036 C132.458635,137.740001 132.381068,132.976946 132.216473,128.222398 C132.177689,127.092839 131.718905,125.968951 131.154176,124.998191 C130.333095,123.584115 129.159176,123.603965 127.845257,125.070975 C124.2185,129.106196 122.334176,133.550705 122.710662,138.208839 C122.943365,141.022813 124.91377,142.590963 128.048635,142.798915 C129.487419,142.895329 130.980122,142.76016 132.699851,142.745036" id="Fill-8" fill="#5BB947"></path>
                    <path d="M307.409162,113.616863 C306.728081,119.032132 303.283892,122.275244 297.705649,123.920903 C295.256595,124.644956 292.662811,125.070313 290.11727,125.528753 C289.151459,125.702677 288.793892,125.919137 288.813757,126.817113 C288.895108,130.610353 290.358486,131.841999 294.643622,131.682253 C299.729027,131.494151 303.975378,129.616908 307.984297,127.14511 C309.631189,126.131815 311.15227,124.93987 312.620378,123.728075 C313.354432,123.120287 313.963622,123.159041 314.784703,123.592906 C316.161054,124.316958 316.789162,125.586413 316.354027,126.831291 C315.649297,128.854101 314.094162,130.345687 312.369703,131.682253 C306.433892,136.291234 299.869027,139.44833 292.141595,140.67903 C289.605514,141.07981 287.103486,140.867132 284.635514,140.18656 C279.698622,138.830144 277.134162,135.610663 276.506054,131.17088 C274.975514,120.359246 279.211459,111.628082 289.83727,105.774222 C293.199162,103.915884 297.212811,103.582215 301.375919,104.924453 C305.255243,106.169332 307.288081,108.515413 307.447946,111.802006 C307.476324,112.473125 307.418622,113.144244 307.409162,113.616863 M289.803216,119.83842 C294.24727,119.785487 297.043486,117.425227 296.410649,114.065851 C296.295243,113.452391 295.749432,112.560087 295.174297,112.37671 C294.609568,112.193334 293.552,112.578991 293.068622,113.004349 C290.991324,114.83811 290.262,117.231453 289.803216,119.83842" id="Fill-10" fill="#5BB947"></path>
                    <path d="M431.625108,199.960771 C433.977676,197.016354 434.885784,193.710857 434.996459,190.177557 C435.010649,189.63688 434.952946,188.816414 435.223486,188.58483 C435.875243,188.029976 436.70673,187.508204 437.459703,187.388159 C440.478216,186.909869 443.280108,189.77205 443.294297,193.179633 C443.309432,195.549345 442.550784,197.764983 441.255784,199.830328 C438.353622,204.473338 434.532946,208.020816 430.272405,211.003988 C425.036595,214.666785 420.231189,217.900445 414.362541,218.822997 C411.285378,219.305069 409.53727,218.928864 407.817541,218.200085 C407.817541,218.200085 406.030649,216.925904 407.846865,216.284088 C413.488486,214.300033 425.761189,209.111621 431.625108,199.960771" id="Fill-12" fill="#9CCF8D"></path>
                    <path d="M425.485068,176.712262 C425.96277,174.053307 425.41223,171.659019 424.277095,169.395174 C424.103986,169.048271 423.785203,168.551076 423.876959,168.309095 C424.099257,167.735336 424.446419,167.126602 424.881554,166.793879 C426.624932,165.466764 429.363446,166.315588 430.537365,168.464114 C431.353716,169.950029 431.628986,171.606086 431.517365,173.352886 C431.266689,177.267117 430.064392,180.809869 428.397635,184.139943 C426.340203,188.232824 424.407635,191.910745 421.022095,194.48841 C419.244662,195.839155 418.013041,196.196455 416.674527,196.322171 C416.674527,196.322171 415.114662,196.129343 416.042635,195.10565 C418.925878,191.92965 424.900473,184.483064 425.485068,176.712262" id="Fill-14" fill="#9CCF8D"></path>
                    <path d="M81.2010405,202.78571 C81.9010405,203.905817 80.3988784,203.823581 80.3988784,203.823581 C79.1672568,203.48046 78.0709054,202.935057 76.6321216,201.362181 C73.8832027,198.369557 72.6903649,194.590495 71.4540135,190.396474 C70.4446892,186.984164 69.9177973,183.45559 70.343473,179.729462 C70.5364459,178.07435 71.077527,176.56386 72.0963108,175.303857 C73.5596892,173.484274 76.2792838,173.15155 77.6896892,174.690398 C78.042527,175.077 78.2695541,175.709364 78.3755,176.284069 C78.4237432,176.525105 78.042527,176.940064 77.8202297,177.234033 C76.3710405,179.174607 75.4440135,181.33164 75.4440135,183.909305 C74.6759054,191.308629 79.0319865,199.31574 81.2010405,202.78571" id="Fill-16" fill="#9CCF8D"></path>
                    <path d="M59.1048784,194.110125 C59.3460946,196.040301 57.3946081,194.998649 57.3946081,194.998649 C55.9558243,193.777401 54.8301486,192.368051 53.8832568,189.375428 C52.0727162,183.670916 52.8304189,177.878497 53.7820405,171.507592 C54.5548784,166.323906 56.0428514,161.280116 58.9260946,156.57472 C60.2106892,154.475347 61.8727162,152.795659 64.0171757,151.743609 C67.1037973,150.22272 70.9433919,151.463818 71.8751486,154.397837 C72.1078514,155.131342 72.0104189,156.111554 71.798527,156.950925 C71.7115,157.303499 70.9433919,157.617318 70.4600135,157.878204 C67.3204189,159.562618 64.7465,161.87467 63.1478514,165.320063 C57.5204189,174.727073 58.3613649,188.130549 59.1048784,194.110125" id="Fill-18" fill="#9CCF8D"></path>
                    <path d="M105.109824,288.775342 C103.660635,288.780069 102.892527,287.75165 102.883068,285.802569 C102.878338,283.813788 103.974689,282.940388 105.105095,282.935661 C106.593068,282.930935 107.307257,283.972588 107.316716,285.821473 C107.322392,287.824433 106.317797,288.770616 105.109824,288.775342 M105.259284,281.366566 C102.621986,281.376019 100.936311,283.383704 100.946716,286.000123 C100.960905,289.050407 102.534959,290.386973 104.94523,290.377521 C107.505905,290.368069 109.244554,288.360383 109.235095,285.69103 C109.224689,282.640747 107.577797,281.357114 105.259284,281.366566" id="Fill-20" fill="#5BB947"></path>
                    <path d="M128.953527,284.589828 C129.107716,283.421514 129.837041,282.649254 130.880419,282.649254 C131.982446,282.644528 132.668257,283.38843 132.634203,284.57565 L128.953527,284.589828 Z M133.735284,288.364164 C133.068392,288.634502 132.271905,288.798028 131.499068,288.798028 C129.774608,288.808426 128.880689,287.900997 128.924203,285.898038 L134.092851,285.873461 C134.310419,285.873461 134.459878,285.714661 134.483527,285.478352 L134.493932,285.410295 C134.498662,285.265673 134.503392,285.130504 134.503392,285.004788 C134.493932,282.948895 133.425959,281.259754 130.948527,281.269207 C128.417176,281.278659 126.992581,283.238138 127.00677,285.84983 C127.01623,288.90484 128.504203,290.289614 131.209608,290.280161 C132.122446,290.275435 133.040014,290.130814 133.83177,289.85575 L133.889473,289.8359 C134.1165,289.754609 134.198797,289.580685 134.155284,289.349102 L134.058797,288.518238 C134.035149,288.383069 133.894203,288.296107 133.744743,288.359438 L133.735284,288.364164 Z" id="Fill-22" fill="#5BB947"></path>
                    <path d="M137.941338,284.555989 C138.095527,283.387674 138.824851,282.615415 139.872959,282.615415 C140.970257,282.610689 141.656068,283.354591 141.626743,284.54181 L137.941338,284.555989 Z M142.723095,288.330324 C142.060932,288.600662 141.259716,288.764189 140.486878,288.764189 C138.757689,288.774586 137.8685,287.867158 137.912014,285.864198 L143.080662,285.839622 C143.29823,285.839622 143.447689,285.680822 143.471338,285.444512 L143.481743,285.376455 C143.486473,285.231834 143.491203,285.091939 143.491203,284.970948 C143.481743,282.915055 142.41377,281.225915 139.936338,281.235367 C137.404986,281.24482 135.980392,283.204298 135.994581,285.815991 C136.004041,288.871 137.487284,290.255774 140.197419,290.246322 C141.110257,290.241596 142.027824,290.096974 142.819581,289.82191 L142.872554,289.80206 C143.109986,289.72077 143.186608,289.546846 143.143095,289.315262 L143.046608,288.484398 C143.022959,288.349229 142.882014,288.267939 142.732554,288.325598 L142.723095,288.330324 Z" id="Fill-24" fill="#5BB947"></path>
                    <path d="M55.9789054,284.861584 C56.1330946,283.69327 56.8624189,282.92101 57.910527,282.92101 C59.0078243,282.916284 59.6936351,283.660186 59.6643108,284.847405 L55.9789054,284.861584 Z M60.7606622,288.63592 C60.0985,288.906258 59.2972838,289.069784 58.5244459,289.069784 C56.7999865,289.080182 55.9060676,288.172753 55.9495811,286.169794 L61.1182297,286.145217 C61.3357973,286.145217 61.4852568,285.986417 61.5145811,285.749163 L61.5193108,285.682051 C61.5240405,285.537429 61.5287703,285.397534 61.5287703,285.276544 C61.5240405,283.220651 60.4513378,281.53151 57.9739054,281.540963 C55.4425541,281.550415 54.0226892,283.509894 54.0321486,286.121586 C54.0416081,289.176596 55.5295811,290.56137 58.2349865,290.551917 C59.1478243,290.547191 60.0653919,290.40257 60.8571486,290.127505 L60.9148514,290.107655 C61.1475541,290.026365 61.2289054,289.852441 61.1853919,289.620858 L61.0841757,288.789994 C61.060527,288.654825 60.9195811,288.567863 60.7701216,288.631194 L60.7606622,288.63592 Z" id="Fill-26" fill="#5BB947"></path>
                    <path d="M94.0673243,277.865121 C94.0673243,277.652442 93.8885405,277.473792 93.670973,277.473792 L91.2758378,277.48419 C91.1358378,277.48419 91.010027,277.541849 90.9135405,277.628811 C90.7971892,277.734678 90.7252973,277.884025 90.7252973,278.057949 L90.7252973,278.396345 C90.7252973,278.564597 90.7971892,278.71489 90.9135405,278.820756 C91.0147568,278.907718 91.1405676,278.965378 91.2805676,278.965378 C91.2805676,278.965378 92.1934054,278.960652 92.1934054,278.965378 L92.2170541,289.859247 C92.2217838,290.075706 92.4005676,290.24963 92.6134054,290.24963 L93.7239459,290.244904 C93.9367838,290.244904 94.1108378,290.066254 94.1108378,289.853575 L94.0673243,277.865121 Z" id="Fill-28" fill="#5BB947"></path>
                    <path d="M85.6292027,288.934615 C85.0739324,288.934615 84.6340676,288.886408 84.2481216,288.765417 L84.2433919,286.081886 C84.2329865,284.614877 84.9774459,282.992848 86.3774459,282.988122 C87.5419054,282.983396 88.1066351,283.939032 88.1123108,285.681105 C88.1217703,288.017734 87.0925811,288.929889 85.6292027,288.934615 L85.6292027,288.934615 Z M82.8036622,290.160589 C83.6152838,290.334513 84.4316351,290.421475 85.4797432,290.416748 C88.3724459,290.406351 90.0779865,288.499805 90.0675811,285.503401 C90.0581216,282.882255 88.913527,281.424698 86.8560946,281.434151 C85.6774459,281.438877 84.7116351,282.023034 84.2187973,282.969217 L84.1998784,277.900851 C84.1942027,277.684391 84.0210946,277.510467 83.803527,277.515194 L81.4169054,277.51992 L81.4074459,277.51992 C81.2674459,277.524646 81.1416351,277.577579 81.0451486,277.664541 C80.9297432,277.771353 80.8569054,277.920701 80.8569054,278.089898 L80.8569054,278.436801 C80.8569054,278.601272 80.934473,278.75062 81.0451486,278.856486 C81.1416351,278.94912 81.2721757,279.002053 81.4121757,279.002053 L82.3401486,278.997327 L82.3931216,289.711601 C82.368527,289.924279 82.5283919,290.121834 82.7459595,290.141684 L82.8036622,290.160589 Z" id="Fill-30" fill="#5BB947"></path>
                    <path d="M47.718527,289.057685 C46.5304189,289.062411 45.9846081,288.087871 45.9798784,286.344852 C45.9704189,284.009168 46.9797432,283.097014 48.4667703,283.092287 C48.9160946,283.092287 49.3701486,283.140495 49.8393378,283.241635 L49.8487973,286.050883 C49.8147432,287.498987 49.0608243,289.052959 47.718527,289.057685 M53.0413649,289.139921 C52.9401486,289.033109 52.8001486,288.965997 52.6497432,288.965997 L51.7028514,288.970723 L51.6650135,278.043771 C51.6602838,277.831092 51.4862297,277.652442 51.2686622,277.652442 L48.9113649,277.672292 C48.7713649,277.672292 48.6455541,277.725225 48.5537973,277.816914 C48.4336622,277.92278 48.3608243,278.073073 48.3608243,278.241325 L48.3655541,278.584447 C48.3655541,278.753645 48.4383919,278.902992 48.5537973,279.004133 C48.6502838,279.095821 48.7760946,279.15348 48.9160946,279.148754 C48.9160946,279.148754 49.8242027,279.15348 49.8242027,279.148754 L49.8336622,281.673485 C49.3654189,281.644183 48.9454189,281.610154 48.5254189,281.610154 C45.7187973,281.620552 43.9990676,283.546002 44.009473,286.528228 C44.0189324,289.03878 45.0906892,290.602204 47.2209595,290.592752 C48.4137973,290.588025 49.3370405,290.003868 49.8629865,289.130468 L49.8629865,290.066254 C49.8677162,290.278933 50.0417703,290.457583 50.2593378,290.457583 L52.6497432,290.44813 C52.7755541,290.44813 52.8919054,290.398978 52.9836622,290.331866 C53.1132568,290.225999 53.2002838,290.061528 53.2002838,289.873425 L53.2002838,289.535975 C53.2002838,289.380956 53.1378514,289.241061 53.0413649,289.139921" id="Fill-32" fill="#5BB947"></path>
                    <path d="M98.0048243,277.937999 C97.3577973,277.937999 96.8167162,278.464496 96.8214459,279.111039 C96.8214459,279.757582 97.3672568,280.278408 98.0142838,280.273682 C98.6764459,280.273682 99.2127973,279.74813 99.2127973,279.101587 C99.2071216,278.43992 98.6660405,277.933272 98.0048243,277.937999" id="Fill-34" fill="#5BB947"></path>
                    <path d="M98.9718649,281.953086 C98.9718649,281.740408 98.7930811,281.561758 98.5755135,281.561758 L96.1756486,281.572155 C96.0403784,281.572155 95.9145676,281.625089 95.8180811,281.716777 C95.7017297,281.817917 95.6298378,281.971991 95.6298378,282.145915 L95.6298378,282.48431 C95.6298378,282.652563 95.7017297,282.802855 95.8180811,282.908722 C95.9145676,282.995684 96.0451081,283.048617 96.1803784,283.048617 C96.1803784,283.048617 97.0932162,283.048617 97.0979459,283.043891 L97.1367297,289.806125 C97.1367297,290.017858 97.3155135,290.191782 97.5274054,290.191782 L98.6095676,290.187055 C98.8271351,290.187055 99.0059189,290.013132 99.0011892,289.795727 L98.9718649,281.953086 Z" id="Fill-36" fill="#5BB947"></path>
                    <path d="M78.6362027,278.010404 C77.9891757,278.010404 77.4480946,278.536901 77.4528243,279.183444 C77.4528243,279.829987 77.9986351,280.350813 78.6456622,280.346087 C79.3078243,280.346087 79.8441757,279.820535 79.8441757,279.173992 C79.8385,278.512325 79.2974189,278.005678 78.6362027,278.010404" id="Fill-38" fill="#5BB947"></path>
                    <path d="M79.6032432,282.025492 C79.6032432,281.812813 79.4244595,281.634163 79.2068919,281.634163 L76.807027,281.644561 C76.6717568,281.644561 76.5459459,281.697494 76.4494595,281.789182 C76.3331081,281.890323 76.2612162,282.044396 76.2612162,282.21832 L76.2612162,282.556715 C76.2612162,282.724968 76.3331081,282.875261 76.4494595,282.981127 C76.5506757,283.068089 76.6764865,283.121023 76.8117568,283.121023 C76.8117568,283.121023 77.7340541,283.121023 77.7387838,283.116296 L77.7681081,289.87853 C77.7681081,290.090263 77.9468919,290.264187 78.1587838,290.264187 L79.2409459,290.259461 C79.4585135,290.259461 79.6372973,290.085537 79.6372973,289.868132 L79.6032432,282.025492 Z" id="Fill-40" fill="#5BB947"></path>
                    <path d="M124.973554,284.063709 C124.968824,282.528642 124.335986,281.293216 122.360851,281.297942 C121.061122,281.302668 120.090581,281.916128 119.5495,282.85664 L119.529635,277.770313 C119.529635,277.557635 119.351797,277.378985 119.138959,277.378985 L116.738149,277.388437 C116.598149,277.388437 116.472338,277.447042 116.380581,277.533059 C116.260446,277.63987 116.187608,277.789218 116.192338,277.958416 L116.192338,278.305318 C116.192338,278.46979 116.265176,278.619137 116.380581,278.725949 C116.477068,278.812911 116.602878,278.87057 116.742878,278.87057 L117.660446,278.87057 L117.708689,289.763494 C117.708689,289.980899 117.887473,290.159549 118.100311,290.154823 L119.187203,290.150097 C119.40477,290.150097 119.577878,289.976173 119.577878,289.758768 L119.558959,285.729218 C119.641257,284.10719 120.568284,282.862311 121.809365,282.85664 C122.8045,282.851913 123.104365,283.479551 123.109095,284.556178 L123.099635,289.74459 C123.099635,289.961994 123.273689,290.134973 123.490311,290.134973 L124.606527,290.130247 C124.824095,290.130247 124.992473,289.951597 124.992473,289.739863 L124.973554,284.063709 Z" id="Fill-42" fill="#5BB947"></path>
                    <path d="M113.42677,281.50769 L115.310149,281.502964 C115.522986,281.498238 115.70177,281.676888 115.70177,281.899019 L115.70177,282.540835 C115.70177,282.757295 115.527716,282.935945 115.314878,282.935945 L113.43623,282.946343 L113.460824,287.101609 C113.465554,288.394695 113.726635,288.742543 114.600689,288.737816 C114.880689,288.737816 115.160689,288.703788 115.43123,288.655581 L115.557041,288.641402 C115.667716,288.650855 115.754743,288.728364 115.754743,288.853135 L115.759473,289.712357 C115.779338,289.954338 115.677176,290.12259 115.440689,290.185921 L115.382986,290.2001 L115.358392,290.204826 C114.933662,290.272883 114.450284,290.325816 114.016095,290.330543 C112.161095,290.335269 111.601095,289.620669 111.596365,287.685766 L111.5765,282.951069 L110.306095,282.955795 C110.089473,282.955795 109.915419,282.777145 109.910689,282.55974 L109.910689,281.917924 C109.910689,281.700519 110.084743,281.521869 110.301365,281.517143 L111.57177,281.512416 L111.562311,279.007535 C111.562311,278.862914 111.658797,278.737197 111.789338,278.698443 L113.025689,278.356266 C113.045554,278.345869 113.069203,278.345869 113.069203,278.345869 C113.266905,278.345869 113.412581,278.486709 113.412581,278.664414 L113.42677,281.50769 Z" id="Fill-44" fill="#5BB947"></path>
                    <path d="M152.604919,289.710183 L149.364108,285.332785 L152.315459,281.664316 C152.45073,281.50079 152.387351,281.35995 152.169784,281.365621 L150.667622,281.370347 C150.276946,281.370347 150.165324,281.510242 150.040459,281.684166 L147.479784,285.086078 L147.451405,277.66785 C147.451405,277.45139 147.277351,277.277466 147.059784,277.277466 L144.658973,277.286919 C144.518973,277.286919 144.394108,277.339852 144.297622,277.426814 C144.18127,277.537407 144.108432,277.6877 144.114108,277.855952 L144.114108,278.199073 C144.114108,278.368271 144.186,278.517619 144.297622,278.623485 C144.398838,278.710447 144.524649,278.76338 144.664649,278.76338 L145.582216,278.76338 L145.630459,289.661976 C145.630459,289.87938 145.809243,290.053304 146.021135,290.053304 L147.108027,290.047633 C147.325595,290.047633 147.499649,289.868983 147.499649,289.652523 L147.485459,285.660783 L150.242892,289.710183 C150.363973,289.888833 150.460459,290.033454 150.856811,290.033454 L152.445054,290.028728 C152.662622,290.028728 152.73073,289.884107 152.604919,289.710183" id="Fill-46" fill="#5BB947"></path>
                    <path d="M70.6424865,288.833285 C70.1014054,288.833285 69.4297838,288.833285 69.2897838,288.838012 L69.2755946,285.00129 C69.5508649,284.986166 70.126,284.98144 70.3142432,284.98144 C71.9705946,284.976714 73.1785676,285.459731 73.1832973,286.801024 C73.188027,287.983516 72.3716757,288.828559 70.6424865,288.833285 M70.7153243,280.029338 C72.3905946,280.019885 72.9316757,280.700457 72.9364054,281.656093 C72.9411351,282.843312 72.0188378,283.562638 70.2565405,283.567364 C69.8649189,283.57209 69.5754595,283.57209 69.2708649,283.553185 L69.2566757,280.035009 C69.4108649,280.029338 70.2414054,280.029338 70.7153243,280.029338 M72.9269459,284.084409 L72.9269459,284.045655 C74.1301892,283.625969 74.9266757,282.558795 74.9266757,281.357397 C74.9172162,279.54254 73.5891081,278.504669 71.0237027,278.514121 C70.2754595,278.514121 67.7053243,278.529245 67.7053243,278.529245 C67.4887027,278.529245 67.3146486,278.70695 67.3146486,278.924355 L67.3534324,289.991202 C67.3581622,290.208607 67.5322162,290.382531 67.7488378,290.382531 C67.7488378,290.382531 69.8601892,290.387257 70.5800541,290.382531 C74.1926216,290.373078 75.1924865,288.292609 75.1877568,286.757543 C75.183027,285.53724 74.4678919,284.373652 72.9269459,284.084409" id="Fill-48" fill="#5BB947"></path>
                    <polygon id="Fill-50" fill="#5BB947" points="126.021662 302.356523 122.863149 302.365976 122.852743 299.687171 125.852338 299.672992 125.847608 298.538707 122.848014 298.548159 122.838554 296.096211 125.997068 296.082033 125.992338 294.924116 121.437608 294.943021 121.476392 303.557921 126.021662 303.543742"></polygon>
                    <path d="M128.817784,296.241778 C128.344811,296.241778 127.948459,295.865573 127.948459,295.387283 C127.94373,294.91939 128.339135,294.532788 128.813054,294.528061 C129.295486,294.528061 129.691838,294.894814 129.696568,295.382557 C129.696568,295.856121 129.301162,296.241778 128.817784,296.241778 L128.817784,296.241778 Z M129.522514,303.529564 L128.166027,303.53429 L128.146162,298.249464 C127.842514,298.19653 127.407378,298.148323 127.035622,298.123747 L127.030892,297.284376 C127.745081,297.20214 128.668324,297.149207 129.498865,297.183235 L129.522514,303.529564 Z" id="Fill-52" fill="#5BB947"></path>
                    <path d="M133.111243,298.408453 L133.140568,298.422631 C133.507595,297.602165 134.270027,297.037858 135.328541,297.033131 C136.772054,297.028405 137.236514,297.935834 137.241243,299.054996 L137.255432,303.50045 L135.90273,303.505177 L135.888541,299.417022 C135.888541,298.630584 135.666243,298.167417 134.927459,298.172143 C133.980568,298.17687 133.270162,299.185439 133.270162,300.450167 L133.285297,303.514629 L131.927865,303.519355 L131.908946,298.234529 C131.604351,298.181596 131.169216,298.133389 130.797459,298.108812 L130.797459,297.269441 C131.507865,297.191931 132.430162,297.134272 133.212459,297.1683 C133.212459,297.501024 133.173676,298.051153 133.111243,298.408453" id="Fill-54" fill="#5BB947"></path>
                    <path d="M143.110932,298.23037 C142.767554,298.157587 142.434581,298.119777 142.101608,298.119777 C141.019446,298.124503 140.280662,298.789951 140.285392,300.498941 C140.290122,301.777849 140.686473,302.492449 141.555797,302.487722 C142.565122,302.482051 143.120392,301.280653 143.120392,300.194575 L143.110932,298.23037 Z M143.197959,303.476441 C143.19323,303.143718 143.216878,302.646522 143.280257,302.289222 L143.255662,302.289222 C142.91323,303.070934 142.1735,303.606884 141.18877,303.61161 C139.633635,303.616337 138.845662,302.472599 138.840932,300.63411 C138.831473,298.452501 140.092419,297.043151 142.149851,297.033699 C142.459176,297.033699 142.762824,297.05733 143.106203,297.081906 L143.101473,295.218841 C142.792149,295.165908 142.362689,295.117701 141.989986,295.093125 L141.985257,294.253753 C142.700392,294.171518 143.622689,294.118584 144.45323,294.151668 L144.482554,302.414939 C144.787149,302.463146 145.221338,302.511353 145.594041,302.53593 L145.59877,303.380027 C144.883635,303.457537 143.966068,303.51047 143.197959,303.476441 L143.197959,303.476441 Z" id="Fill-56" fill="#5BB947"></path>
                    <path d="M145.754946,295.080648 L145.750216,294.235605 C146.465351,294.15904 147.397108,294.106107 148.227649,294.13919 L148.238054,297.010824 C148.242784,297.406879 148.218189,297.942829 148.131162,298.290676 L148.155757,298.300129 C148.522784,297.508019 149.275757,296.982467 150.309676,296.97774 C151.754135,296.973014 152.217649,297.880443 152.222378,298.999605 L152.236568,303.44506 L150.874405,303.449786 L150.855486,299.361631 C150.855486,298.570467 150.633189,298.112026 149.903865,298.116752 C148.947514,298.121479 148.247514,299.130048 148.252243,300.408955 L148.266432,303.459238 L146.899541,303.463964 L146.865486,295.206364 C146.561838,295.153431 146.121973,295.105224 145.754946,295.080648" id="Fill-58" fill="#5BB947"></path>
                    <path d="M156.833676,298.103897 C156.003135,298.108623 155.200973,298.745714 155.205703,300.203271 C155.210432,301.632471 155.776108,302.38488 156.833676,302.380154 C157.717189,302.375428 158.456919,301.685404 158.446514,300.21745 C158.441784,298.861978 157.920568,298.099171 156.833676,298.103897 M156.712595,303.553195 C154.950297,303.562647 153.795297,302.582435 153.785838,300.347892 C153.781108,298.431895 155.017459,296.960159 156.939622,296.955433 C158.645162,296.950707 159.847459,297.886492 159.852189,300.121035 C159.861649,302.075788 158.592189,303.548469 156.712595,303.553195" id="Fill-60" fill="#5BB947"></path>
                    <path d="M164.150757,303.399026 L162.754541,303.403753 L160.359405,297.071603 L161.866297,297.06215 L163.063865,300.415855 C163.22373,300.850665 163.36373,301.294926 163.479135,301.714612 L163.49427,301.714612 C163.595486,301.318557 163.715622,300.874295 163.856568,300.464062 L165.058865,297.051753 L166.526973,297.047026 L164.150757,303.399026 Z" id="Fill-62" fill="#5BB947"></path>
                    <path d="M169.887446,297.91277 C169.119338,297.917496 168.587716,298.481803 168.477041,299.336299 L171.167311,299.326846 C171.191905,298.458172 170.694338,297.908044 169.887446,297.91277 M172.500149,300.277756 L168.452446,300.291934 C168.419338,301.764615 169.075824,302.425337 170.33677,302.42061 C170.993257,302.415884 171.664878,302.26181 172.186095,302.000925 L172.321365,303.087003 C171.683797,303.357341 170.9015,303.501963 170.123932,303.506689 C168.144068,303.511415 167.052446,302.493394 167.047716,300.263577 C167.037311,298.34758 168.080689,296.913653 169.935689,296.904201 C171.747176,296.899475 172.534203,298.134901 172.538932,299.640665 C172.538932,299.819315 172.524743,300.03672 172.500149,300.277756" id="Fill-64" fill="#5BB947"></path>
                    <path d="M175.752027,298.249653 L175.781351,298.263831 C176.148378,297.443365 176.910811,296.879058 177.969324,296.874331 C179.412838,296.869605 179.877297,297.777034 179.882027,298.896196 L179.896216,303.34165 L178.543514,303.346377 L178.529324,299.258222 C178.529324,298.471784 178.307027,298.008617 177.563514,298.013343 C176.621351,298.01807 175.906216,299.026639 175.910946,300.291367 L175.921351,303.355829 L174.568649,303.360555 L174.54973,298.075729 C174.245135,298.022796 173.81,297.974589 173.438243,297.950012 L173.438243,297.110641 C174.148649,297.033131 175.070946,296.975472 175.848514,297.0095 C175.853243,297.342224 175.814459,297.892353 175.752027,298.249653" id="Fill-66" fill="#5BB947"></path>
                    <path d="M180.328514,259.412088 C178.478243,251.283986 166.645405,254.571524 159.197027,258.62565 C150.517027,263.355621 151.445,267.974055 152.956622,271.271045 C154.362297,274.330781 159.071216,282.226355 167.881757,282.08646 C176.425541,281.956017 182.168378,268.302052 180.328514,259.412088 M172.977568,274.142679 L168.219459,278.935036 C167.644324,279.50974 166.717297,279.514467 166.142162,278.944488 L161.355676,274.195612 C160.781486,273.625633 160.776757,272.6993 161.346216,272.124595 C161.916622,271.550836 162.848378,271.54611 163.418784,272.115143 L167.171351,275.831819 L170.90027,272.081114 C171.465,271.507355 172.388243,271.493176 172.971892,272.071662 C173.547027,272.64164 173.551757,273.567974 172.977568,274.142679 M164.099865,268.717012 C164.089459,267.038269 165.451622,265.6724 167.132568,265.662002 C168.813514,265.657276 170.185135,267.018419 170.189865,268.693381 C170.20027,270.377795 168.838108,271.743664 167.157162,271.74839 C165.471486,271.757843 164.104595,270.401426 164.099865,268.717012 M172.948243,265.285798 C172.377838,265.860502 171.450811,265.865229 170.875676,265.29525 L167.123108,261.579519 L163.398919,265.334005 C162.829459,265.903983 161.906216,265.918162 161.322568,265.338731 C160.747432,264.769698 160.747432,263.842419 161.316892,263.26866 L166.07973,258.475357 C166.645405,257.901598 167.577162,257.896871 168.152297,258.465905 L172.938784,263.215726 C173.512973,263.78476 173.517703,264.711093 172.948243,265.285798" id="Fill-68" fill="#5BB947"></path>
                </g>
                <g id="Group-75" transform="translate(213.783784, 230.047321)" fill="#F47F32">
                    <path d="M85.3544054,163.846059 C54.8665676,163.793126 29.3591351,155.144197 15.0867027,127.806966 C1.05075676,100.918723 -3.04518919,72.3753686 11.1354865,43.8509186 C14.4585946,37.1661948 19.2261622,30.2498876 25.1572432,25.9537805 C67.4448108,-4.66531714 107.25873,-9.53518381 146.551432,36.07539 C166.586568,59.3291924 174.019811,85.1313567 159.665081,114.794819 C144.266973,146.62004 118.305486,161.19183 85.3544054,163.846059" id="Fill-71"></path>
                    <path d="M84.9007297,4.14865 C66.7357297,4.14865 47.3097838,11.8523405 26.078973,27.2275833 C21.1193784,30.8194881 16.3101892,36.9701524 12.5443784,44.5509619 C-0.125621622,70.0336357 1.19775676,97.8028405 16.4804595,127.08159 C28.9801892,151.0188 50.8447838,162.203802 85.2923514,162.27375 C120.067216,159.457886 143.932486,143.700767 158.250324,114.111033 C171.186135,87.3721381 166.971946,62.1815429 145.358973,37.09965 C126.413568,15.109631 106.55627,4.14865 84.9007297,4.14865 L84.9007297,4.14865 Z M85.4153243,165.417612 L85.351,165.417612 C49.5687027,165.356171 26.8007297,153.63711 13.6927568,128.533476 C-2.08089189,98.3142143 -3.41562162,69.5865381 9.7282973,43.1510643 C12.551,37.4739643 17.3573514,29.6615714 24.2343784,24.6820571 C72.3707297,-10.1754881 111.617081,-6.88322381 147.740865,35.0494286 C170.259108,61.1843167 174.622757,87.4921833 161.080595,115.477848 C146.434514,145.750988 120.998973,162.552595 85.4805946,165.410995 L85.4153243,165.417612 Z" id="Fill-73"></path>
                </g>
                <g id="Group-106" transform="translate(103.108108, 153.483036)">
                    <path d="M185.965784,72.462236 C168.015514,72.462236 151.287405,80.295424 135.306595,96.0809002 C97.5359189,133.394174 97.6759189,168.90866 135.761595,211.237367 C139.681595,215.596805 146.132,219.610286 153.923757,222.542415 C182.475243,233.297334 210.109162,230.648776 236.068757,214.670472 C259.462,200.27166 270.824703,174.800329 268.074838,142.938243 C262.275243,109.77551 252.596324,92.3906907 210.802541,77.1449455 C202.255919,74.026605 193.986459,72.462236 185.965784,72.462236 M187.889838,235.329595 C176.020108,235.329595 163.945108,233.028886 151.709297,228.419905 C145.542676,226.0984 136.960108,221.964874 131.087676,215.43706 C90.7837568,170.641281 90.7203784,131.296691 130.887135,91.617486 C155.916865,66.8891121 182.765649,60.230855 212.958351,71.2485502 C257.187946,87.3799836 268.315108,107.730015 274.286865,141.993005 L274.321865,142.259562 C277.291189,176.174705 264.548351,204.515779 239.365378,220.015793 C222.790514,230.217748 205.571459,235.329595 187.889838,235.329595" id="Fill-76" fill="#F9A675"></path>
                    <path d="M148.058703,144.116766 C147.987757,140.794254 148.011405,137.579499 148.124919,134.473447 C148.242216,131.367395 148.369919,128.572325 148.516541,126.097692 C148.554378,125.452095 148.700054,125.032409 148.954514,124.844306 C149.209919,124.655259 149.60627,124.617449 150.138838,124.730878 C150.676135,124.83958 151.124514,124.95679 151.487757,125.093849 C151.851,125.225237 152.365595,125.499356 153.025865,125.914316 C153.558432,126.263109 153.893297,126.629861 154.02573,127.035368 C154.157216,127.440875 154.204514,127.955085 154.161946,128.562873 C154.049378,130.349373 153.954784,132.432678 153.869649,134.803335 C153.784514,137.173992 153.714514,139.629721 153.667216,142.161068 C153.610459,144.686745 153.563162,147.194461 153.525324,149.683273 C153.478027,152.172085 153.444919,154.415135 153.422216,156.41904 C153.459108,157.516461 152.945459,157.955052 151.874649,157.733866 C150.955189,157.577902 150.011135,157.31418 149.034919,156.932304 C148.148568,156.540975 147.464649,155.753592 146.973703,154.561647 C146.615189,153.731728 146.237757,152.775147 145.831946,151.695685 C145.427081,150.611497 145.02127,149.443183 144.615459,148.20303 C144.209649,146.959097 143.799108,145.681135 143.383838,144.366309 C142.969514,143.051483 142.563703,141.73193 142.176811,140.412378 C142.138973,142.042914 142.091676,143.692354 142.044378,145.365425 C141.992351,147.044168 141.946,148.651073 141.908162,150.196537 C141.875054,151.733495 141.841946,153.190106 141.813568,154.552195 C141.780459,155.923735 141.77573,157.134585 141.780459,158.176237 C141.77573,158.666816 141.690595,158.987252 141.52127,159.143216 C141.351,159.288783 141.011405,159.298235 140.497757,159.152668 C140.021,159.029787 139.53573,158.906906 139.040054,158.775518 C138.544378,158.647911 138.078027,158.403095 137.629649,158.049575 C137.186,157.781128 136.879514,157.45124 136.70073,157.050459 C136.52573,156.649678 136.436811,156.070247 136.436811,155.315947 C136.403703,154.566373 136.384784,153.534173 136.375324,152.214621 C136.365865,150.889397 136.361135,149.410099 136.356405,147.755933 C136.351676,146.100821 136.361135,144.347404 136.389514,142.481504 C136.422622,140.624111 136.450054,138.790349 136.487892,136.98589 C136.521,135.185211 136.573027,133.464878 136.643973,131.838123 C136.714919,130.198135 136.794378,128.76988 136.884243,127.544852 C136.94573,126.866171 137.130189,126.422854 137.422486,126.220573 C137.719514,126.007895 138.120595,125.960633 138.624784,126.078787 C139.251946,126.234752 139.875324,126.408675 140.493027,126.597723 C141.11073,126.785825 141.756811,127.044821 142.436,127.369983 C142.983703,127.59684 143.393297,127.917275 143.662892,128.341687 C143.926811,128.760428 144.167081,129.387121 144.384649,130.235945 C144.544514,130.881542 144.761135,131.735092 145.03073,132.790923 C145.299378,133.846754 145.601135,135.00089 145.94073,136.255221 C146.270865,137.50388 146.624649,138.809254 146.983162,140.176068 C147.351135,141.538156 147.704919,142.853928 148.058703,144.116766" id="Fill-78" fill="#FFFFFF"></path>
                    <path d="M161.973473,125.390654 C162.506041,125.734721 162.845635,126.064609 162.987527,126.380318 C163.124689,126.700754 163.171986,127.167702 163.124689,127.780216 C163.020635,128.864404 162.921311,130.136695 162.837122,131.602759 C162.747257,133.064097 162.657392,134.614287 162.572257,136.264673 C162.491851,137.914114 162.417122,139.624995 162.350905,141.406768 C162.279959,143.17909 162.218473,144.932506 162.156986,146.648114 C162.101176,148.373173 162.053878,150.017887 162.02077,151.605887 C161.987662,153.190106 161.959284,154.623087 161.935635,155.900104 C161.907257,156.395409 161.817392,156.730023 161.662257,156.894495 C161.506176,157.050459 161.171311,157.07409 160.667122,156.970114 C160.157257,156.823602 159.662527,156.673309 159.181041,156.531523 C158.694824,156.38123 158.237932,156.173278 157.799014,155.909556 C157.331716,155.641109 157.011041,155.311221 156.832257,154.91044 C156.657257,154.514385 156.554149,153.93968 156.521041,153.18538 C156.464284,152.205168 156.426446,150.983921 156.398068,149.522583 C156.374419,148.057464 156.36023,146.468518 156.364959,144.762364 C156.364959,143.046756 156.374419,141.264983 156.388608,139.408535 C156.402797,137.54169 156.431176,135.741011 156.473743,133.992321 C156.516311,132.253083 156.568338,130.603642 156.633608,129.057233 C156.699824,127.516495 156.77077,126.201668 156.851176,125.122206 C156.917392,124.471883 157.072527,124.061649 157.312797,123.891506 C157.554014,123.712856 157.945635,123.703404 158.482932,123.834792 C159.021176,123.948221 159.6105,124.151447 160.251851,124.434073 C160.893203,124.726152 161.468338,125.041861 161.973473,125.390654" id="Fill-80" fill="#FFFFFF"></path>
                    <path d="M170.921365,122.774708 C172.8265,122.058217 174.775149,121.526048 176.770149,121.172529 C177.708527,121.007112 178.378257,121.426798 178.784068,122.421189 C179.081095,122.935398 179.298662,123.406127 179.453797,123.821086 C179.605149,124.240772 179.765014,124.702048 179.940014,125.202079 C180.096095,125.790962 180.123527,126.201196 180.020419,126.431834 C179.916365,126.663417 179.624068,126.85152 179.147311,126.988579 C178.161635,127.2523 177.128662,127.5302 176.048392,127.831731 C174.963392,128.138934 173.83677,128.468822 172.657176,128.8403 C172.553122,129.924489 172.454743,131.070117 172.364878,132.267734 C172.270284,133.469131 172.15677,134.728189 172.025284,136.052467 C172.553122,135.872872 173.081905,135.732031 173.605014,135.623329 C174.129068,135.519353 174.675824,135.421048 175.247176,135.321798 C175.727716,135.236727 176.124068,135.260358 176.430554,135.378512 C176.737041,135.505174 177.015149,135.797253 177.270554,136.2642 C177.562851,136.754779 177.803122,137.230234 177.987581,137.701908 C178.171095,138.178308 178.355554,138.663215 178.529608,139.163246 C178.7415,139.742677 178.802986,140.148184 178.714068,140.359917 C178.619473,140.572596 178.341365,140.779603 177.869338,140.981884 C176.812716,141.392117 175.737176,141.80235 174.637986,142.203131 C173.538797,142.613365 172.478392,143.03305 171.453932,143.470696 C171.412311,144.31952 171.360284,145.148493 171.312986,145.950055 C171.260959,146.756343 171.204203,147.529548 171.147446,148.292355 C171.977986,147.967193 172.794338,147.689293 173.576635,147.468108 C174.364608,147.24125 175.214068,147.034243 176.119338,146.846141 C176.600824,146.732712 177.000959,146.742165 177.322581,146.878279 C177.638527,147.010612 177.930824,147.31687 178.190014,147.779091 C178.482311,148.292355 178.722581,148.78766 178.925959,149.259334 C179.128392,149.730062 179.33177,150.211189 179.534203,150.705548 C179.713932,151.271746 179.765014,151.658348 179.695014,151.888986 C179.619338,152.110172 179.345959,152.327577 178.873932,152.525131 C177.713257,153.01571 176.525149,153.51007 175.307716,154.033731 C174.09123,154.551722 172.925824,155.037574 171.817176,155.485617 C171.082176,155.862767 170.506095,155.994155 170.100284,155.880727 C169.695419,155.768243 169.332176,155.583922 169.010554,155.334379 C168.662446,155.056479 168.321905,154.773853 167.9965,154.477048 C167.671095,154.179298 167.293662,153.793641 166.860419,153.321967 C166.501905,152.958996 166.204878,152.515679 165.987311,151.988236 C165.765959,151.464574 165.638257,150.828429 165.609878,150.078855 L165.963662,124.881643 C167.364608,124.188784 169.020014,123.491198 170.921365,122.774708" id="Fill-82" fill="#FFFFFF"></path>
                    <path d="M183.623905,149.188252 C182.906878,147.788354 182.420662,146.034938 182.152014,143.91855 C181.892824,141.802161 181.765122,139.516576 181.765122,137.0703 C181.769851,134.614571 181.873905,132.106854 182.081068,129.538642 C182.289176,126.978938 182.519986,124.561019 182.779176,122.299064 C182.845392,121.657247 183.010932,121.252685 183.270122,121.087269 C183.524581,120.927523 183.925662,120.93225 184.468635,121.106173 C184.977554,121.247959 185.482689,121.445514 185.977419,121.709235 C186.468365,121.969176 186.958365,122.275433 187.435122,122.624226 C188.458635,123.439021 188.892824,124.542114 188.736743,125.95619 C188.595797,127.223754 188.449176,128.633104 188.29877,130.18424 C188.147419,131.739157 188.019716,133.31865 187.916608,134.911376 C187.807824,136.500321 187.746338,138.069416 187.727419,139.6111 C187.70377,141.151838 187.732149,142.53283 187.822014,143.758804 C187.902419,144.979107 188.067014,145.992402 188.307284,146.789238 C188.54377,147.586073 188.873905,148.04735 189.293905,148.17023 C189.831203,148.312016 190.289041,147.934866 190.666473,147.034054 C191.039176,146.138914 191.345662,144.917666 191.585932,143.376928 C191.826203,141.844697 192.015392,140.072376 192.161068,138.06469 C192.302959,136.066457 192.411743,134.020961 192.486473,131.93293 C192.562149,129.849626 192.609446,127.84194 192.628365,125.890023 C192.647284,123.948504 192.656743,122.247076 192.661473,120.79519 C192.618905,120.163771 192.751338,119.758264 193.067284,119.578669 C193.3785,119.395292 193.784311,119.357483 194.29323,119.475638 C194.803095,119.583395 195.345122,119.791347 195.934446,120.088152 C196.519986,120.38023 197.062014,120.677035 197.557689,120.964388 C198.094986,121.303728 198.420392,121.629835 198.548095,121.931366 C198.666338,122.24235 198.722149,122.694173 198.708905,123.307633 C198.717419,126.846604 198.680527,130.151157 198.600122,133.200495 C198.529176,136.259285 198.350392,139.011819 198.071338,141.467547 C197.7885,143.923276 197.401608,146.034938 196.897419,147.807259 C196.392284,149.574854 195.727284,150.913311 194.906203,151.82263 C194.307419,152.393554 193.675527,152.803788 193.024716,153.072235 C192.378635,153.33123 191.614311,153.473016 190.745932,153.491921 C189.005392,153.520278 187.539176,153.138402 186.345392,152.346292 C185.841203,152.006952 185.354986,151.577814 184.892419,151.083454 C184.426068,150.58815 184.001338,149.95673 183.623905,149.188252" id="Fill-84" fill="#FFFFFF"></path>
                    <path d="M208.363892,134.539235 C208.736595,132.662938 209.114027,130.877383 209.47727,129.161776 C209.840514,127.454676 210.184838,125.92339 210.500784,124.566028 C210.821459,123.20394 211.090108,122.20955 211.307676,121.577185 C211.453351,121.068647 211.637811,120.724581 211.863892,120.549712 C212.085243,120.375788 212.453216,120.333252 212.958351,120.42305 C213.462541,120.511902 213.88727,120.620605 214.236324,120.752938 C214.585378,120.884326 215.005378,121.04029 215.485919,121.214214 C216.009973,121.441071 216.335378,121.714245 216.458351,122.015776 C216.575649,122.322033 216.679703,122.831516 216.764838,123.548007 C216.812135,123.953514 216.872676,124.6511 216.948351,125.654943 C217.019297,126.663512 217.109162,127.846005 217.21227,129.193914 C217.311595,130.547495 217.425108,132.007888 217.548081,133.573202 C217.674838,135.142297 217.797811,136.683981 217.919838,138.205814 C218.241459,136.259569 218.595243,134.204621 218.981189,132.059876 C219.368081,129.910405 219.736054,127.860183 220.089838,125.918664 C220.448351,123.980926 220.778486,122.228455 221.089703,120.667866 C221.396189,119.108224 221.637405,117.924785 221.80673,117.123224 C221.953351,116.406733 222.141595,116.001226 222.382811,115.902921 C222.613622,115.803671 223.024162,115.865112 223.599297,116.091024 C224.458216,116.482352 225.302,116.991835 226.127811,117.618528 C226.589432,118.057119 226.868486,118.575109 226.962135,119.15454 C227.061459,119.739643 227.05673,120.3238 226.952676,120.917409 C226.707676,122.053585 226.448486,123.373138 226.179838,124.886464 C225.900784,126.394119 225.617946,127.98779 225.320919,129.660862 C225.023892,131.338659 224.726865,133.058993 224.425108,134.83604 C224.128081,136.613088 223.844297,138.352326 223.575649,140.049028 C223.31173,141.745731 223.05727,143.367759 222.816054,144.908497 C222.575784,146.440728 222.368622,147.812269 222.188892,149.027845 C222.084838,149.589316 221.872946,149.965521 221.56173,150.164021 C221.250514,150.361576 220.769027,150.408838 220.122946,150.310533 C219.410649,150.192378 218.854432,150.069497 218.462811,149.942835 C218.071189,149.810502 217.594432,149.678169 217.024027,149.542055 C216.448892,149.315197 216.014703,148.971131 215.722405,148.500402 C215.439568,148.019276 215.231459,147.487107 215.104703,146.892552 C214.977,146.332026 214.830378,145.624988 214.661054,144.790343 C214.490784,143.956643 214.312,143.065283 214.127541,142.108702 C213.944027,141.161574 213.764297,140.190814 213.590243,139.191697 C213.415243,138.201088 213.274297,137.239781 213.165514,136.325735 C212.873216,137.550764 212.576189,138.842905 212.274432,140.19554 C211.967946,141.552902 211.669973,142.872455 211.382405,144.158924 C211.099568,145.432159 210.840378,146.633557 210.609568,147.750828 C210.377811,148.863374 210.189568,149.791597 210.042946,150.536445 C209.883081,151.158412 209.674973,151.540288 209.415784,151.672621 C209.151865,151.804009 208.802811,151.837093 208.359162,151.775652 C207.174838,151.597002 206.052946,151.319102 204.996324,150.951405 C204.510108,150.771809 204.161054,150.508088 203.939703,150.135664 C203.722135,149.772693 203.557541,149.193262 203.434568,148.3917 C203.241595,147.250797 203.038216,145.945424 202.821595,144.479359 C202.609703,143.01424 202.401595,141.463105 202.208622,139.827843 C202.014703,138.173676 201.831189,136.471302 201.656189,134.741516 C201.482135,133.002278 201.316595,131.286671 201.166189,129.594695 C201.010108,127.902719 200.873892,126.262731 200.760378,124.678512 C200.646865,123.095238 200.562676,121.657531 200.496459,120.356883 C200.468081,119.664024 200.548486,119.206528 200.722541,118.980616 C200.90227,118.759431 201.256054,118.688538 201.788622,118.768883 C202.411054,118.871914 202.977676,118.985343 203.486595,119.116731 C203.99173,119.244338 204.48173,119.457016 204.953757,119.753821 C205.486324,120.093162 205.844838,120.611152 206.024568,121.299285 C206.208081,121.992145 206.307405,122.651921 206.326324,123.288066 C206.368892,123.892074 206.416189,124.801393 206.46727,126.013188 C206.528757,127.228764 206.590243,128.595578 206.670649,130.123083 C206.746324,131.649643 206.844703,133.262219 206.953486,134.944743 C207.06227,136.627266 207.179568,138.24835 207.302541,139.799485 C207.632676,138.164224 207.991189,136.415533 208.363892,134.539235" id="Fill-86" fill="#FFFFFF"></path>
                    <path d="M234.424608,115.341828 C236.329743,114.630064 238.278392,114.097895 240.268662,113.744375 C241.207041,113.578959 241.8815,113.993918 242.287311,114.988309 C242.579608,115.507245 242.806635,115.973247 242.952311,116.392933 C243.103662,116.812618 243.268257,117.269168 243.438527,117.773925 C243.599338,118.358083 243.62677,118.773042 243.523662,118.998954 C243.419608,119.230537 243.127311,119.41864 242.650554,119.560425 C241.664878,119.819421 240.627176,120.097321 239.546905,120.403578 C238.466635,120.706054 237.340014,121.040668 236.160419,121.408366 C236.056365,122.496335 235.957986,123.637237 235.863392,124.834854 C235.773527,126.040978 235.660014,127.29909 235.528527,128.624314 C236.056365,128.439992 236.580419,128.299152 237.108257,128.195175 C237.632311,128.091199 238.179068,127.988168 238.750419,127.893645 C239.230959,127.808573 239.627311,127.827478 239.933797,127.950359 C240.235554,128.077021 240.518392,128.369099 240.778527,128.836047 C241.066095,129.321899 241.301635,129.80208 241.490824,130.273754 C241.674338,130.745428 241.854068,131.230335 242.032851,131.730366 C242.244743,132.319249 242.30623,132.715304 242.217311,132.931764 C242.122716,133.139716 241.844608,133.346723 241.372581,133.55373 C240.315959,133.963964 239.240419,134.369471 238.14123,134.774978 C237.037311,135.180485 235.981635,135.604897 234.957176,136.037816 C234.910824,136.88664 234.863527,137.715614 234.8115,138.521902 C234.759473,139.323464 234.707446,140.106121 234.650689,140.864202 C235.485959,140.534314 236.292851,140.256414 237.079878,140.035228 C237.867851,139.813097 238.712581,139.60609 239.622581,139.413261 C240.099338,139.299833 240.504203,139.309285 240.821095,139.450125 C241.14177,139.582459 241.429338,139.88399 241.688527,140.346211 C241.980824,140.864202 242.230554,141.359506 242.429203,141.826454 C242.631635,142.297183 242.830284,142.778309 243.037446,143.282121 C243.217176,143.838866 243.272986,144.230195 243.193527,144.456106 C243.117851,144.686745 242.849203,144.894697 242.377176,145.092252 C241.2165,145.58283 240.028392,146.081916 238.80623,146.605578 C237.594473,147.118842 236.429068,147.609421 235.320419,148.052737 C234.580689,148.434614 234.009338,148.566002 233.603527,148.452573 C233.198662,148.335364 232.835419,148.155768 232.513797,147.906225 C232.165689,147.628325 231.825149,147.340973 231.499743,147.044168 C231.174338,146.746418 230.796905,146.360761 230.363662,145.893814 C230.000419,145.530842 229.712851,145.082799 229.490554,144.555356 C229.269203,144.031695 229.1415,143.395549 229.113122,142.645975 L229.466905,117.448764 C230.867851,116.765356 232.518527,116.058318 234.424608,115.341828" id="Fill-88" fill="#FFFFFF"></path>
                    <path d="M153.03977,172.090426 C152.681257,171.989285 152.303824,172.257733 151.916932,172.896714 C151.525311,173.539476 151.166797,174.378847 150.841392,175.415773 C150.511257,176.457426 150.223689,177.628576 149.96923,178.93395 C149.71477,180.24405 149.525581,181.493654 149.407338,182.697888 C149.290041,183.930478 149.242743,185.2264 149.275851,186.588488 C149.30423,187.953411 149.402608,189.206797 149.563419,190.361878 C149.728959,191.514123 149.95977,192.499061 150.256797,193.30535 C150.553824,194.118254 150.931257,194.594654 151.384365,194.740221 C151.780716,194.896185 152.176122,194.735495 152.567743,194.255314 C152.964095,193.774188 153.313149,193.057697 153.624365,192.110569 C153.935581,191.155878 154.200446,190.017811 154.421797,188.685971 C154.643149,187.35413 154.7945,185.914533 154.874905,184.366233 C154.959095,183.138369 154.982743,181.825433 154.936392,180.439714 C154.889095,179.052104 154.78977,177.758073 154.633689,176.558566 C154.478554,175.363785 154.260986,174.336311 153.992338,173.499776 C153.718959,172.66513 153.403014,172.191566 153.03977,172.090426 M156.639095,168.2348 C157.378824,168.840697 157.959635,169.52883 158.384365,170.285021 C158.808149,171.0535 159.161932,171.923119 159.45423,172.90333 C159.916797,174.65013 160.261122,176.607719 160.488149,178.769478 C160.71423,180.935019 160.775716,183.136478 160.676392,185.360623 C160.572338,187.59233 160.29423,189.75598 159.841122,191.855354 C159.393689,193.952838 158.723959,195.798888 157.836662,197.384997 C157.195311,198.352921 156.468824,199.04389 155.661932,199.439945 C154.851257,199.83978 153.88923,200.019376 152.785311,199.97684 C152.054095,199.943757 151.2945,199.849233 150.506527,199.69894 C149.7195,199.542976 148.983554,199.255623 148.299635,198.8435 C147.761392,198.50605 147.214635,198.044773 146.652743,197.469123 C146.091797,196.894419 145.633959,196.22708 145.284905,195.454821 C144.738149,194.2383 144.303959,192.885664 143.978554,191.389352 C143.662608,189.888314 143.441257,188.332452 143.327743,186.716095 C143.20477,185.11108 143.195311,183.46353 143.289905,181.781007 C143.3845,180.1051 143.596392,178.465111 143.935986,176.874276 C144.270851,175.286276 144.70977,173.768223 145.251797,172.328626 C145.79477,170.888083 146.4645,169.592161 147.257203,168.458821 C147.761392,167.791483 148.402743,167.254588 149.185986,166.861369 C149.9645,166.465314 150.724095,166.295171 151.455311,166.356611 C152.426797,166.4483 153.369905,166.643964 154.294095,166.962509 C155.2145,167.273492 155.996797,167.693178 156.639095,168.2348" id="Fill-90" fill="#FFFFFF"></path>
                    <path d="M172.930743,169.764384 C172.57223,169.660408 172.194797,169.9298 171.807905,170.567836 C171.421014,171.211543 171.05777,172.04997 170.732365,173.086896 C170.40223,174.128548 170.114662,175.302534 169.860203,176.606017 C169.610473,177.916117 169.421284,179.167612 169.298311,180.36901 C169.181014,181.6016 169.138446,182.898467 169.166824,184.260555 C169.195203,185.624534 169.288851,186.878865 169.454392,188.035836 C169.619932,189.185246 169.850743,190.17302 170.14777,190.979308 C170.449527,191.789377 170.82223,192.265777 171.275338,192.414179 C171.671689,192.567308 172.067095,192.407562 172.458716,191.926436 C172.855068,191.44531 173.208851,190.729765 173.515338,189.781691 C173.826554,188.827 174.091419,187.688934 174.31277,186.358039 C174.534122,185.028089 174.685473,183.5866 174.761149,182.0383 C174.854797,180.810436 174.873716,179.4975 174.827365,178.113672 C174.780068,176.723227 174.680743,175.430141 174.524662,174.230634 C174.369527,173.035853 174.156689,172.008379 173.883311,171.170898 C173.609932,170.339089 173.293986,169.863634 172.930743,169.764384 M176.534797,165.906867 C177.269797,166.51182 177.850608,167.199953 178.275338,167.958979 C178.699122,168.724622 179.052905,169.597077 179.345203,170.575398 C179.8125,172.321253 180.152095,174.279786 180.379122,176.4406 C180.605203,178.606141 180.666689,180.8076 180.567365,183.032691 C180.463311,185.266289 180.189932,187.429939 179.736824,189.527422 C179.289392,191.624905 178.614932,193.47001 177.727635,195.05612 C177.086284,196.024989 176.359797,196.715012 175.552905,197.111067 C174.74223,197.511848 173.780203,197.690498 172.676284,197.648908 C171.945068,197.615824 171.185473,197.5213 170.3975,197.370062 C169.610473,197.215043 168.874527,196.927691 168.190608,196.517458 C167.652365,196.178117 167.105608,195.715896 166.543716,195.141191 C165.9875,194.565541 165.529662,193.899148 165.175878,193.128779 C164.629122,191.912258 164.194932,190.557731 163.874257,189.060474 C163.553581,187.559436 163.33223,186.00452 163.218716,184.390053 C163.100473,182.782203 163.086284,181.135598 163.180878,179.453074 C163.275473,177.779058 163.487365,176.13907 163.826959,174.546343 C164.161824,172.960234 164.600743,171.440291 165.14277,169.999748 C165.685743,168.562041 166.355473,167.264229 167.152905,166.129943 C167.652365,165.46355 168.293716,164.92571 169.076959,164.532491 C169.855473,164.136436 170.615068,163.967239 171.346284,164.028679 C172.31777,164.120367 173.260878,164.316031 174.185068,164.633631 C175.110203,164.944615 175.88777,165.367136 176.534797,165.906867" id="Fill-92" fill="#FFFFFF"></path>
                    <path d="M199.387622,174.3693 C199.330865,174.869331 199.231541,175.215288 199.095324,175.4015 C198.958162,175.594329 198.656405,175.688853 198.193838,175.684126 C196.934784,175.597165 195.963297,175.205836 195.288838,174.501634 C194.609649,173.796486 194.142351,172.837069 193.883162,171.616767 C193.826405,171.395581 193.779108,171.163998 193.736541,170.93525 C193.693973,170.712174 193.661811,170.466412 193.628703,170.212143 C193.600324,169.953148 193.562486,169.705495 193.519919,169.465405 C193.477351,169.222479 193.425324,168.989005 193.373297,168.764984 C193.265459,168.338681 193.156676,167.97571 193.047892,167.666617 C192.940054,167.365086 192.798162,167.191162 192.619378,167.153353 C192.256135,167.047486 191.873973,167.298919 191.463432,167.895365 C191.052892,168.498426 190.666,169.317003 190.293297,170.363381 C189.920595,171.406924 189.581,172.630062 189.265054,174.02996 C188.949108,175.431748 188.708838,176.895922 188.538568,178.425317 C188.369243,179.690991 188.279378,181.005817 188.284108,182.372631 C188.284108,183.734719 188.364514,184.995667 188.529108,186.152638 C188.694649,187.307719 188.925459,188.278479 189.217757,189.070588 C189.519514,189.861753 189.878027,190.338153 190.302757,190.493172 C190.666,190.623615 191.015054,190.538543 191.340459,190.237012 C191.665865,189.942098 191.977081,189.494055 192.270324,188.909898 C192.567351,188.325741 192.83127,187.620593 193.066811,186.796345 C193.308027,185.969262 193.515189,185.094917 193.698703,184.1752 C192.619378,184.387879 191.741541,184.208284 191.067081,183.633579 C190.387892,183.062655 189.808027,182.061648 189.321811,180.635284 C189.100459,179.997248 189.194108,179.566219 189.604649,179.342198 C190.015189,179.122903 190.552486,178.900772 191.223162,178.679586 C191.859784,178.39885 192.529514,178.154034 193.232351,177.9423 C193.930459,177.732457 194.529243,177.536793 195.034378,177.360034 C195.623703,177.175712 196.118432,177.131286 196.519514,177.2277 C196.925324,177.328841 197.312216,177.598234 197.684919,178.052893 C197.948838,178.335519 198.203297,178.660681 198.449243,179.004748 C198.694243,179.358267 198.920324,179.673976 199.128432,179.970781 C199.515324,180.536979 199.746135,181.045517 199.83127,181.498286 C199.91073,181.952945 199.924919,182.549391 199.864378,183.28195 C199.548432,185.780215 199.062216,187.943865 198.401946,189.760612 C197.746405,191.575469 196.958432,193.019793 196.034243,194.085076 C194.797892,195.418807 193.312757,195.985005 191.576946,195.781779 C190.024649,195.675912 188.533838,195.240157 187.109243,194.478295 C186.576676,194.134229 186.043162,193.654048 185.501135,193.032081 C184.968568,192.412005 184.539108,191.71631 184.213703,190.941215 C183.637622,189.763448 183.199649,188.40136 182.888432,186.85495 C182.57627,185.308541 182.388027,183.668553 182.33127,181.936876 C182.269784,180.199529 182.336,178.444222 182.51573,176.65016 C182.699243,174.859879 182.99627,173.115915 183.406811,171.432445 C183.822081,169.745195 184.345189,168.163812 184.987486,166.698693 C185.628838,165.229793 186.378027,163.966955 187.241676,162.909234 C187.770459,162.235279 188.407081,161.798579 189.138297,161.598188 C189.868568,161.397798 190.539243,161.318398 191.156946,161.362824 C192.033838,161.402524 192.949514,161.596298 193.902081,161.928076 C194.854649,162.272143 195.671,162.734365 196.350189,163.323248 C196.99627,163.856362 197.491,164.471712 197.854243,165.169298 C198.208027,165.868774 198.496541,166.672226 198.722622,167.568312 C198.836135,168.051329 198.939243,168.607129 199.024378,169.231931 C199.114243,169.86335 199.185189,170.485317 199.24573,171.097831 C199.302486,171.713181 199.345054,172.314353 199.363973,172.896619 C199.392351,173.471324 199.397081,173.961903 199.387622,174.3693" id="Fill-94" fill="#FFFFFF"></path>
                    <path d="M201.302689,185.158153 C201.915662,184.677027 202.6185,184.43221 203.415932,184.40858 C204.213365,184.387784 204.911473,184.602353 205.514986,185.052287 C207.19877,186.280151 208.651743,187.031615 209.872959,187.309515 C211.095122,187.585525 211.929446,187.392696 212.377824,186.73481 C212.651203,186.381291 212.562284,185.95688 212.099716,185.46252 C211.632419,184.962489 210.991068,184.406689 210.179446,183.791339 C209.36877,183.174099 208.472014,182.519049 207.491068,181.821463 C206.505392,181.123877 205.637959,180.412113 204.887824,179.68806 C203.783905,178.687053 202.915527,177.380734 202.293095,175.769103 C201.670662,174.164089 201.500392,172.353958 201.788905,170.346272 C201.863635,169.493668 202.043365,168.602308 202.326203,167.671249 C202.604311,166.738299 202.953365,165.819527 203.373365,164.916825 C203.788635,164.012232 204.254986,163.158682 204.774311,162.35712 C205.288905,161.558394 205.816743,160.879713 206.3635,160.323913 C206.712554,159.87587 207.288635,159.484541 208.075662,159.14331 C208.863635,158.80397 209.765122,158.777503 210.788635,159.064856 C211.570932,159.32196 212.382554,159.661301 213.217824,160.090439 C214.052149,160.512015 214.759716,161.00732 215.349986,161.575408 C216.165392,162.324037 216.684716,163.104803 216.910797,163.919599 C217.132149,164.732503 217.307149,165.499091 217.415932,166.210856 C217.462284,166.842275 217.485932,167.549313 217.490662,168.33197 C217.495392,169.116518 217.481203,169.910518 217.443365,170.71397 C217.406473,171.515532 217.344986,172.30008 217.264581,173.060996 C217.174716,173.827584 217.081068,174.492087 216.972284,175.052613 C216.8635,175.587618 216.698905,175.931684 216.486068,176.084813 C216.274176,176.245503 215.934581,176.231325 215.481473,176.056456 C212.8735,175.14241 211.537824,173.646099 211.472554,171.564684 C211.425257,170.931375 211.429986,170.174239 211.486743,169.298003 C211.542554,168.420822 211.570932,167.624932 211.575662,166.913168 C211.580392,166.201403 211.505662,165.699482 211.354311,165.395115 C211.202959,165.093584 210.924851,165.202287 210.52377,165.708934 C210.128365,166.078522 209.713095,166.676858 209.274176,167.511503 C208.835257,168.348039 208.495662,169.250741 208.264851,170.240406 C208.029311,171.22818 207.958365,172.22446 208.04823,173.245318 C208.141878,174.268065 208.5335,175.128232 209.226878,175.832434 C210.118905,176.76822 211.142419,177.62366 212.292689,178.387413 C213.439176,179.151165 214.491068,179.935713 215.438905,180.737275 C216.392419,181.542618 217.141608,182.396168 217.7035,183.30076 C218.259716,184.206299 218.406338,185.287651 218.146203,186.537256 C218.043095,187.156387 217.868095,187.820889 217.618365,188.532653 C217.368635,189.247253 217.005392,189.923099 216.528635,190.578149 C216.051878,191.231308 215.429446,191.799396 214.665122,192.296591 C213.892284,192.790951 212.934041,193.123675 211.79323,193.28153 C210.2835,193.51973 208.751068,193.284365 207.2035,192.582053 C205.651203,191.884468 204.024176,190.554518 202.316743,188.608272 C201.420932,187.639403 200.944176,186.906844 200.882689,186.420991 C200.825932,185.94081 200.967824,185.513563 201.302689,185.158153" id="Fill-96" fill="#FFFFFF"></path>
                    <path d="M233.636824,162.463365 C232.863041,162.654303 232.066554,162.856584 231.250203,163.066427 C231.141419,165.145005 231.032635,167.319998 230.929527,169.613146 C230.816014,171.904403 230.711959,174.225908 230.608851,176.568208 C230.504797,178.91807 230.424392,181.243355 230.358176,183.541229 C230.297635,185.841939 230.255068,188.018822 230.231419,190.081331 C230.250338,190.486839 230.198311,190.769465 230.070608,190.932046 C229.948581,191.0899 229.759392,191.170246 229.509662,191.170246 C229.264662,191.170246 228.966689,191.118258 228.617635,191.012391 C228.278041,190.908415 227.892095,190.79026 227.472095,190.668324 C226.627365,190.417836 225.948176,190.062427 225.429797,189.598315 C224.910473,189.138929 224.674932,188.353436 224.7175,187.248453 C224.651284,185.919448 224.603986,184.314434 224.589797,182.43341 C224.570878,180.548605 224.575608,178.587236 224.599257,176.55592 C224.618176,174.522712 224.665473,172.48667 224.731689,170.447791 C224.796959,168.408912 224.877365,166.557191 224.971959,164.890736 C224.495203,165.06277 224.033581,165.220624 223.566284,165.357684 C223.103716,165.496634 222.721554,165.646927 222.424527,165.795329 C222.009257,165.993829 221.661149,166.05716 221.377365,165.986267 C221.089797,165.91821 220.764392,165.661105 220.391689,165.206446 C219.990608,164.763129 219.613176,164.186534 219.254662,163.471934 C218.896149,162.76017 218.599122,162.16845 218.373041,161.704339 C218.1375,161.205253 218.066554,160.870639 218.165878,160.681591 C218.259527,160.498215 218.458176,160.330908 218.755203,160.177779 C219.698311,159.80252 220.783311,159.432931 222.000743,159.060508 C223.221959,158.683358 224.466824,158.334565 225.731554,158.014129 C227.004797,157.693693 228.250608,157.398779 229.486014,157.135058 C230.716689,156.876062 231.820608,156.66622 232.787365,156.48946 C233.268851,156.432746 233.641554,156.456377 233.905473,156.555627 C234.159932,156.653931 234.391689,156.842979 234.598851,157.103865 C235.004662,157.5831 235.363176,158.103927 235.674392,158.673905 C235.990338,159.24861 236.254257,159.811972 236.462365,160.365881 C236.641149,160.903722 236.697905,161.263858 236.631689,161.459522 C236.571149,161.657077 236.282635,161.810205 235.773716,161.92647 C235.127635,162.093777 234.410608,162.2677 233.636824,162.463365" id="Fill-98" fill="#FFFFFF"></path>
                    <path d="M174.695689,6.48830333 C174.647446,5.4702819 174.666365,4.4229581 174.526365,3.38981286 C174.410959,2.49183667 174.860284,1.96628429 175.724878,1.70067238 C180.307986,0.276198571 187.765824,2.97012714 186.838797,8.52529143 C186.176635,12.5113605 185.244878,16.45962 184.529743,20.4371819 C184.123932,22.7000819 183.800419,24.9828319 183.597041,27.2712533 C183.529878,28.0435129 183.954608,28.8545271 184.157986,29.6456914 C185.013122,29.3800795 186.027176,29.30257 186.703527,28.8252248 C191.281905,25.5764414 194.325014,21.2718271 196.614203,16.4501676 C196.716365,16.237489 196.721095,15.8612843 196.575419,15.6873605 C194.909608,13.704251 195.170689,11.6237819 196.180014,9.62082238 C198.145689,5.70659143 201.362851,2.72342 205.771905,0.77812 C207.404608,0.0597390476 209.163122,-0.0319490476 210.950014,0.493603333 C212.385014,0.918960476 213.307311,1.77723667 213.514473,3.10057 C213.664878,4.0410819 213.539068,4.82752 212.394473,5.35401762 C210.819473,6.07807 209.438392,7.05733667 208.500959,8.64533667 C209.631365,9.01776048 210.699338,9.38451286 211.771095,9.73141524 C213.273257,10.2191581 214.814203,10.619939 216.272851,11.2040962 C218.272581,12.0047129 219.069068,13.3658557 218.446635,15.1712605 C217.847851,16.9133343 216.949203,18.56372 216.171635,20.2538057 C215.350554,22.0393605 214.48123,23.8060105 213.713122,25.61047 C213.399068,26.3439748 213.109608,27.1455367 213.099203,27.9225224 C213.094473,28.6995081 213.201365,29.8432462 213.727311,30.1665176 C214.273122,30.4954605 215.504743,30.2251224 216.224608,29.8725486 C219.103122,28.4584724 221.30623,26.2957676 223.402446,24.0564986 C223.802581,23.6273605 223.884878,22.9222129 224.035284,22.3238771 C225.629203,15.8518319 229.202986,10.4989486 235.433932,6.77754619 C237.848932,5.33511286 240.606365,4.65454143 243.74123,5.06950095 C248.605284,5.71604381 251.271905,8.27858429 251.373122,12.5406629 C251.508392,18.1298557 248.093527,22.1981605 241.837986,24.1141581 C239.703932,24.7710986 237.472446,25.1955105 235.255149,25.7607629 C235.255149,25.7607629 235.216365,25.8231486 235.211635,25.8855343 C234.979878,30.1041319 236.602176,31.4993033 241.210824,31.025739 C244.485689,30.688289 247.407716,29.50107 250.00623,27.7873533 C252.054203,26.440389 253.879878,24.8193057 255.792581,23.304089 C256.033797,23.1103152 256.251365,22.6953557 256.184203,22.4250176 C254.918527,17.5409724 257.448932,14.1286629 261.158932,11.1889724 C262.955284,9.76544381 264.955014,8.55364857 267.433392,8.05645333 C267.935689,7.96003905 268.461635,7.89765333 268.988527,7.88347476 C272.108257,7.78706048 273.750419,9.15765571 273.112851,11.7447724 C272.470554,14.3602462 271.296635,16.8462224 270.360149,19.3898581 C270.302446,19.5439319 270.229608,19.6932795 270.311905,19.9447129 C270.944743,19.3028962 271.557716,18.6459557 272.215149,18.023989 C274.837311,15.5569176 277.609878,13.2306867 281.309473,11.9224771 C283.063257,11.3052367 284.913527,10.9819652 286.864068,11.4838867 C290.462446,12.41022 292.220959,15.2100152 291.187041,18.4625795 C290.656365,20.1469938 289.921365,21.7926533 289.018932,23.3229938 C287.197986,26.4073057 285.193527,29.3942581 283.347986,32.4596652 C282.918527,33.1685938 282.609203,33.9748819 282.435149,34.78117 C282.212851,35.8039176 282.898662,36.412651 283.999743,36.1035581 C285.260689,35.7462581 286.588797,35.340751 287.622716,34.6507271 C290.414203,32.7876629 293.095014,30.7847033 295.853392,28.8592533 C296.475824,28.4244438 296.862716,27.6380057 298.007311,28.27037 C299.282446,28.9745724 300.15177,29.9595105 299.761095,30.9775319 C299.340149,32.0881867 298.727176,33.2271986 297.853122,34.0571176 C296.220419,35.6016367 294.457176,37.0733724 292.558662,38.3428271 C288.728527,40.9204914 284.642986,43.0680724 279.937851,44.154151 C277.715824,44.670251 275.527851,44.6362224 273.31623,43.7779462 C271.1765,42.9518081 270.268392,41.4611676 270.118932,39.4525367 C269.935419,36.9580533 270.664743,34.6696319 271.712851,32.47857 C272.832851,30.1476129 274.142041,27.8988914 275.267716,25.5717152 C275.5865,24.9109938 275.894878,23.8249152 275.513662,23.3806533 C274.803257,22.5460081 273.683257,23.1301652 272.972851,23.5593033 C271.234203,24.6066271 269.505014,25.7021581 268.032176,27.0103676 C267.374743,27.5897986 267.195959,28.6758771 266.979338,29.5729081 C266.138392,33.0627271 265.341905,36.5619986 264.578527,40.0707224 C264.273932,41.4611676 263.737581,41.9290605 262.149338,41.8420986 C258.879203,41.6539962 256.41123,40.2446462 254.995149,37.4788795 C254.285689,36.0893795 253.971635,34.539189 253.450419,33.0097938 C253.005824,33.2990367 252.4165,33.6903652 251.827176,34.0807486 C248.054743,36.5374224 244.075149,38.5309295 239.520419,39.501689 C236.592716,40.1236557 233.680149,40.0801748 230.806365,39.1727462 C227.579743,38.1547248 225.546905,36.0165962 224.460014,33.0532748 C224.2765,32.5560795 224.1365,32.0494319 223.86123,31.1949367 C223.276635,31.7979986 222.875554,32.2857414 222.397851,32.6959748 C219.499473,35.1762795 216.437446,37.4164938 212.834338,38.9562867 C210.548932,39.9308271 208.21623,40.1917129 205.748257,39.5593486 C203.076905,38.874051 201.5265,37.199089 201.198257,34.6507271 C200.83123,31.78382 201.681635,29.1191938 202.613392,26.4696914 C203.145014,24.9544748 203.782581,23.4676152 204.308527,21.9476724 C204.970689,20.016551 204.685959,19.5240819 202.555689,18.7376438 C202.342851,18.6554081 202.125284,18.5930224 201.821635,18.4918819 C201.53123,18.9890771 201.24177,19.4711486 200.97123,19.9588914 C197.537446,26.1851748 192.987446,31.5569629 187.258797,36.055351 C185.346095,37.556389 183.355824,39.052701 180.844338,39.4723867 C176.975419,40.1142033 174.879203,38.7530605 174.193392,35.3312986 C173.971095,34.2263152 173.966365,33.0816319 173.845284,31.7885462 C173.154743,33.2508295 172.618392,34.5779438 171.932581,35.8284938 C170.943122,37.6282271 169.590419,39.16802 167.532986,39.9402795 C164.485149,41.0792914 161.060824,39.997939 159.109338,37.357889 C157.554203,35.253789 156.823932,32.8547748 156.674473,30.3697438 C156.172176,22.0006057 159.075284,14.7657533 166.054473,9.07069381 C167.72123,7.70955095 169.730419,6.78227238 172.058392,6.54596286 C172.870014,6.46372714 173.705284,6.5024819 174.695689,6.48830333 M174.758122,11.7343748 C174.145149,12.2221176 173.725149,12.5160867 173.367581,12.8592081 C170.856095,15.2913057 169.343527,18.1922414 168.565959,21.4117224 C168.063662,23.5016438 167.943527,25.6199224 168.407041,27.7391462 C168.716365,29.1343176 169.512851,29.6504176 170.889203,29.4046557 C172.343122,29.14377 173.652311,27.7826271 173.748797,26.4262105 C173.975824,23.2265795 174.207581,20.0316748 174.429878,16.8358248 C174.54623,15.2194676 174.637986,13.6068914 174.758122,11.7343748 M235.844473,20.016551 C239.752176,19.8482986 241.910824,17.8595176 241.693257,14.6447629 C241.640284,13.8583248 241.481365,13.0378581 240.490959,12.7145867 C239.510014,12.3960414 238.935824,13.0038295 238.428797,13.5785343 C236.805554,15.4170224 236.230419,17.6279343 235.844473,20.016551" id="Fill-100" fill="#5BB947"></path>
                    <path d="M81.0362568,50.5953814 C78.9495,53.0662338 77.0755811,55.5815124 74.9604459,57.878441 C72.8349054,60.181041 70.2363919,61.8938124 67.1109865,62.7388552 C61.8997703,64.143479 57.7943649,62.7048267 54.7900405,58.35106 C54.4561216,57.8689886 54.1326081,57.3765195 53.8232838,56.9228052 C52.6351757,58.8151719 51.5728784,60.7065933 50.3554459,62.4921481 C48.4720676,65.2579148 46.2453108,67.7297124 43.2362568,69.3413433 C39.661527,71.2526148 35.9619324,72.3727219 32.0882838,70.2289219 C30.8708514,69.5587481 29.8757162,68.5114243 28.7122027,67.5945433 C28.4511216,68.1493981 28.1181486,68.8394219 27.7993649,69.5294457 C26.3454459,72.6761433 24.5245,75.5723529 22.1577432,78.1348933 C20.6896351,79.7181671 18.9311216,80.8136981 16.8736892,81.4507886 C14.6951757,82.1266338 12.8259865,81.4895433 11.5697703,79.6359314 C9.85098649,77.1026933 9.12166216,74.1771814 8.33841892,71.2866433 C6.11733784,63.0432219 4.03058108,54.7610457 1.75558108,46.5318029 C0.769905405,42.9550219 -0.253608108,39.4169957 0.161662162,35.6048505 C0.499364865,32.5347171 1.43206757,29.5808481 3.9917973,27.2158624 C5.04936486,26.2365957 6.38787838,25.3868267 7.7595,24.7979433 C10.8357162,23.4755552 13.2753108,24.3007481 14.7245,26.892591 C15.7432838,28.7169005 16.0384189,30.71986 15.9797703,32.7710267 C15.9126081,35.4451052 15.8549054,38.1286362 15.5257162,40.787591 C15.0432838,44.7169457 15.2022027,48.5583933 15.9078784,52.3903886 C16.8595,57.49751 17.6947703,62.622591 18.6170676,67.7344386 C18.6804459,68.0718886 18.7863919,68.41501 18.9358514,68.728829 C19.3662568,69.6409838 19.9886892,69.7704814 20.8390946,69.1239386 C22.3223378,67.9991052 23.036527,66.3827481 23.7422027,64.7900219 C24.2880135,63.5545957 24.7316622,62.2709624 25.1232838,60.9863838 C25.277473,60.47501 25.2292297,59.8766743 25.1232838,59.3454505 C23.8386892,52.8110195 24.6692297,46.4930481 28.6686892,40.6098862 C30.4697703,37.9594386 32.9481486,35.976329 36.4112568,35.4545576 C40.1836892,34.8902505 42.8209865,36.2362695 44.211527,39.3933648 C46.1336892,43.7660362 45.0912568,47.854191 42.0481486,51.5604695 C40.4684189,53.4868648 38.5320676,55.151429 36.7205811,56.8887767 C36.2078784,57.3765195 36.092473,57.7045171 36.3970676,58.3132505 C38.1063919,61.7009838 40.1307162,62.1641505 43.4538243,59.9343338 C46.7570676,57.719641 48.5590946,54.5096124 50.1482838,51.1114814 C50.7130135,49.9006314 50.9211216,48.7181386 50.7953108,47.3617219 C50.196527,41.0248457 51.5047703,34.9961171 55.6546351,29.5666695 C57.6392297,26.9606481 60.3295,25.2762338 63.7538243,24.5710862 C68.4003108,23.6107243 72.2597703,26.1203314 73.1820676,30.6574743 C74.1970676,35.6379338 72.2645,39.7648433 68.5261216,43.2735671 C66.8650405,44.836991 64.8842297,46.1111719 63.0349054,47.4827124 C62.5278784,47.8589171 62.2081486,48.1576124 62.5609865,48.7512219 C63.1890946,49.799491 63.6772027,50.943229 64.4453108,51.883741 C65.5369324,53.225979 66.8792297,53.4188076 68.5790946,52.8157457 C72.2162568,51.5169886 74.5300405,48.886391 76.5543649,45.8947124 C76.6357162,45.7737219 76.6990946,45.643279 76.7813919,45.52796 C77.8720676,44.0316481 78.3847703,42.487129 78.1530135,40.6146124 C77.9789595,39.2383457 78.2296351,37.7477052 78.6307162,36.3818362 C79.2058514,34.4365362 80.9199054,33.7030314 83.0066622,34.2285838 C86.5861216,35.1312862 88.2036892,38.4084267 86.6731486,41.5456719 C86.3685541,42.1685838 86.3780135,42.6270243 86.7790946,43.1724267 C87.856527,44.6536148 89.1940946,45.7784481 91.0490946,46.2756433 C91.9136892,46.5119529 92.826527,46.6187648 93.5416622,45.9334671 C94.2605811,45.2424981 94.0817973,44.3984005 93.6617973,43.6838005 C91.9666622,40.8509219 90.1646351,38.0757029 88.416527,35.261729 C87.2284189,33.3457314 85.8520676,31.4826671 85.0063919,29.4362267 C82.8619324,24.2865695 85.6439595,18.6633481 91.4889595,16.3030886 C93.9323378,15.3143695 96.4485541,14.6234005 99.1539595,14.9807005 C102.993554,15.4920743 104.500446,19.6189838 103.008689,22.5586743 C102.882878,22.8044362 102.293554,22.9641814 101.906662,23.0029362 C100.496257,23.1475576 99.0423378,23.0889529 97.6754459,23.3885933 C96.1297703,23.7317148 95.7050405,24.54651 96.3038243,25.8547195 C96.8401757,27.02776 97.5647703,28.1327433 98.3130135,29.2046433 C99.8208514,31.3569505 101.56423,33.3750338 102.873419,35.619029 C106.823689,42.4190719 104.447473,49.1954838 97.376527,52.9839981 C94.8934189,54.3120576 92.2712568,55.1561552 89.397473,55.1419767 C86.0743649,55.1221267 83.5089595,53.742079 81.4950405,51.2665005 C81.2973378,51.0197933 81.0892297,50.7834838 80.8820676,50.5471743 C80.8622027,50.5273243 80.8139595,50.5273243 81.0362568,50.5953814 M60.8904459,42.5835433 C62.3339595,41.8887933 63.3678784,40.9709671 64.1161216,39.8177767 C65.2276081,38.0898814 65.6286892,36.2315433 64.6089595,34.4270838 C64.2807162,33.8476529 63.4785541,33.2975243 62.7785541,33.157629 C61.8316622,32.978979 61.2953108,33.8230767 60.9963919,34.5565814 C59.9284189,37.207029 60.3058514,39.8376267 60.8904459,42.5835433 M34.3878784,52.2315886 C35.2808514,51.4253005 36.0054459,50.851541 36.6382838,50.1993267 C38.2132838,48.5924219 38.4204459,46.6329433 37.0923378,44.9145005 C36.7489595,44.4702386 36.0101757,43.9881671 35.5078784,44.0505529 C35.0055811,44.1082124 34.3585541,44.769879 34.1551757,45.285979 C33.257473,47.5450981 33.6680135,49.7607362 34.3878784,52.2315886" id="Fill-102" fill="#5BB947"></path>
                    <path d="M129.367378,41.7639274 C127.62873,43.1827298 126.014946,44.7225226 124.204405,45.9919774 C121.847108,47.6376369 119.103865,48.2841798 116.210216,48.0091155 C112.694135,47.6763917 110.578054,45.625225 109.389946,42.5891202 C107.825351,38.5737488 107.786568,34.4619631 108.955757,30.3397798 C109.588595,28.1099631 110.453189,25.937806 111.244946,23.7127155 C107.530216,21.1690798 108.038189,16.9703321 110.264,14.1280012 C112.940081,10.7100202 116.606568,8.60119405 121.402514,8.49060119 C124.228054,8.42254405 126.106703,9.9869131 126.33373,12.4577655 C126.372514,12.9020274 126.179541,13.4181274 125.923189,13.8189083 C122.214135,19.6009298 120.040351,25.7837321 119.900351,32.4438798 C119.871027,33.7038821 120.209676,35.001694 120.586162,36.2229417 C120.94373,37.391256 121.769541,37.705075 123.021027,37.4148869 C123.484541,37.3090202 123.952784,37.1596726 124.387919,36.966844 C126.179541,36.1747345 126.300622,35.9573298 125.927919,34.2010774 C124.720892,28.4861679 125.044405,22.8875226 127.816973,17.5204607 C128.309811,16.5790036 128.986162,15.6961512 129.705081,14.8709583 C131.140081,13.230025 133.125622,12.8103393 135.303189,13.2489298 C137.346432,13.6591631 138.428595,14.976825 138.964946,16.6952679 C140.031973,20.1170298 139.389676,23.4953107 138.394541,26.8017536 C137.772108,28.8727702 136.786432,30.860606 135.917108,32.8635655 C135.486703,33.8532298 135.878324,35.2096464 136.907514,35.8703679 C137.772108,36.4356202 139.070892,36.2862726 139.747243,35.2625798 C140.524811,34.0999369 141.254135,32.8153583 141.582378,31.4929702 C143.162108,25.1608202 143.08927,18.8333964 141.210622,12.5541798 C140.770757,11.0871702 141.075351,10.4207774 142.568054,9.61448929 C145.441838,8.05579167 149.262514,8.69288214 151.030486,11.2365179 C151.90927,12.5106988 152.633865,14.0211893 152.822108,15.489144 C153.860757,23.6597821 152.131568,31.3048679 147.21927,38.2353536 C145.141973,41.1655917 142.505622,43.5060012 138.930892,44.7470988 C134.738459,46.1989845 132.101162,45.4219988 129.526297,41.9473036 C129.444946,41.8367107 129.342784,41.734625 129.367378,41.7639274" id="Fill-104" fill="#5BB947"></path>
                </g>
            </g>
        </g>
    </g>
</svg>
