
<svg width="256px" height="246px" viewBox="0 0 256 246" version="1.1" xmlns="http://www.w3.org/2000/svg" xmlns:xlink="http://www.w3.org/1999/xlink">
    <!-- Generator: Sketch 45 (43475) - http://www.bohemiancoding.com/sketch -->
    <desc>Created with Sketch.</desc>
    <defs>
        <polygon id="path-1" points="0.0421177002 0.398261171 242.998005 0.398261171 242.998005 243.696389 0.0421177002 243.696389"></polygon>
    </defs>
    <g id="Page-1" stroke="none" stroke-width="1" fill="none" fill-rule="evenodd">
        <g id="STAP-1:-THEMA-KIEZEN" transform="translate(-987.000000, -739.000000)">
            <g id="YOUNG_ADULT" transform="translate(987.000000, 738.000000)">
                <g transform="translate(128.000000, 123.500000) rotate(-360.000000) translate(-128.000000, -123.500000) ">
                    <path d="M217.86396,145.012186 C219.671784,133.254659 235.61213,121.581574 233.798007,110.441604 C231.919634,98.897071 212.980945,92.8929058 207.732586,82.7183411 C202.431316,72.4416905 208.490991,53.5469707 200.289643,45.4002611 C192.165143,37.3304311 173.368812,43.5148222 162.928786,38.2567665 C152.861663,33.1801968 146.72514,14.2791754 134.972394,12.4706159 C123.219648,10.6557549 111.686108,26.8407864 100.551928,28.6493459 C89.017129,30.5284832 72.948282,18.970087 62.7791144,24.2218411 C52.5053827,29.5303097 52.608687,49.3702696 44.4589911,57.5825158 C36.3987415,65.7040189 16.5277949,65.7355269 11.2718773,76.1798001 C6.18981309,86.2585805 17.8846078,102.185246 16.0780436,113.942773 C14.2639205,125.7003 -1.67012705,137.373385 0.143996018,148.513355 C2.01607023,160.051586 20.9534993,166.055752 26.2018581,176.229056 C31.5094279,186.506967 25.4434539,205.406728 33.651101,213.554698 C41.7693017,221.624528 60.5656323,215.433835 71.0056586,220.696932 C81.0790808,225.774762 87.2168638,244.675784 98.9683499,246.483083 C110.721096,248.291642 122.254635,232.114172 133.383776,230.299311 C144.923615,228.426476 160.992462,239.97731 171.162889,234.726816 C181.435361,229.423389 181.333316,209.577127 189.476713,201.372443 C197.543262,193.244638 217.414208,193.219432 222.668866,182.773898 C227.744631,172.696378 216.056136,156.769713 217.86396,145.012186" id="Fill-1" fill="#FFFFFF"></path>
                    <path d="M81.8842239,84.7469525 C82.0517783,84.2188783 82.3150781,83.7563408 82.6753831,83.3631209 C83.0356881,82.9711614 83.4350471,82.6485194 83.8784994,82.3977157 C84.3156527,82.146912 84.7729629,81.9666862 85.2416114,81.8570383 C85.7115196,81.7549524 86.1549719,81.7158825 86.566929,81.7486508 C87.0557344,81.792762 87.4613925,81.9276163 87.7763444,82.1721184 C88.0912963,82.4103189 88.2273556,82.7581672 88.1946006,83.2219651 C88.1820025,83.3631209 88.1429484,83.5244419 88.0849973,83.7109693 C87.9564969,84.1155321 87.7889425,84.6700729 87.5898929,85.3708109 C87.3908433,86.0728093 87.1779358,86.8642903 86.9335331,87.7515557 C86.6954294,88.646383 86.4510267,89.5865819 86.194026,90.5771935 C85.9433242,91.5678052 85.6989215,92.5533755 85.4608179,93.5376856 C84.8750073,95.8478524 84.2702996,98.3382451 83.6466948,100.99626 C84.1417992,100.764361 84.6822567,100.468186 85.2680673,100.120338 C85.8526181,99.7661878 86.5152769,99.2834852 87.248485,98.6797919 C87.9829529,98.0672763 88.8056073,97.2896587 89.7252669,96.3557615 C90.6449265,95.416823 91.6880473,94.2384236 92.8521096,92.8167825 L93.5664205,98.1769241 C93.2439098,98.6470235 92.8395115,99.1171229 92.3431473,99.5998256 C91.8543419,100.076227 91.3138844,100.551367 90.7293336,101.021467 C90.137224,101.491566 89.5262173,101.947802 88.8963134,102.380092 C88.2651498,102.817423 87.647844,103.221986 87.0431363,103.608904 C85.6145144,104.510033 84.0901471,105.378394 82.4637354,106.202643 C82.0316214,107.875088 81.542816,109.49712 81.0023585,111.067479 C80.4631608,112.644139 79.8584531,114.111152 79.1819364,115.462215 C78.5066795,116.82084 77.7671724,118.055954 76.950817,119.168817 C76.1395008,120.28294 75.2450374,121.221878 74.2674266,121.988153 C73.2898159,122.753167 72.2227588,123.326613 71.0574367,123.705969 C69.8996734,124.079024 68.6398657,124.215139 67.275494,124.105491 C66.7413355,124.066421 66.1630838,123.963075 65.545778,123.803014 C64.9272125,123.641693 64.3678579,123.371984 63.8664544,122.997669 C63.3650509,122.624615 62.9593929,122.116706 62.6633381,121.46638 C62.3609842,120.823617 62.25768,119.986765 62.3357881,118.957083 C62.3937392,118.248783 62.6444409,117.457302 63.0752952,116.588941 C63.5124484,115.726882 64.0844011,114.825753 64.7987121,113.885555 C65.506724,112.946616 66.3432363,111.981211 67.3006901,110.976736 C68.2531048,109.979822 69.2823676,108.989211 70.3884788,108.009942 C71.4958497,107.031934 72.6473139,106.07409 73.8428714,105.133891 C75.0396887,104.193693 76.2491041,103.300126 77.4648185,102.456971 L78.2748749,100.300564 C77.3615143,100.99626 76.4229576,101.536938 75.4642439,101.928897 C74.4992312,102.322117 73.5795716,102.482178 72.7115641,102.4116 C71.9519001,102.353625 71.2249911,102.141891 70.530837,101.775138 C69.8291242,101.408385 69.2307155,100.911819 68.723013,100.294262 C68.2153105,99.6704035 67.8285496,98.9305956 67.5652498,98.0748382 C67.2943911,97.2115189 67.2049448,96.2662787 67.2880921,95.216432 C67.3976953,93.8401624 67.5652498,92.5785819 67.7970544,91.4329509 C68.0213001,90.2873199 68.3047569,89.2059652 68.6398657,88.1838455 C68.9737147,87.154164 69.3730738,86.1748952 69.8291242,85.2296551 C70.2864344,84.2831546 70.8004359,83.3379145 71.3736484,82.3788109 C71.7919045,81.6969777 72.3575582,81.1941099 73.0718691,80.8790299 C73.7786212,80.5576482 74.4538782,80.4290956 75.110238,80.4807687 C75.6632935,80.5185783 76.1206037,80.6988041 76.4998058,81.0075825 C76.8727089,81.316361 77.0339643,81.761254 76.9886112,82.3460426 C76.9760131,82.5199667 76.9369591,82.7127957 76.8865668,82.9131866 C76.8286156,83.1186188 76.7442085,83.3316129 76.6283062,83.5622515 C76.2881582,84.2705514 75.9341522,85.1011024 75.5801462,86.0728093 C75.2198412,87.0382145 74.8985903,88.0288262 74.6025355,89.0522061 C74.3064807,90.0692845 74.0557789,91.0724994 73.8491705,92.0643713 C73.6438218,93.0486814 73.5090224,93.9233436 73.4447722,94.6833166 C73.4183163,95.0815778 73.4120172,95.4609342 73.4384732,95.8415508 C73.4636693,96.2146056 73.5342186,96.5561524 73.6564199,96.8649308 C73.7723222,97.1674077 73.9461757,97.4182114 74.1716812,97.617342 C74.389628,97.8227741 74.6856828,97.932422 75.0459878,97.9651903 C75.6317983,98.0093015 76.1848539,97.8038693 76.6988555,97.3337699 C77.2141168,96.8649308 77.677726,96.2851835 78.0821243,95.6033503 C78.4877824,94.9215171 78.8216314,94.2069156 79.0987891,93.4595457 C79.3759468,92.7197378 79.5623983,92.0958793 79.6644427,91.5942719 L81.8842239,84.7469525 Z M67.9255548,119.57464 C68.5882136,119.626313 69.2370146,119.477595 69.8555801,119.14361 C70.485484,118.802064 71.0712945,118.333224 71.6180511,117.740874 C72.1711066,117.148524 72.6788091,116.460389 73.1550164,115.687812 C73.6312237,114.915236 74.062078,114.117454 74.4475791,113.293204 C74.8343401,112.470215 75.1618901,111.666131 75.4516458,110.87465 C75.7414016,110.08947 75.9719464,109.38117 76.1457999,108.757312 C75.4969989,109.117763 74.828041,109.561396 74.1452253,110.083169 C73.4573703,110.597379 72.7821134,111.163263 72.1194545,111.768217 C71.4567957,112.379472 70.8268918,113.010892 70.2284832,113.659957 C69.6237755,114.316584 69.0896171,114.948005 68.6260078,115.552958 C68.1636584,116.164213 67.7970544,116.736399 67.5135976,117.270775 C67.2301409,117.80515 67.0764444,118.255085 67.0436894,118.615536 C66.9983363,119.201585 67.2943911,119.522967 67.9255548,119.57464 L67.9255548,119.57464 Z" id="Fill-3" fill="#A7DD86"></path>
                    <path d="M106.308997,87.1834034 C106.694498,88.1362054 106.959058,89.1331187 107.106456,90.1691019 C107.253853,91.205085 107.292907,92.1893951 107.216059,93.1232923 C107.14551,94.0559292 106.965357,94.9898265 106.6819,95.9224634 C106.406002,96.8551003 106.03184,97.743626 105.575789,98.5993834 C105.118479,99.4551408 104.578022,100.246622 103.954417,100.973827 C103.330812,101.707333 102.642957,102.32615 101.876994,102.840361 C101.111031,103.34827 100.288376,103.735188 99.41281,103.998595 C98.5322045,104.262002 97.611285,104.359047 96.6475322,104.282167 C95.2579643,104.172519 94.093902,103.772998 93.1540855,103.084863 C92.2155287,102.396728 91.4684628,101.540971 90.9154072,100.503727 C90.3623516,99.4740456 89.9894486,98.3359765 89.796698,97.0806976 C89.5963886,95.8191171 89.5522953,94.558797 89.6543397,93.2972165 C89.796698,91.559235 90.1821991,89.9573681 90.8259609,88.4890951 C91.4684628,87.0220824 92.3175732,85.7680639 93.379591,84.7320807 C94.4403491,83.6948372 95.6951176,82.910918 97.1552347,82.3828439 C98.6090527,81.8547698 100.216567,81.6619408 101.96644,81.8030966 C103.47191,81.9190461 104.855179,82.2668944 106.128845,82.8390798 C107.40251,83.4125255 108.58547,84.1334286 109.666385,85.0080908 C110.7473,85.8764514 111.743808,86.8620218 112.652129,87.9496781 C113.557931,89.043636 114.394443,90.1564987 115.160406,91.3021297 L114.446095,94.6092098 C114.060594,94.0042561 113.532735,93.3413277 112.863777,92.6204246 C112.18852,91.9007818 111.46791,91.1924818 110.709506,90.4904835 C109.943542,89.7960471 109.191437,89.1331187 108.444371,88.5092602 C107.698565,87.8841414 107.054803,87.3636292 106.520645,86.9389013 L106.308997,87.1834034 Z M97.9337958,99.8029892 C98.4679543,99.8483607 99.0147108,99.6164618 99.5614673,99.1085528 C100.114523,98.605685 100.609627,97.9553598 101.05308,97.1512756 C101.497792,96.3534929 101.876994,95.4586656 102.185647,94.4743555 C102.4943,93.4900455 102.68705,92.5372434 102.757599,91.6235113 C102.815551,90.8963066 102.815551,90.2144734 102.757599,89.583053 C102.693349,88.9528929 102.571148,88.3933108 102.384696,87.9169097 C102.204544,87.4405087 101.947543,87.0548507 101.619993,86.7586755 C101.297482,86.4625003 100.885525,86.2948777 100.39672,86.2570681 C99.7479189,86.205395 99.1104562,86.4309923 98.4868514,86.9389013 C97.8556877,87.4468103 97.283735,88.1097387 96.7760326,88.9402897 C96.2607712,89.7632788 95.836216,90.6908744 95.502367,91.7142544 C95.1672581,92.736374 94.9619095,93.728246 94.8850612,94.6936512 C94.8334091,95.3565796 94.8460072,95.9867397 94.9228555,96.5790902 C95.0072626,97.1777423 95.1609591,97.6982545 95.3927637,98.1557507 C95.6308674,98.6119866 95.9584174,98.9926033 96.3766735,99.2875182 C96.8012287,99.5836935 97.31649,99.7513161 97.9337958,99.8029892 L97.9337958,99.8029892 Z" id="Fill-5" fill="#A7DD86"></path>
                    <path d="M130.475384,85.5932574 C130.442629,86.0179853 130.346884,86.5964723 130.191927,87.323677 C130.038231,88.0584437 129.851779,88.8562263 129.632573,89.7182853 C129.413366,90.5866459 129.175263,91.4814732 128.93086,92.401507 C128.680158,93.3215407 128.449613,94.1772981 128.230407,94.9763411 C128.017499,95.7678221 127.837347,96.4685601 127.696248,97.0672122 C127.55515,97.6721659 127.470743,98.0905922 127.451846,98.3287927 C127.420351,98.7724254 127.393895,99.1782485 127.381296,99.5513032 C127.362399,99.924358 127.387596,100.253302 127.445547,100.535613 C127.503498,100.819185 127.606802,101.044783 127.760499,101.211145 C127.915455,101.372466 128.153559,101.469511 128.468511,101.494717 C128.816217,101.519923 129.247072,101.469511 129.761073,101.333396 C130.270035,101.198542 130.816792,101.005713 131.401343,100.761211 C131.987153,100.510407 132.591861,100.226835 133.202868,99.8991516 C133.820174,99.570208 134.405984,99.22362 134.971638,98.8556065 C135.530992,98.4901137 136.046254,98.1157986 136.516162,97.7490454 C136.98481,97.3822922 137.365272,97.0357042 137.660067,96.7067606 C137.622273,97.2285332 137.583219,97.7049342 137.564322,98.1296621 C137.531567,98.5606916 137.506371,98.9652544 137.473616,99.3584743 C137.442121,99.7441322 137.415665,100.143654 137.390469,100.555778 C137.365272,100.966643 137.332517,101.430441 137.293463,101.932048 C136.92056,102.25469 136.458211,102.594976 135.910194,102.949126 C135.364698,103.303276 134.75999,103.651125 134.10363,103.997713 C133.44727,104.345561 132.751857,104.666943 132.018649,104.975721 C131.28544,105.28576 130.558531,105.549167 129.819024,105.767202 C129.085816,105.9928 128.365206,106.154121 127.657194,106.263768 C126.944143,106.379718 126.287783,106.411226 125.689375,106.359553 C125.090966,106.314181 124.583264,106.154121 124.177606,105.883152 C123.765648,105.607142 123.4255,105.24669 123.148343,104.795495 C122.878744,104.345561 122.653238,103.811185 122.491983,103.19993 C122.324428,102.588675 122.189629,101.913143 122.093884,101.173335 C121.46272,101.874073 120.80636,102.511795 120.124804,103.083981 C119.436949,103.657426 118.747834,104.146431 118.05368,104.558555 C117.365825,104.963118 116.670412,105.271896 115.976258,105.478589 C115.280844,105.684021 114.625744,105.760901 113.988281,105.709228 C113.466721,105.671418 112.984214,105.542865 112.534463,105.336173 C112.091011,105.124439 111.710549,104.795495 111.382999,104.358164 C111.061748,103.914532 110.823644,103.354949 110.674987,102.665554 C110.52129,101.971118 110.482236,101.127964 110.566643,100.12979 C110.662389,98.9135812 110.933247,97.3759906 111.3767,95.5170184 C111.813853,93.6567858 112.348011,91.5268448 112.971616,89.1385381 C113.016969,88.9078995 113.107675,88.5915591 113.222318,88.1932979 C113.344519,87.8000781 113.499476,87.3690486 113.685927,86.9065111 C113.872379,86.4427132 114.097884,85.9726138 114.361184,85.5025144 C114.618185,85.0273737 114.91424,84.6026458 115.249348,84.2346323 C115.583198,83.8615775 115.956101,83.5666626 116.381916,83.3473669 C116.806471,83.1217696 117.275119,83.0259853 117.776523,83.0511917 C118.613035,83.1482363 119.211444,83.3019954 119.559151,83.5149895 C119.906857,83.7267233 120.073152,83.9649238 120.047956,84.2346323 C119.842607,85.0651833 119.610803,85.985217 119.3664,87.0022954 C119.115698,88.0130722 118.863737,89.0364521 118.606736,90.0724353 C118.349735,91.1021169 118.099033,92.1053317 117.86093,93.0833402 C117.622826,94.055047 117.411178,94.9309695 117.223467,95.6959839 C117.037016,96.4622585 116.889618,97.0798154 116.780015,97.5499148 C116.670412,98.0137126 116.61246,98.2582148 116.61246,98.2771196 C116.587264,98.5606916 116.593563,98.8367017 116.632617,99.1013689 C116.664113,99.3647759 116.728363,99.609278 116.825368,99.8222721 C116.914814,100.034006 117.043315,100.214232 117.210869,100.355388 C117.378423,100.497804 117.577473,100.574683 117.815577,100.593588 C118.163284,100.620055 118.523589,100.56208 118.902791,100.407061 C119.281993,100.253302 119.642298,100.021403 119.996304,99.7063226 C120.35031,99.3899823 120.671561,98.9917211 120.961317,98.5153201 C121.257371,98.038919 121.495475,97.4856385 121.669328,96.86178 L124.981363,84.9883038 C125.090966,84.615249 125.438673,84.3190738 126.024484,84.0997781 C126.602735,83.8880443 127.252796,83.8036028 127.959548,83.8615775 C128.770864,83.9271142 129.400768,84.1199432 129.851779,84.4413248 C130.301531,84.7690081 130.514438,85.1496248 130.475384,85.5932574" id="Fill-7" fill="#A7DD86"></path>
                    <path d="M134.255815,102.288215 C134.338962,101.24593 134.500218,100.042324 134.738321,98.6836988 C134.970126,97.3200324 135.239725,95.9425025 135.542079,94.5397662 C135.844433,93.1370298 136.165683,91.7922682 136.51339,90.4991797 C136.854798,89.1985293 137.16975,88.0919682 137.472104,87.1782361 C137.69761,86.4636346 138.083111,85.8851476 138.623568,85.433953 C139.157727,84.9777171 139.85818,84.7899294 140.713589,84.855466 C141.5627,84.926044 142.135912,85.2348224 142.431967,85.7818013 C142.720463,86.3287803 142.830066,87.0433818 142.759517,87.9117424 C142.74062,88.1499429 142.695267,88.465023 142.612119,88.8708461 C142.534011,89.2691072 142.438266,89.7076986 142.328663,90.1828394 C142.219059,90.6592404 142.103157,91.1545462 141.980956,91.6637155 C141.865053,92.1716246 141.749151,92.641724 141.647107,93.0664519 C141.537503,93.4974814 141.446797,93.8705361 141.376248,94.1919178 C141.2994,94.5145597 141.260346,94.7325951 141.254047,94.842243 L141.723955,94.8813129 C141.833558,94.7136903 142.007412,94.4439818 142.245515,94.0696667 C142.483619,93.7029136 142.753218,93.2718841 143.061871,92.7891814 C143.370524,92.3001772 143.705632,91.7922682 144.059638,91.2515908 C144.412385,90.7172151 144.741194,90.2030045 145.056146,89.7076986 C145.364799,89.2186944 145.648256,88.780103 145.898958,88.4007466 C146.149659,88.0213903 146.34241,87.7441198 146.464611,87.5638941 C147.044123,86.7472066 147.667728,86.2065292 148.342985,85.9431223 C149.011942,85.6784551 149.74515,85.5751088 150.53631,85.6406455 C151.327469,85.7049218 151.932177,86.0905798 152.344134,86.7913178 C152.756091,87.4933161 152.917346,88.425953 152.82664,89.5980508 C152.814042,89.771975 152.749792,90.0668899 152.646488,90.472713 C152.544443,90.8785361 152.414683,91.3612387 152.260986,91.9208209 C152.099731,92.480403 151.925878,93.0979599 151.739426,93.7684502 C151.552975,94.4376802 151.372822,95.125815 151.205268,95.826553 C151.038973,96.5285514 150.890316,97.2305497 150.768114,97.9186845 C150.639614,98.6068193 150.550168,99.2508429 150.504815,99.8368918 C150.427966,100.8149 150.485917,101.631588 150.678668,102.288215 C150.871419,102.93854 151.231724,103.285128 151.752024,103.324198 C151.990128,103.343102 152.267285,103.298991 152.588536,103.17548 C152.911047,103.060791 153.257494,102.89947 153.630397,102.700339 C154.00456,102.499948 154.390061,102.261748 154.78942,101.992039 C155.181221,101.722331 155.574281,101.44506 155.966081,101.155187 C156.860544,100.479655 157.8054,99.7070788 158.803168,98.8450198 L158.776712,104.19886 L157.523203,105.004204 C156.834088,105.447837 156.133635,105.885168 155.419324,106.322499 C154.705013,106.761091 153.971805,107.140447 153.213401,107.46813 C152.453737,107.803376 151.668877,108.054179 150.85882,108.240707 C150.047504,108.420932 149.212252,108.478907 148.336686,108.408329 C147.468678,108.337751 146.787122,107.648356 146.290758,106.342664 C145.801952,105.035712 145.654555,103.17548 145.847306,100.750624 C145.917855,99.8041235 146.066512,98.7807435 146.27816,97.6930872 C146.491067,96.5991293 146.748068,95.4345935 147.037824,94.1793146 L146.657362,94.1478066 L139.453782,106.001118 C139.087178,106.624976 138.694118,107.037101 138.275861,107.243793 C137.863904,107.449226 137.395256,107.532407 136.873695,107.494597 C136.223635,107.442924 135.715932,107.262698 135.343029,106.95392 C134.970126,106.645141 134.692968,106.24562 134.519115,105.762917 C134.338962,105.280215 134.236918,104.733236 134.216761,104.134584 C134.191565,103.535931 134.204163,102.918375 134.255815,102.288215" id="Fill-9" fill="#A7DD86"></path>
                    <path d="M165.866028,107.298743 C164.952667,107.986878 164.006551,108.533857 163.047838,108.927077 C162.084085,109.319037 161.170724,109.480358 160.295158,109.40978 C159.536754,109.351805 158.809845,109.138811 158.114431,108.772058 C157.420277,108.405304 156.821868,107.909999 156.312906,107.28614 C155.805203,106.667323 155.419702,105.927515 155.148844,105.071758 C154.885544,104.209699 154.794838,103.256897 154.879245,102.214612 C154.968691,101.031171 155.233251,99.8212638 155.670404,98.5974929 C156.101258,97.3749824 156.654314,96.1852402 157.33587,95.0396091 C158.018685,93.8939781 158.795987,92.818925 159.684151,91.8220118 C160.566017,90.8238382 161.517171,89.9680808 162.527537,89.2534793 C163.544202,88.5401381 164.592362,87.9868575 165.679576,87.6062408 C166.773089,87.2205828 167.860303,87.0731254 168.953816,87.1626081 C169.314121,87.1890748 169.596318,87.2848592 169.790328,87.4386182 C169.983079,87.5999392 170.143075,87.780165 170.266536,87.9666924 C170.381178,88.1595214 170.497081,88.3536107 170.612983,88.5338365 C170.722586,88.7203638 170.869984,88.8615197 171.056435,88.9522627 C171.237848,89.0480471 171.430598,89.1123234 171.623349,89.1513933 C171.822398,89.1967649 172.021448,89.2219713 172.228056,89.2408761 C172.40191,89.2534793 172.582062,89.2610412 172.762215,89.2673428 C172.942367,89.2736444 173.12252,89.2862476 173.296373,89.2988508 C173.533217,89.3190159 173.752424,89.3568255 173.957772,89.4211018 C174.158082,89.4853782 174.330675,89.6076292 174.479333,89.7752518 C174.620431,89.949176 174.730034,90.1810749 174.794285,90.4696882 C174.858535,90.7595619 174.871133,91.1527817 174.833339,91.641786 C174.794285,92.0539107 174.723735,92.6071912 174.601534,93.3016276 C174.485632,93.9910228 174.338234,94.7623387 174.158082,95.6054929 C173.977929,96.4549487 173.77762,97.349776 173.572271,98.2962764 C173.359364,99.2415165 173.147716,100.167852 172.928509,101.075282 C172.427106,103.23169 171.861452,105.541857 171.230289,107.986878 C171.726653,107.754979 172.26711,107.466366 172.85796,107.118518 C173.437472,106.764368 174.100131,106.281665 174.833339,105.67041 C175.566547,105.065456 176.389201,104.286578 177.310121,103.34764 C178.22978,102.413742 179.271641,101.230302 180.435703,99.8137019 L181.156313,105.175104 C180.835062,105.645203 180.423105,106.114042 179.928001,106.590443 C179.439196,107.073146 178.898738,107.549547 178.312927,108.019646 C177.728377,108.489746 177.11611,108.93968 176.486206,109.377011 C175.848744,109.814342 175.237737,110.220165 174.633029,110.605823 C173.205667,111.506952 171.6813,112.376573 170.053628,113.199562 C169.616475,114.873268 169.12767,116.4953 168.587212,118.064398 C168.046755,119.641059 167.442047,121.109332 166.76679,122.460395 C166.097832,123.81776 165.350766,125.054134 164.54071,126.166996 C163.724354,127.279859 162.829891,128.220058 161.85228,128.985072 C160.87467,129.751347 159.806353,130.323532 158.648589,130.704149 C157.484527,131.077204 156.22346,131.212058 154.865387,131.10241 C154.326189,131.064601 153.746678,130.961254 153.135671,130.799933 C152.518365,130.639873 151.959011,130.368904 151.450048,129.995849 C150.948645,129.622794 150.549286,129.114885 150.246932,128.46456 C149.950877,127.820537 149.842534,126.983684 149.925681,125.954002 C149.983632,125.246963 150.228035,124.455482 150.665188,123.585861 C151.096042,122.723802 151.669255,121.822673 152.383566,120.883734 C153.096617,119.943536 153.92683,118.971829 154.885544,117.974915 C155.844257,116.978002 156.87352,115.98613 157.979631,115.008122 C159.079444,114.030113 160.230908,113.07101 161.434024,112.132071 C162.630841,111.191872 163.832698,110.297045 165.048412,109.453891 L165.866028,107.298743 Z M155.515448,126.57282 C156.178106,126.623232 156.821868,126.475775 157.445473,126.14053 C158.069078,125.800243 158.654888,125.330144 159.207944,124.737793 C159.7547,124.146703 160.269962,123.457308 160.744909,122.685992 C161.221117,121.913416 161.651971,121.115633 162.032433,120.291384 C162.417934,119.468395 162.753043,118.66305 163.041539,117.871569 C163.324995,117.08639 163.5568,116.37935 163.736953,115.754231 C163.080593,116.114683 162.417934,116.559576 161.730079,117.073787 C161.040964,117.595559 160.365707,118.161443 159.703048,118.766396 C159.04039,119.377652 158.410486,120.007812 157.812077,120.658137 C157.207369,121.314764 156.67951,121.944924 156.217161,122.549878 C155.753551,123.161133 155.380648,123.728277 155.097191,124.268954 C154.814995,124.80207 154.660038,125.253264 154.634842,125.613716 C154.589489,126.198504 154.879245,126.521146 155.515448,126.57282 L155.515448,126.57282 Z M161.034665,101.680236 C161.00317,102.073456 160.996871,102.459114 161.022067,102.83847 C161.047263,103.212785 161.125371,103.553072 161.241274,103.855549 C161.363475,104.164327 161.537328,104.415131 161.755275,104.615522 C161.980781,104.814652 162.270536,104.930602 162.63714,104.96211 C163.221691,105.007481 163.768448,104.795748 164.283709,104.33195 C164.80401,103.86185 165.26132,103.283363 165.666978,102.60153 C166.071376,101.912135 166.412784,101.197533 166.689942,100.457726 C166.959541,99.7179176 167.145992,99.0940591 167.255595,98.5911913 L169.25617,91.7249671 C168.606109,91.673294 167.963607,91.7829418 167.319846,92.0602123 C166.676084,92.3362224 166.058778,92.7294423 165.466669,93.2373513 C164.882118,93.7528222 164.329062,94.3439124 163.813801,95.019444 C163.29224,95.6962359 162.842489,96.4095771 162.44313,97.1695502 C162.05133,97.9219613 161.730079,98.6945376 161.485676,99.4671139 C161.241274,100.245992 161.092616,100.979498 161.034665,101.680236 L161.034665,101.680236 Z" id="Fill-11" fill="#A7DD86"></path>
                    <path d="M109.870852,159.662651 C109.433698,160.106284 108.860486,160.621755 108.153734,161.206544 C107.445722,161.786291 106.667161,162.326968 105.81805,162.822274 C104.96894,163.31758 104.080775,163.7108 103.154817,164.006975 C102.228858,164.295588 101.334395,164.373728 100.466387,164.237614 C99.4371243,164.083855 98.6195091,163.613755 98.0349584,162.841179 C97.4491478,162.069863 96.9993965,161.007413 96.6970426,159.65635 C96.2523305,160.042008 95.7194318,160.415063 95.1008663,160.789378 C94.4772615,161.156131 93.8146026,161.477512 93.1078505,161.747221 C92.3998386,162.011888 91.6729296,162.211019 90.9334225,162.339571 C90.1926555,162.468124 89.4657465,162.474426 88.7589944,162.364778 C88.0056294,162.250089 87.2988773,161.985422 86.6299194,161.566995 C85.9609615,161.148569 85.4003471,160.615454 84.9379977,159.958827 C84.4806875,159.3022 84.1468385,158.535925 83.94023,157.661263 C83.7411804,156.785341 83.7222833,155.827497 83.8759798,154.791514 C84.0561323,153.613115 84.4101383,152.429674 84.9316987,151.244973 C85.4519992,150.055231 86.0894619,148.9096 86.8541652,147.815642 C87.6201283,146.721684 88.4755377,145.704606 89.4342513,144.77827 C90.3866659,143.844373 91.3894728,143.065495 92.4577898,142.422732 C93.5185478,141.78501 94.6057619,141.308609 95.7194318,141.006132 C96.831842,140.711217 97.9316541,140.639379 99.0188682,140.807002 C99.3791732,140.858675 99.648772,140.974624 99.8289245,141.148548 C100.009077,141.322472 100.157734,141.509 100.259779,141.70813 C100.363083,141.907261 100.472686,142.106392 100.569691,142.300481 C100.665437,142.49331 100.806535,142.640767 100.980389,142.750415 C101.154242,142.853761 101.340694,142.936943 101.533444,142.988616 C101.727455,143.040289 101.926504,143.08566 102.131853,143.117168 C102.299407,143.143635 102.47956,143.168842 102.659712,143.187746 C102.839865,143.207911 103.020017,143.233118 103.193871,143.259585 C103.425675,143.291093 103.643622,143.349067 103.843932,143.425947 C104.036682,143.510388 104.202977,143.638941 104.332737,143.819167 C104.467536,143.999392 104.556983,144.237593 104.596037,144.533768 C104.64139,144.828683 104.621233,145.221903 104.550684,145.710907 C104.434781,146.463318 104.229433,147.287568 103.927079,148.176094 C103.631024,149.069661 103.316072,149.989694 102.974664,150.923591 C102.640815,151.86253 102.318304,152.802729 102.009652,153.741667 C101.707298,154.681866 101.489351,155.582995 101.354552,156.445054 C101.244948,157.184862 101.218492,157.770911 101.289042,158.208242 C101.360851,158.645573 101.611552,158.896377 102.055005,158.968215 C102.383814,159.018628 102.736561,158.98712 103.123322,158.877472 C103.508823,158.767824 103.908182,158.607763 104.318879,158.394769 C104.730836,158.189337 105.142793,157.944835 105.567349,157.661263 C105.985605,157.383993 106.391263,157.087817 106.776764,156.772737 C107.671227,156.045533 108.597186,155.20994 109.542042,154.26344 L109.870852,159.662651 Z M90.0578561,154.707073 C89.999905,155.100292 89.9684098,155.48595 89.9621107,155.865307 C89.9621107,156.239622 90.0137629,156.58621 90.1095082,156.894988 C90.2065134,157.211329 90.3539109,157.474736 90.5668184,157.686469 C90.7721671,157.905765 91.0556238,158.040619 91.4159288,158.098594 C91.9941805,158.189337 92.561094,158.015413 93.1078505,157.590685 C93.6546071,157.159656 94.1560105,156.618978 94.6120609,155.962351 C95.063072,155.312026 95.4548722,154.623891 95.783682,153.902988 C96.111232,153.182085 96.3430367,152.577132 96.4841351,152.081826 L98.9861132,145.381964 C98.3436113,145.279878 97.6935505,145.344154 97.0308916,145.576053 C96.3682328,145.80039 95.7257309,146.148238 95.0945672,146.612036 C94.4709624,147.082136 93.8788528,147.629115 93.3131992,148.265576 C92.7538446,148.903298 92.2448823,149.585131 91.7951309,150.312336 C91.3441198,151.039541 90.9712167,151.779349 90.6688628,152.538062 C90.366509,153.291733 90.1674594,154.018938 90.0578561,154.707073 L90.0578561,154.707073 Z" id="Fill-13" fill="#A7DD86"></path>
                    <path d="M133.463396,164.476948 C132.214927,165.171385 130.999212,165.770037 129.816253,166.279206 C129.313589,166.49094 128.793289,166.696372 128.252831,166.890462 C127.706075,167.089592 127.171916,167.257215 126.657915,167.392069 C126.136355,167.526923 125.634951,167.630269 125.152445,167.694546 C124.669938,167.752521 124.232785,167.752521 123.839725,167.694546 C123.615479,167.661778 123.299268,167.565993 122.881011,167.404672 C122.462755,167.244612 122.025602,166.979944 121.556954,166.60689 C121.093344,166.240136 120.649892,165.744831 120.225337,165.11341 C119.800782,164.48325 119.465673,163.685467 119.227569,162.720062 C118.56491,163.196463 117.864457,163.640096 117.137548,164.045919 C116.40434,164.458044 115.663573,164.79833 114.905169,165.069299 C114.151804,165.332706 113.399699,165.525535 112.647594,165.647786 C111.900528,165.763735 111.161021,165.770037 110.440411,165.654087 C109.423746,165.500328 108.574635,165.146178 107.893079,164.586596 C107.217823,164.033316 106.689963,163.356524 106.310761,162.546138 C105.92526,161.742054 105.680857,160.85983 105.583852,159.894424 C105.481808,158.929019 105.507004,157.958573 105.6607,156.966701 C105.815657,155.963486 106.099113,154.965312 106.517369,153.974701 C106.934366,152.99039 107.462225,152.050192 108.105987,151.162926 C108.748489,150.274401 109.489256,149.450151 110.332067,148.704042 C111.16732,147.957932 112.08068,147.32021 113.078448,146.792136 C114.074956,146.265322 115.136974,145.859499 116.255683,145.583489 C117.375652,145.306218 118.539714,145.202872 119.74913,145.27345 C120.103136,143.272062 120.591941,141.316045 121.202948,139.405399 C121.820253,137.487192 122.520706,135.684934 123.313126,133.992324 C124.104285,132.300975 124.965993,130.749521 125.891952,129.353086 C126.82421,127.95035 127.789222,126.765649 128.793289,125.793942 C129.789797,124.828536 130.812761,124.101332 131.848323,123.626191 C132.883884,123.14979 133.900549,122.994771 134.904616,123.14979 C135.644123,123.258178 136.242532,123.548051 136.698582,124.011849 C137.162191,124.481948 137.503599,125.054134 137.721546,125.735967 C137.947052,126.425362 138.069253,127.196678 138.081851,128.059997 C138.08815,128.922056 138.030199,129.796719 137.8891,130.691546 C137.805953,131.244826 137.69635,131.804409 137.56155,132.377854 C137.013534,134.559468 136.313081,136.592365 135.463971,138.477804 C134.61486,140.363243 133.675044,142.184405 132.645781,143.93499 C131.624077,145.691876 130.536863,147.417255 129.391698,149.122468 C128.246532,150.827681 127.113965,152.603472 125.995256,154.457403 C125.885653,154.662835 125.763451,154.919941 125.634951,155.222418 C125.51275,155.524894 125.384249,155.853838 125.255749,156.214289 C125.125989,156.568439 125.010086,156.935193 124.908042,157.314549 C124.798439,157.693905 124.72159,158.060659 124.663639,158.42111 C124.59309,158.878606 124.554036,159.315937 124.547737,159.728062 C124.535139,160.146488 124.572933,160.525845 124.651041,160.866131 C124.72159,161.207678 124.850091,161.49125 125.036542,161.709285 C125.216695,161.928581 125.467397,162.063435 125.782349,162.115108 C126.078403,162.16048 126.413512,162.146616 126.786415,162.089902 C127.159318,162.025626 127.551119,161.922279 127.975674,161.773562 C128.400229,161.632406 128.832343,161.458482 129.269496,161.265653 C129.712949,161.066522 130.143803,160.866131 130.55576,160.654397 C131.520773,160.159092 132.531138,159.585646 133.591896,158.929019 L133.463396,164.476948 Z M119.298118,148.801086 C118.185708,149.141373 117.162744,149.663145 116.230487,150.363883 C115.29067,151.05958 114.480614,151.851061 113.792759,152.725723 C113.103644,153.595344 112.544289,154.501514 112.113435,155.42911 C111.682581,156.355445 111.405423,157.217504 111.283222,158.002684 C111.237869,158.311462 111.218972,158.634104 111.245428,158.961787 C111.264325,159.283169 111.353771,159.585646 111.502428,159.869218 C111.649826,160.146488 111.88793,160.39099 112.209181,160.602724 C112.531691,160.808156 112.962546,160.956874 113.515601,161.040055 C113.799058,161.085427 114.081255,161.06022 114.383609,160.963176 C114.679663,160.85983 114.969419,160.718674 115.259175,160.525845 C115.541372,160.339317 115.81853,160.120022 116.088128,159.862916 C116.365286,159.605811 116.615988,159.334842 116.854092,159.05127 C117.407147,158.395904 117.935007,157.642232 118.430111,156.786475 C118.417513,156.560878 118.43641,156.207988 118.475464,155.725285 C118.519557,155.236281 118.577508,154.701905 118.655617,154.109555 C118.726166,153.517204 118.803014,152.905949 118.887421,152.275789 C118.964269,151.644369 119.041118,151.072183 119.111667,150.550411 C119.188515,150.0362 119.240167,149.611472 119.272922,149.276227 C119.311976,148.942242 119.318275,148.787223 119.298118,148.801086 L119.298118,148.801086 Z M132.987189,133.432742 C133.250489,132.345086 133.430641,131.483027 133.527646,130.839003 C133.662446,129.989548 133.675044,129.392156 133.579298,129.038006 C133.482293,128.690157 133.289543,128.491027 133.006086,128.445655 C132.504682,128.368776 132.003279,128.61958 131.494317,129.191765 C130.992913,129.765211 130.504108,130.517622 130.040499,131.457821 C129.57185,132.403061 129.127138,133.452907 128.710142,134.60358 C128.291885,135.763074 127.917723,136.88854 127.590173,137.976196 C127.262623,139.063853 126.979166,140.048163 126.75366,140.930387 C126.515557,141.811351 126.36186,142.436469 126.271154,142.809524 C126.091001,143.568237 125.924707,144.301743 125.77605,145.010043 C125.622353,145.718343 125.500152,146.367408 125.390548,146.953457 C125.287244,147.539506 125.197798,148.053716 125.133548,148.491048 C125.061739,148.929639 125.010086,149.269925 124.972292,149.501824 L124.939537,149.740025 C126.148953,147.835681 127.28152,145.930077 128.349837,144.019432 C128.793289,143.207785 129.249339,142.345726 129.719248,141.450899 C130.182857,140.55103 130.626309,139.6436 131.044565,138.722306 C131.456522,137.808574 131.829425,136.901143 132.170833,136.007576 C132.510981,135.112749 132.78184,134.25069 132.987189,133.432742 L132.987189,133.432742 Z" id="Fill-15" fill="#A7DD86"></path>
                    <path d="M152.281395,150.526465 C152.217145,150.951192 152.082346,151.517076 151.875737,152.237979 C151.670389,152.952581 151.425986,153.731459 151.142529,154.580915 C150.852773,155.43037 150.557978,156.305033 150.241767,157.19986 C149.926815,158.100989 149.63076,158.937841 149.361161,159.715459 C149.090302,160.494337 148.859758,161.17743 148.672046,161.76852 C148.485595,162.360871 148.375992,162.772996 148.338197,163.004895 C148.267648,163.448527 148.215996,163.85435 148.176942,164.221103 C148.131589,164.594158 148.131589,164.921841 148.164344,165.211715 C148.203398,165.495287 148.292844,165.727186 148.433943,165.89985 C148.576301,166.073774 148.801807,166.189724 149.116758,166.235095 C149.463206,166.286768 149.89532,166.266603 150.41562,166.170819 C150.937181,166.073774 151.496535,165.926317 152.101243,165.719624 C152.699651,165.514192 153.323256,165.26969 153.960719,164.992419 C154.596922,164.716409 155.207929,164.407631 155.800038,164.084989 C156.385849,163.757306 156.926306,163.423321 157.421411,163.094377 C157.910216,162.759132 158.322173,162.43775 158.637125,162.135274 C158.559017,162.650745 158.488468,163.127146 158.436816,163.551873 C158.372565,163.976601 158.314614,164.381164 158.256663,164.761781 C158.199972,165.147439 158.142021,165.5457 158.08407,165.951523 C158.032417,166.363648 157.968167,166.819884 157.890059,167.322751 C157.49196,167.612625 157.003155,167.915102 156.437501,168.230182 C155.864288,168.545262 155.240684,168.847739 154.557868,169.150216 C153.876312,169.446391 153.162001,169.716099 152.409896,169.973205 C151.657791,170.225269 150.904426,170.437002 150.158619,170.604625 C149.405254,170.765946 148.678345,170.880635 147.958995,170.93861 C147.244684,170.996585 146.588324,170.97768 145.989916,170.886937 C145.397806,170.797454 144.902702,170.598323 144.517201,170.302148 C144.13044,169.999671 143.815488,169.612753 143.571085,169.143914 C143.332981,168.673815 143.152829,168.126836 143.030628,167.502977 C142.908426,166.88542 142.825279,166.196025 142.779926,165.449916 C142.104669,166.106542 141.404216,166.691331 140.683606,167.213104 C139.956697,167.741178 139.236087,168.178509 138.509178,168.532659 C137.788568,168.886809 137.074257,169.143914 136.373804,169.297673 C135.665792,169.452692 134.996834,169.4842 134.373229,169.388416 C133.851669,169.311537 133.38176,169.150216 132.950906,168.905714 C132.520052,168.661211 132.166046,168.307061 131.869991,167.843264 C131.581495,167.387028 131.387485,166.800979 131.28544,166.106542 C131.182136,165.404544 131.207332,164.56139 131.362289,163.57708 C131.54874,162.367173 131.927942,160.848487 132.507454,159.027324 C133.085706,157.206161 133.768521,155.121592 134.56598,152.784958 C134.63023,152.553059 134.739833,152.250583 134.887231,151.858623 C135.034628,151.471705 135.222339,151.054539 135.440286,150.609646 C135.659493,150.159711 135.922793,149.708517 136.212548,149.258582 C136.508603,148.802347 136.836153,148.402825 137.196458,148.061278 C137.550464,147.71469 137.949823,147.443721 138.393275,147.257194 C138.830429,147.064365 139.300337,147.000089 139.80174,147.064365 C140.631954,147.225686 141.210205,147.418515 141.545314,147.656716 C141.879163,147.893656 142.021522,148.14572 141.982468,148.409127 C141.712869,149.219513 141.416814,150.120641 141.094303,151.118815 C140.773052,152.115728 140.445502,153.113902 140.116692,154.123418 C139.782843,155.134195 139.461592,156.118505 139.159239,157.071307 C138.849326,158.030411 138.573428,158.886168 138.329025,159.632278 C138.084623,160.384689 137.891872,160.989643 137.749514,161.447139 C137.602116,161.910937 137.531567,162.149137 137.531567,162.16174 C137.486214,162.444052 137.473616,162.721322 137.486214,162.984729 C137.498812,163.255698 137.550464,163.5002 137.627312,163.718236 C137.70542,163.937531 137.820063,164.124059 137.975019,164.279078 C138.129976,164.432837 138.322726,164.52358 138.56083,164.56139 C138.900978,164.613063 139.267582,164.581555 139.660642,164.451742 C140.046143,164.329491 140.425345,164.124059 140.799508,163.834185 C141.17871,163.544312 141.526417,163.171257 141.853967,162.721322 C142.181517,162.263826 142.452376,161.730711 142.677881,161.125757 L146.845325,149.521989 C146.981384,149.155236 147.346729,148.885528 147.945137,148.711604 C148.543546,148.537679 149.193607,148.512473 149.901619,148.614559 C150.699077,148.744372 151.316383,148.981312 151.740938,149.335462 C152.171792,149.689612 152.345646,150.089133 152.281395,150.526465" id="Fill-17" fill="#A7DD86"></path>
                    <path d="M159.324602,173.182484 C158.475492,173.053931 157.748583,172.558625 157.131277,171.702868 C156.513971,170.839549 156.037764,169.745591 155.683758,168.407131 C155.336051,167.062369 155.137001,165.543683 155.085349,163.83847 C155.039996,162.139559 155.149599,160.376371 155.433056,158.555208 C155.644704,157.158773 155.979813,155.652691 156.435863,154.043262 C156.893173,152.435093 157.452528,150.794157 158.115187,149.107848 C158.771547,147.427841 159.511054,145.749095 160.32111,144.07539 C161.132426,142.402945 162.006733,140.806119 162.94025,139.293735 C163.866209,137.781351 164.84382,136.384916 165.860484,135.104431 C166.875889,133.823946 167.898853,132.729988 168.941974,131.822557 C169.977536,130.915127 171.025696,130.233293 172.073856,129.783359 C173.122016,129.338466 174.138681,129.191009 175.12889,129.338466 C175.805406,129.441812 176.339565,129.680013 176.731365,130.059369 C177.123165,130.432424 177.406622,130.88992 177.580475,131.430598 C177.754329,131.971275 177.837476,132.562365 177.843775,133.218992 C177.850074,133.869317 177.799682,134.525944 177.696378,135.18131 C177.470872,136.655885 177.072773,138.135501 176.49956,139.616377 C175.927608,141.089691 175.232194,142.563006 174.422137,144.017415 C173.610821,145.478126 172.711319,146.926234 171.71985,148.361739 C170.729641,149.802285 169.706677,151.218884 168.658517,152.627922 C167.602798,154.030659 166.548339,155.41449 165.500179,156.765554 C164.444461,158.124179 163.454252,159.456337 162.514435,160.755727 C162.412391,160.896883 162.296488,161.090972 162.174287,161.329173 C162.045787,161.566113 161.923585,161.824479 161.801384,162.100489 C161.679183,162.384061 161.550682,162.680236 161.422182,162.995316 C161.292422,163.316698 161.177779,163.625476 161.087073,163.935515 L161.035421,164.263198 C160.971171,164.669021 160.952274,165.073584 160.983769,165.473106 C161.010225,165.871367 161.061877,166.231818 161.138725,166.55446 C161.215573,166.882143 161.312579,167.14555 161.428481,167.345941 C161.536824,167.551373 161.659026,167.661021 161.788786,167.679926 C162.083581,167.725298 162.431288,167.718996 162.836946,167.648418 C163.241344,167.584142 163.673458,167.474494 164.142107,167.332078 C164.605716,167.18462 165.081923,167.010696 165.583327,166.805264 C166.078431,166.598571 166.560937,166.393139 167.030846,166.173844 C168.11806,165.665934 169.269524,165.067282 170.485238,164.366544 L171.6556,169.610737 C170.106036,170.402218 168.587968,171.084051 167.101395,171.657497 C166.451334,171.895697 165.788675,172.127596 165.10082,172.345631 C164.419264,172.571229 163.737708,172.764058 163.054893,172.911515 C162.373337,173.066534 161.710678,173.169881 161.074475,173.221554 C160.443311,173.279529 159.858761,173.265665 159.324602,173.182484 M162.244836,154.35204 C163.145599,153.201368 164.110612,151.907019 165.146173,150.458911 C166.181735,149.012064 167.178243,147.512283 168.136957,145.954527 C169.10197,144.396771 169.971237,142.833974 170.742239,141.257314 C171.514501,139.680653 172.080155,138.187174 172.44046,136.784438 C172.511009,136.326941 172.562661,135.934982 172.581558,135.6136 C172.614313,135.284657 172.562661,135.118294 172.434161,135.098129 C171.98441,135.027551 171.443952,135.246847 170.826646,135.754756 C170.21564,136.256364 169.565579,136.977267 168.884023,137.8973 C168.201207,138.824896 167.519651,139.912552 166.838095,141.172872 C166.156539,142.434453 165.512777,143.791818 164.901771,145.239926 C164.290764,146.688033 163.756606,148.194116 163.292996,149.751872 C162.824348,151.308367 162.476641,152.847218 162.244836,154.35204" id="Fill-19" fill="#A7DD86"></path>
                    <path d="M188.000723,172.199434 C185.710392,173.434548 184.900336,173.409342 183.620371,173.885743 C182.346706,174.368445 181.214139,174.754103 180.230229,175.050278 C179.23876,175.352755 178.377052,175.551886 177.624946,175.661534 C176.87914,175.771182 176.216481,175.783785 175.63697,175.694302 C174.440153,175.514076 173.443645,174.986002 172.646187,174.123943 C171.848728,173.260624 171.25032,172.108691 170.844662,170.654282 C170.439003,169.201133 170.233655,167.488357 170.227356,165.507134 C170.221057,163.530952 170.401209,161.336735 170.774112,158.91692 C170.915211,157.976721 171.107961,156.979808 171.352364,155.92492 C171.596767,154.868772 171.867625,153.826487 172.169979,152.796805 C171.712669,152.661951 171.352364,152.546002 171.101662,152.448957 C170.850961,152.353173 170.587661,152.256128 170.304204,152.160344 C170.020747,152.056997 169.661702,151.941048 169.229588,151.812495 C168.786136,151.677641 168.156232,151.503717 167.31972,151.27812 C166.953116,151.168472 166.675958,151.033617 166.489506,150.872296 C166.309354,150.705934 166.187153,150.525708 166.116603,150.332879 C166.052353,150.13879 166.027157,149.93966 166.039755,149.740529 C166.052353,149.540138 166.07125,149.373776 166.091407,149.23136 C166.143059,148.91628 166.329511,148.704546 166.66336,148.582295 C166.99091,148.466345 167.402867,148.402069 167.891672,148.402069 C168.388037,148.395767 168.914636,148.433577 169.494148,148.510456 C170.0661,148.594898 170.612857,148.678079 171.140716,148.781425 C171.662277,148.87721 172.130925,148.961651 172.542882,149.032229 C172.961138,149.102807 173.250894,149.135575 173.41089,149.129274 C174.157956,147.076212 175.013365,145.106332 175.972079,143.220893 C176.923234,141.335454 177.9273,139.681914 178.97546,138.259012 C180.017321,136.837371 181.091937,135.73081 182.191749,134.945631 C183.291561,134.160451 184.372476,133.845371 185.420636,134.011733 C186.097153,134.11508 186.681704,134.398652 187.176808,134.862449 C187.679472,135.318685 188.077571,135.898433 188.373626,136.586567 C188.66968,137.274702 188.856132,138.05358 188.939279,138.929503 C189.023686,139.797863 188.99723,140.69269 188.856132,141.600121 C188.733931,142.371437 188.502126,143.162918 188.14812,143.987167 C187.801673,144.810156 187.36326,145.634406 186.855557,146.464957 C186.341556,147.287946 185.755745,148.118497 185.105684,148.955349 C184.455624,149.7859 183.780367,150.602588 183.079914,151.412974 C183.221012,151.452044 183.452817,151.497415 183.780367,151.55539 C184.109177,151.613365 184.488379,151.683943 184.919233,151.767124 C185.343788,151.850305 185.807397,151.941048 186.308801,152.044394 C186.803905,152.140179 187.286412,152.237223 187.75632,152.326706 C188.226228,152.417449 188.663381,152.494328 189.069039,152.57877 C189.473438,152.655649 189.808547,152.719926 190.071846,152.777901 C190.386798,152.842177 190.587108,153.035006 190.682853,153.356387 C190.779858,153.671468 190.792456,154.064687 190.721907,154.514622 C190.6375,155.069163 190.413254,155.486329 190.04665,155.788805 C189.680046,156.084981 189.305883,156.20093 188.93298,156.142955 L179.89512,154.752822 C179.342064,155.313665 178.789009,155.860644 178.229654,156.387457 C177.676599,156.921833 177.161337,157.404536 176.698988,157.829264 C176.48608,158.794669 176.280732,159.741169 176.086721,160.673806 C176.009873,161.079629 175.933025,161.496795 175.849877,161.929085 C175.76547,162.360115 175.688622,162.784843 175.605475,163.203269 C175.521068,163.627997 175.450518,164.03256 175.379969,164.425779 C175.30942,164.811437 175.251469,165.171889 175.199817,165.507134 C175.071316,166.349028 175.038561,167.076233 175.109111,167.681186 C175.173361,168.2874 175.328317,168.795309 175.57272,169.213736 C175.810823,169.6246 176.138373,169.953544 176.544031,170.179141 C176.94969,170.40978 177.418338,170.571101 177.952496,170.654282 C178.281306,170.699653 178.705861,170.68705 179.219863,170.61017 C179.741423,170.525729 180.313376,170.390875 180.950839,170.210649 C181.574444,170.024122 182.2497,169.792223 182.957712,169.516213 C183.664465,169.238942 184.372476,168.930164 185.074189,168.582315 C185.780941,168.229426 186.463757,167.855111 187.118857,167.450548 C187.775217,167.044725 188.379925,166.619997 188.926681,166.170063 C188.926681,166.170063 191.062055,170.552196 188.000723,172.199434 M185.054032,141.233368 C185.086787,141.059444 185.099385,140.865354 185.111984,140.653621 C185.118283,140.434325 185.099385,140.228893 185.047733,140.02346 C184.996081,139.82307 184.900336,139.649145 184.757978,139.501688 C184.61058,139.346669 184.385075,139.250884 184.09028,139.205513 C183.684621,139.141236 183.214713,139.437412 182.686854,140.094038 C182.160254,140.756967 181.619797,141.612724 181.059182,142.680215 C180.506127,143.742665 179.953071,144.919804 179.406315,146.220455 C178.865857,147.519845 178.351856,148.781425 177.875648,150.010237 C178.107453,150.074514 178.339257,150.13879 178.569802,150.196765 C178.801607,150.261041 179.039711,150.325317 179.284113,150.397156 C179.882522,149.669951 180.499828,148.870908 181.156187,148.021452 C181.812547,147.165695 182.410956,146.316239 182.957712,145.473085 C183.504469,144.637493 183.974377,143.846012 184.359878,143.098642 C184.74538,142.358834 184.977184,141.734975 185.054032,141.233368" id="Fill-21" fill="#A7DD86"></path>
                    <g id="Group-25" transform="translate(12.598077, 0.862059)">
                        <mask id="mask-2" fill="white">
                            <use xlink:href="#path-1"></use>
                        </mask>
                        <g id="Clip-24"></g>
                        <path d="M73.6203894,19.922763 C72.0242131,19.922763 70.5930715,20.1773477 69.3962542,20.7961649 C65.3006195,22.9109821 63.0506029,29.6070631 60.8749151,36.0800675 C58.7508793,42.4018334 56.5550345,48.9378538 52.202399,53.3250283 C47.9152734,57.6479264 41.4537198,59.8698709 35.2063335,62.0161961 C28.691868,64.2532644 21.9581959,66.5697329 19.8442387,70.7766816 C17.8650808,74.6975376 19.9324252,81.3066565 21.9292204,87.7002607 C23.9562509,94.1795666 26.0475317,100.881949 25.0774798,107.198674 C24.1036484,113.514138 20.0924208,119.277582 16.2134729,124.848197 C12.387437,130.344454 8.43290067,136.028498 9.13713316,140.361478 C9.89049816,145.008279 15.6163241,149.237913 21.1544386,153.332693 C26.4657878,157.25733 31.9623288,161.320603 34.7540626,166.731157 C37.5873701,172.223632 37.7158704,179.117584 37.8418512,185.785938 C37.967832,192.616873 38.098852,199.680967 41.3718323,202.926292 C44.5818223,206.116162 51.5901325,206.196823 58.3653782,206.276223 C65.067555,206.351842 72.0002767,206.429982 77.5812248,209.245537 C82.9240691,211.938841 86.9793901,217.333012 90.8986518,222.553258 C95.076174,228.11127 99.3985742,233.862111 104.203481,234.599398 C108.997049,235.331644 114.851375,231.156203 120.511691,227.109315 C125.816741,223.313231 131.306983,219.384813 137.209182,218.424449 C143.368382,217.433837 150.011348,219.432705 156.425029,221.374858 C162.920597,223.340958 169.632853,225.373854 173.6466,223.294326 C177.743494,221.179509 179.988472,214.483428 182.165419,208.007903 C184.285676,201.684876 186.48152,195.152637 190.831636,190.769244 C195.121282,186.442564 201.586615,184.22062 207.83904,182.074295 C214.350986,179.837226 221.082138,177.520758 223.196096,173.31759 C225.171474,169.399255 223.107909,162.787615 221.109854,156.396532 C219.084083,149.917226 216.992803,143.214843 217.962855,136.898119 C218.932907,130.580134 222.947914,124.816689 226.826862,119.246074 C230.652897,113.749818 234.607434,108.068295 233.903201,103.735314 C233.146057,99.0885137 227.420231,94.8525776 221.883376,90.7615784 C216.568248,86.8306398 211.071707,82.7711485 208.279973,77.3530322 C205.449185,71.8643379 205.320685,64.9729072 205.194704,58.3083342 C205.068723,51.4773989 204.937703,44.4158251 201.667242,41.16798 C198.454733,37.9781097 191.443903,37.8961889 184.662358,37.818049 C177.962701,37.7386488 171.033759,37.660509 165.452811,34.8487347 C160.112486,32.1554305 156.060944,26.7599999 152.141683,21.5435348 C147.96416,15.9830022 143.64428,10.2321613 138.835594,9.49361368 C134.052104,8.71725646 128.1814,12.9342877 122.531163,16.9786551 C117.219814,20.7772601 111.729572,24.7081987 105.824853,25.6673023 C99.6744721,26.6780791 93.0252071,24.6615668 86.6077468,22.7194135 C82.053542,21.3368422 77.3859546,19.922763 73.6203894,19.922763 M105.366283,243.696389 C104.527251,243.696389 103.6857,243.637154 102.83407,243.50482 C94.4046966,242.207951 88.7191845,234.640988 83.7001107,227.966333 C80.4019342,223.574117 76.990375,219.033183 73.5296832,217.2889 C69.810731,215.417325 63.9400272,215.348007 58.2645936,215.284991 C49.6890827,215.184166 40.8250758,215.08334 35.0274408,209.321156 C29.1630361,203.500998 28.9967415,194.580452 28.8367459,185.9523 C28.7296622,180.317408 28.6225786,174.489688 26.7505044,170.866268 C24.9200038,167.318466 20.2839115,163.890395 15.8015158,160.578274 C8.81336259,155.412222 1.58836553,150.073506 0.247930152,141.807066 C-1.04337272,133.87209 3.97318147,126.6681 8.82596066,119.698529 C12.1178381,114.968548 15.5193189,110.079766 16.1756787,105.828706 C16.8282591,101.576386 15.0506704,95.8898211 13.3335526,90.3872633 C10.7975597,82.280884 8.17841951,73.8997549 11.8003666,66.719711 C15.5634122,59.2409711 24.0595552,56.319549 32.2785405,53.4939112 C37.5495758,51.6840914 43.0020235,49.808735 45.8139142,46.9767956 C48.6875356,44.0805799 50.5432323,38.5565966 52.3371984,33.2115788 C55.0860988,25.0346216 57.9244455,16.5829146 65.2628252,12.7893509 C72.5268763,9.04115875 81.0167203,11.6084309 89.2180683,14.0937823 C94.6516189,15.7410207 100.259023,17.4399323 104.379854,16.7744833 C108.20589,16.1518851 112.825604,12.8460653 117.291623,9.6511537 C124.085766,4.79261948 131.800828,-0.699855786 140.208784,0.58819142 C148.639417,1.88632119 154.32367,9.45328344 159.340224,16.1304597 C162.6384,20.5201548 166.0487,25.059828 169.504352,26.8041111 C173.219525,28.6769469 179.090229,28.7424835 184.765662,28.8092805 C193.341173,28.9101061 202.211479,29.0096714 208.012894,34.7756361 C213.873519,40.5957946 214.039814,49.5125598 214.199809,58.138191 C214.306893,63.7730824 214.413976,69.5982822 216.282271,73.2242233 C218.114032,76.7720246 222.750124,80.2000954 227.235039,83.5147374 C234.220673,88.6782691 241.448189,94.019506 242.792404,102.289727 C244.083707,110.220922 239.067153,117.426172 234.216893,124.391962 C230.922496,129.124464 227.517236,134.014506 226.864656,138.268087 C226.210816,142.520407 227.985885,148.206971 229.706782,153.709529 C232.238995,161.813388 234.854356,170.193257 231.239968,177.37078 C227.476922,184.85204 218.980779,187.770942 210.764314,190.592799 C205.490759,192.406399 200.034532,194.281756 197.220121,197.116216 C194.349019,200.009911 192.495842,205.533894 190.703136,210.87261 C187.954236,219.052088 185.118409,227.511357 177.77499,231.30114 C170.515978,235.053113 162.022354,232.479539 153.818487,229.996709 C148.384936,228.353251 142.796429,226.646778 138.650402,227.316008 C134.831925,227.938606 130.21473,231.244426 125.751231,234.439337 C119.644943,238.803826 112.810487,243.696389 105.366283,243.696389" id="Fill-23" fill="#458424" mask="url(#mask-2)"></path>
                    </g>
                </g>
            </g>
        </g>
    </g>
</svg>
