
<svg width="338px" height="144px" viewBox="0 0 338 144" version="1.1" xmlns="http://www.w3.org/2000/svg" xmlns:xlink="http://www.w3.org/1999/xlink">
    <!-- Generator: Sketch 45 (43475) - http://www.bohemiancoding.com/sketch -->
    <desc>Created with Sketch.</desc>
    <defs>
        <polygon id="path-1" points="0.582662895 0.022157158 333.42684 0.022157158 333.42684 135.716523 0.582662895 135.716523"></polygon>
    </defs>
    <g id="Page-1" stroke="none" stroke-width="1" fill="none" fill-rule="evenodd">
        <g id="STAP-1:-THEMA-KIEZEN" transform="translate(-374.000000, -1335.000000)">
            <g id="SPANNING" transform="translate(374.000000, 1335.000000)">
                <g>
                    <g id="Group-3" transform="translate(0.000000, 16.005393)" fill="#FFFFFF">
                        <path d="M316.022015,34.1197591 L174.164075,6.0081479 C164.124025,-2.47254475 149.123275,-1.18872344 140.658445,8.8701411 L5.597455,60.6418772 C-2.867375,70.6996096 -1.585955,85.7296024 8.454095,94.210295 L150.312035,122.320774 C160.356605,130.801467 175.358485,129.518778 183.816535,119.459913 L318.877525,67.6881769 C327.342355,57.6293124 326.062065,42.6004517 316.022015,34.1197591" id="Fill-1"></path>
                    </g>
                    <path d="M95.580711,66.0762356 C96.059831,66.2120897 96.369451,66.4487022 96.505051,66.9343807 L98.229431,73.0172483 C98.397801,73.5334939 97.835061,74.0044549 97.350291,73.7395393 C95.507261,72.9130935 93.084541,72.3538274 90.864091,72.310807 C88.379221,72.3255245 86.627721,72.7183693 86.627721,73.6806692 C86.655971,74.1097418 87.439061,74.4108851 88.740821,74.5523998 C90.903641,74.7335386 93.388511,75.1852535 95.394261,76.0003781 C97.812461,76.9570175 99.789961,78.705007 100.003531,81.7130433 C100.150431,84.1889844 99.259991,86.6083197 97.282491,88.103847 C95.152441,89.8167408 91.884481,90.3782712 87.996151,90.6896035 C85.596031,90.8616853 82.942791,90.7847014 80.682791,90.1892075 C80.040951,90.0318432 79.550531,89.6367341 79.341481,89.0208622 L77.460031,83.0568669 C77.217081,82.4387307 78.028421,82.18174 78.439741,82.3855212 C82.429771,84.5557905 89.839181,84.4935241 89.703581,82.5462819 C89.658381,81.9530523 88.447021,81.7051185 86.588171,81.5353009 C84.424221,81.3609548 81.764201,80.756404 79.724551,79.5733411 C77.971921,78.6053806 76.873561,76.6298355 76.626091,74.0950243 C76.214771,68.2861291 81.888501,66.1894473 87.748681,65.7716959 C89.990601,65.6109353 93.439361,65.7286755 95.580711,66.0762356" id="Fill-4" fill="#A7CE89"></path>
                    <path d="M111.712591,75.402054 C111.740841,75.8311265 112.152161,75.9669806 112.512631,75.9409419 C114.591831,75.8616937 115.386221,74.9424143 115.295821,73.6212331 C115.189601,72.1415554 113.791791,71.6060638 112.282111,71.7838063 C111.954411,71.8404121 111.482071,72.1732547 111.503541,72.4947761 L111.712591,75.402054 Z M124.795731,72.7800697 C125.387851,80.1637404 118.276761,83.5193369 112.450481,83.4751843 C112.354431,83.4831091 112.287761,83.5193369 112.299061,83.6834939 L112.597381,87.844026 C112.619981,88.1995109 112.348781,88.5210323 111.954411,88.5493352 L103.582241,89.1448291 C103.226291,89.1708678 102.871471,88.8968953 102.848871,88.5414104 L101.243141,66.0054782 C101.220541,65.6386721 101.531291,65.3533785 101.891761,65.2945084 C104.905471,64.8484541 107.390341,64.500894 110.625531,64.269942 C117.184051,63.8691724 124.238641,65.8560387 124.795731,72.7800697 L124.795731,72.7800697 Z" id="Fill-6" fill="#A7CE89"></path>
                    <path d="M139.344933,75.2186509 C139.705403,75.1937444 139.948353,74.8801478 139.925753,74.5529658 L139.660203,70.8215063 C139.603703,70.0301562 138.961863,69.345225 138.003623,69.41202 C137.052163,69.479947 136.510893,70.2531833 136.567393,71.0445335 L136.831813,74.775993 C136.854413,75.1031749 137.107533,75.3794116 137.501903,75.3511087 L139.344933,75.2186509 Z M149.114913,69.7516552 L150.214403,85.1631716 C150.237003,85.5186565 149.999703,85.8345173 149.599683,85.8628203 L141.435433,86.4469929 C141.074963,86.4718995 140.754043,86.1933986 140.731443,85.8367816 L140.465893,82.1675885 C140.443293,81.806443 140.156273,81.5324706 139.795803,81.5585093 L137.952773,81.690967 C137.558403,81.71927 137.344833,82.0294702 137.373083,82.3906157 L137.631853,86.0598087 C137.660103,86.4164257 137.384383,86.7345508 136.984363,86.7628537 L128.824633,87.3470264 C128.424613,87.3753293 128.137593,87.093432 128.114993,86.7379471 L127.016633,71.3264308 C126.605313,65.5175356 130.864283,62.6272394 137.490603,62.1528822 C144.072853,61.6841855 148.703593,63.94276 149.114913,69.7516552 L149.114913,69.7516552 Z" id="Fill-8" fill="#A7CE89"></path>
                    <path d="M161.167832,61.729357 L164.571392,67.1884279 C164.751062,67.4703251 165.016612,67.4250404 164.988362,67.0582343 L164.588342,61.3851932 C164.560092,60.9900842 164.830162,60.6685628 165.224532,60.6402599 L172.905142,60.092315 C173.293862,60.064012 173.614782,60.3402487 173.643032,60.7353578 L175.254412,83.3731805 C175.277012,83.7286654 175.001292,84.0501868 174.612572,84.0784898 L168.515092,84.5132229 C167.760252,84.5664324 167.152312,84.4113323 166.813312,83.8135743 L162.103472,76.318956 C161.950922,76.0291339 161.596102,76.1559311 161.618702,76.483113 L162.176922,84.3071775 C162.204042,84.6626624 161.962222,84.9819196 161.596102,85.0068262 L153.860122,85.5581674 C153.526772,85.583074 153.177602,85.3068373 153.155002,84.9513524 L151.543622,62.3135296 C151.515372,61.9184206 151.826122,61.5968992 152.152692,61.5708605 L159.533852,61.0466901 C160.125972,61.0036696 160.863862,61.218772 161.167832,61.729357" id="Fill-10" fill="#A7CE89"></path>
                    <path d="M186.20253,59.942649 L189.60609,65.4017199 C189.79141,65.6836172 190.05131,65.6383325 190.02871,65.2715264 L189.62304,59.5984853 C189.59479,59.2033763 189.86486,58.8818549 190.26488,58.8535519 L197.93984,58.305607 C198.33421,58.2773041 198.64948,58.5569371 198.67773,58.9520462 L200.28911,81.5887368 C200.31171,81.9453539 200.03599,82.2634789 199.64162,82.2917818 L193.55544,82.726515 C192.7893,82.7808566 192.18701,82.6246244 191.84801,82.0268663 L187.14382,74.5322481 C186.99127,74.242426 186.6308,74.3692231 186.65905,74.6964051 L187.21162,82.5204696 C187.23874,82.8759545 186.99692,83.1952116 186.63645,83.2201182 L178.89482,83.7737237 C178.56712,83.7963661 178.2123,83.5201294 178.1897,83.1646445 L176.57832,60.5268217 C176.55007,60.1317127 176.86082,59.8101913 177.19304,59.7875489 L184.56855,59.2599822 C185.16067,59.2169617 185.90421,59.432064 186.20253,59.942649" id="Fill-12" fill="#A7CE89"></path>
                    <path d="M211.46255,58.0374084 L213.07393,80.674099 C213.09653,81.0307161 212.82646,81.3522375 212.43209,81.3805404 L204.06444,81.9760342 C203.69832,82.0009408 203.3548,81.7269684 203.32655,81.3714835 L201.72082,58.7347928 C201.69257,58.3396838 201.99654,58.014766 202.35701,57.9898595 L210.72466,57.3943656 C211.11903,57.3660627 211.4343,57.6422994 211.46255,58.0374084" id="Fill-14" fill="#A7CE89"></path>
                    <path d="M224.134822,57.2358692 L227.538382,62.69494 C227.723702,62.9768373 227.983602,62.9315526 227.955352,62.5647465 L227.555332,56.8917054 C227.527082,56.4965964 227.797152,56.175075 228.197172,56.1467721 L235.872132,55.5988272 C236.266502,55.5705242 236.581772,55.8501573 236.610022,56.2452663 L238.221402,78.8819569 C238.244002,79.238574 237.968282,79.556699 237.573912,79.585002 L231.482082,80.0197351 C230.721592,80.0729446 230.119302,79.9178445 229.780302,79.3200864 L225.076112,71.8254682 C224.923562,71.5356461 224.563092,71.6624433 224.591342,71.9896252 L225.143912,79.8136897 C225.171032,80.1691746 224.929212,80.4884318 224.568742,80.5133384 L216.827112,81.0669438 C216.499412,81.0895862 216.144592,80.8133495 216.121992,80.4578646 L214.510612,57.8200418 C214.482362,57.4249328 214.793112,57.1034114 215.125332,57.0807691 L222.500842,56.5532023 C223.092962,56.5101818 223.836502,56.7252841 224.134822,57.2358692" id="Fill-16" fill="#A7CE89"></path>
                    <path d="M264.50701,75.0774759 C264.64261,76.9964151 263.4369,77.7390843 262.18599,77.8296537 L258.00499,78.1285327 C257.40722,78.1715532 257.0863,77.8296537 257.0298,77.4707724 C256.9281,77.0473604 256.69758,77.0303787 256.46028,77.3473716 C255.76194,78.2191021 253.94716,78.814596 251.86909,78.9640355 C245.38289,79.4270716 240.464,74.9359612 239.90578,67.5500262 C239.11139,57.7923049 246.5886,54.4389727 252.7471,53.998579 C255.73934,53.7834767 261.30685,53.8174402 261.79162,55.5427874 L263.51487,61.0946919 C263.63917,61.5147075 263.3352,61.8283041 262.73743,61.8701924 C259.0525,62.1328437 249.14692,61.1195985 249.45654,66.8696236 C249.55259,68.6561051 250.34698,70.5218348 252.45443,70.4346618 C254.20706,70.3780559 255.44102,69.5561385 255.29977,67.6428599 L255.14835,65.4691941 C255.1201,65.0684245 255.39582,64.754828 255.79584,64.726525 L263.06965,64.2080152 C263.403,64.1819765 263.75217,64.4536847 263.78042,64.8544543 L264.50701,75.0774759 Z" id="Fill-18" fill="#A7CE89"></path>
                    <g id="Group-22" transform="translate(4.520000, 0.066795)">
                        <mask id="mask-2" fill="white">
                            <use xlink:href="#path-1"></use>
                        </mask>
                        <g id="Clip-21"></g>
                        <path d="M14.717007,92.0167849 L156.120687,122.100545 L156.907167,122.785476 C160.890417,126.240699 165.944907,127.936611 171.244607,127.569805 C176.501367,127.197338 181.299347,124.79272 184.748107,120.79861 L185.431757,120.011788 L321.156057,70.1533305 C324.182197,66.286017 325.647807,61.5016881 325.297507,56.5679198 C324.946077,51.6307551 322.818287,47.1011528 319.276867,43.7025358 L177.870927,13.6187759 L177.084447,12.9327126 C168.860307,5.79244716 156.374937,6.68682003 149.241247,14.9207111 L148.558727,15.7109291 L12.837817,65.5659902 C6.609257,73.5372299 7.426247,85.0112414 14.717007,92.0167849 M169.799337,135.716523 C163.469077,135.716523 157.403237,133.582481 152.444797,129.594031 L10.947327,99.4887608 L10.160847,98.8049618 C-1.423913,88.7393046 -2.677083,71.1043093 7.369747,59.4944437 L8.051137,58.7042256 L143.860187,8.81520105 C153.771417,-1.78141933 170.241167,-2.95202889 181.546817,6.12528972 L323.044287,36.2305599 L323.829637,36.9143589 C329.444607,41.7915214 332.825567,48.5661129 333.355537,55.991672 C333.882117,63.4183632 331.493297,70.6016491 326.625257,76.224877 L325.942737,77.0150951 L190.131427,126.90412 C185.331187,132.04733 178.867587,135.140275 171.816387,135.642935 C171.142907,135.690484 170.469427,135.716523 169.799337,135.716523" id="Fill-20" fill="#458424" mask="url(#mask-2)"></path>
                    </g>
                    <path d="M24.177141,83.936409 L32.185451,84.6994562 C32.757231,85.0458842 33.599081,84.9360688 34.066901,84.4571831 L41.625471,81.6880235 C42.092161,81.2136663 42.006281,80.5491133 41.434501,80.2015532 L33.426191,79.4385059 C32.855541,79.0977386 32.006911,79.2018934 31.539091,79.6819112 L23.986171,82.4510708 C23.519481,82.9299565 23.605361,83.5956416 24.177141,83.936409" id="Fill-23" fill="#A7DD86"></path>
                    <path d="M165.874621,39.7357091 L167.605781,31.7406949 C168.096201,31.1802967 168.038571,30.3300764 167.478091,29.844398 L164.702811,22.150527 C164.143461,21.659188 163.295961,21.716926 162.805541,22.2784563 L161.074381,30.2723384 C160.589611,30.8338687 160.647241,31.6829569 161.200941,32.1686353 L163.981871,39.8625063 C164.535571,40.3538453 165.384201,40.2961073 165.874621,39.7357091" id="Fill-25" fill="#A7DD86"></path>
                    <path d="M171.107199,125.483425 L172.838359,117.488411 C173.328779,116.928013 173.271149,116.077793 172.710669,115.592114 L169.935389,107.898243 C169.376039,107.406904 168.528539,107.464642 168.036989,108.026173 L166.306959,116.020055 C165.822189,116.581585 165.879819,117.430673 166.433519,117.916352 L169.214449,125.610223 C169.768149,126.101562 170.616779,126.043824 171.107199,125.483425" id="Fill-27" fill="#A7DD86"></path>
                    <path d="M293.366645,65.9869115 L300.607685,67.1020473 C301.133135,67.5073454 301.889105,67.4145117 302.298165,66.8824165 L309.020535,63.969478 C309.423945,63.4430433 309.332415,62.6856567 308.801315,62.2758301 L301.560275,61.1652228 C301.034825,60.7553962 300.278855,60.8538905 299.875445,61.379193 L293.147425,64.2932636 C292.744015,64.8185662 292.841195,65.5827455 293.366645,65.9869115" id="Fill-29" fill="#A7DD86"></path>
                </g>
            </g>
        </g>
    </g>
</svg>
