
<svg width="239px" height="229px" viewBox="0 0 239 229" version="1.1" xmlns="http://www.w3.org/2000/svg" xmlns:xlink="http://www.w3.org/1999/xlink">
    <!-- Generator: Sketch 45 (43475) - http://www.bohemiancoding.com/sketch -->
    <desc>Created with Sketch.</desc>
    <defs>
        <polygon id="path-1" points="228.363149 0.00736516854 228.363149 228.707478 0.0481171895 228.707478 0.0481171895 0.00736516854"></polygon>
    </defs>
    <g id="Page-1" stroke="none" stroke-width="1" fill="none" fill-rule="evenodd">
        <g id="STAP-1:-THEMA-KIEZEN" transform="translate(-966.000000, -1297.000000)">
            <g id="FEELGOOD" transform="translate(966.000000, 1297.000000)">
                <g>
                    <path d="M194.022827,54.3542344 C192.21166,51.6291221 190.267622,48.9970434 188.193294,46.4760883 C183.990458,42.8942906 179.50511,39.6613692 174.788851,36.7915378 C181.903229,41.8450771 188.364865,47.7501333 194.022827,54.3542344" id="Fill-1" fill="#9CCF8D"></path>
                    <path d="M141.312703,20.4557232 C138.888784,19.9013973 136.451964,19.4401052 133.994505,19.0369591 C134.831718,19.2088131 135.661191,19.3664535 136.490664,19.5654423 C138.104461,19.8225771 139.711807,20.118476 141.312703,20.4557232" id="Fill-3" fill="#9CCF8D"></path>
                    <path d="M58.3439628,215.754538 C52.7917809,213.181897 47.48857,210.06656 42.4833503,206.53774 C47.5414602,210.42965 52.9491615,213.880942 58.6342139,216.783077 C66.4322946,220.769313 74.7257373,223.743807 83.2552509,225.66392 C81.5821143,225.156111 79.9218777,224.595324 78.2822813,224.008695 C71.3859141,221.923189 64.6998178,219.152852 58.3439628,215.754538" id="Fill-5" fill="#FFFFFF"></path>
                    <path d="M92.0069033,227.248723 C92.2313642,227.281027 92.4609851,227.308161 92.685446,227.340465 C92.428735,227.301701 92.1642839,227.268105 91.9011229,227.221588 C91.9411131,227.229341 91.9733632,227.242263 92.0069033,227.248723" id="Fill-7" fill="#FFFFFF"></path>
                    <g id="Group-11" transform="translate(0.000000, 9.203167)" fill="#FFFFFF">
                        <path d="M83.8180801,4.62894382 C81.0187691,5.07731461 78.2517082,5.65748315 75.5052873,6.31776404 C70.8225689,7.88124719 66.2314408,9.74838202 61.7976934,11.9256292 L61.6532128,11.6426517 C64.3931836,10.236809 67.1989446,8.9498427 70.0446958,7.77658427 C62.1279347,10.1386067 54.5194847,13.4038315 47.4721869,17.6071461 C36.4129734,24.2047865 26.8682258,33.1579888 19.5164869,43.6010225 C13.3979928,52.2841685 8.64819406,61.8976517 5.42060135,71.9982697 C8.74752445,64.8592247 12.8703807,58.0832697 17.6072793,51.7957416 L17.8639903,51.9934382 C11.9028769,60.175236 7.00214757,69.1348989 3.5307439,78.5894494 C0.454081788,90.8285506 -0.532772098,103.548326 0.263161036,116.131135 C0.988143891,128.903888 3.90613538,141.321303 8.64819406,153.031921 C10.8089526,158.382652 13.450883,163.522764 16.4733649,168.431584 C19.2468758,172.276978 22.2706477,175.938888 25.5175905,179.39664 C23.607093,177.028157 21.7894758,174.586022 20.0840891,172.06636 C12.8703807,161.364899 7.62135001,149.323494 4.81558896,136.708382 C2.03562802,124.094562 1.56090615,110.978101 3.47140367,98.1975955 C5.39480124,85.418382 9.8014586,73.0410225 16.2231039,61.8511348 C22.6460392,50.6483258 31.1097625,40.6394494 41.0299016,32.3917528 C60.9088799,15.8847303 86.7025314,6.85270787 112.497473,7.10338202 C125.380754,7.02326966 138.304025,8.8387191 150.582293,12.7900674 C159.376258,15.6004607 167.827081,19.5259663 175.599362,24.5148989 C173.919775,23.0896742 172.214388,21.6967528 170.448371,20.3839438 C160.305061,12.8430449 148.645995,7.35405618 136.388367,4.14697753 C118.662407,-0.630044944 99.6722425,-0.339314607 81.7953521,4.45062921 C82.4545447,4.35113483 83.0995472,4.24001124 83.7587398,4.1534382 L83.8180801,4.62894382 Z" id="Fill-9"></path>
                    </g>
                    <path d="M41.8754999,202.243847 C22.7473046,184.898229 10.3774459,160.202948 8.26312754,134.405476 C6.0172287,108.615757 13.9468899,82.1980603 29.6901119,61.6983412 C37.5217328,51.4258692 47.2045109,42.5850827 58.0921538,35.6437344 C69.0004367,28.7230603 81.0942343,23.7224985 93.6743639,20.8190715 C107.685109,17.6455883 122.313767,17.2501951 136.489632,19.55924 C135.665319,19.3680041 134.829396,19.2090715 133.999923,19.0372176 C126.898445,17.8704198 119.692476,17.316094 112.505858,17.3884535 C86.9224773,17.2165996 61.464227,26.2486221 41.8819499,42.6251389 C32.1011314,50.7991839 23.7818887,60.7085659 17.4840839,71.7795771 C11.181119,82.837667 6.88540211,95.0509254 5.03553483,107.638903 C3.16502746,120.22042 3.55331899,133.145645 6.26748968,145.588903 C8.98682039,158.032161 14.1249106,169.921094 21.2121985,180.503678 C26.3438387,188.177667 32.515223,195.144858 39.4709304,201.228229 C41.8097096,203.021712 44.2000891,204.737667 46.6704488,206.328285 C45.0373024,205.014184 43.429956,203.662611 41.8754999,202.243847" id="Fill-12" fill="#FFFFFF"></path>
                    <path d="M175.364968,196.792201 C156.065202,213.925909 130.810772,224.397369 104.96423,225.102875 C94.8996107,225.425909 84.7885509,224.284954 75.0464325,221.725234 C75.3560338,221.850571 75.665635,221.962987 75.9752362,222.088324 C78.0237643,222.774448 80.0864824,223.420515 82.1737106,223.981302 C95.3343424,227.570852 109.173517,228.539954 122.74308,227.035909 C138.168961,224.660965 153.08142,218.894167 165.93245,209.921583 C176.274421,202.782538 185.344447,193.769897 192.589115,183.452201 C199.815724,173.106077 205.151185,161.474279 208.549058,149.301077 C209.833903,144.689448 210.796247,139.992538 211.4348,135.241358 C209.04958,146.252931 204.998964,156.888493 199.512573,166.726807 C193.201868,178.001976 184.975505,188.174954 175.364968,196.792201" id="Fill-14" fill="#FFFFFF"></path>
                    <path d="M174.790528,36.7890827 C172.464649,35.3703187 170.10007,34.031667 167.6697,32.7976782 C145.261022,21.3170603 118.815918,18.2882962 94.3716116,23.9232962 C82.1591335,26.7543636 70.3555871,31.530094 59.7311052,38.2272288 C49.1195234,44.9437456 39.6676562,53.5015546 32.007606,63.4703749 C24.3204658,73.4198131 18.5038329,84.813858 14.8814986,96.8552625 C13.0703315,102.885656 11.8112865,109.073689 11.1327438,115.328914 C10.421951,121.582847 10.2903705,127.90397 10.7509023,134.191498 C12.5491694,159.375206 24.386256,183.713858 43.0203794,200.987116 C47.4205867,205.150375 52.2026356,208.904027 57.2671955,212.242903 C60.7127991,213.904588 64.249993,215.397004 67.8529772,216.663296 C79.7029639,220.813633 92.3295336,222.666555 104.870963,222.218184 C130.019612,221.440319 154.561959,211.140712 173.255422,194.415319 C182.582159,186.022903 190.671781,176.18588 196.843165,165.227285 C203.008099,154.268689 207.342517,142.280263 209.503275,129.883521 C211.242202,119.800993 211.505363,109.476836 210.319848,99.3154872 C208.680252,90.870094 206.038321,82.6236895 202.185076,74.9303187 C196.592904,63.4962176 188.464582,53.2831839 178.531543,45.0755434 C173.565023,40.9781839 168.210212,37.3162737 162.5716,34.1298692 C156.972978,30.8646445 151.071205,28.099476 145.044301,25.6392513 L145.201682,25.1895883 C157.4606,29.6564985 169.251247,35.680431 179.546777,43.7821164 C188.787083,51.0271164 196.692235,60.0126221 202.560468,70.1998131 C200.65642,65.732903 198.444061,61.4055434 195.907911,57.261667 C195.301609,56.2783524 194.663057,55.3157119 194.024504,54.3517794 C188.366542,47.7541389 181.903616,41.8490827 174.790528,36.7890827" id="Fill-16" fill="#FFFFFF"></path>
                    <path d="M212.716291,96.0320434 C213.908255,101.053279 214.751919,106.153336 215.245991,111.279234 C216.543736,124.310414 215.581392,137.584515 212.262209,150.265527 C208.988176,162.946538 203.468244,175.052549 196.024915,185.840583 C193.422975,189.594234 190.577223,193.170864 187.527651,196.574347 C191.822078,192.398167 195.761754,187.865358 199.311848,183.030189 C212.953652,164.055189 220.403431,140.639122 218.914765,115.752605 C217.945971,99.7068749 213.354843,84.7362007 205.991494,71.5279985 C208.665675,78.0662007 210.700013,84.8757513 212.018398,91.8158074 C212.281559,93.2151895 212.50602,94.6262007 212.716291,96.0320434" id="Fill-18" fill="#FFFFFF"></path>
                    <path d="M86.1722103,88.470858 C85.9283994,89.4502962 85.7219986,90.4038917 85.5542979,91.3445659 L84.9312255,94.1665883 L94.0322113,92.2529367 L93.5626494,99.5858018 C89.9996554,100.145296 86.6417722,100.796532 83.4967398,101.524004 C82.6595265,106.196364 81.9977539,110.815746 81.508842,115.383442 L72.5936169,117.689903 L78.6850209,80.1779367 L96.4767709,77.6660265 L95.8536985,87.3169816 C92.3861648,87.6335546 89.1572821,88.019903 86.1722103,88.470858" id="Fill-20" fill="#A7CE89"></path>
                    <path d="M105.373162,88.4773187 C105.097101,89.4955209 104.852,90.4878805 104.646889,91.4673187 L104.074127,94.3539479 L112.39724,92.5746782 L111.934128,99.7977119 C107.984132,100.500633 104.8907,101.105352 102.639641,101.633836 C102.497741,102.330296 102.38164,103.025465 102.27328,103.728386 L101.886278,105.764791 L111.567766,104.347319 L110.891804,114.082263 C105.894324,114.500914 99.5642691,115.706476 91.8964789,117.689903 L98.0910833,80.1792288 L115.421012,77.6143412 L114.738599,87.329903 C111.342015,87.646476 108.216333,88.0263636 105.373162,88.4773187" id="Fill-22" fill="#A7CE89"></path>
                    <path d="M124.574114,88.4773187 C124.298052,89.4955209 124.052952,90.4878805 123.847841,91.4673187 L123.275078,94.3539479 L131.598191,92.5746782 L131.135079,99.7977119 C127.185084,100.500633 124.091652,101.105352 121.840593,101.633836 C121.698692,102.330296 121.582592,103.025465 121.474231,103.728386 L121.08723,105.764791 L130.768718,104.347319 L130.092755,114.082263 C125.095276,114.500914 118.765221,115.706476 111.09743,117.689903 L117.292035,80.1792288 L134.621963,77.6143412 L133.93955,87.329903 C130.542967,87.646476 127.417285,88.0263636 124.574114,88.4773187" id="Fill-24" fill="#A7CE89"></path>
                    <path d="M137.066007,80.700476 L146.013482,79.0258692 C143.517322,88.6897456 141.593925,97.6003074 140.236839,105.764015 L149.397165,104.346543 L148.619292,114.082779 C143.897874,114.501431 137.91483,115.705701 130.666292,117.69042 L137.066007,80.700476 Z" id="Fill-26" fill="#A7CE89"></path>
                    <path d="M76.7356942,159.225836 C73.6732221,159.225836 71.5060136,157.570611 70.2327786,154.257577 C69.569716,152.602352 69.2356046,150.740386 69.2356046,148.678139 C69.2356046,146.732184 69.5374658,144.593701 70.1489282,142.267858 C71.1590022,138.285498 72.9662993,134.639094 75.5643696,131.327352 C78.717142,127.286847 82.0685752,125.264656 85.6251192,125.264656 C88.7198414,125.264656 90.89995,126.978027 92.173185,130.40606 L87.362756,135.59915 C86.841594,134.813532 86.075331,134.419431 85.065257,134.419431 C83.0979992,134.419431 81.2442619,135.785218 79.5143651,138.518083 C78.20888,140.579038 77.2439562,142.867409 76.6066937,145.366397 C76.3499827,146.352296 76.2145321,147.234824 76.2145321,148.021734 C76.2145321,149.213083 76.5228433,150.173139 77.1278557,150.901903 C77.7909183,151.713364 78.717142,152.119094 79.9000766,152.119094 C81.263612,152.119094 82.518787,151.493701 83.6759215,150.244206 C84.6021452,149.258307 85.3490581,148.008813 85.9282704,146.494431 C83.792022,146.932465 81.8105742,147.38342 79.990377,147.847296 L81.3668124,141.456397 L92.8749477,138.975498 C92.932998,140.856847 92.5279364,143.021173 91.6584729,145.463307 C90.8741499,147.616004 89.9092261,149.58651 88.7520915,151.385161 C85.3684082,156.617015 81.3668124,159.225836 76.7356942,159.225836" id="Fill-28" fill="#A7CE89"></path>
                    <path d="M105.572597,134.896616 C103.98331,134.896616 102.363064,136.204257 100.715728,138.82083 C99.3844424,140.888246 98.4646688,142.905268 97.9435067,144.883527 C97.6803457,145.927571 97.5513452,146.874706 97.5513452,147.71847 C97.5513452,148.909819 97.8403063,149.882796 98.4195186,150.637403 C99.0825812,151.481167 100.008805,151.906279 101.191739,151.906279 C102.813276,151.906279 104.273562,151.049594 105.572597,149.329763 C106.614921,147.962684 107.366994,146.352684 107.830106,144.490718 C108.377068,142.312178 108.493168,140.160774 108.178407,138.04038 C107.830106,135.947122 106.961932,134.896616 105.572597,134.896616 M107.136083,124.085324 C110.197265,124.085324 112.365763,125.798695 113.638999,129.233189 C114.302061,131.004706 114.636172,132.950661 114.636172,135.071055 C114.636172,137.106167 114.333021,139.31701 113.722849,141.700998 C112.654725,145.772515 110.808727,149.522291 108.178407,152.950324 C104.967584,157.138133 101.571001,159.226223 97.9822069,159.226223 C94.8952247,159.226223 92.694476,157.51156 91.3954409,154.084819 C90.7581784,152.395998 90.4434172,150.508189 90.4434172,148.413639 C90.4434172,146.352684 90.7581784,144.117291 91.3954409,141.700998 C92.4635651,137.602347 94.2966623,133.83965 96.9011826,130.405156 C100.112005,126.191504 103.520199,124.085324 107.136083,124.085324" id="Fill-30" fill="#A7CE89"></path>
                    <path d="M127.037765,134.896616 C125.442029,134.896616 123.828233,136.204257 122.180896,138.82083 C120.849611,140.888246 119.923387,142.905268 119.402225,144.883527 C119.145514,145.927571 119.016514,146.874706 119.016514,147.71847 C119.016514,148.909819 119.299025,149.882796 119.878237,150.637403 C120.54775,151.481167 121.467523,151.906279 122.656908,151.906279 C124.271994,151.906279 125.73228,151.049594 127.037765,149.329763 C128.073639,147.962684 128.825712,146.352684 129.288824,144.490718 C129.842236,142.312178 129.958337,140.160774 129.637126,138.04038 C129.288824,135.947122 128.420651,134.896616 127.037765,134.896616 M128.594801,124.085324 C131.662433,124.085324 133.830932,125.798695 135.104167,129.233189 C135.76723,131.004706 136.101341,132.950661 136.101341,135.071055 C136.101341,137.106167 135.79174,139.31701 135.188017,141.700998 C134.119893,145.772515 132.267446,149.522291 129.637126,152.950324 C126.426303,157.138133 123.029719,159.226223 119.447375,159.226223 C116.353943,159.226223 114.159645,157.51156 112.854159,154.084819 C112.223347,152.395998 111.902136,150.508189 111.902136,148.413639 C111.902136,146.352684 112.223347,144.117291 112.854159,141.700998 C113.928734,137.602347 115.761831,133.83965 118.359901,130.405156 C121.570724,126.191504 124.985367,124.085324 128.594801,124.085324" id="Fill-32" fill="#A7CE89"></path>
                    <path d="M143.99385,134.548645 C142.662565,140.250836 141.652491,145.637746 140.957178,150.727465 C142.688365,149.070948 144.237661,147.150836 145.596036,144.973588 C147.274333,142.300161 148.110256,139.998869 148.110256,138.080049 C148.110256,135.612071 146.733821,134.432352 143.99385,134.548645 M137.792796,127.357914 C141.111979,126.250555 143.9358,125.702689 146.244909,125.702689 C148.850719,125.702689 150.825717,126.384937 152.189252,127.750723 C154.0675,129.696678 155.006623,132.067746 155.006623,134.857465 C155.006623,135.875667 154.877623,136.945555 154.614462,138.080049 C153.488287,143.195611 150.825717,147.666397 146.63707,151.48724 C142.443264,155.314543 137.773446,157.556397 132.627615,158.227015 C132.685666,157.588701 132.993977,155.68151 133.540939,152.511903 L137.008473,132.454094 C137.503834,129.465386 137.760545,127.763645 137.792796,127.357914" id="Fill-34" fill="#A7CE89"></path>
                    <path d="M75.3599038,46.7576445 C75.2941135,46.4346108 74.7871415,45.0287681 74.7536014,44.6798917 C74.7278013,44.3361839 74.7071612,44.0260715 74.6942611,43.762476 C74.6878111,43.5182625 74.7149012,43.3593299 74.7742415,43.274049 C74.8258417,43.1887681 74.9587122,43.1293299 75.156083,43.0957344 C75.3470037,43.0621389 75.5443745,43.0427569 75.7546453,43.0427569 C75.9662062,43.0427569 76.1958271,43.0763524 76.439638,43.1357906 C76.6640989,43.1745546 76.8214795,43.2404535 76.9208099,43.3205659 C77.0201403,43.4058468 77.1052806,43.5570265 77.1775209,43.7883187 C77.3155515,44.1914647 77.4806721,44.6592176 77.6844929,45.2006221 C77.8831537,45.7342737 78.0934245,46.3028131 78.3307855,46.8894423 C78.5616964,47.4838243 85.6283442,65.2377569 85.8786052,65.8644423 C84.6402003,66.5247232 75.3599038,46.7576445 75.3599038,46.7576445" id="Fill-36" fill="#A7DD86"></path>
                    <path d="M27.9106789,108.996032 C27.6346178,108.817718 26.2710825,108.210414 26.0001814,107.993336 C25.7241203,107.774965 25.4932094,107.577268 25.2958386,107.398954 C25.1178179,107.234852 25.0184875,107.109515 24.9926874,107.010021 C24.9733373,106.910527 25.0184875,106.772268 25.137168,106.606875 C25.2364984,106.442774 25.3680789,106.290302 25.5125595,106.139122 C25.65833,105.98665 25.8363507,105.841931 26.0466216,105.703673 C26.2375423,105.571875 26.3962129,105.505976 26.5213434,105.485302 C26.6464739,105.47238 26.8167546,105.518897 27.0283154,105.624852 C27.416607,105.809628 27.8706888,106.007324 28.3983008,106.238616 C28.9181729,106.468616 29.4780351,106.699909 30.0649874,106.944122 C30.6506497,107.188336 48.3301693,114.379066 48.9558218,114.637493 C48.5675303,115.982605 27.9106789,108.996032 27.9106789,108.996032" id="Fill-38" fill="#A7DD86"></path>
                    <path d="M63.6892278,189.388268 C63.4454168,189.6131 62.5037131,190.766976 62.226362,190.978886 C61.9438509,191.183043 61.6935899,191.353605 61.4691291,191.499616 C61.2653083,191.631414 61.1130877,191.690852 61.0150473,191.690852 C60.9092669,191.684392 60.7970364,191.605571 60.6590059,191.446639 C60.5338754,191.30838 60.4151949,191.142987 60.3107045,190.964673 C60.1984741,190.779897 60.1055937,190.569279 60.0333534,190.331527 C59.9546631,190.114448 59.927573,189.942594 59.9482131,189.817257 C59.9675632,189.69192 60.0527035,189.539448 60.2113741,189.361133 C60.4874352,189.031639 60.8047764,188.642706 61.1595278,188.200796 C61.5155692,187.752425 61.8845107,187.27692 62.2728022,186.769111 C62.6610938,186.267763 74.2014792,171.046414 74.6104108,170.50501 C75.8152756,171.23765 63.6892278,189.388268 63.6892278,189.388268" id="Fill-40" fill="#A7DD86"></path>
                    <path d="M161.548368,186.582785 C161.679949,186.879976 162.470722,188.152729 162.575212,188.483515 C162.680993,188.81301 162.767423,189.110201 162.833213,189.367336 C162.884813,189.603796 162.899003,189.769189 162.865463,189.862223 C162.825473,189.953965 162.714533,190.040538 162.523612,190.119358 C162.345591,190.191718 162.154671,190.251156 161.94956,190.297673 C161.739289,190.336437 161.514828,190.357111 161.264567,190.357111 C161.034946,190.357111 160.863375,190.329976 160.751145,190.270538 C160.638915,190.2111 160.520234,190.079302 160.401554,189.875145 C160.184833,189.505594 159.915222,189.083066 159.612071,188.6011 C159.302469,188.120425 158.972228,187.611324 158.617477,187.084133 C158.267885,186.549189 147.596963,170.708909 147.215122,170.148122 C148.288406,169.243628 161.548368,186.582785 161.548368,186.582785" id="Fill-42" fill="#A7DD86"></path>
                    <path d="M116.539575,200.042049 C116.486685,200.365083 116.480235,201.862667 116.388644,202.199914 C116.302214,202.535869 116.217074,202.83306 116.130643,203.083734 C116.051953,203.307274 115.973263,203.453285 115.894572,203.512723 C115.814592,203.578622 115.670112,203.585083 115.466291,203.545027 C115.28182,203.519184 115.084449,203.466206 114.885788,203.393847 C114.688418,203.313734 114.491047,203.209071 114.280776,203.070813 C114.082115,202.951937 113.956985,202.839521 113.891195,202.727105 C113.825404,202.614689 113.799604,202.444128 113.812504,202.206375 C113.818954,201.777386 113.825404,201.276038 113.825404,200.701038 C113.818954,200.133791 113.812504,199.527779 113.799604,198.88688 C113.786704,198.253734 113.265542,179.146937 113.246192,178.467274 C114.635527,178.282498 116.539575,200.042049 116.539575,200.042049" id="Fill-44" fill="#A7DD86"></path>
                    <path d="M144.264364,41.8046333 C144.442385,41.5268243 145.048687,40.1610378 145.265408,39.8909816 C145.483419,39.6144647 145.68079,39.3831726 145.85881,39.185476 C146.022641,39.0071614 146.154222,38.907667 146.247102,38.8818243 C146.345142,38.8624423 146.484463,38.907667 146.648293,39.0265434 C146.813414,39.1324985 146.964345,39.2578355 147.116565,39.4025546 C147.267496,39.5485659 147.413267,39.7268805 147.551297,39.9374985 C147.682878,40.1287344 147.755118,40.287667 147.768018,40.4117119 C147.782208,40.5383412 147.735768,40.708903 147.629987,40.9208131 C147.451967,41.3097456 147.248146,41.7710378 147.017235,42.2930603 C146.787614,42.8137906 146.556703,43.3745771 146.312892,43.9624985 C146.069081,44.5491277 138.882463,62.2578355 138.632202,62.8845209 C137.281567,62.4955883 144.264364,41.8046333 144.264364,41.8046333" id="Fill-46" fill="#A7DD86"></path>
                    <path d="M191.529763,106.323251 C191.858715,106.303869 193.31513,105.986004 193.663432,106.000218 C194.013023,106.0196 194.316174,106.038982 194.579335,106.066116 C194.823146,106.091959 194.981817,106.138476 195.054057,106.204375 C195.132747,106.270274 195.172738,106.408532 195.179188,106.613982 C195.192088,106.805218 195.179188,107.002914 195.152098,107.213532 C195.119847,107.425442 195.060507,107.642521 194.974077,107.880274 C194.895386,108.090892 194.816696,108.243364 194.717366,108.335105 C194.625775,108.421678 194.460655,108.481116 194.223294,108.51988 C193.809202,108.606454 193.32158,108.711116 192.761718,108.836454 C192.208306,108.961791 191.614904,109.101341 190.995701,109.252521 C190.382949,109.403701 171.873956,114.048925 171.216053,114.214319 C170.734881,112.895049 191.529763,106.323251 191.529763,106.323251" id="Fill-48" fill="#A7DD86"></path>
                    <g id="Group-52" transform="translate(10.320041, 0.158223)">
                        <mask id="mask-2" fill="white">
                            <use xlink:href="#path-1"></use>
                        </mask>
                        <g id="Clip-51"></g>
                        <path d="M114.205827,9.24612921 C56.3452289,9.24612921 9.27294352,56.4000056 9.27294352,114.358713 C9.27294352,172.317421 56.3452289,219.468713 114.205827,219.468713 C172.066425,219.468713 219.13871,172.317421 219.13871,114.358713 C219.13871,56.4000056 172.066425,9.24612921 114.205827,9.24612921 M114.205827,228.707478 C51.2613189,228.707478 0.0481171895,177.411017 0.0481171895,114.358713 C0.0481171895,51.3064101 51.2613189,0.00736516854 114.205827,0.00736516854 C177.150335,0.00736516854 228.363536,51.3064101 228.363536,114.358713 C228.363536,177.411017 177.150335,228.707478 114.205827,228.707478" id="Fill-50" fill="#458424" mask="url(#mask-2)"></path>
                    </g>
                </g>
            </g>
        </g>
    </g>
</svg>
