
<svg width="283px" height="214px" viewBox="0 0 283 214" version="1.1" xmlns="http://www.w3.org/2000/svg" xmlns:xlink="http://www.w3.org/1999/xlink">
    <!-- Generator: Sketch 45 (43475) - http://www.bohemiancoding.com/sketch -->
    <desc>Created with Sketch.</desc>
    <defs>
        <polygon id="path-1" points="271.316798 0.85575674 271.316798 209.163895 0.436176833 209.163895 0.436176833 0.85575674 271.316798 0.85575674"></polygon>
    </defs>
    <g id="Page-1" stroke="none" stroke-width="1" fill="none" fill-rule="evenodd">
        <g id="STAP-1:-THEMA-KIEZEN" transform="translate(-402.000000, -747.000000)">
            <g id="LITERATUUR" transform="translate(402.000000, 746.000000)">
                <g>
                    <g id="Group-3" transform="translate(0.000000, 12.867979)" fill="#FFFFFF">
                        <path d="M262.651498,79.6445771 C258.456911,53.9452154 232.732555,34.8273697 196.823636,26.5464388 C175.411879,6.92082713 145.908842,-3.08239096 115.458271,1.86947074 C85.0077004,6.81561436 60.2079636,25.6475559 46.1438947,51.0427154 C14.7171457,70.2669176 -3.60108907,96.5495239 0.593497976,122.243168 C4.78808502,147.942529 30.5124413,167.060375 66.4213603,175.340162 C87.8331174,194.972636 117.336154,204.968992 147.786725,200.023992 C178.237296,195.07213 203.037032,176.245907 217.101101,150.843886 C248.528996,131.620827 266.846085,105.343939 262.651498,79.6445771" id="Fill-1"></path>
                    </g>
                    <g id="Group-6" transform="translate(11.457490, 0.288191)">
                        <mask id="mask-2" fill="white">
                            <use xlink:href="#path-1"></use>
                        </mask>
                        <g id="Clip-5"></g>
                        <path d="M135.209036,8.5002766 C130.263983,8.5002766 125.293724,8.89939894 120.329194,9.70679255 C92.1093964,14.2915532 67.8424328,31.5132819 53.7474287,56.957617 L53.2593397,57.8382021 L52.3965907,58.3665532 C21.219615,77.4386543 4.85717368,102.606234 8.6278336,125.693574 C12.396202,148.779771 35.9138457,167.466473 71.538619,175.681074 L72.5216717,175.909798 L73.2664085,176.591394 C94.7136838,196.253601 123.200441,204.901633 151.425967,200.316872 C179.651494,195.726394 203.918457,178.501234 218.004295,153.062617 L218.492384,152.178601 L219.355133,151.651394 C250.529817,132.58158 266.89455,107.414 263.127328,84.3209415 C259.356668,61.2370319 235.84017,42.5503298 200.216542,34.3357287 L199.233489,34.1070053 L198.487607,33.4265532 C180.810991,17.2249309 158.353166,8.5002766 135.209036,8.5002766 M136.534668,209.163894 C111.808259,209.167324 87.8265866,199.979505 68.8335057,182.900729 C30.6181939,173.83642 5.31776478,152.959691 1.06932753,126.921819 C-3.18369271,100.887378 14.1755502,73.0734681 47.5409065,52.3751436 C62.8492587,25.3514734 88.8726555,7.07189894 119.097514,2.16235106 C149.308623,-2.75405851 179.811898,6.34227128 202.918218,27.1160745 C241.13353,36.180383 266.435105,57.0571117 270.685834,83.0926968 L270.685834,83.094984 C274.933125,109.132856 257.576174,136.946766 224.211963,157.64166 C208.915068,184.663043 182.888234,202.942617 152.656502,207.861314 C147.278356,208.733894 141.887607,209.163894 136.534668,209.163894" id="Fill-4" fill="#458424" mask="url(#mask-2)"></path>
                    </g>
                    <path d="M60.5233883,128.935157 C59.4555502,129.530981 58.3636514,130.14396 57.2442547,130.762657 C56.1294409,131.387072 55.0673316,131.988614 54.0556352,132.573003 C53.6901413,132.832604 53.3647486,133.000715 53.0966433,133.075051 C52.8273923,133.157391 52.5879308,133.189412 52.3874247,133.177976 C52.1880644,133.177976 52.0047445,133.129944 51.8397567,133.052178 C51.6793518,132.977843 51.5132182,132.889785 51.3425016,132.778854 C50.9770077,132.553561 50.6287,132.311114 50.313619,132.060662 C49.9939551,131.803348 49.5711737,131.480848 49.0452749,131.087444 C48.656866,130.777524 48.3314733,130.405848 48.0690968,129.964412 C47.8055745,129.519545 47.6405866,128.969465 47.566113,128.297019 C47.4057081,127.272338 47.246449,126.086407 47.0860441,124.726646 C46.9199105,123.374891 46.7663802,121.938508 46.6174328,120.403774 C46.4684854,118.875902 46.3321413,117.293136 46.2061089,115.662338 C46.0743478,114.029253 45.9609186,112.420184 45.8578012,110.83513 C45.7546838,109.252364 45.6687526,107.741646 45.6057364,106.313269 C45.5381372,104.88146 45.498036,103.581168 45.4751211,102.404386 C45.498036,101.768535 45.6171939,101.357976 45.8520725,101.17271 C46.0800765,100.993162 46.4512992,100.941699 46.9600117,101.02404 C47.4859105,101.066354 48.0748255,101.180715 48.7198822,101.354545 C49.3660846,101.534093 49.9481251,101.762816 50.4740239,102.036141 C51.0056514,102.320902 51.3482304,102.601088 51.518947,102.891566 C51.6908093,103.182045 51.7710117,103.615476 51.765283,104.189572 C51.7824692,105.595077 51.8225704,107.157258 51.8913154,108.890981 C51.9531858,110.630423 52.039117,112.435051 52.1365057,114.302577 C52.2396231,116.175822 52.3415947,118.071939 52.4504409,119.996646 C52.5650158,121.921354 52.6910482,123.783162 52.8273923,125.58779 C53.5709834,125.21154 54.2962425,124.881035 54.9928579,124.606566 C55.6848903,124.321806 56.4330644,124.048481 57.2270684,123.768295 C57.6784935,123.615051 58.0554449,123.569306 58.3636514,123.657364 C58.6718579,123.739705 58.9926676,123.997019 59.3295178,124.441886 C59.6549105,124.852444 59.9516595,125.282444 60.2151818,125.73646 C60.483287,126.192763 60.7124368,126.636487 60.9060684,127.081354 C61.1741737,127.61771 61.3059348,127.991673 61.2944773,128.194093 C61.2830198,128.398801 61.0263721,128.641247 60.5233883,128.935157" id="Fill-7" fill="#A7DD86"></path>
                    <path d="M64.6997579,99.2819681 C65.2543004,99.5552926 65.6083368,99.8297606 65.7790534,100.128245 C65.9509158,100.410718 66.0483045,100.853298 66.0769482,101.449122 C66.0941344,102.503537 66.1456931,103.746649 66.2190211,105.161303 C66.2992235,106.575957 66.3908834,108.084388 66.4997296,109.677447 C66.6017012,111.279654 66.7220049,112.939043 66.853766,114.653324 C66.9912559,116.372181 67.1276,118.06359 67.2650899,119.722979 C67.396851,121.384654 67.5389239,122.981144 67.6821425,124.506729 C67.8310899,126.032314 67.967434,127.424096 68.0877377,128.65234 C68.1163814,129.134947 68.0648227,129.459734 67.9330615,129.642713 C67.8024462,129.810824 67.4873652,129.873723 66.9855271,129.816543 C66.4768146,129.738777 65.9795595,129.656436 65.4994907,129.564947 C65.0194219,129.480319 64.5508105,129.331649 64.1051142,129.117793 C63.6261911,128.91766 63.2710089,128.632899 63.0601911,128.268085 C62.8424988,127.905559 62.6775109,127.366915 62.562936,126.639574 C62.4025312,125.707527 62.2203571,124.535319 62.0313085,123.135532 C61.8434057,121.732314 61.6543571,120.198723 61.4664543,118.550771 C61.2716769,116.905106 61.0837741,115.191968 60.8889968,113.395346 C60.6953652,111.605585 60.5177741,109.868431 60.363098,108.183883 C60.2038389,106.498191 60.0720777,104.910851 59.9632316,103.410426 C59.8555312,101.92258 59.7753287,100.650878 59.7294988,99.5953191 C59.72377,98.9709043 59.8268874,98.5546277 60.0377053,98.3613564 C60.2496688,98.1703723 60.6266202,98.1074734 61.1628308,98.1840957 C61.6887296,98.2298404 62.2776445,98.3556383 62.92843,98.5603457 C63.5803611,98.762766 64.1738591,99.0086436 64.6997579,99.2819681" id="Fill-9" fill="#A7DD86"></path>
                    <path d="M81.8792328,98.5491383 C81.1597024,98.8281809 80.4115283,99.108367 79.650751,99.4102819 C79.7825121,101.415043 79.920002,103.525016 80.0735324,105.740202 C80.2282085,107.955388 80.3828846,110.202596 80.5478725,112.469245 C80.7140061,114.741612 80.8961802,116.988819 81.0909575,119.206293 C81.2903178,121.430628 81.4908239,123.531452 81.7073704,125.524777 C81.7646579,125.906745 81.7474717,126.186931 81.6455,126.351612 C81.5366538,126.519723 81.3705202,126.614644 81.1310587,126.647809 C80.8904514,126.674112 80.5994312,126.659245 80.2568522,126.58834 C79.9085445,126.53116 79.5258644,126.465973 79.1088117,126.397356 C78.2689777,126.246399 77.5769453,125.975362 77.0235486,125.587676 C76.4690061,125.207995 76.1493421,124.481798 76.0748684,123.409085 C75.8571761,122.143101 75.6349008,120.598074 75.405751,118.784298 C75.177747,116.97967 74.9600547,115.092702 74.7549656,113.127968 C74.5487308,111.171239 74.3665567,109.209936 74.2004231,107.237197 C74.0297065,105.266745 73.9036741,103.473553 73.8062854,101.862197 C73.3720466,102.079484 72.9378077,102.284191 72.5092976,102.475176 C72.0750587,102.658154 71.726751,102.84342 71.452917,103.019537 C71.0759656,103.253979 70.7448441,103.351186 70.4641356,103.319165 C70.1845729,103.284856 69.8419939,103.076718 69.43067,102.681027 C68.9964312,102.295628 68.5621923,101.782144 68.1394109,101.134856 C67.7109008,100.491 67.3625931,99.9603617 67.0876134,99.5360798 C66.8080506,99.0854947 66.7049332,98.7652819 66.7736781,98.580016 C66.8481518,98.3833138 67.0131397,98.203766 67.2881194,98.0242181 C68.1565972,97.5599096 69.1556903,97.0784468 70.2876903,96.582117 C71.4185445,96.0823564 72.5837713,95.6100426 73.7661842,95.1560266 C74.9543259,94.7088723 76.1264271,94.2868777 77.2801964,93.8991915 C78.4396943,93.5057872 79.4800344,93.1798564 80.3943421,92.9031011 C80.8503502,92.7956011 81.2169899,92.775016 81.4736377,92.8413457 C81.7360142,92.9065319 81.9823502,93.0574894 82.2046255,93.2885 C82.6503219,93.7082074 83.055917,94.1667979 83.4214109,94.6802819 C83.7926336,95.2017713 84.1077146,95.7118245 84.3700911,96.2195904 C84.5992409,96.7159202 84.6954838,97.0578617 84.6553826,97.2522766 C84.6152814,97.4455479 84.3586336,97.6342447 83.8842935,97.8046436 C83.2793381,98.0276489 82.6044919,98.2815319 81.8792328,98.5491383" id="Fill-11" fill="#A7DD86"></path>
                    <path d="M91.1116781,91.4894761 C92.8715486,90.5860186 94.6875607,89.8495293 96.5677348,89.2971622 C97.4533988,89.0284122 98.1442854,89.3509122 98.652998,90.2600878 C98.9955769,90.7278271 99.2590992,91.1555399 99.447002,91.537508 C99.6417794,91.9251941 99.8468684,92.3449016 100.076018,92.8092101 C100.292565,93.3604335 100.36131,93.7538378 100.292565,93.9871356 C100.212362,94.2181463 99.9557146,94.4342899 99.515747,94.6229867 C98.5899818,94.9855133 97.6298441,95.3697686 96.6192935,95.783758 C95.6075972,96.1908856 94.5569453,96.6357527 93.4650466,97.1263644 C93.4879615,98.187641 93.522334,99.2992367 93.5624352,100.462295 C93.6139939,101.631072 93.6483664,102.857029 93.6655526,104.140168 C94.1570789,103.912588 94.6486053,103.715886 95.1447146,103.55921 C95.6362409,103.393386 96.1506822,103.234423 96.6937672,103.076604 C97.1451923,102.946231 97.5278725,102.91421 97.8360789,103.005699 C98.1442854,103.08804 98.4479089,103.336205 98.7503866,103.758199 C99.0815081,104.197348 99.3610709,104.625061 99.5959494,105.06421 C99.8296822,105.497641 100.058832,105.948226 100.281107,106.406816 C100.556087,106.952322 100.658059,107.325141 100.589314,107.538997 C100.533172,107.758572 100.281107,107.983864 99.8525972,108.232029 C98.8821478,108.751231 97.8933664,109.261285 96.8759413,109.777056 C95.8653907,110.282535 94.8880668,110.806311 93.9508441,111.348386 C94.0024028,112.169503 94.0482328,112.971178 94.088334,113.74312 C94.1284352,114.531072 94.1685364,115.285859 94.1971802,116.024636 C94.9625405,115.614077 95.7107146,115.257269 96.4474312,114.953066 C97.1795648,114.650008 97.9678401,114.356098 98.8248603,114.069051 C99.2705567,113.908944 99.6589656,113.872348 99.9843583,113.968412 C100.309751,114.063332 100.617957,114.319503 100.921581,114.735779 C101.26416,115.203519 101.55518,115.644955 101.801516,116.076098 C102.046706,116.506098 102.291897,116.954396 102.54969,117.404981 C102.783423,117.926471 102.880812,118.297003 102.834982,118.522295 C102.789152,118.751019 102.543962,118.984316 102.12118,119.229051 C101.052196,119.830593 99.9614433,120.443572 98.8477753,121.079423 C97.7329615,121.715274 96.6708522,122.312242 95.6534271,122.870327 C94.9797267,123.312907 94.4423704,123.506178 94.042504,123.443279 C93.6369089,123.383811 93.271415,123.250008 92.928836,123.038439 C92.5576134,122.807428 92.2024312,122.570699 91.8541235,122.322535 C91.5058158,122.081231 91.1002206,121.749582 90.6316093,121.342455 C90.2432004,121.037109 89.9120789,120.637987 89.6382449,120.162242 C89.3689939,119.677348 89.1753623,119.078093 89.0607874,118.356471 L86.5756579,94.0694761 C87.844002,93.248359 89.3575364,92.3929335 91.1116781,91.4894761" id="Fill-13" fill="#A7DD86"></path>
                    <path d="M109.582298,93.9672367 C109.576569,95.1703218 109.605213,96.4763324 109.6625,97.8852686 C109.725516,99.2907739 109.777075,100.810641 109.81603,102.43229 C110.833455,101.620322 111.696204,100.710003 112.404277,99.7127686 C113.113496,98.7121037 113.672621,97.7503218 114.072488,96.8182739 C114.466626,95.8942314 114.712962,95.0479548 114.804621,94.2783005 C114.895136,93.5166516 114.837848,92.9517048 114.644217,92.592609 C114.272994,92.025375 113.615334,91.849258 112.662071,92.0745505 C112.199188,92.1854814 111.707662,92.3844707 111.170306,92.6875293 C110.638678,92.9860133 110.102468,93.408008 109.582298,93.9672367 M110.159755,109.149896 C110.261727,110.789843 110.370573,112.380614 110.490877,113.917636 C110.61118,115.456944 110.736067,116.974524 110.867828,118.496678 C110.890743,118.949551 110.833455,119.264045 110.701694,119.440162 C110.571079,119.613992 110.267455,119.68604 109.804573,119.651731 C109.297006,119.573965 108.839852,119.525934 108.434257,119.500774 C108.022933,119.48362 107.628796,119.377263 107.240387,119.180561 C106.84052,118.960987 106.536897,118.653354 106.326079,118.257662 C106.119844,117.860827 105.954856,117.301598 105.84601,116.589125 C105.748621,115.804604 105.595091,114.667848 105.400314,113.159418 C105.199808,111.658992 104.983261,109.999604 104.754111,108.169816 C104.520379,106.344604 104.298103,104.465641 104.080411,102.515774 C103.863864,100.573912 103.70346,98.7692846 103.594613,97.0984601 C103.486913,95.435641 103.441083,94.0186995 103.469727,92.8499229 C103.491496,91.6777154 103.617528,90.9732473 103.846678,90.7136463 C104.680783,89.8845239 105.572176,89.0656941 106.519711,88.2594441 C107.462662,87.4440452 108.4228,86.796758 109.398978,86.3061463 C110.370573,85.8178218 111.353626,85.5616516 112.341261,85.5444973 C113.330043,85.5273431 114.284451,85.8807207 115.204488,86.6080612 C115.964119,87.2610665 116.706565,88.0055612 117.437553,88.8323963 C118.163957,89.6729548 118.843387,90.7399495 119.471257,92.0539654 C120.128917,93.476625 120.397022,94.7403218 120.283593,95.826758 C120.146103,97.5799229 119.580103,99.3159335 118.58101,101.026785 C117.580771,102.741066 116.272326,104.434763 114.655674,106.111306 C115.221674,106.663673 115.832358,107.265215 116.507204,107.910215 C117.180905,108.557503 117.866063,109.193354 118.575281,109.831492 C119.289083,110.465056 119.985698,111.072316 120.666273,111.639551 C121.351431,112.212503 121.98503,112.714551 122.579674,113.144551 C123.065472,113.518513 123.333577,113.841013 123.373678,114.120056 C123.408051,114.399098 123.327848,114.721598 123.122759,115.084125 C122.910796,115.53471 122.705706,115.819471 122.488014,115.945269 C122.271468,116.067636 122.007945,116.207157 121.699739,116.363832 C121.362889,116.620003 120.940107,116.766386 120.431395,116.823566 C119.922682,116.862449 119.289083,116.680614 118.529451,116.252902 C118.01501,115.916678 117.408909,115.488965 116.712294,114.958327 C116.015678,114.439125 115.283545,113.869604 114.53537,113.233753 C113.781468,112.611625 113.033294,111.952902 112.273662,111.257582 C111.518613,110.555402 110.816269,109.854364 110.159755,109.149896" id="Fill-15" fill="#A7DD86"></path>
                    <path d="M134.777432,98.7715718 C134.257262,96.823992 133.74855,94.9141516 133.240983,93.0203218 C132.73227,91.1299229 132.269388,89.2886995 131.840878,87.4977952 C131.601416,89.2772633 131.337894,91.2900293 131.058331,93.5395239 C130.767311,95.7867314 130.503789,98.1437261 130.25287,100.610508 C131.726303,99.9209069 133.235254,99.3044973 134.777432,98.7715718 M132.789558,106.472689 C131.532671,107.05479 130.446501,107.65862 129.532194,108.275029 C129.390121,109.398061 129.292732,110.444471 129.218258,111.425694 C129.149513,112.400056 129.081914,113.361838 129.013169,114.290455 C128.961611,114.792503 128.841307,115.103566 128.659133,115.23737 C128.475813,115.371173 128.15042,115.374604 127.693266,115.248806 C127.441202,115.168753 127.150181,115.069258 126.824789,114.960614 C126.499396,114.849684 126.172857,114.723886 125.847465,114.564923 C125.527801,114.410535 125.236781,114.222981 124.978987,113.999976 C124.722339,113.772396 124.544748,113.49221 124.442777,113.18229 C124.33393,112.862077 124.276643,112.286838 124.247999,111.46229 C124.311015,109.549019 124.437048,107.376146 124.619222,104.941386 C124.802542,102.500907 125.007631,100.008965 125.242509,97.4712793 C125.470513,94.9370239 125.734036,92.4679548 126.025056,90.0549229 C126.316076,87.6487527 126.607096,85.5502154 126.904991,83.7593112 C127.012691,83.1291782 127.218926,82.5939654 127.509947,82.1513856 C127.81357,81.7065186 128.338323,81.4446303 129.093372,81.3508537 C130.389214,81.1278484 131.463926,81.0592314 132.320947,81.1484335 C133.172238,81.2273431 133.989157,81.3245505 134.754517,81.4331941 C135.326246,81.5246835 135.731841,81.7499761 135.977032,82.105641 C136.217639,82.4647367 136.399813,82.9644973 136.525845,83.5969176 C136.862696,85.1510931 137.296934,87.0048963 137.822833,89.1629016 C138.348732,91.3151888 138.930772,93.5967048 139.576975,96.0005878 C140.216303,98.406758 140.878546,100.850668 141.576307,103.342609 C142.267194,105.828832 142.936311,108.206412 143.587096,110.461625 C143.730315,110.940801 143.75323,111.297609 143.667299,111.519471 C143.56991,111.742476 143.296076,111.901439 142.833194,112.01237 C142.370311,112.121013 141.930343,112.209072 141.513291,112.266253 C141.096238,112.321146 140.644813,112.289125 140.159015,112.175907 C139.673218,112.084418 139.313453,111.918593 139.068262,111.656705 C138.816198,111.402822 138.55955,110.904205 138.297173,110.161997 C138.033651,109.395774 137.74836,108.55979 137.445882,107.650614 C137.142258,106.751731 136.839781,105.773939 136.537303,104.727529 C135.291874,105.303912 134.046445,105.888301 132.789558,106.472689" id="Fill-17" fill="#A7DD86"></path>
                    <path d="M155.04768,81.2562766 C154.322421,81.5353191 153.57883,81.8120745 152.813469,82.1139894 C152.94523,84.11875 153.08272,86.2287234 153.236251,88.4439096 C153.390927,90.6602394 153.545603,92.9063032 153.710591,95.176383 C153.882453,97.44875 154.058898,99.6925266 154.253676,101.911144 C154.453036,104.134335 154.653542,106.23859 154.870089,108.229628 C154.927376,108.611596 154.91019,108.894069 154.808218,109.056463 C154.705101,109.224574 154.533238,109.318351 154.293777,109.35266 C154.05317,109.377819 153.767878,109.364096 153.41957,109.295479 C153.076991,109.238298 152.688583,109.169681 152.27153,109.102207 C151.431696,108.950106 150.739664,108.680213 150.186267,108.294814 C149.631724,107.912846 149.317789,107.185505 149.237587,106.113936 C149.019894,104.847952 148.797619,103.301782 148.568469,101.491436 C148.340465,99.6845213 148.122773,97.7964096 147.917684,95.8316755 C147.711449,93.8760904 147.529275,91.9147872 147.363141,89.9409043 C147.198153,87.9704521 147.066392,86.1772606 146.969004,84.5670479 C146.534765,84.7866223 146.100526,84.9890426 145.672016,85.1800266 C145.243506,85.3618617 144.889469,85.5471277 144.615635,85.7266755 C144.238684,85.961117 143.907562,86.0548936 143.632583,86.024016 C143.347291,85.9897074 143.004712,85.7815691 142.593388,85.384734 C142.159149,85.0004787 141.724911,84.4869947 141.302129,83.8419947 C140.873619,83.1947074 140.525311,82.6652128 140.250332,82.2397872 C139.970769,81.7892021 139.87338,81.470133 139.942125,81.284867 C140.01087,81.0881649 140.175858,80.908617 140.456566,80.7290691 C141.325044,80.263617 142.318409,79.7821543 143.450409,79.2858245 C144.581263,78.7894947 145.746489,78.3171809 146.928902,77.8608777 C148.117044,77.4125798 149.289145,76.9905851 150.448643,76.6028989 C151.602413,76.2094947 152.642753,75.8847074 153.55706,75.6079521 C154.018797,75.4993085 154.379708,75.479867 154.636356,75.5450532 C154.898732,75.6102394 155.145068,75.7623404 155.373072,75.9933511 C155.81304,76.4119149 156.218635,76.8705053 156.584129,77.3839894 C156.955352,77.9054787 157.270433,78.4166755 157.532809,78.9267287 C157.767688,79.4196277 157.863931,79.7627128 157.818101,79.955984 C157.778,80.1503989 157.521352,80.3379521 157.047012,80.5094947 C156.442056,80.7313564 155.772939,80.9886702 155.04768,81.2562766" id="Fill-19" fill="#A7DD86"></path>
                    <path d="M163.760299,101.905082 C162.914736,100.642529 162.252493,99.0048697 161.760967,97.0012527 C161.263712,94.9907739 160.88676,92.8041782 160.612926,90.4483271 C160.337947,88.0844707 160.161501,85.6645771 160.069841,83.1692048 C159.98391,80.6829814 159.93808,78.3282739 159.932351,76.1233803 C159.920894,75.4932473 160.035469,75.0826888 160.263473,74.903141 C160.492623,74.7155878 160.881032,74.6778484 161.418388,74.7784867 C161.931683,74.8585399 162.440396,75.0037793 162.94338,75.1970505 C163.452092,75.3880346 163.955076,75.6339122 164.451185,75.9186729 C165.531627,76.5796835 166.074712,77.6009335 166.085023,78.9755612 C166.085023,80.2038059 166.10221,81.5784335 166.130853,83.0983005 C166.159497,84.6090186 166.211056,86.1380346 166.291258,87.6830612 C166.371461,89.2258005 166.490619,90.7399495 166.639566,92.2277952 C166.788513,93.7110665 166.976416,95.0388059 167.194109,96.2087261 C167.416384,97.3740718 167.685635,98.3301356 168.005299,99.0711995 C168.324963,99.8145505 168.690457,100.222822 169.113238,100.297157 C169.650594,100.368061 170.044732,99.9494973 170.307109,99.0448963 C170.564902,98.1357207 170.724161,96.9269176 170.781449,95.4207739 C170.844465,93.9192048 170.827279,92.1934867 170.741347,90.2459069 C170.650833,88.3040452 170.524801,86.3198697 170.364396,84.3128218 C170.205137,82.296625 170.027546,80.3524761 169.822457,78.4792314 C169.621951,76.6025559 169.44436,74.9660399 169.2851,73.5639654 C169.170526,72.9647101 169.256457,72.5598697 169.536019,72.3483005 C169.816728,72.137875 170.205137,72.0578218 170.706975,72.1092846 C171.209959,72.1721835 171.758772,72.3002686 172.359145,72.5198431 C172.952643,72.7394176 173.507185,72.9532739 174.021627,73.1785665 C174.575023,73.451891 174.92906,73.7229282 175.078007,74.0088324 C175.232683,74.2844441 175.334655,74.717875 175.391943,75.3136995 C175.791809,78.7159601 176.129805,81.8952154 176.403639,84.8434601 C176.671744,87.7917048 176.809234,90.4597633 176.814963,92.855641 C176.820691,95.2446569 176.683202,97.3260399 176.392181,99.0883537 C176.10689,100.852955 175.621092,102.212715 174.92906,103.179072 C174.410036,103.789763 173.855493,104.257503 173.260849,104.585721 C172.661623,104.921944 171.942092,105.13237 171.11257,105.250162 C169.438631,105.472024 167.982384,105.269604 166.736955,104.639471 C166.211056,104.366146 165.702343,104.011625 165.194777,103.587343 C164.691793,103.15963 164.211724,102.598114 163.760299,101.905082" id="Fill-21" fill="#A7DD86"></path>
                    <path d="M182.179474,97.5512181 C181.333911,96.2886649 180.66594,94.6510053 180.174413,92.6473883 C179.682887,90.6369096 179.300207,88.4526011 179.032102,86.0944628 C178.757122,83.7306064 178.574948,81.3107128 178.489017,78.8153404 C178.397357,76.329117 178.351527,73.9744096 178.345798,71.7729468 C178.33434,71.139383 178.448915,70.7288245 178.676919,70.5492766 C178.906069,70.3617234 179.294478,70.323984 179.837563,70.4269096 C180.34513,70.5035319 180.853843,70.6499149 181.356826,70.8431862 C181.865539,71.0376011 182.368523,71.2800479 182.870361,71.5648085 C183.945073,72.2258191 184.493887,73.2470691 184.49847,74.623984 C184.504199,75.8499415 184.521385,77.2245691 184.550029,78.7410053 C184.572944,80.2551543 184.630231,81.7841702 184.710434,83.331484 C184.790636,84.8719362 184.905211,86.3860851 185.053013,87.8739309 C185.207689,89.3572021 185.389863,90.6849415 185.613284,91.8571489 C185.82983,93.0202074 186.099081,93.9728404 186.424474,94.7173351 C186.738409,95.4606862 187.109632,95.8666702 187.532413,95.9432926 C188.064041,96.0141968 188.463907,95.595633 188.720555,94.6910319 C188.978349,93.7818564 189.137608,92.5753404 189.200624,91.0669096 C189.257911,89.5653404 189.246454,87.8430532 189.154794,85.8920426 C189.070009,83.9501809 188.943976,81.9694362 188.783571,79.9589574 C188.624312,77.9427606 188.435264,75.9986117 188.241632,74.125367 C188.041126,72.2521223 187.857806,70.6121755 187.698547,69.2123883 C187.583972,68.6142766 187.669903,68.2060053 187.949466,67.997867 C188.230174,67.7862979 188.618583,67.7073883 189.120421,67.7554202 C189.623405,67.8183191 190.172219,67.9464043 190.772591,68.1659787 C191.371818,68.3855532 191.920632,68.5994096 192.435073,68.8247021 C192.98847,69.0980266 193.342506,69.3724947 193.497183,69.6549681 C193.64613,69.9305798 193.748102,70.3640106 193.805389,70.9598351 C194.210984,74.3620957 194.54898,77.5413511 194.817085,80.4895957 C195.085191,83.4378404 195.222681,86.1093298 195.228409,88.5040638 C195.234138,90.8930798 195.096648,92.9744628 194.811357,94.7344894 C194.526065,96.4990904 194.034539,97.8622819 193.348235,98.8252074 C192.829211,99.4358989 192.274668,99.9036383 191.674296,100.231856 C191.075069,100.564649 190.361268,100.778505 189.527162,100.896298 C187.853223,101.11816 186.39583,100.915739 185.15613,100.285606 C184.624502,100.012282 184.11579,99.6577606 183.613952,99.235766 C183.105239,98.8091968 182.630899,98.24425 182.179474,97.5512181" id="Fill-23" fill="#A7DD86"></path>
                    <path d="M203.849598,71.6816862 C203.849598,72.8847713 203.878241,74.1907819 203.935529,75.5997181 C203.998545,77.0052234 204.050104,78.5250904 204.089059,80.1467394 C205.106484,79.3347713 205.969233,78.4244521 206.677306,77.4272181 C207.386525,76.4265532 207.94565,75.4647713 208.345517,74.5327234 C208.739654,73.6086809 208.98599,72.7624043 209.07765,71.99275 C209.168164,71.2311011 209.116606,70.6661543 208.911517,70.3104894 C208.546023,69.7398245 207.888363,69.5637074 206.9351,69.789 C206.472217,69.8999309 205.980691,70.1023511 205.443334,70.4019787 C204.911707,70.7004628 204.381225,71.1224574 203.849598,71.6816862 M204.432784,86.8643457 C204.534755,88.5042926 204.643602,90.0950638 204.769634,91.6320851 C204.884209,93.1713936 205.014824,94.6889734 205.140857,96.2111277 C205.163772,96.664 205.106484,96.9784947 204.980452,97.1546117 C204.844108,97.3284415 204.546213,97.4004894 204.077602,97.3661809 C203.570035,97.2884149 203.11861,97.240383 202.707286,97.2152234 C202.295962,97.1980691 201.901824,97.0917128 201.513415,96.8950106 C201.113549,96.6754362 200.809926,96.3678032 200.599108,95.9721117 C200.392873,95.5752766 200.233614,95.0160479 200.119039,94.3035745 C200.02165,93.5190532 199.866974,92.3822979 199.673343,90.873867 C199.472836,89.3734415 199.262019,87.7140532 199.02714,85.884266 C198.793407,84.0590532 198.571132,82.1800904 198.35344,80.2325106 C198.136893,78.2883617 197.976488,76.483734 197.861913,74.8129096 C197.758796,73.1523777 197.714112,71.7331489 197.742755,70.5643723 C197.764525,69.3921649 197.890557,68.6876968 198.119707,68.4280957 C198.959541,67.5989734 199.850934,66.7801436 200.787011,65.9738936 C201.735691,65.1584947 202.695828,64.5112074 203.672006,64.0205957 C204.64933,63.5322713 205.626654,63.2761011 206.61429,63.2589468 C207.6088,63.2417926 208.55748,63.5951702 209.477517,64.3225106 C210.237148,64.975516 210.979594,65.7200106 211.710581,66.5468457 C212.436986,67.3874043 213.116415,68.4543989 213.744286,69.7718457 C214.401946,71.1910745 214.670051,72.4547713 214.556622,73.5412074 C214.424861,75.2943723 213.853132,77.030383 212.854039,78.741234 C211.8538,80.455516 210.545355,82.1492128 208.928703,83.8257553 C209.494703,84.3781223 210.105387,84.9796649 210.774504,85.6246649 C211.453934,86.2719521 212.139091,86.9100904 212.854039,87.5493723 C213.562112,88.1795053 214.258727,88.786766 214.945031,89.354 C215.62446,89.9269521 216.258059,90.429 216.852703,90.859 C217.344229,91.2329628 217.606606,91.5554628 217.640978,91.8345053 C217.681079,92.1135479 217.600877,92.4360479 217.395788,92.7985745 C217.183824,93.2491596 216.978735,93.5339202 216.761043,93.6597181 C216.544496,93.7820851 216.280974,93.9216064 215.972768,94.0782819 C215.630189,94.3344521 215.213136,94.4808351 214.704423,94.538016 C214.195711,94.5768989 213.562112,94.3950638 212.80248,93.9673511 C212.293768,93.6311277 211.687666,93.2034149 210.985322,92.6727766 C210.288707,92.1535745 209.562302,91.5840532 208.808399,90.9482021 C208.060225,90.3260745 207.306322,89.6673511 206.546691,88.9720319 C205.791642,88.2698511 205.089298,87.5688138 204.432784,86.8643457" id="Fill-25" fill="#A7DD86"></path>
                    <path d="M46.8018984,146.778785 C39.3190117,145.592854 237.040915,107.906098 237.040915,107.906098 C235.701534,111.707481 234.174251,114.258891 232.46021,115.555753 C230.74617,116.840035 228.014704,117.751497 224.281854,118.293572 C217.635364,119.065513 209.878643,120.133652 201.0094,121.500274 C192.140157,122.860035 182.703769,124.378758 172.728878,126.031285 C162.74253,127.695247 152.381522,129.482721 141.647,131.409715 C130.905603,133.330992 120.357838,135.245407 109.985372,137.138093 C99.6129065,139.029636 89.655202,140.92804 80.1248619,142.819582 C70.5830644,144.711125 61.9773437,146.427694 54.284785,147.963572 C51.2771939,148.437029 49.1713073,148.296364 47.9831656,147.538146" id="Fill-27" fill="#A7DD86"></path>
                </g>
            </g>
        </g>
    </g>
</svg>
